<?xml version="1.0" standalone="no"?>
<!DOCTYPE svg PUBLIC "-//W3C//DTD SVG 1.1//EN" "http://www.w3.org/Graphics/SVG/1.1/DTD/svg11.dtd" >
<svg xmlns="http://www.w3.org/2000/svg">
<metadata>
This is a custom SVG webfont generated by Font Squirrel.
Foundry     : as an unpublished work by Bitstream Inc
</metadata>
<defs>
<font id="webfontlqg3y4us" horiz-adv-x="500" >
<font-face units-per-em="1000" ascent="800" descent="-200" />
<missing-glyph horiz-adv-x="215" />
<glyph unicode=" "  horiz-adv-x="215" />
<glyph unicode="&#x09;" horiz-adv-x="215" />
<glyph unicode="&#xa0;" horiz-adv-x="215" />
<glyph unicode="!" horiz-adv-x="297" d="M150 -18q-23 0 -40.5 16t-17.5 42q0 25 16.5 42t40.5 17q25 0 41.5 -17t16.5 -42q0 -26 -17 -42t-40 -16zM149 209q-15 0 -23 69q-9 82 -16 173.5t-7 183.5q0 104 46 104q45 0 45 -104q0 -91 -6.5 -183t-16.5 -174q-8 -69 -22 -69z" />
<glyph unicode="&#x22;" horiz-adv-x="303" d="M43 645q-1 5 -1 9v10q0 50 39 50q40 0 40 -49q0 -4 -0.5 -9t-1.5 -11l-30 -223h-16zM183 645q-1 5 -1 9v10q0 50 39 50q40 0 40 -49q0 -4 -0.5 -9t-1.5 -11l-30 -223h-16z" />
<glyph unicode="#" horiz-adv-x="689" d="M193 228h-123l18 56h122l44 141h-129l18 56h129l71 230h62l-73 -230h140l71 230h62l-73 -230h123l-19 -56h-121l-44 -141h129l-19 -56h-128l-71 -228h-60l71 228h-140l-71 -228h-60zM410 284l44 141h-139l-44 -141h139z" />
<glyph unicode="$" d="M230 -2q-74 1 -114.5 31t-40.5 107q0 45 28 45q15 0 22.5 -13.5t12.5 -30.5q2 -8 4 -17t6 -17q4 -10 10 -19t15 -16.5t23 -13t34 -7.5v248q-35 19 -61 37.5t-43 39.5t-25.5 45.5t-8.5 54.5t8.5 57t25.5 48.5t43 36t61 18.5v78q0 18 17 18h9q16 0 16 -18v-76 q60 -3 97.5 -26.5t37.5 -64.5q0 -23 -5.5 -31.5t-15.5 -8.5t-17.5 8.5t-15.5 19.5q-10 14 -18.5 24.5t-17.5 17.5t-19.5 11t-25.5 6v-225q39 -21 67.5 -40t47.5 -40.5t28.5 -49t9.5 -64.5q0 -29 -9 -57.5t-27.5 -52t-47.5 -40t-69 -21.5v-97q0 -18 -17 -18h-9q-16 0 -16 18 v95zM272 48q38 9 59.5 41t21.5 69q0 41 -23 67t-58 47v-224zM230 588q-30 -8 -48 -34t-18 -58q0 -42 19 -66.5t47 -41.5v200z" />
<glyph unicode="%" horiz-adv-x="678" d="M159 301q-30 0 -57 13t-47 37t-31.5 56.5t-11.5 71.5q0 37 11.5 68t31 53t45 34t54.5 12q30 0 56 -12.5t45 -35.5t30 -55.5t11 -72.5q0 -37 -10.5 -68t-29 -53.5t-43.5 -35t-54 -12.5zM160 337q38 0 52.5 28.5t14.5 82.5q0 35 -6 64.5t-16.5 51t-25 33.5t-30.5 12 q-36 0 -52 -29.5t-16 -80.5q0 -75 24 -118.5t55 -43.5zM136 13q0 12 52 99q53 88 150 264l66 124l44 82q16 32 25 47t14 15q4 0 11 -2.5t13 -6.5t11 -8t5 -8q0 -10 -64 -116q-65 -108 -186 -331q-49 -90 -70 -136.5t-32 -47.5q-11 0 -25 8q-14 10 -14 17zM520 -14 q-30 0 -57 13t-47 37t-31.5 56.5t-11.5 71.5q0 37 11.5 68t31 53t45 34t54.5 12q30 0 56 -12.5t45 -35.5t30 -55.5t11 -72.5q0 -37 -10.5 -68t-29 -53.5t-43.5 -35t-54 -12.5zM521 22q38 0 52.5 28.5t14.5 82.5q0 35 -6 64.5t-16.5 51t-25 33.5t-30.5 12q-36 0 -52 -29.5 t-16 -80.5q0 -75 24 -118.5t55 -43.5z" />
<glyph unicode="&#x26;" horiz-adv-x="712" d="M155 460q-17 19 -27.5 46.5t-10.5 66.5q0 34 13.5 64t36.5 52.5t54.5 35.5t66.5 13q28 0 50 -6.5t38 -16t24.5 -22t8.5 -24.5q0 -19 -16 -19q-9 0 -20 8q-13 9 -32.5 19.5t-48.5 10.5q-21 0 -38.5 -9.5t-29.5 -25t-18.5 -34.5t-6.5 -37t3.5 -36.5t12 -34t23 -26 t35.5 -12.5q5 -1 9 -2t4 -6q0 -44 -32 -44q-13 0 -60 14q-57 -53 -57 -163q0 -52 14.5 -96t41.5 -76.5t65.5 -51t86.5 -18.5q43 0 78 14t60 39.5t38.5 61t13.5 78.5q0 46 -17.5 75.5t-53.5 29.5q-35 0 -59 -26.5t-24 -67.5v-10q0 -5 1 -11q-2 -2 -6 -2h-5q-14 0 -25.5 12.5 t-11.5 35.5q0 39 31.5 68.5t85.5 60.5l20 12l20 10l52 30q27 16 48.5 35.5t35.5 43.5t14 53q0 28 -11 41.5t-28 13.5q-14 0 -22.5 -4t-18.5 -4q-7 0 -11 6t-4 14q0 7 6.5 14.5t16.5 13.5t23 10t25 4q42 0 66.5 -25t24.5 -75q0 -70 -48.5 -120t-149.5 -95l1 -7 q104 -31 104 -149q0 -38 -17 -76.5t-49 -71.5q-39 -40 -97 -60t-130 -20q-57 0 -107.5 17.5t-88.5 51t-60.5 82.5t-22.5 111q0 66 27.5 120t84.5 90v6z" />
<glyph unicode="'" horiz-adv-x="163" d="M43 645q-1 5 -1 9v10q0 50 39 50q40 0 40 -49q0 -4 -0.5 -9t-1.5 -11l-30 -223h-16z" />
<glyph unicode="(" horiz-adv-x="324" d="M168 -30q-45 69 -68 150.5t-23 172.5t23 172.5t68 150.5q42 63 82 94t58 31q14 0 14 -13q0 -9 -7.5 -16t-17.5 -15q-37 -30 -64 -68.5t-44 -87t-25.5 -110t-8.5 -138.5t8.5 -138.5t25.5 -110t44 -87t64 -68.5q10 -8 17.5 -15t7.5 -16q0 -13 -14 -13q-18 0 -58 31t-82 94z " />
<glyph unicode=")" horiz-adv-x="324" d="M2 -142q0 9 7.5 16t17.5 15q37 30 64 68.5t44 87t25.5 110t8.5 138.5t-8.5 138.5t-25.5 110t-44 87t-64 68.5q-10 8 -17.5 15t-7.5 16q0 13 14 13q18 0 58 -31t82 -94q45 -69 68 -150.5t23 -172.5t-23 -172.5t-68 -150.5q-42 -63 -82 -94t-58 -31q-14 0 -14 13z" />
<glyph unicode="*" horiz-adv-x="452" d="M162 620q15 -23 28 -33t18 -10q8 0 8 8q0 14 -6.5 26.5t-15 24.5t-15 24t-6.5 25q0 25 16 41.5t37 16.5q22 0 37.5 -16.5t15.5 -39.5q0 -13 -6.5 -25t-15 -24.5t-15 -25t-6.5 -27.5q0 -8 7 -8q6 0 18.5 10t27.5 32q10 17 21 26.5t29 9.5q22 0 38 -15.5t16 -37.5 q0 -24 -16 -41t-38 -17q-16 0 -32 9t-39 9q-13 0 -17 -2t-4 -9q0 -14 19 -21l45 -17q22 -8 29.5 -22t7.5 -33q0 -23 -15.5 -39t-36.5 -16q-23 0 -37.5 16t-14.5 40q0 8 0.5 14.5t0.5 10.5q0 25 -7 40t-12 15q-6 0 -12.5 -15t-6.5 -40q0 -5 0.5 -11.5t0.5 -13.5 q0 -25 -14.5 -40.5t-38.5 -15.5q-22 0 -36.5 16t-14.5 40q0 29 15 39.5t41 18.5q18 5 31.5 15t13.5 19q0 7 -4.5 9t-17.5 2q-22 0 -38.5 -9t-33.5 -9q-20 0 -35.5 15.5t-15.5 38.5q0 25 14.5 41.5t37.5 16.5q17 0 29 -9.5t21 -26.5z" />
<glyph unicode="+" d="M221 270h-194v57h194v229h61v-229h201v-57h-201v-230h-61v230z" />
<glyph unicode="," horiz-adv-x="249" d="M81 -125q0 4 3.5 10.5t8.5 14.5q2 4 7 12t10 17.5t8.5 20.5t3.5 21q0 8 -3.5 11.5t-11.5 7.5q-17 8 -26 21.5t-9 34.5q0 25 13.5 41.5t34.5 16.5t39.5 -18t18.5 -56q0 -34 -14 -67t-32 -66q-10 -19 -16 -27t-11 -8q-9 0 -16.5 4t-7.5 9z" />
<glyph unicode="-" horiz-adv-x="281" d="M42 238q0 17 10 35t33 18q13 0 28.5 -0.5t37.5 -0.5q14 0 25 0.5t21 1.5q7 1 13 1h10q20 0 20 -17t-10 -35t-34 -18q-17 0 -29 0.5t-26 0.5q-21 0 -36.5 -0.5t-26.5 -1.5q-5 0 -9.5 -0.5t-7.5 -0.5q-19 0 -19 17z" />
<glyph unicode="." horiz-adv-x="249" d="M124 -14q-23 0 -39.5 16.5t-16.5 41.5q0 26 16.5 42.5t39.5 16.5t40 -17t17 -42q0 -24 -17 -41t-40 -17z" />
<glyph unicode="/" horiz-adv-x="357" d="M285 724q4 11 12 14t17 3q11 0 17 -2t6 -12q0 -8 -4 -19l-261 -781q-4 -12 -10.5 -16t-18.5 -4q-23 0 -23 16q0 5 3 16z" />
<glyph unicode="0" d="M263 32q51 0 76.5 63t25.5 181q0 74 -10 134t-27 102t-40.5 65t-50.5 23q-51 0 -76.5 -62t-25.5 -178q0 -77 9.5 -137.5t27 -103t41 -65t50.5 -22.5zM136 45q-92 104 -92 282q0 149 72 245q26 35 60.5 54.5t67.5 19.5q29 0 61 -15.5t57 -43.5q93 -104 93 -281 q0 -71 -16.5 -130t-44 -101t-63 -65.5t-73.5 -23.5q-32 0 -64 15t-58 44z" />
<glyph unicode="1" d="M218 325q0 124 -3.5 183t-21.5 59q-9 0 -26 -7q-8 -3 -15.5 -5.5t-15.5 -2.5q-14 0 -14 20q0 13 8.5 20.5t28.5 15.5q27 11 51.5 18t44 11t33.5 5.5t19 1.5q20 0 20 -19q0 -13 -8 -16t-16 -11q-9 -12 -11 -53t-2 -114v-129q0 -108 1.5 -167.5t7.5 -71.5q7 -11 26 -15 t32 -6q10 -2 15.5 -4t5.5 -13q0 -18 -30.5 -23t-91.5 -5q-66 0 -100.5 4.5t-34.5 22.5q0 11 7 14.5t28 6.5q18 2 30.5 5t18.5 8q9 9 11 45.5t2 102.5v119z" />
<glyph unicode="2" d="M333 75q25 0 41 6t25 23q5 8 8 15l6 14q8 17 14 27.5t17 10.5t13.5 -5.5t2.5 -13.5q0 -41 -36 -131q-10 -25 -17.5 -38.5t-21.5 -13.5q-9 0 -11.5 5.5t-2.5 12.5q0 9 1 13h-288q-44 0 -44 22q0 11 15 29.5t37 41.5l25 25l28 31q47 51 84 95t62 84t38 78t13 77 q0 52 -24 79t-69 27q-35 0 -64.5 -17t-50.5 -42q-7 -8 -12 -15t-10 -13q-10 -14 -17 -22t-15 -8q-6 0 -10.5 5t-4.5 13q0 17 11.5 37.5t31.5 43.5q31 35 70 54t81 19q37 0 68 -12.5t53.5 -35t34.5 -53.5t12 -69q0 -39 -11.5 -73.5t-33.5 -69t-53 -69.5t-71 -74l-77 -76 q-26 -26 -26 -34q0 -3 14 -3h164z" />
<glyph unicode="3" d="M179 315q61 8 94 49t33 99q0 49 -22.5 83.5t-66.5 34.5q-33 0 -60 -13.5t-54 -31.5q-5 -4 -12 -7.5t-14 -3.5q-14 0 -14 17q0 12 11 24t30 27q62 50 132 50q34 0 62.5 -12.5t49 -34.5t31.5 -52t11 -66q0 -39 -15 -71.5t-38 -55.5q-15 -15 -23 -20t-8 -9q0 -5 11 -6.5 t31 -10.5q42 -19 65 -62.5t23 -103.5q0 -51 -17.5 -94t-49 -74t-76 -48.5t-99.5 -17.5q-70 0 -110 18t-40 38q0 19 19 19q5 0 13.5 -2t18.5 -5q17 -5 38 -10.5t49 -5.5q42 0 74 13.5t53.5 36t32.5 53t11 64.5q0 32 -9 59t-27 47t-45 31.5t-64 11.5q-16 0 -31 -2t-24 -2 q-6 0 -7.5 5t-1.5 19t3 16t9 3z" />
<glyph unicode="4" d="M334 67h-286q-14 0 -20.5 3.5t-6.5 20.5q0 32 23.5 72t66.5 103l46 67l145 214q48 73 55 81q15 18 31 18q14 0 17 -12.5t3 -27.5q-1 -20 -1.5 -60.5t-0.5 -95.5v-319h59q14 0 14 -22v-21q0 -21 -15 -21h-58v-129q0 -24 -16 -24h-38q-18 0 -18 24v129zM334 131v359l-11 2 l-53 -74l-54 -80l-60 -90l-67 -108l3 -9h242z" />
<glyph unicode="5" d="M438 632q-5 -25 -8.5 -40t-8.5 -23t-12.5 -10.5t-20.5 -2.5h-168q-15 0 -21.5 -9.5t-11.5 -28.5q-17 -62 -22.5 -96t-5.5 -38q0 -10 10.5 -13.5t18.5 -5.5q65 -14 110.5 -34.5t74 -48t41.5 -61.5t13 -74q0 -45 -16 -88t-46 -76t-72.5 -53t-94.5 -20q-30 0 -55 6.5t-43 16 t-28 19.5t-10 18q0 11 4 19t8 8t8 -2q14 -7 40.5 -19t66.5 -12q36 0 64.5 12t48 32.5t30 49t10.5 61.5q0 35 -8.5 60t-26.5 43t-46 31t-67 24q-14 4 -26 6.5t-23 4.5q-23 5 -36 10.5t-13 19.5q0 13 16.5 92.5t59.5 221.5h266z" />
<glyph unicode="6" d="M267 38q54 0 80 42.5t26 115.5q0 39 -8.5 72t-24 57t-38 37.5t-50.5 13.5q-48 0 -80 -40.5t-32 -106.5q0 -42 9 -77t25.5 -60.5t40 -39.5t52.5 -14zM307 671q-75 -70 -116.5 -148.5t-55.5 -175.5q25 39 62 65.5t82 26.5q39 0 71 -15.5t55.5 -43.5t36 -68t12.5 -88 q0 -80 -43 -146q-29 -45 -69.5 -68.5t-87.5 -23.5q-44 0 -82 20t-66 56.5t-44 88t-16 113.5q0 79 30 162t82 153q44 60 78.5 90.5t44.5 30.5q14 0 27 -16z" />
<glyph unicode="7" d="M102 504q-8 -17 -16 -30.5t-19 -13.5q-18 0 -18 31q0 15 6 45.5t19 66.5q7 20 15 32.5t16 12.5q4 0 9 -4t8 -12h269q32 0 45.5 -3.5t13.5 -20.5q0 -14 -8 -42l-22 -72l-165 -505q-12 -38 -21 -56.5t-26 -18.5q-19 0 -34.5 8.5t-15.5 22.5q0 11 5 26.5t14 38.5q1 4 3.5 9 t8.5 21l18 46l33 86l54 138l80 206q7 17 7 27q0 8 -5.5 12.5t-20.5 4.5h-168q-28 0 -44 -3.5t-27 -24.5z" />
<glyph unicode="8" d="M215 326q-54 -27 -76.5 -63t-22.5 -85q0 -31 10 -58t27.5 -46.5t42 -31t53.5 -11.5q28 0 50 9.5t37 26t22.5 38.5t7.5 47q0 27 -8.5 48.5t-26.5 42t-46.5 40.5t-69.5 43zM175 353q-54 35 -79.5 72.5t-25.5 88.5q0 37 14 69.5t39.5 56.5t60.5 38t77 14q37 0 68 -12.5 t53 -33.5t34 -49.5t12 -61.5q0 -54 -26 -94t-86 -73q69 -41 101 -88t32 -107q0 -39 -15 -73t-42 -59.5t-64.5 -40.5t-82.5 -15q-43 0 -79 14.5t-61.5 39.5t-40 59t-14.5 72q0 60 30.5 104.5t94.5 78.5zM278 393q49 26 67 60t18 76q0 51 -28.5 84.5t-78.5 33.5 q-51 0 -77.5 -31t-26.5 -76q0 -22 7 -40.5t22 -36t39 -34.5t58 -36z" />
<glyph unicode="9" d="M185 -36q75 68 118 146t61 166q-33 -42 -70 -63.5t-79 -21.5q-35 0 -65.5 15.5t-53 44t-35.5 69t-13 91.5q0 50 15.5 93t43 74.5t65.5 49.5t83 18q44 0 80.5 -18.5t62.5 -52.5t40 -83.5t14 -110.5q0 -179 -109 -327q-48 -64 -83 -94t-44 -30q-18 0 -31 21v13zM252 257 q49 0 83 40t34 115q0 88 -34.5 137.5t-98.5 49.5q-48 0 -79 -42.5t-31 -120.5q0 -37 9 -69.5t25.5 -57t39.5 -38.5t52 -14z" />
<glyph unicode=":" horiz-adv-x="249" d="M124 -14q-23 0 -39.5 16.5t-16.5 41.5q0 26 16.5 42.5t39.5 16.5t40 -17t17 -42q0 -24 -17 -41t-40 -17zM124 298q-23 0 -39.5 16.5t-16.5 41.5q0 26 16.5 42.5t39.5 16.5t40 -17t17 -42q0 -24 -17 -41t-40 -17z" />
<glyph unicode=";" horiz-adv-x="249" d="M124 300q-23 0 -39.5 16.5t-16.5 41.5q0 26 16.5 42.5t39.5 16.5t40 -17t17 -42q0 -24 -17 -41t-40 -17zM88 -125q0 4 3.5 10.5t8.5 14.5q2 4 7 12t10 17.5t8.5 20.5t3.5 21q0 8 -3.5 11.5t-11.5 7.5q-17 8 -26 21.5t-9 34.5q0 25 13.5 41.5t34.5 16.5t39.5 -18t18.5 -56 q0 -34 -14 -67t-32 -66q-10 -19 -16 -27t-11 -8q-9 0 -16.5 4t-7.5 9z" />
<glyph unicode="&#x3c;" d="M20 324l460 233v-63l-384 -196l384 -195v-64l-460 233v52z" />
<glyph unicode="=" d="M27 420h456v-57h-456v57zM27 233h456v-57h-456v57z" />
<glyph unicode="&#x3e;" d="M20 103l384 195l-384 196v63l460 -233v-52l-460 -233v64z" />
<glyph unicode="?" horiz-adv-x="405" d="M217 439l21 43q9 19 15.5 37.5t10.5 37t4 39.5q0 49 -16.5 75.5t-53.5 26.5q-59 0 -82 -67q-4 -9 -6 -24.5t-6 -30t-11.5 -25t-23.5 -10.5q-11 0 -19.5 11t-8.5 38q0 26 10.5 53t31.5 48.5t52 35.5t72 14q34 0 62 -11.5t47.5 -33t30 -51t10.5 -65.5q0 -45 -18 -83 t-56 -78q-14 -16 -30.5 -38t-25.5 -60q-3 -14 -4 -30t-1 -28q0 -6 -0.5 -15t-2.5 -17.5t-6.5 -14.5t-12.5 -6q-13 0 -16.5 13.5t-3.5 46.5q0 16 1.5 37.5t5.5 44t11 45t19 42.5zM197 -18q-23 0 -40.5 16t-17.5 42q0 25 16.5 42t40.5 17q25 0 41.5 -17t16.5 -42 q0 -26 -17 -42t-40 -16z" />
<glyph unicode="@" horiz-adv-x="880" d="M383 85q55 0 102 87q26 48 40 101.5t14 93.5q0 47 -13.5 75.5t-45.5 28.5q-24 0 -44 -18t-36 -45.5t-28 -61.5t-20 -66t-12 -58t-4 -39q0 -20 1.5 -37.5t7 -31t14.5 -21.5t24 -8zM745 -29q-129 -108 -280 -108q-86 0 -160 29t-128 82t-84.5 126t-30.5 162q0 85 31.5 166 t87.5 143t134 100t171 38q72 0 133.5 -22.5t106.5 -65t70.5 -105t25.5 -142.5q0 -50 -13 -105.5t-40 -102t-67.5 -77t-95.5 -30.5q-89 0 -95 105q-31 -52 -64 -77.5t-72 -25.5q-52 0 -83 39.5t-31 108.5q0 65 20.5 119.5t58.5 96.5q29 32 67.5 49t68.5 17q44 0 63 -23 t24 -66q5 22 11.5 41t11.5 41h70l-73 -297q-3 -11 -5.5 -23.5t-2.5 -29.5q0 -23 9 -36.5t29 -13.5q44 0 78 26.5t57.5 69.5t36 96t12.5 106q0 64 -21 118.5t-60 95t-94.5 63.5t-124.5 23q-89 0 -159.5 -35t-119 -94.5t-74 -138.5t-25.5 -167q0 -74 24 -139t69.5 -113 t111 -76t147.5 -28q70 0 135.5 23.5t125.5 73.5z" />
<glyph unicode="A" horiz-adv-x="661" d="M57 65q16 7 28.5 35.5t27.5 70.5l83 227l77 210q28 75 31 105q2 14 6 19.5t20 5.5q17 0 24 -11.5t15 -32.5q36 -91 70 -186l67 -192l34 -95l35 -102q6 -17 14 -33.5t21 -24.5l22 -9q6 -2 12.5 -6.5t6.5 -15.5q0 -18 -29.5 -26t-84.5 -8t-85.5 8t-30.5 26q0 12 8.5 16.5 t23.5 9.5q19 6 26.5 15.5t7.5 22.5q0 4 -1.5 17t-6 31t-12 40t-18.5 44q-7 14 -27.5 17t-61.5 3h-77q-41 0 -62 -2t-26 -11q-5 -8 -9 -20l-10 -25q-2 -3 -6 -16l-9 -28q-5 -15 -8.5 -28.5t-3.5 -19.5q0 -23 28 -35l12 -5q12 -5 19 -9.5t7 -15.5q0 -20 -26 -27.5t-77 -7.5 q-50 0 -76 7.5t-26 27.5q0 11 8 15.5t17 8.5zM214 301q27 2 50 2h51h54q25 0 60 -2l-66 187q-25 68 -39 98h-7q-11 -23 -27 -66l-33 -95z" />
<glyph unicode="B" horiz-adv-x="558" d="M35 30q0 11 9.5 16.5t18.5 9.5l15 6q6 2 9 7q9 12 11.5 85.5t2.5 210.5t-2.5 209.5t-11.5 84.5q-3 5 -9 7l-15 6q-9 4 -18.5 9.5t-9.5 16.5q0 26 29 28q17 2 72 4t149 2q99 0 153 -48t54 -128q0 -48 -23.5 -87t-61.5 -64q-12 -8 -21 -11t-14 -5q-16 -5 -16 -9q0 -5 7 -7 t18 -4q4 -1 8 -1.5t9 -2.5q62 -17 96 -61t34 -110q0 -93 -57.5 -145t-170.5 -52q-20 0 -39.5 0.5t-35.5 2.5l-27 2q-13 1 -24 1h-34q-16 0 -28 -1q-8 0 -13 -0.5t-9 -0.5q-55 0 -55 29zM217 401q101 0 142 33t41 107q0 65 -32.5 102.5t-109.5 37.5q-35 0 -52 -2.5t-20 -9.5 q-5 -11 -6.5 -53t-1.5 -116q0 -11 -0.5 -22.5t-0.5 -34.5q0 -29 7 -35.5t33 -6.5zM185 82q4 -11 29.5 -22.5t73.5 -11.5q70 0 108.5 38t38.5 102q0 88 -53 124t-165 36q-14 0 -22 -1.5t-12 -6.5t-4.5 -15.5t-0.5 -29.5q0 -92 2 -144.5t5 -68.5z" />
<glyph unicode="C" horiz-adv-x="600" d="M358 -17q-77 0 -135.5 33t-98 88t-60 125.5t-20.5 144.5q0 63 19 128.5t56.5 118t93 86t128.5 33.5q35 0 61 -7t43 -13l15 -6q7 -2 14 -2q9 0 15.5 1.5t13.5 3.5q9 3 16 3q17 0 31.5 -36t14.5 -93q0 -21 -8 -32t-18 -11q-11 0 -17.5 11.5t-12.5 26.5l-7 16q-4 9 -9 17 q-21 31 -57 50t-90 19q-103 0 -155 -75t-52 -209q0 -53 11.5 -116t38.5 -117.5t71 -91t109 -36.5q48 0 81 17.5t56 47.5l12 17q5 6 7 9q9 14 15.5 23t13.5 9q8 0 15.5 -10t7.5 -29t-4.5 -36.5t-11.5 -30.5t-15 -20.5t-14 -7.5q-2 0 -4.5 1t-4.5 1q-10 0 -28 -10 q-38 -20 -68 -30.5t-69 -10.5z" />
<glyph unicode="D" horiz-adv-x="686" d="M35 30q0 11 9.5 16.5t18.5 9.5l15 6q6 2 9 7q9 12 11.5 85.5t2.5 210.5t-2.5 209.5t-11.5 84.5q-3 5 -9 7l-15 6q-9 4 -18.5 9.5t-9.5 16.5q0 26 29 28q19 2 72 4.5t149 2.5q84 0 150.5 -25.5t112 -74t70 -118.5t24.5 -159q0 -176 -90 -267t-268 -91h-26q-12 0 -25 1 q-15 1 -31.5 1.5t-36.5 0.5q-12 0 -25.5 -1t-34.5 -1q-35 0 -52.5 6.5t-17.5 24.5zM190 83q5 -15 30.5 -22.5t81.5 -7.5q125 0 183.5 79t58.5 224q0 154 -60.5 237.5t-189.5 83.5q-50 0 -71.5 -4t-28.5 -12q-9 -11 -12.5 -83.5t-3.5 -208.5q0 -125 2 -195.5t10 -90.5z" />
<glyph unicode="E" horiz-adv-x="552" d="M361 58q22 0 38.5 3.5t28.5 11t21.5 19.5t17.5 29q5 10 8.5 18.5t6.5 16.5q6 16 11 26.5t16 10.5q14 0 18.5 -12t4.5 -35q0 -32 -5.5 -60.5t-14 -50t-18 -34.5t-17.5 -13q-5 0 -11 3q-9 3 -25 6t-37 3h-299q-36 0 -53 6t-17 24q0 11 9.5 16.5t18.5 9.5l15 6q6 2 9 7 q9 12 11.5 85.5t2.5 210.5t-2.5 209.5t-11.5 84.5q-3 5 -9 7l-15 6q-9 4 -18.5 9.5t-9.5 16.5q0 18 17 24.5t53 6.5h275q36 0 52.5 5t29.5 5q19 -1 31 -29.5t12 -81.5q0 -41 -22 -41q-14 0 -19.5 12t-14.5 29q-14 26 -32 34t-53 8h-98q-37 0 -56.5 -3.5t-23.5 -15.5 q-6 -17 -8 -67t-2 -140q0 -22 3.5 -27.5t20.5 -5.5h104q31 0 45 11t17 40q0 2 0.5 3t0.5 3q3 23 6 36.5t17 13.5q20 0 23.5 -32.5t3.5 -103.5t-3.5 -103.5t-23.5 -32.5q-16 0 -18.5 14t-4.5 37q0 2 -0.5 3t-0.5 3q-3 29 -17 40t-45 11h-104q-16 0 -20 -8t-4 -31v-64 q0 -134 11 -163q7 -18 31.5 -24t70.5 -6h72z" />
<glyph unicode="F" horiz-adv-x="541" d="M314 401q32 0 44 10.5t16 39.5q3 26 7.5 41.5t18.5 15.5q18 0 23.5 -32.5t5.5 -103.5t-5.5 -103.5t-23.5 -32.5q-14 0 -18.5 15.5t-7.5 41.5q-4 29 -16 40t-44 11h-101q-15 0 -20 -10t-5 -37t0.5 -40.5t0.5 -25.5q0 -74 2 -116t14 -49q4 -2 12 -5.5t13 -5.5q10 -4 17 -9 t7 -15q0 -20 -26 -27.5t-77 -7.5t-77 7.5t-26 27.5q0 11 8.5 16t18.5 9q8 3 15 6t10 7q8 12 10.5 85.5t2.5 210.5t-2.5 209t-10.5 85q-3 4 -10 7t-15 6q-10 4 -18.5 9t-8.5 16q0 18 17 25t52 7h294q18 0 31 2.5t21 4.5q5 1 8.5 2t5.5 1q16 0 28 -29t12 -82q0 -20 -7.5 -30.5 t-17.5 -10.5q-8 0 -14 13.5t-14 27.5q-14 26 -32 34t-53 8h-100q-37 0 -56.5 -3.5t-23.5 -15.5q-6 -17 -7.5 -69t-1.5 -145q0 -24 3 -30t20 -6h101z" />
<glyph unicode="G" horiz-adv-x="654" d="M480 253q-9 3 -20 4t-21 4t-17 9.5t-7 20.5q0 20 30 27t93 7q62 0 94 -6.5t32 -27.5q0 -20 -12 -25.5t-35 -10.5q-16 -4 -21 -11.5t-9 -20.5q-2 -5 -3 -14t-2 -16q-3 -20 -8 -44t-17 -51q-26 -57 -80 -86t-127 -29q-72 0 -129 26.5t-96 76.5t-59.5 122.5t-20.5 164.5 q0 80 23 147.5t64 116.5t98.5 76.5t126.5 27.5q41 0 70 -7.5t47 -14.5q17 -7 26 -7q8 0 14.5 1.5t11.5 3.5q9 3 17 3q18 0 31.5 -37t13.5 -97q0 -22 -4 -33.5t-17 -11.5q-14 0 -19.5 11.5t-11.5 26.5l-7 18q-4 10 -9 18q-23 37 -62 55.5t-99 18.5q-111 0 -163.5 -75 t-52.5 -211q0 -35 4 -75.5t14 -81.5t26 -79t40 -67t57 -46.5t77 -17.5q30 0 56 11t45.5 31.5t31 49t11.5 63.5q0 29 -4.5 43t-20.5 19z" />
<glyph unicode="H" horiz-adv-x="676" d="M176 245q0 -80 2.5 -125t14.5 -53q5 -4 13 -7t16 -7t13.5 -9t5.5 -13q0 -20 -26.5 -27.5t-76.5 -7.5q-51 0 -77 7t-26 27q0 11 9.5 16.5t18.5 9.5l15 6q6 2 9 7q9 12 11.5 85.5t2.5 210.5t-2.5 209.5t-11.5 84.5q-3 5 -9 7l-15 6q-9 4 -18.5 9.5t-9.5 16.5q0 20 26 27.5 t77 7.5q50 0 76.5 -8t26.5 -28q0 -10 -8 -15t-16 -8q-6 -2 -13.5 -5t-10.5 -5q-12 -8 -14.5 -52.5t-2.5 -129.5v-16q0 -17 1.5 -27t7.5 -14q12 -8 50 -9.5t109 -1.5q68 0 101.5 2t44.5 9q7 4 8.5 14t1.5 27v31q0 74 -2.5 116.5t-14.5 50.5q-8 5 -14.5 7.5t-8.5 4.5 q-8 3 -16 8t-8 15q0 19 25.5 26.5t76.5 7.5t77 -8t26 -28q0 -11 -8.5 -16t-18.5 -9q-8 -3 -15 -6t-10 -7q-8 -12 -11 -84.5t-3 -209.5t3 -210.5t11 -85.5q3 -4 10 -7t15 -6q10 -4 18.5 -9t8.5 -16q0 -20 -26 -27.5t-77 -7.5t-76.5 7.5t-25.5 27.5q0 10 8 15t16 9l12 5 q6 2 11 5q11 7 13.5 45t2.5 108v96q0 16 -2 23.5t-15 12.5q-9 4 -49 6t-121 2q-56 0 -86 -2.5t-41 -9.5q-9 -8 -9 -49v-52z" />
<glyph unicode="I" horiz-adv-x="276" d="M35 30q0 11 9 16.5t19 9.5q8 3 15 6.5t10 7.5q8 12 10.5 85t2.5 210t-1.5 209t-11.5 84q-3 4 -10 7.5t-15 6.5q-10 3 -19 9t-9 17q0 20 25.5 27.5t76.5 7.5t77.5 -7.5t26.5 -27.5q0 -11 -9 -16.5t-19 -9.5q-19 -7 -24 -14q-9 -12 -11.5 -84t-2.5 -209t2.5 -210t11.5 -85 q5 -7 24 -14q10 -4 19 -9.5t9 -16.5q0 -20 -26 -27t-77 -7t-77 7t-26 27z" />
<glyph unicode="J" horiz-adv-x="460" d="M284 297q0 16 -0.5 33t-0.5 35q0 137 -2 210t-11 84q-4 4 -10.5 7t-14.5 6q-10 3 -19 8.5t-9 16.5q0 20 27 28t77 8q51 0 77.5 -8t26.5 -28q0 -10 -8 -15t-16 -8q-6 -2 -13.5 -5t-10.5 -5q-12 -8 -14.5 -62t-2.5 -158v-145q0 -75 -2 -125t-11 -76q-21 -58 -64.5 -88 t-103.5 -30q-74 0 -118 44t-44 119q0 36 17 57.5t43 21.5q19 0 32.5 -13t13.5 -37q0 -25 -18 -46q-1 -5 -1 -15q0 -31 21 -55.5t60 -24.5q27 0 48.5 15t32.5 41q11 27 14.5 67t3.5 89v54z" />
<glyph unicode="K" horiz-adv-x="609" d="M303 193l-79 97q-26 32 -33 32q-8 0 -8 -16v-107q0 -60 2 -93t13 -41q3 -2 10 -5.5t13 -5.5q9 -4 17 -9t8 -16q0 -20 -26.5 -26.5t-77.5 -6.5t-77.5 6.5t-26.5 26.5q0 11 9 16.5t19 9.5q8 3 15 6.5t10 7.5q8 12 10.5 85.5t2.5 210.5t-1.5 209t-11.5 84q-3 4 -10 7.5 t-15 6.5q-10 3 -19 9t-9 17q0 20 26.5 27.5t77.5 7.5t77.5 -8t26.5 -28q0 -10 -8 -15t-16 -8q-6 -2 -13.5 -5t-10.5 -5q-11 -8 -13 -40.5t-2 -91.5v-91q0 -25 7 -25q8 0 18 13l144 176q36 43 36 50q0 6 -5.5 10.5t-12.5 8.5q-6 3 -11 8t-5 16q0 17 25 25.5t72 8.5 q44 0 67.5 -8.5t23.5 -25.5q0 -11 -6.5 -15.5t-16.5 -7.5q-38 -11 -57 -27t-36 -36l-67 -77l-62 -73q-23 -26 -34.5 -42t-11.5 -24q0 -5 34 -46l143 -175l58 -69q25 -29 48 -39q8 -4 16 -6t15 -4q14 -5 24 -10.5t10 -17.5q0 -16 -21 -24.5t-59 -8.5q-36 0 -52 7 q-12 5 -31 27l-49 59z" />
<glyph unicode="L" horiz-adv-x="512" d="M320 58q47 0 73 13t43 50q4 8 7.5 20t8.5 23.5t11 20t14 8.5q14 0 17.5 -12t3.5 -35q0 -32 -5.5 -60.5t-14 -50t-18.5 -34.5t-20 -13q-14 0 -30 6t-42 6h-251q-35 0 -52 6t-17 24q0 11 9.5 16.5t18.5 9.5q8 3 14.5 6.5t9.5 8.5q9 12 11.5 84.5t2.5 209.5t-2.5 209.5 t-11.5 84.5q-3 5 -9.5 8t-14.5 5t-18 8t-10 17q0 20 26.5 28t77.5 8q50 0 77 -8t27 -28q0 -11 -9 -16.5t-19 -8.5q-8 -3 -15.5 -5.5t-10.5 -7.5q-8 -11 -10.5 -84t-2.5 -210q0 -118 2 -187.5t9 -89.5q8 -17 33.5 -23.5t70.5 -6.5h16z" />
<glyph unicode="M" horiz-adv-x="774" d="M152 578l-4 -233q0 -21 -0.5 -65.5t-0.5 -123.5q0 -40 2.5 -61.5t12.5 -29.5q5 -3 11 -6t11 -5q9 -4 17.5 -9.5t8.5 -14.5q0 -19 -22.5 -26t-66.5 -7q-47 0 -73 6.5t-26 26.5q0 11 10.5 17t27.5 13q22 10 24 40q1 24 4 63t6 98t5.5 139.5t2.5 187.5q0 32 -3 51t-11 26 q-4 3 -10.5 6t-12.5 5q-8 4 -16 9t-8 15q0 18 23.5 25t68.5 7q44 0 54 -9q17 -17 49 -120l105 -324q36 -106 44 -106q3 0 14 25t27 65l34 91l36 100l34 98l26 79l15 45q7 20 12 31q14 25 59 25q48 0 73.5 -6t25.5 -26q0 -11 -7 -15.5t-17 -8.5q-6 -2 -12.5 -4.5t-10.5 -6.5 q-9 -8 -11.5 -36.5t-2.5 -77.5v-53q0 -193 4 -297.5t9 -121.5q2 -9 9 -12t18 -7l11 -4q20 -7 20 -24q0 -36 -107 -36q-45 0 -72 8t-27 25q0 11 7 16t17 9q3 2 7 3t6 3q17 8 20.5 30.5t3.5 67.5v54v50q0 26 -0.5 54.5t-1 65t-1.5 84.5t-2 112q-48 -116 -89 -234l-88 -246 q-15 -42 -25.5 -64.5t-24.5 -22.5q-9 0 -20.5 23.5t-27.5 69.5l-41 114l-58 160z" />
<glyph unicode="N" horiz-adv-x="686" d="M609 35q0 -22 -3.5 -32t-16.5 -10q-16 0 -31 11.5t-29 31.5q-15 21 -71 108l-161 238l-146 212v-229q0 -138 2.5 -212t10.5 -84q4 -4 10.5 -7t14.5 -6q10 -4 19 -9t9 -16q0 -19 -23.5 -26.5t-67.5 -7.5q-45 0 -69 7t-24 26q0 11 9.5 16.5t18.5 9.5l15 6q6 2 9 7 q9 12 11.5 85.5t2.5 210.5t-2.5 209.5t-11.5 84.5q-3 5 -9 7l-15 6q-9 4 -17.5 9t-8.5 16q0 17 26 25.5t61 8.5q26 0 42 -8t30 -28l74 -114l80 -123l94 -142l115 -164v212q0 136 -2 209.5t-12 85.5q-4 4 -10.5 7t-14.5 6q-10 3 -19 8.5t-9 16.5q0 19 24.5 26.5t68.5 7.5 t68 -7.5t24 -26.5q0 -14 -20 -22l-8 -3q-11 -5 -19 -8t-10 -13q-5 -19 -7.5 -137.5t-2.5 -338.5q0 -40 0.5 -69t0.5 -47v-24z" />
<glyph unicode="O" horiz-adv-x="715" d="M376 35q97 0 148.5 75t51.5 211q0 33 -5.5 72.5t-17.5 80.5t-31 79t-46 68t-61.5 48t-78.5 18q-95 0 -146 -76t-51 -208q0 -33 5.5 -73t17 -81t30 -79.5t45 -68.5t61 -48t78.5 -18zM366 -20q-77 0 -136.5 35t-101 91t-63 126.5t-21.5 141.5q0 69 20 135.5t59 118t96 83.5 t131 32q78 0 137.5 -36t100.5 -93t62 -127t21 -138t-19 -134t-57 -118.5t-95.5 -84.5t-133.5 -32z" />
<glyph unicode="P" horiz-adv-x="511" d="M35 30q0 11 9.5 16.5t18.5 9.5l15 6q6 2 9 7q9 12 11.5 85.5t2.5 210.5t-2.5 209.5t-11.5 84.5q-3 5 -9 7l-15 6q-9 4 -18.5 9.5t-9.5 16.5q0 26 29 28q19 2 78 4t153 2q100 0 153 -50.5t53 -141.5q0 -101 -65.5 -156.5t-194.5 -55.5q-8 0 -15.5 0.5t-15.5 0.5 q-12 0 -18.5 -1.5t-9.5 -7t-3.5 -16t-0.5 -29.5q0 -88 2.5 -141.5t10.5 -64.5q3 -4 10 -7t15 -6q10 -4 18.5 -9t8.5 -16q0 -20 -27 -27.5t-77 -7.5q-51 0 -77.5 7t-26.5 27zM178 381q14 -4 27 -5.5t25 -1.5q89 0 135.5 38.5t46.5 118.5q0 76 -38.5 113t-113.5 37 q-26 0 -49 -2.5t-26 -16.5q-3 -11 -5 -81t-2 -200z" />
<glyph unicode="Q" horiz-adv-x="715" d="M238 10q-47 24 -83 63t-61 87.5t-37.5 103.5t-12.5 110q0 69 20 135.5t59 118t96 83.5t131 32q78 0 137.5 -36t100.5 -93t62 -127t21 -138t-19 -134t-57 -118.5t-95.5 -84.5t-133.5 -32q-19 0 -38 3q91 -48 150.5 -75t99.5 -27t53 23q5 9 7 18t5 17t7.5 13t14.5 5 q20 0 20 -31q0 -18 -7 -37t-23 -35t-40.5 -26.5t-58.5 -10.5q-40 0 -85 17.5t-98 44.5l-83 43q-34 18 -56.5 28.5t-36 15.5t-22.5 5q-15 0 -27 -18q-4 -6 -7 -13t-7 -13t-10.5 -10t-16.5 -4q-11 0 -18 8t-7 21t8 26t23 23t36 16t47 6q19 0 42 -3zM376 35q97 0 148.5 75 t51.5 211q0 33 -5.5 72.5t-17.5 80.5t-31 79t-46 68t-61.5 48t-78.5 18q-95 0 -146 -76t-51 -208q0 -33 5.5 -73t17 -81t30 -79.5t45 -68.5t61 -48t78.5 -18z" />
<glyph unicode="R" horiz-adv-x="606" d="M178 277q0 -94 2.5 -145.5t10.5 -62.5q3 -4 10 -7t15 -6q10 -4 18.5 -9t8.5 -16q0 -20 -27 -27.5t-77 -7.5q-51 0 -77.5 7t-26.5 27q0 11 9.5 16.5t18.5 9.5l15 6q6 2 9 7q9 12 11.5 85.5t2.5 210.5t-2.5 209.5t-11.5 84.5q-3 5 -9 7l-15 6q-8 3 -18 8.5t-10 16.5 q0 25 34 29q7 1 29 2t52.5 2t66 1.5t71.5 0.5q49 0 87 -13.5t64 -37t40 -55.5t14 -70q0 -64 -39 -113.5t-107 -72.5v-6q99 -36 133 -156q6 -20 10 -38.5t8 -34.5q9 -42 18 -64t34 -22q5 0 11.5 1.5t10.5 3.5q6 3 12 3q13 0 13 -19q0 -17 -22.5 -32.5t-57.5 -15.5 q-20 0 -40.5 6.5t-31.5 20.5q-12 17 -20 45l-22 83l-12 46q-6 24 -15 47.5t-22 44.5t-33 37q-23 18 -46 22t-58 4q-14 0 -22 -1t-11.5 -6t-4.5 -14.5t-1 -26.5v-21zM180 397q17 -3 29.5 -4t22.5 -1q90 0 129.5 39.5t39.5 112.5q0 66 -33.5 101.5t-107.5 35.5q-42 0 -57 -3 t-18 -15q-4 -16 -4.5 -82.5t-0.5 -183.5z" />
<glyph unicode="S" horiz-adv-x="515" d="M304 410q32 -14 63 -31.5t59 -46.5q48 -50 48 -135q0 -46 -16.5 -85.5t-45.5 -68t-70 -44.5t-90 -16q-35 0 -64.5 6t-52.5 15.5t-39.5 21t-24.5 22.5q-7 10 -16 44.5t-9 87.5q0 46 26 46q13 0 19.5 -8t11 -21.5t8.5 -31.5t12 -39q15 -42 47.5 -65.5t82.5 -23.5 q65 0 100 39.5t35 97.5q0 34 -12 58t-32.5 42t-47.5 32t-56 27q-34 16 -65 33.5t-54 41t-37 55t-14 76.5t14 82.5t39.5 63.5t61.5 40.5t80 14.5q23 0 50 -5t61 -15l14 16q5 5 13 5q7 0 16.5 -11.5t17.5 -30t14 -43t6 -50.5q0 -37 -21 -37q-14 0 -20.5 9t-14.5 23 q-22 38 -56 63.5t-83 25.5q-26 0 -46 -9.5t-34 -26t-21.5 -37.5t-7.5 -45q0 -53 29 -87t95 -63z" />
<glyph unicode="T" horiz-adv-x="537" d="M231 607q0 21 -1 34t-4.5 20t-10.5 9.5t-19 2.5h-44q-27 0 -42 -9.5t-26 -29.5q-6 -10 -10 -22l-9 -22q-5 -16 -11 -31.5t-19 -15.5t-16.5 11t-3.5 33q0 68 17.5 109t38.5 41q11 0 28.5 -4t50.5 -4h237q34 0 51.5 4t28.5 4q21 0 38.5 -41t17.5 -109q0 -22 -3.5 -33 t-16.5 -11t-19 15.5t-11 31.5l-9 22q-4 12 -10 22q-11 20 -26 29.5t-42 9.5h-44q-12 0 -19 -2.5t-10.5 -9.5t-4.5 -20t-1 -34v-242q0 -137 2.5 -210.5t10.5 -85.5q3 -4 10 -7t15 -6q10 -4 18.5 -9t8.5 -16q0 -20 -26.5 -27.5t-76.5 -7.5q-51 0 -77.5 7.5t-26.5 27.5 q0 11 8.5 16t18.5 9q8 3 15 6t10 7q8 12 11 85.5t3 210.5v242z" />
<glyph unicode="U" horiz-adv-x="639" d="M91 434q0 103 -2.5 158.5t-10.5 66.5q-3 5 -10 7l-14 6q-9 4 -18.5 9.5t-9.5 16.5q0 20 29.5 27.5t80.5 7.5q50 0 77.5 -7.5t27.5 -27.5q0 -11 -8.5 -16.5t-18.5 -9.5q-8 -3 -15 -6t-10 -7q-16 -21 -16 -292q0 -28 1 -64t5.5 -73.5t14 -73.5t27.5 -64t46 -45t69 -17 q58 0 90 27t55 81q19 48 19 247v63q0 97 -1.5 150t-9.5 64q-3 5 -10 7t-15 5q-11 4 -19.5 9t-8.5 16q0 18 24.5 25.5t68.5 7.5q45 0 69 -7t24 -26q0 -9 -8 -14.5t-16 -8.5q-6 -2 -13.5 -5t-10.5 -5q-11 -8 -14 -49.5t-3 -119.5q0 -35 0.5 -62.5t0.5 -48.5v-43 q0 -77 -4.5 -136.5t-24.5 -104.5q-24 -56 -76.5 -88.5t-124.5 -32.5q-74 0 -120.5 25t-72.5 69t-35.5 103.5t-9.5 128.5q0 20 0.5 37.5t0.5 34.5v55z" />
<glyph unicode="V" horiz-adv-x="655" d="M38 674q-9 4 -16.5 9t-7.5 16q0 18 30 26t85 8t85 -8t30 -26q0 -12 -8.5 -16.5t-22.5 -9.5l-9 -3q-26 -9 -26 -36q0 -29 13.5 -73.5t36.5 -110.5l13 -38l14 -40l29 -85q13 -36 21 -65q11 -37 18 -50.5t12 -13.5q7 0 24 49q12 37 32 90q56 152 82.5 233.5t26.5 106.5 q0 24 -27 35q-4 2 -12 4q-12 4 -19 8.5t-7 16.5q0 18 26 25t77 7t77 -7t26 -25t-25 -25q-14 -5 -23 -10t-15 -12.5t-11 -17.5t-11 -25q-8 -20 -21 -57l-30 -88l-59 -172l-81 -231q-14 -41 -23.5 -60.5t-21.5 -19.5q-16 0 -45 79.5t-81 238.5l-99 297q-8 25 -15 43.5 t-24 25.5z" />
<glyph unicode="W" horiz-adv-x="933" d="M464 377q-26 -60 -43 -111l-31 -94q-29 -91 -46 -140t-33 -49q-11 0 -19.5 18t-19.5 51l-70 206l-56 178l-27 88l-25 76q-8 26 -15 44t-24 25q-23 9 -32 14.5t-9 17.5q0 18 29 25t83 7t85 -6.5t31 -25.5q0 -13 -10.5 -18.5t-29.5 -12.5q-25 -9 -25 -35q0 -28 14 -75 l36 -116l45 -140q17 -55 28.5 -86.5t18 -43.5t9.5 -12q8 0 22 42l47 137l41 116q-26 88 -44 141t-32 66q-5 5 -11.5 7.5t-12.5 4.5q-9 3 -15 8t-6 16q0 18 28 25.5t82 7.5t84.5 -7t30.5 -26q0 -12 -12 -17t-28 -13q-12 -5 -20 -17t-8 -28q0 -20 20 -83l54 -175q6 -20 12 -37 t11 -33l21 -63q8 -25 14 -40t10 -21.5t7 -6.5q5 0 8.5 9.5t10.5 31.5l28 85l30 96l30 94l26 80q11 36 18 56.5t7 18.5q0 24 -27 35q-7 3 -13 5q-12 4 -19 8t-7 16q0 18 25 25t76 7q50 0 76.5 -7t26.5 -25q0 -10 -6.5 -15t-18.5 -10q-21 -8 -36 -22t-26 -43q-17 -42 -30 -85 l-27 -86q-21 -69 -53 -164l-73 -215q-3 -7 -7 -20t-9 -26t-11 -22.5t-13 -9.5q-16 0 -32 48l-46 141z" />
<glyph unicode="X" horiz-adv-x="624" d="M282 376q-64 118 -104 181.5t-65 92.5q-10 11 -21 16.5t-20 9.5t-14.5 8t-5.5 13q0 20 28 28t85 8q113 0 113 -34q0 -17 -28 -25q-12 -4 -19.5 -8t-7.5 -15q0 -6 5 -20.5t17 -39t33 -61.5l50 -86l90 150q30 48 30 62q0 10 -8.5 14.5t-18.5 8.5q-8 3 -15 7t-7 15 q0 31 101 31q51 0 76 -7t25 -25q0 -11 -9 -15.5t-22 -8.5q-8 -2 -16.5 -5t-15.5 -8q-23 -14 -49 -57l-67 -108l-65 -107l59 -103l58 -98q28 -45 50.5 -78t33.5 -43q5 -5 12.5 -8.5t15.5 -6.5q10 -4 17 -8.5t7 -14.5q0 -20 -28 -27.5t-85 -7.5t-84.5 7.5t-27.5 27.5 q0 15 22 23q17 6 25 9.5t8 14.5q0 7 -7 22.5t-18.5 38l-26.5 49.5l-32 56l-44 78l-57 -88l-45 -76q-20 -34 -31 -56.5t-11 -28.5q0 -14 8 -17l20 -7q20 -7 20 -22q0 -17 -25.5 -23.5t-76.5 -6.5t-76 7t-25 25q0 11 9 15.5t22 8.5q9 2 17.5 5.5t15.5 7.5q10 6 26 25.5 t35 48.5l41 65l45 75z" />
<glyph unicode="Y" horiz-adv-x="581" d="M252 350l-64 114l-54 90q-24 38 -41.5 62.5t-24.5 33.5q-9 10 -18.5 15.5t-17.5 9.5t-13 8.5t-5 13.5q0 20 24 28t75 8q50 0 76.5 -8t26.5 -26q0 -17 -24 -25q-11 -4 -18 -8t-7 -14q0 -11 21 -44l61 -98l59 -94l38 68l31 57l45 79q15 26 15 36q0 8 -8.5 14t-15.5 9 t-13.5 7.5t-6.5 14.5q0 17 24.5 24t69.5 7q80 0 80 -32q0 -9 -11.5 -14t-37.5 -25q-12 -9 -31 -36t-44 -67t-54 -92l-60 -109v-77q0 -191 14 -211q5 -7 24 -14q10 -4 19 -9t9 -16q0 -20 -26.5 -27t-77.5 -7q-50 0 -77 7.5t-27 27.5q0 11 8.5 16t18.5 9q8 3 15 6t10 7 q8 11 10.5 62.5t2.5 147.5v71z" />
<glyph unicode="Z" horiz-adv-x="550" d="M396 609q22 33 22 45q0 11 -17 14.5t-52 3.5h-104q-26 0 -45.5 -2t-39.5 -11q-17 -9 -26 -21.5t-17 -28.5q-14 -29 -24 -46.5t-25 -17.5q-13 0 -17.5 9t-4.5 25q0 13 4 36t12 54q10 36 23.5 54t28.5 18q8 0 29 -6t53 -6h244q43 0 63 -7t20 -30q0 -33 -62 -125l-306 -447 q-13 -18 -18.5 -29.5t-5.5 -16.5q0 -16 73 -16h142q23 0 40 3t30 10t23 19t20 31q5 9 8.5 17.5t6.5 16.5q8 18 12 29.5t20 11.5q14 0 18.5 -10t4.5 -30q0 -36 -6 -66t-15 -52t-20.5 -34.5t-22.5 -12.5q-14 0 -36 4.5t-44 4.5h-298q-55 0 -55 42q0 26 34 77z" />
<glyph unicode="[" horiz-adv-x="303" d="M92 641q0 30 3.5 48.5t13.5 28t26 12.5t42 3h45q32 0 46.5 -3.5t14.5 -20.5q0 -15 -8.5 -21t-27.5 -6h-43q-22 0 -31 -9t-9 -32v-688q0 -23 9 -31.5t31 -8.5h43q19 0 27.5 -6t8.5 -21q0 -17 -14.5 -20.5t-46.5 -3.5h-45q-26 0 -42 3t-26 12.5t-13.5 28t-3.5 48.5v687z " />
<glyph unicode="\" horiz-adv-x="357" d="M24 708q-4 11 -4 19q0 10 6 12t17 2q9 0 17 -3t12 -14l262 -785q3 -11 3 -16q0 -16 -23 -16q-12 0 -18.5 4t-10.5 16z" />
<glyph unicode="]" horiz-adv-x="303" d="M90 -87q22 0 31 8.5t9 31.5v688q0 23 -9 32t-31 9h-43q-19 0 -27.5 6t-8.5 21q0 17 14.5 20.5t46.5 3.5h45q25 0 41.5 -3t26.5 -12.5t13.5 -28t3.5 -48.5v-687q0 -30 -3.5 -48.5t-13.5 -28t-26.5 -12.5t-41.5 -3h-45q-32 0 -46.5 3.5t-14.5 20.5q0 15 8.5 21t27.5 6h43z " />
<glyph unicode="^" horiz-adv-x="550" d="M232 714h87l184 -316h-45l-184 244l-183 -244h-44z" />
<glyph unicode="_" horiz-adv-x="452" d="M9 -178h434v-58h-434v58z" />
<glyph unicode="`" horiz-adv-x="452" d="M114 665q-11 7 -15 12.5t-4 14.5q0 14 11 28t23 14q4 0 8 -1t12 -8l117 -104l18 -17q6 -5 6 -13q0 -7 -5.5 -15t-13.5 -8q-10 0 -33 15z" />
<glyph unicode="a" horiz-adv-x="473" d="M319 254q-23 4 -40 6t-36 2q-63 0 -94.5 -32t-31.5 -86q0 -44 22 -73t66 -29q24 0 45 11.5t36 32t24 48t9 60.5v60zM309 59q-30 -34 -60 -50t-68 -16q-31 0 -57.5 10t-46 29t-31 45.5t-11.5 59.5q0 78 51 122t142 44q23 0 44 -1.5t47 -4.5q1 8 1 15v16q0 72 -16 106 t-65 34q-25 0 -47 -12t-45 -46q-9 -13 -20 -23.5t-29 -10.5q-12 0 -19 7t-7 25q0 17 12.5 35t35 33t53 24.5t66.5 9.5q80 0 116.5 -45.5t36.5 -139.5v-39q0 -20 -1 -38q0 -11 -0.5 -30t-0.5 -29q0 -69 3 -103t19 -34q8 0 14 2q2 1 5 1q10 0 10 -15q0 -8 -5 -17t-13 -17 t-18.5 -13t-21.5 -5q-19 0 -35 15.5t-32 55.5h-7z" />
<glyph unicode="b" horiz-adv-x="517" d="M151 446q29 35 59.5 51.5t70.5 16.5q43 0 78.5 -18t61.5 -50.5t40.5 -78t14.5 -101.5q0 -62 -20 -117.5t-62 -98.5q-30 -32 -69.5 -48.5t-82.5 -16.5q-69 0 -127 48q-15 -8 -25.5 -12.5t-19.5 -4.5q-12 0 -22 11q21 23 25.5 72t4.5 129q0 200 -2.5 306.5t-11.5 121.5 q-2 5 -9.5 7t-15.5 3q-9 2 -16.5 5t-7.5 16q0 11 8 18t23 15q29 13 53.5 17.5t29.5 4.5q12 0 15.5 -8t3.5 -28v-26q-1 -29 -2 -87.5t-1 -146.5h6zM158 387q-8 -17 -10 -46t-2 -70q0 -138 6 -160q8 -34 34 -57.5t68 -23.5q32 0 58 16t44 45t28 69.5t10 89.5 q0 100 -35.5 156.5t-95.5 56.5q-34 0 -60.5 -22.5t-44.5 -53.5z" />
<glyph unicode="c" horiz-adv-x="461" d="M253 -13q-48 0 -87 19t-67.5 52.5t-44 80.5t-15.5 104q0 58 17 107.5t46.5 85.5t70 56t87.5 20q39 0 70.5 -11.5t53.5 -29.5t33.5 -39.5t11.5 -42.5q0 -20 -10.5 -33.5t-25.5 -13.5q-17 0 -28.5 14t-22.5 38q-32 72 -88 72q-27 0 -51.5 -13.5t-43 -39.5t-29 -64 t-10.5 -87q0 -48 12.5 -87.5t32.5 -68.5t46.5 -45t55.5 -16q35 0 54.5 8.5t38.5 24.5q8 7 15 14.5t12 14.5l15 17q8 8 15 8q14 0 14 -20q0 -23 -24 -53q-61 -72 -154 -72z" />
<glyph unicode="d" horiz-adv-x="526" d="M372 331q0 66 -26.5 98.5t-83.5 32.5q-66 0 -102 -58t-36 -158q0 -92 33 -145t95 -53q28 0 53 12.5t46 34.5q15 15 18 30t3 35v171zM373 37q0 14 -7 14q-6 0 -11.5 -4t-11.5 -9q-17 -14 -30.5 -23t-26 -14.5t-26 -7.5t-29.5 -2q-41 0 -76.5 17.5t-61 50t-40 78.5 t-14.5 103q0 60 16.5 109.5t45.5 85.5t67.5 56t82.5 20q42 0 65.5 -12t33.5 -20q7 -5 10 -5q12 0 12 29v81q0 37 -3 57t-16 22l-15 3q-10 2 -17 4.5t-7 16.5q0 12 8.5 19.5t23.5 13.5q29 12 54 17t33 5q11 0 14.5 -8.5t3.5 -27.5q0 -38 -3 -101q-2 -51 -4 -118.5t-2 -147.5 q0 -122 2.5 -188t9.5 -80q2 -5 9.5 -7t15.5 -3q9 -2 16.5 -5t7.5 -16q0 -9 -11.5 -18.5t-28.5 -17.5t-36.5 -13.5t-35.5 -5.5q-11 0 -14.5 8.5t-3.5 27.5v16z" />
<glyph unicode="e" horiz-adv-x="478" d="M143 271q-11 0 -14.5 -4t-3.5 -15q0 -46 10 -84t28.5 -65.5t45 -43t60.5 -15.5q55 0 96 38l15 16q7 7 12 14q8 11 15.5 18.5t14.5 7.5q14 0 14 -18q0 -23 -21 -50q-32 -40 -73 -61.5t-90 -21.5q-46 0 -84.5 19.5t-66.5 53.5t-43.5 80.5t-15.5 101.5q0 60 17 109.5 t46 85.5t69 56t86 20q81 0 129 -52.5t48 -142.5q0 -17 -1.5 -26.5t-5 -14t-10 -5.5t-16.5 -1h-261zM342 313q11 0 15.5 4t4.5 16q0 28 -7.5 52t-21.5 42t-35.5 28.5t-48.5 10.5q-29 0 -49 -13.5t-39 -39.5q-17 -23 -25.5 -47t-8.5 -39q0 -14 17 -14h198z" />
<glyph unicode="f" horiz-adv-x="278" d="M7 469q0 20 12 20h63q-3 66 -3 91q0 79 39.5 120t104.5 41q45 0 70.5 -20.5t25.5 -49.5q0 -18 -8 -28.5t-22 -10.5q-21 0 -34 24l-5 9q-7 13 -16 23t-29 10q-26 0 -42 -23.5t-16 -66.5q0 -8 0.5 -18t1.5 -22q2 -16 3 -36t2 -43h85q12 0 12 -20v-13q0 -19 -12 -19h-84 q0 -166 1 -258t6 -112q2 -10 10 -14t21 -7q11 -3 16.5 -6t5.5 -14q0 -17 -22 -23.5t-68 -6.5q-42 0 -68 6.5t-26 23.5q0 11 6 14t14 6q5 2 10.5 4t9.5 6q11 11 13 66.5t2 158.5q0 39 -0.5 78t-1.5 78h-64q-13 0 -13 19v13z" />
<glyph unicode="g" horiz-adv-x="473" d="M229 205q49 0 77 37t28 97q0 27 -7 52t-20.5 43.5t-32.5 29.5t-44 11q-23 0 -41 -11t-30.5 -29.5t-19.5 -42.5t-7 -51q0 -28 6.5 -52.5t18.5 -43t30 -29.5t42 -11zM89 27q-46 22 -46 72q0 65 74 102q-62 45 -62 130q0 39 14 72.5t38.5 58t58 38.5t72.5 14q19 0 37 -3 t35 -7q13 -3 24 -5t22 -2q20 0 39 9.5t35 28.5q14 -5 14 -29q0 -20 -12 -40.5t-38 -33.5q10 -21 14.5 -39t4.5 -41q0 -39 -15 -73t-40.5 -59t-60.5 -39t-75 -14t-79 17q-20 -9 -28.5 -25.5t-8.5 -35.5q0 -21 17 -35.5t45 -14.5q22 0 44 3l46 6q24 4 50 6.5t52 2.5 q51 0 79.5 -30t28.5 -81q0 -38 -18 -71.5t-51 -59t-79 -40.5t-101 -15q-85 0 -134.5 36t-49.5 102q0 31 13 53t41 42zM125 12q-14 -16 -20 -34t-6 -38q0 -46 34.5 -74.5t100.5 -28.5q38 0 68.5 9.5t51.5 26t32.5 37.5t11.5 45q0 63 -70 63q-11 0 -22 -1.5t-24 -3.5 q-19 -3 -42 -5.5t-52 -2.5q-34 0 -63 7z" />
<glyph unicode="h" horiz-adv-x="521" d="M155 259q0 -88 1 -137t6 -60q4 -6 11 -10t15 -6q8 -3 13.5 -7t5.5 -15q0 -17 -22.5 -22.5t-64.5 -5.5t-65.5 5.5t-23.5 22.5q0 11 5.5 15t13.5 7q8 2 15 6t11 10q6 11 7.5 72.5t1.5 174.5q0 161 -2.5 247t-10.5 100q-2 5 -9.5 7t-16.5 3q-9 2 -16.5 5t-7.5 16q0 11 8 18 t23 15q29 13 54 17.5t30 4.5q13 0 16.5 -8t3.5 -28q0 -5 -0.5 -13t-0.5 -20q-1 -29 -1.5 -78t-0.5 -118v-40q0 -14 8 -14q6 0 10.5 5.5t9.5 13.5l15 22q19 28 42 39t55 11q60 0 94.5 -35.5t49.5 -100.5q5 -23 6 -56t1 -68v-44q0 -23 1 -50.5t1 -62.5q0 -18 3 -28t14 -18 q4 -3 15 -5q8 -2 13.5 -6.5t5.5 -15.5q0 -17 -23.5 -22.5t-65.5 -5.5t-65 5.5t-23 22.5q0 11 5.5 15t13.5 7q8 2 15 6t11 10q6 11 7 63.5t1 149.5q0 44 -3.5 76.5t-14 53.5t-28.5 31.5t-46 10.5q-35 0 -60 -17t-48 -51q-14 -20 -16.5 -39t-2.5 -45v-36z" />
<glyph unicode="i" horiz-adv-x="241" d="M35 24q0 11 5.5 15.5t13.5 6.5q5 2 10.5 4t9.5 6q9 9 11 42t2 92q0 215 -11 237q-2 5 -10 7t-16 3q-9 2 -16 5t-7 16q0 20 29 33q27 13 52.5 17.5t33.5 4.5q11 0 14.5 -8.5t3.5 -27.5q0 -4 -0.5 -10.5t-0.5 -17.5q-1 -33 -2 -101.5t-1 -172.5q0 -51 2 -80.5t11 -38.5 q4 -4 9 -6l11 -4q8 -2 13.5 -6.5t5.5 -15.5q0 -16 -22 -22t-63 -6q-42 0 -65 5.5t-23 22.5zM113 626q-20 0 -33.5 13.5t-13.5 36.5q0 26 14 42t35 16t34.5 -14.5t13.5 -37.5q0 -24 -14.5 -40t-35.5 -16z" />
<glyph unicode="j" horiz-adv-x="227" d="M90 31q0 183 -3 282t-11 114q-3 5 -10.5 7t-15.5 3q-9 2 -16 5t-7 16q0 20 29 33t54 17.5t30 4.5q12 0 15.5 -8t3.5 -28v-29q-1 -34 -1.5 -101.5t-0.5 -171.5q0 -54 0.5 -94t0.5 -66v-40q0 -47 -4.5 -81t-16.5 -56t-32.5 -33t-52.5 -11t-44.5 7.5t-12.5 21.5q0 18 15 18 q8 0 16 -1.5t19 -1.5q16 0 25 7t13.5 23t5.5 41t1 61v61zM113 626q-20 0 -33.5 13.5t-13.5 36.5q0 26 14 42t35 16t34.5 -14.5t13.5 -37.5q0 -24 -14.5 -40t-35.5 -16z" />
<glyph unicode="k" horiz-adv-x="496" d="M156 200q0 -61 1 -95.5t6 -42.5q4 -6 11 -10t15 -6q8 -3 13.5 -7t5.5 -15q0 -17 -23 -22.5t-65 -5.5t-65.5 5.5t-23.5 22.5q0 11 5.5 15t13.5 7q8 2 15 6t11 10q6 11 7.5 72.5t1.5 174.5q0 161 -2.5 247t-10.5 100q-2 5 -9.5 7t-16.5 3q-9 2 -16.5 5t-7.5 16q0 11 8 18 t23 15q14 6 28 10.5t26 7t20 3.5t11 1q13 0 16.5 -8t3.5 -28v-26q0 -15 -1 -36l-3 -108q-1 -66 -1 -147q0 -45 1 -66.5t9 -21.5q16 0 62 52q32 35 48.5 56.5t16.5 32.5q0 6 -7 10.5t-14 7.5q-5 2 -11 5.5t-6 11.5q0 30 96 30q84 0 84 -26q0 -10 -6 -13.5t-17 -8.5l-28 -12 q-16 -7 -33 -23q-26 -23 -46 -44t-33.5 -38t-20.5 -28t-7 -12q0 -7 18 -34q56 -86 97 -137.5t62 -71.5q10 -9 21.5 -12t20.5 -5q10 -2 16 -5t6 -14q0 -14 -23 -21.5t-58 -7.5q-14 0 -23.5 1.5t-17 6t-14.5 12.5t-17 21q-9 12 -19 27l-22 34l-40 58q-22 33 -51 71 q-23 31 -31 31t-9 -7.5t-1 -23.5v-25z" />
<glyph unicode="l" horiz-adv-x="234" d="M84 360q0 141 -2 215.5t-15 85.5q-3 2 -9 3l-11 2q-9 1 -17 4t-8 17q0 11 8 18t23 15q29 13 53 17.5t29 4.5q13 0 16.5 -8t3.5 -28q0 -4 -0.5 -11.5t-0.5 -18.5q-1 -35 -2 -107t-1 -181q0 -151 1 -232.5t8 -93.5q4 -6 11 -10t15 -6q8 -3 13.5 -7t5.5 -15q0 -17 -23 -22.5 t-65 -5.5t-64 5.5t-22 22.5q0 11 5.5 15t13.5 7q8 2 15 6t11 10q6 11 7 64.5t1 149.5v84z" />
<glyph unicode="m" horiz-adv-x="774" d="M156 259q0 -88 1 -137t6 -60q4 -6 11 -10t15 -6q8 -3 13.5 -7t5.5 -15q0 -17 -23 -22.5t-65 -5.5t-65.5 5.5t-23.5 22.5q0 11 5.5 15t13.5 7q8 2 15 6t11 10q6 11 7.5 60t1.5 137q0 74 -3.5 115.5t-8.5 52.5q-3 5 -10 7t-15 3q-9 2 -16.5 5t-7.5 16q0 9 11.5 18.5 t29 17.5t37 13.5t35.5 5.5q11 0 14.5 -8.5t3.5 -27.5v-41q0 -14 8 -14q5 0 9 4.5t9 11.5q29 42 55 59t57 17t52.5 -13.5t35.5 -33.5q9 -14 13 -24t6 -16q3 -6 6 -10t8 -4q8 0 12 5t9 14q2 5 4.5 10t6.5 10q44 62 108 62q45 0 79 -25t48 -68q11 -33 14 -72.5t3 -87.5v-86 q0 -51 2 -80.5t11 -38.5q4 -4 9 -6l11 -4q8 -3 13.5 -7t5.5 -15q0 -17 -23 -22.5t-65 -5.5t-64 5.5t-22 22.5q0 11 5.5 15t13.5 7q8 2 15 6t11 10q5 11 6 64t1 149q0 87 -16 129.5t-65 42.5q-32 0 -63 -23.5t-48 -61.5q-7 -14 -8.5 -49.5t-1.5 -95.5v-42q0 -51 2 -80.5 t10 -38.5q4 -4 10 -6l11 -4q8 -3 14 -7t6 -15q0 -17 -23 -22.5t-65 -5.5t-64 5.5t-22 22.5q0 11 5.5 15t13.5 7q8 2 15 6t11 10q6 11 7 63.5t1 149.5q0 87 -17.5 129.5t-67.5 42.5q-33 0 -61.5 -25.5t-47.5 -63.5q-6 -12 -7 -31.5t-1 -48.5v-19z" />
<glyph unicode="n" horiz-adv-x="521" d="M156 259q0 -88 1 -137t6 -60q4 -6 11 -10t15 -6q8 -3 13.5 -7t5.5 -15q0 -17 -23 -22.5t-65 -5.5t-65.5 5.5t-23.5 22.5q0 11 5.5 15t13.5 7q8 2 15 6t11 10q6 11 7.5 60t1.5 137q0 74 -3.5 115.5t-8.5 52.5q-3 5 -10 7t-15 3q-9 2 -16.5 5t-7.5 16q0 9 11.5 18.5 t29 17.5t37 13.5t35.5 5.5q11 0 14.5 -8.5t3.5 -27.5v-40q0 -14 8 -14q7 0 11.5 5t10.5 14q29 41 56 56.5t59 15.5q44 0 72.5 -20t45 -50t22.5 -65t6 -65v-95q0 -27 0.5 -55.5t0.5 -62.5q0 -13 2 -27t15 -23q4 -3 15 -5q8 -2 13.5 -6.5t5.5 -15.5q0 -17 -23.5 -22.5 t-65.5 -5.5t-65 5.5t-23 22.5q0 11 5.5 15t13.5 7q8 2 15 6t11 10q6 11 7 63.5t1 149.5q0 44 -3.5 76.5t-14 53.5t-28.5 31.5t-46 10.5q-35 0 -59.5 -19.5t-47.5 -53.5q-14 -20 -16.5 -40t-2.5 -46v-29z" />
<glyph unicode="o" horiz-adv-x="521" d="M256 -13q-47 0 -86.5 19.5t-68.5 54t-45.5 81t-16.5 100.5q0 59 17.5 108.5t48.5 85.5t73 56.5t90 20.5q46 0 85.5 -18.5t68 -52t44.5 -80t16 -101.5q0 -59 -17.5 -109.5t-48 -87t-72 -57t-88.5 -20.5zM265 32q66 0 98.5 52.5t32.5 150.5q0 49 -10 91.5t-29.5 73.5 t-47 48.5t-61.5 17.5q-58 0 -91.5 -51.5t-33.5 -143.5q0 -53 10 -97t28.5 -75.5t45 -49t58.5 -17.5z" />
<glyph unicode="p" horiz-adv-x="519" d="M153 160q0 -22 1.5 -38.5t10.5 -29.5q17 -24 43.5 -42t61.5 -18q67 0 99 53t32 144q0 103 -35.5 160.5t-102.5 57.5q-56 0 -83 -37.5t-27 -103.5v-146zM82 205q0 105 -2 160.5t-14 66.5q-2 2 -8 3l-11 2q-9 1 -17.5 4t-8.5 17q0 9 11.5 18.5t29 17.5t37 13.5t35.5 5.5 q12 0 15.5 -8.5t3.5 -27.5v-22q0 -14 7 -14q6 0 12 4.5t17 14.5q23 21 48 35t57 14q41 0 75.5 -17.5t60 -49t39.5 -76.5t14 -100q0 -61 -16 -112t-44.5 -88t-66.5 -57.5t-83 -20.5q-34 0 -58 8.5t-56 26.5l-6 -4q0 -68 1.5 -106t6.5 -47q4 -7 13.5 -10.5t17.5 -5.5t15 -5.5 t7 -13.5q0 -17 -23.5 -24t-68.5 -7t-69 7t-24 24q0 10 5.5 13t13.5 6q8 2 15 6t11 10q5 9 6.5 57t1.5 135v147z" />
<glyph unicode="q" horiz-adv-x="523" d="M369 328q0 137 -108 137q-66 0 -101 -58.5t-35 -156.5q0 -48 9 -88t26 -68.5t41.5 -44t55.5 -15.5q32 0 51.5 12t39.5 34q14 17 17.5 34t3.5 37v177zM364 27q-32 -18 -58 -29t-57 -11q-44 0 -82.5 17.5t-67 51t-44.5 82t-16 109.5t17 110t46.5 82.5t68 51.5t82.5 18 q35 0 67.5 -9.5t70.5 -28.5q33 41 61 41q10 0 19 -10q-23 -21 -27 -87t-4 -181q0 -170 1 -257t6 -106q2 -9 10.5 -13.5t17.5 -7.5q8 -3 13.5 -6t5.5 -13q0 -17 -26 -24t-71 -7t-66.5 7t-21.5 24q0 8 7.5 12.5t14.5 6.5q8 2 17 5.5t13 10.5q5 9 7 48.5t2 107.5z" />
<glyph unicode="r" horiz-adv-x="350" d="M39 432q-6 0 -10.5 6t-4.5 14q0 11 8 18.5t21 15.5q28 17 51.5 23.5t27.5 6.5q11 0 16.5 -21t9.5 -71l7 -3q29 50 61 72t59 22q23 0 36.5 -17t13.5 -45q0 -25 -13 -40.5t-34 -15.5q-17 0 -31.5 12t-16.5 38q-29 -12 -45 -31t-23.5 -45.5t-9 -59.5t-1.5 -72 q0 -80 2 -124.5t7 -52.5t13.5 -10.5t19.5 -4.5q8 -2 19 -5.5t11 -15.5q0 -16 -26.5 -23t-77.5 -7q-43 0 -66 5.5t-23 22.5q0 11 5.5 15t13.5 7q5 2 10.5 4t9.5 6q9 9 12 38.5t3 80.5q0 82 -2.5 138t-6.5 83q-4 24 -12 30t-26 6h-8z" />
<glyph unicode="s" horiz-adv-x="344" d="M254 401q-10 29 -25 50.5t-51 21.5q-33 0 -51 -21.5t-18 -53.5q0 -35 23 -55.5t64 -40.5q29 -14 52.5 -29t40.5 -34t26 -43.5t9 -57.5t-11 -61t-31 -48.5t-48 -31.5t-62 -11q-17 0 -29.5 3t-23.5 7q-6 2 -13 4t-12 2q-8 0 -15 -5.5t-16 -5.5q-6 0 -13.5 9.5t-14 24.5 t-10.5 35t-4 41q0 15 5 24t19 9q12 0 18.5 -11t20.5 -37t36 -41t51 -15q42 0 63 24t21 61q0 15 -4 28t-15 25t-29.5 24t-47.5 27q-23 12 -45 26.5t-39.5 33.5t-28.5 42.5t-11 52.5q0 30 10.5 55.5t29 44.5t44 29.5t56.5 10.5q13 0 26 -3t30 -8q20 11 28 11q7 0 15 -8.5 t15 -23t12 -33.5t5 -41q0 -20 -5.5 -27.5t-16.5 -7.5q-12 0 -18.5 7.5t-11.5 20.5z" />
<glyph unicode="t" horiz-adv-x="285" d="M80 440h-40q-10 0 -10 10v14q0 11 7.5 20.5t21.5 29.5l31 42q16 21 26 32t20 11q16 0 16 -15v-92h92q13 0 13 -20v-13q0 -19 -13 -19h-79q-13 0 -13 -16v-271q0 -53 9 -79t42 -26q11 0 19 4l14 6q5 2 9.5 4t7.5 2q12 0 12 -17q0 -9 -7 -19.5t-19.5 -20t-29 -15.5 t-35.5 -6q-48 0 -71 34t-23 109v311z" />
<glyph unicode="u" horiz-adv-x="521" d="M76 309q0 54 -2 85t-12 39q-3 2 -8 3l-12 2q-9 1 -17 4t-8 17q0 19 30 33q29 13 55 17.5t31 4.5q13 0 16.5 -8t3.5 -28q0 -19 -1 -39l-2 -42q-3 -48 -3 -102v-28q0 -51 2 -90t10 -66q9 -29 28 -46.5t53 -17.5q32 0 58.5 20.5t48.5 52.5q13 20 16 45.5t3 61.5v82 q0 54 -2 84.5t-12 39.5q-3 2 -8 3l-12 2q-9 1 -16.5 4t-7.5 17q0 19 30 33q14 6 28.5 10.5t26.5 7t20 3.5t11 1q12 0 15.5 -8t3.5 -28q0 -23 -1 -47l-2 -48q-3 -50 -3 -100q0 -93 2 -145.5t8 -64.5q3 -5 11 -7t16 -3q9 -2 16.5 -5.5t7.5 -14.5q0 -9 -11.5 -19t-29 -18.5 t-37 -13.5t-35.5 -5q-11 0 -14.5 8.5t-3.5 27.5v36q0 14 -8 14q-6 0 -9 -5l-8 -13q-21 -33 -50.5 -51t-70.5 -18q-145 0 -145 239v84z" />
<glyph unicode="v" horiz-adv-x="510" d="M267 101q64 145 88.5 225.5t24.5 100.5q0 10 -6.5 15.5t-17.5 10.5q-8 3 -17.5 8.5t-9.5 16.5q0 17 22.5 21.5t62.5 4.5q39 0 60.5 -5.5t21.5 -21.5q0 -8 -5 -12t-12 -6q-3 -2 -7.5 -3t-7.5 -3q-16 -8 -23 -21t-15 -35q-69 -206 -110.5 -310t-64.5 -104q-11 0 -27.5 26 t-37 75t-45.5 118l-54 156l-6 18q-8 26 -15 43.5t-15 25.5q-3 3 -8 5t-10 5q-7 3 -13 7.5t-6 13.5q0 17 24 22.5t66 5.5q45 0 69 -6t24 -23q0 -10 -7 -14t-19 -9q-24 -8 -24 -30q0 -36 115 -321h5z" />
<glyph unicode="w" horiz-adv-x="743" d="M259 105q15 32 37 89t51 142q-12 42 -20.5 66t-12.5 29q-8 12 -16 17t-15 8t-12 7t-5 12q0 17 25.5 23t68.5 6q44 0 65 -6t21 -23q0 -11 -5.5 -15t-16.5 -7q-14 -5 -20 -13t-6 -19q0 -15 21.5 -93t80.5 -223h6q61 141 83.5 221.5t22.5 100.5q0 11 -6 15.5t-17 9.5 q-15 7 -21.5 11.5t-6.5 13.5q0 16 19.5 21.5t58.5 5.5q40 0 65 -5.5t25 -21.5q0 -14 -11 -16.5t-20 -7.5q-16 -8 -24 -21t-16 -35l-32 -96q-53 -158 -83.5 -238t-50.5 -80q-17 0 -37.5 48t-53.5 142l-33 93l-10 -26l-12 -28l-16 -40l-22 -57l-18 -48q-9 -24 -17.5 -42.5 t-16.5 -30t-16 -11.5q-22 0 -53 82.5t-82 238.5l-18 54l-9 28q-7 20 -13.5 35.5t-13.5 23.5q-4 5 -10 7t-9 4q-7 3 -12.5 7t-5.5 12q0 17 24.5 23t66.5 6q45 0 69.5 -6t24.5 -23q0 -10 -6.5 -14t-15.5 -7l-8 -3q-19 -8 -19 -30q0 -14 22 -92t81 -224h6z" />
<glyph unicode="x" horiz-adv-x="470" d="M202 247l-44 71l-38 58l-28 41q-11 16 -15 20q-6 7 -13.5 11t-14.5 7t-13.5 7.5t-6.5 14.5q0 17 23.5 22t71.5 5q51 0 75.5 -6t24.5 -23q0 -9 -6 -13l-15 -7q-10 -4 -18.5 -9.5t-8.5 -14.5q0 -13 20 -46.5t55 -87.5q45 63 63 99.5t18 45.5q0 6 -5.5 10.5t-12.5 7.5 q-5 2 -10.5 6.5t-5.5 11.5q0 15 18.5 20.5t56.5 5.5t56 -5.5t18 -20.5q0 -8 -6 -12t-14 -7q-11 -5 -14.5 -6t-9.5 -6q-20 -15 -53 -65l-76 -123q46 -75 80.5 -125.5t49.5 -67.5q8 -9 17.5 -14t17.5 -8q8 -4 12.5 -8t4.5 -12q0 -28 -95 -28q-51 0 -75.5 6.5t-24.5 23.5 q0 8 5 12t13 7q8 4 17.5 8t9.5 16t-19.5 44.5t-61.5 93.5l-71 -105q-24 -36 -24 -46q0 -5 6 -9t12 -7q5 -2 10 -6t5 -12q0 -15 -18.5 -20.5t-56.5 -5.5t-56 5.5t-18 20.5q0 10 6.5 13.5t15.5 6.5q14 5 25 11q20 13 57.5 66.5t83.5 127.5z" />
<glyph unicode="y" horiz-adv-x="485" d="M39 -147q0 20 10.5 32.5t26.5 12.5q14 0 21.5 -7t13.5 -21q5 -11 10 -17.5t17 -6.5q11 0 23.5 9.5t22.5 26.5t16.5 39.5t6.5 48.5q0 45 -41 151l-103 280q-14 40 -26 49q-3 3 -8.5 4.5t-11 3.5t-9 5.5t-3.5 11.5q0 17 21 23t65 6q46 0 71.5 -6t25.5 -23q0 -13 -17 -19 q-11 -5 -19.5 -8.5t-8.5 -16.5q0 -11 9.5 -47.5t34.5 -107.5l46 -130q17 -46 22 -46t13 28l23 73l49 149q17 53 17 79q0 10 -8 15.5t-18 9.5t-18 9t-8 14q0 16 24 21.5t66 5.5q41 0 60.5 -5.5t19.5 -21.5q0 -11 -9.5 -14t-23.5 -10q-18 -9 -26 -29l-19 -54 q-52 -149 -84 -258.5t-56 -173.5q-28 -72 -65 -108.5t-87 -36.5q-31 0 -48.5 17t-17.5 43z" />
<glyph unicode="z" horiz-adv-x="381" d="M244 412q14 22 14 30t-11.5 13t-36.5 5h-43q-22 0 -36.5 -2.5t-24 -8.5t-16.5 -16t-15 -26q-9 -17 -16.5 -28.5t-16.5 -11.5q-8 0 -11.5 6t-3.5 14q0 24 4 46.5t10.5 40t14.5 28.5t16 11q6 0 24.5 -4.5t35.5 -4.5h165q30 0 43 -7t13 -23q0 -14 -11 -32l-27 -46l-184 -308 q-15 -26 -15 -32q0 -12 50 -12h73q16 0 28 2t21 7t16 13.5t14 21.5q4 7 6.5 13t4.5 12q4 11 7.5 18.5t10.5 7.5t13 -6t6 -20q0 -23 -3.5 -44.5t-9.5 -38t-13.5 -26.5t-15.5 -10q-5 0 -9 1t-10 2t-16 2t-26 1h-202q-38 0 -38 29q0 10 7 22.5t18 30.5z" />
<glyph unicode="{" horiz-adv-x="452" d="M196 154q0 37 -4 62.5t-16 42t-34 25t-58 11.5v31q36 4 58 12.5t34 24.5t16 41t4 62v104q0 48 9 80t29 52t53 28.5t81 8.5v-27q-29 0 -47.5 -7t-29.5 -22t-15.5 -39t-4.5 -59v-70q0 -45 -4.5 -78.5t-16.5 -58t-33.5 -41t-54.5 -26.5q35 -10 56.5 -26.5t33 -41t15.5 -59 t4 -79.5v-70q0 -35 4.5 -59t15.5 -39t29.5 -22t47.5 -7v-27q-48 0 -81 8.5t-53 28.5t-29 52.5t-9 80.5v103z" />
<glyph unicode="|" horiz-adv-x="452" d="M197 764h58v-1000h-58v1000z" />
<glyph unicode="}" horiz-adv-x="452" d="M84 -92q29 0 47.5 7t29.5 22t15.5 39t4.5 59v70q0 45 4 79.5t15.5 59t33 41t56.5 26.5q-33 10 -54.5 26.5t-33.5 41t-16.5 58t-4.5 78.5v70q0 35 -4.5 59t-15.5 39t-29.5 22t-47.5 7v27q48 0 81 -8.5t53 -28.5t29 -52t9 -80v-104q0 -37 4 -62t16 -41t34 -24.5t58 -12.5 v-31q-36 -3 -58 -11.5t-34 -25t-16 -42t-4 -62.5v-103q0 -48 -9 -80.5t-29 -52.5t-53 -28.5t-81 -8.5v27z" />
<glyph unicode="~" horiz-adv-x="550" d="M15 301q39 33 76.5 49t71.5 16q31 0 59 -8.5t66 -24.5l50 -20q25 -10 54 -10q35 0 69.5 18t73.5 50v-62q-75 -65 -147 -65q-16 0 -39.5 5.5t-69.5 22.5q-32 12 -59.5 23.5t-57.5 11.5q-34 0 -70.5 -18.5t-76.5 -51.5v64z" />
<glyph unicode="&#xa1;" horiz-adv-x="297" d="M149 622q-25 0 -41.5 17t-16.5 42q0 26 17 42t40 16t40.5 -16t17.5 -42q0 -25 -16.5 -42t-40.5 -17zM149 -18q-45 0 -45 104q0 91 6.5 183t16.5 174q8 69 22 69q15 0 23 -69q9 -82 16 -173.5t7 -183.5q0 -104 -46 -104z" />
<glyph unicode="&#xa2;" d="M244 48q-84 14 -129 82t-45 174t44.5 177t129.5 88v63q0 18 18 18h8q17 0 17 -17v-62q33 -4 59.5 -15.5t44.5 -27.5t28 -36t10 -41q0 -20 -10 -32.5t-23 -12.5q-17 0 -28.5 15t-25.5 50q-9 21 -20.5 34.5t-34.5 18.5v-417q22 2 40.5 10.5t36.5 23.5q8 7 14.5 16 t12.5 16.5t11.5 13t11.5 5.5q16 0 16 -20q0 -15 -10 -34t-28.5 -37t-45 -32.5t-59.5 -20.5v-69q0 -18 -17 -18h-9q-17 0 -17 17v70zM244 521q-54 -17 -75.5 -69.5t-21.5 -128.5q0 -40 6.5 -75.5t19.5 -64t30.5 -47.5t40.5 -26v411z" />
<glyph unicode="&#xa3;" d="M84 330q0 17 13 17h69q-14 42 -22.5 77t-8.5 73q0 30 11 57.5t31 47.5t49.5 32t65.5 12q30 0 54.5 -10t42 -27.5t27.5 -40.5t10 -49q0 -17 -6 -26t-14 -9q-9 0 -13.5 7.5t-6.5 19.5q-1 10 -6 22q-8 23 -26.5 38t-51.5 15q-46 0 -65.5 -28t-19.5 -73q0 -27 6.5 -61 t17.5 -77h96q13 0 13 -17v-8q0 -16 -13 -16h-87q5 -17 8.5 -35.5t3.5 -38.5q0 -29 -5.5 -58.5t-15.5 -57.5l66 -44q32 -21 66 -21q32 0 46 22t22 50q3 11 7 20t14 9q17 0 17 -31q0 -25 -8 -49.5t-24 -43.5t-38.5 -30.5t-50.5 -11.5q-37 0 -74 23t-72 49q-20 -29 -46.5 -47 t-59.5 -18q-39 0 -62.5 24t-23.5 61q0 38 25.5 64.5t63.5 26.5q23 0 44 -6.5t41 -17.5q3 14 5 30t2 32q0 27 -6 52t-16 47h-82q-13 0 -13 17v7zM175 88q-20 15 -36.5 25t-29.5 10q-18 0 -28.5 -12t-10.5 -32q0 -17 11 -29t29 -12q20 0 36.5 13.5t28.5 36.5z" />
<glyph unicode="&#xa4;" d="M98 290q-1 9 -1 18v19v19q0 9 1 18h-44q-25 0 -25 18q0 19 25 19h49q8 54 26.5 99t45.5 77.5t61 50.5t72 18q16 0 29.5 -4t24.5 -8l18 -8q8 -4 14 -4q11 0 20 3.5t17 3.5q17 0 28 -31.5t11 -82.5q0 -37 -21 -37q-9 0 -13.5 5.5t-8.5 14.5t-8 20t-11 22q-18 29 -40 44.5 t-58 15.5q-26 0 -47 -10t-37 -33.5t-25.5 -61.5t-12.5 -94h176q25 0 25 -18q0 -19 -25 -19h-177v-37q0 -18 2 -37h140q25 0 25 -18q0 -19 -25 -19h-137q6 -60 16.5 -102.5t26.5 -68.5t36.5 -38t46.5 -12q55 0 94 51q15 20 22 35.5t18 15.5q19 0 19 -34t-13 -59t-25 -25 q-2 0 -4 1t-4 1q-8 0 -23 -9q-27 -16 -46 -19.5t-43 -3.5q-92 0 -145 65t-67 202h-47q-25 0 -25 18q0 19 25 19h44z" />
<glyph unicode="&#xa5;" d="M212 310l-40 74h-113q-21 0 -21 18q0 19 21 19h92l-51 95q-20 35 -32 47q-6 6 -13.5 10t-14.5 7q-8 3 -15 8t-7 17q0 17 26.5 24t74.5 7q89 0 89 -31q0 -14 -5 -18t-15 -8q-15 -5 -19 -10.5t-4 -13.5q0 -9 25.5 -61t73.5 -140l45 88l29 58q11 23 15.5 37t4.5 24 q0 7 -6 12t-11 7q-7 4 -11.5 10t-4.5 17q0 15 20 22t58 7q37 0 58 -8t21 -23q0 -13 -6.5 -17.5t-16.5 -7.5q-8 -2 -15 -5.5t-13 -8.5q-18 -15 -37 -51l-50 -94h96q22 0 22 -18q0 -19 -22 -19h-115l-38 -74h153q22 0 22 -18q0 -19 -22 -19h-152v-30q0 -78 2 -122t7 -52 q5 -9 21 -14q10 -4 18.5 -9t8.5 -19q0 -31 -91 -31q-48 0 -72 7t-24 24q0 14 6 19t16 9q8 3 15 6.5t11 8.5q4 6 7 48.5t3 123.5v31h-157q-21 0 -21 18q0 19 21 19h153z" />
<glyph unicode="&#xa6;" horiz-adv-x="452" d="M197 200h58v-370h-58v370zM197 698h58v-370h-58v370z" />
<glyph unicode="&#xa7;" horiz-adv-x="452" d="M275 494q37 -19 63 -37.5t42 -39t23 -43.5t7 -50q0 -49 -26 -87.5t-67 -48.5q38 -27 56 -56.5t18 -74.5q0 -35 -12.5 -64.5t-35 -51t-54.5 -33.5t-72 -12q-35 0 -64.5 9t-50.5 23.5t-32.5 34t-11.5 40.5t10.5 34t27.5 13q34 0 45 -37q11 -38 33.5 -54.5t51.5 -16.5 q36 0 64.5 22t28.5 66q0 22 -7 39.5t-21.5 32t-37.5 28t-54 29.5q-38 19 -67 37t-49 39t-30.5 45.5t-10.5 56.5q0 49 23.5 85.5t65.5 50.5q-29 23 -43 53.5t-14 65.5q0 31 11.5 57.5t32.5 46.5t50 31.5t64 11.5q34 0 62 -9.5t48 -25t31.5 -35t11.5 -40.5q0 -20 -10 -32.5 t-26 -12.5q-22 0 -33 13.5t-14 29.5q-5 22 -13 35q-10 14 -26 22.5t-39 8.5q-41 0 -60.5 -24.5t-19.5 -62.5q0 -18 5.5 -31t17 -23t29 -20t42.5 -22zM149 281q45 -33 76.5 -48.5t51.5 -15.5q31 0 47 25t16 59q0 32 -12 55t-48 45q-38 23 -67 34.5t-48 11.5q-14 0 -25 -7.5 t-19 -19.5t-12.5 -27.5t-4.5 -31.5q0 -29 11 -46t34 -34z" />
<glyph unicode="&#xa8;" horiz-adv-x="452" d="M256 640q0 22 13.5 37t33.5 15t32 -13.5t12 -33.5t-13 -35t-33 -15q-19 0 -32 13t-13 32zM105 640q0 22 13.5 37t33.5 15t32 -13.5t12 -33.5t-13 -35t-33 -15q-19 0 -32 13t-13 32z" />
<glyph unicode="&#xa9;" horiz-adv-x="780" d="M148 88q-50 49 -75.5 111t-25.5 132q0 69 25.5 131t74.5 112q48 49 111.5 75t132.5 26q67 0 130 -26t111 -74t74.5 -111.5t26.5 -132.5q0 -68 -25.5 -130t-75.5 -113q-48 -49 -110 -74.5t-132 -25.5q-69 0 -130.5 25t-111.5 75zM178 116q88 -88 212 -88q62 0 115.5 22 t96.5 66q44 45 66.5 100t22.5 115t-23 117t-65 99t-97.5 65.5t-114.5 23.5q-60 0 -116 -23.5t-98 -66.5q-43 -44 -65.5 -99t-22.5 -116q0 -62 23 -117t66 -98zM551 221q-57 -102 -167 -102q-41 0 -77 16t-62.5 44t-42 65.5t-15.5 79.5q0 46 15.5 85.5t42 68t62 44.5t76.5 16 q23 0 41 -5t31.5 -11.5t23 -11.5t16.5 -5q25 0 31 30h18v-153h-20q-33 134 -137 134q-121 0 -121 -182q0 -186 130 -186q83 0 138 85z" />
<glyph unicode="&#xaa;" horiz-adv-x="358" d="M232 559q-18 2 -29 3t-25 1q-44 0 -61.5 -23t-17.5 -59q0 -31 12 -51.5t43 -20.5q19 0 33.5 9t24.5 23t15 31t5 34v53zM229 421q-43 -46 -93 -46q-46 0 -73.5 27t-27.5 74q0 54 37 85t97 31q17 0 30 -1t33 -3q1 6 1 12v10q0 25 -1.5 43.5t-7 30.5t-16 18t-29.5 6 q-17 0 -28.5 -8t-23.5 -22q-5 -5 -8.5 -11t-8 -11t-11 -9t-16.5 -4q-8 0 -15 4t-7 15q0 13 9 26.5t25 24t37.5 17.5t46.5 7q60 0 87 -32t27 -98v-95q0 -48 2 -72t14 -24q3 0 5.5 1t6.5 1q8 0 8 -12q0 -13 -13 -23.5t-28 -10.5q-19 0 -33 13t-22 36h-4z" />
<glyph unicode="&#xab;" horiz-adv-x="430" d="M134 254q35 -70 59.5 -111t24.5 -54q0 -17 -14 -17q-8 0 -22.5 13t-29.5 31l-30 36l-24 30l-34 42q-14 19 -14 30q0 14 22 40l48 59q29 36 50 59.5t32 23.5q10 0 13 -4.5t3 -12.5q0 -13 -24.5 -54t-59.5 -111zM296 254q35 -70 59.5 -111t24.5 -54q0 -17 -14 -17 q-8 0 -22.5 13t-29.5 31l-30 36l-24 30l-34 42q-14 19 -14 30q0 14 22 40l48 59q29 36 50 59.5t32 23.5q10 0 13 -4.5t3 -12.5q0 -13 -24.5 -54t-59.5 -111z" />
<glyph unicode="&#xac;" d="M18 419h465v-245h-56v188h-409v57z" />
<glyph unicode="&#xad;" horiz-adv-x="281" d="M42 238q0 17 10 35t33 18q13 0 28.5 -0.5t37.5 -0.5q14 0 25 0.5t21 1.5q7 1 13 1h10q20 0 20 -17t-10 -35t-34 -18q-17 0 -29 0.5t-26 0.5q-21 0 -36.5 -0.5t-26.5 -1.5q-5 0 -9.5 -0.5t-7.5 -0.5q-19 0 -19 17z" />
<glyph unicode="&#xae;" horiz-adv-x="780" d="M148 88q-50 49 -75.5 111t-25.5 132q0 69 25.5 131t74.5 112q48 49 111.5 75t132.5 26q68 0 131.5 -26.5t111.5 -74.5t73.5 -111.5t25.5 -132.5q0 -66 -26.5 -129.5t-77.5 -114.5q-48 -48 -109 -73t-133 -25q-67 0 -128 25.5t-111 74.5zM178 116q88 -88 212 -88 q62 0 115.5 22t96.5 66q44 45 66.5 100t22.5 115t-23 117t-65 99t-97.5 65.5t-114.5 23.5q-60 0 -115.5 -23.5t-98.5 -66.5q-43 -44 -65.5 -99t-22.5 -116q0 -126 89 -215zM208 162q35 1 48.5 11.5t13.5 37.5v252q0 28 -13.5 37.5t-48.5 11.5v21h192q75 0 115 -27t40 -71 q0 -38 -34 -61t-106 -36q46 -14 69.5 -37.5t34.5 -65.5q4 -15 5.5 -28t4 -23.5t7.5 -16.5t17 -6q33 0 33 65h21v-6q0 -87 -78 -87q-46 0 -62 32q-6 13 -8 26.5t-2.5 27t-1 25.5t-3.5 23q-19 65 -101 65h-16v-121q0 -27 13 -37t48 -12v-20h-188v20zM335 351q12 -1 20 -1h12 q57 0 86 22.5t29 62.5q0 34 -24.5 56.5t-71.5 22.5q-51 0 -51 -35v-128z" />
<glyph unicode="&#xaf;" horiz-adv-x="452" d="M118 660q0 14 12 14h192q11 0 11 -14v-32q0 -15 -11 -15h-192q-12 0 -12 15v32z" />
<glyph unicode="&#xb0;" horiz-adv-x="302" d="M150 434q-29 0 -54 10.5t-43.5 29.5t-29 44t-10.5 54t11 54.5t29.5 44t43.5 29t54 10.5q28 0 53.5 -11t44 -29.5t29.5 -44t11 -53.5t-11 -53t-29.5 -44t-44 -30t-54.5 -11zM151 473q21 0 39 8t31 21.5t20.5 31.5t7.5 38q0 41 -28 69.5t-70 28.5q-41 0 -70 -28t-29 -70 q0 -21 8 -39t21.5 -31.5t31.5 -21t38 -7.5z" />
<glyph unicode="&#xb1;" d="M27 408h196v168h55v-168h196v-57h-196v-168h-55v168h-196v57zM27 77h447v-57h-447v57z" />
<glyph unicode="&#xb2;" horiz-adv-x="324" d="M206 298q17 0 29.5 5.5t23.5 28.5q5 11 9.5 17.5t11.5 6.5q5 0 9.5 -4t4.5 -12t-7 -26.5t-17 -47.5q-6 -17 -13.5 -24.5t-13.5 -7.5t-8.5 3.5t-2.5 8.5t1 7h-187q-27 0 -27 13q0 8 10.5 19t28.5 28q7 6 14 13l16 16q63 62 94.5 109.5t31.5 88.5q0 31 -14.5 47.5 t-46.5 16.5q-38 0 -71 -33q-10 -10 -18 -22.5t-19 -12.5q-10 0 -10 11q0 19 28 49q43 43 100 43q49 0 82 -25t33 -77q0 -47 -31 -85.5t-82 -85.5q-68 -60 -68 -66q0 -2 11 -2h98z" />
<glyph unicode="&#xb3;" horiz-adv-x="324" d="M22 230q0 11 11 11q8 0 21 -5q11 -3 26 -6t32 -3q57 0 83.5 28.5t26.5 71.5q0 41 -23.5 65.5t-69.5 24.5q-9 0 -20 -1.5t-16 -1.5q-3 0 -4 3t-1 12t4 9.5t18 3.5q83 17 83 89q0 32 -16 51.5t-45 19.5q-22 0 -38.5 -9.5t-33.5 -20.5q-8 -5 -12 -5.5t-6 -0.5q-3 0 -5.5 3.5 t-2.5 8.5q0 8 8 15.5t19 15.5q41 30 86 30t75 -28t30 -71q0 -23 -12 -47.5t-44 -41.5q-4 -3 -4 -4t8 -3q45 -11 65 -41.5t20 -66.5q0 -30 -12.5 -56t-34.5 -44.5t-52 -29t-66 -10.5q-46 0 -72 11t-26 23z" />
<glyph unicode="&#xb4;" horiz-adv-x="452" d="M294 715q11 9 19.5 14.5t16.5 6.5q14 0 25 -14.5t11 -28.5q0 -8 -6 -14t-18 -14l-122 -80l-22 -13q-10 -6 -17 -6q-9 0 -15 6t-6 13q0 8 8.5 17t23.5 23z" />
<glyph unicode="&#xb5;" horiz-adv-x="493" d="M94 432h68l-39 -227q-2 -14 -4 -31t-2 -34t2.5 -33t8.5 -28t17 -19.5t28 -7.5q44 0 66.5 32.5t35.5 98.5l48 249h70l-49 -259q-9 -44 -9 -67q0 -24 11.5 -38.5t30.5 -14.5q17 0 26.5 9t19.5 25q6 11 10.5 23.5t7.5 22.5q4 13 8 21t9 8q12 0 12 -18q0 -9 -3.5 -28.5 t-13.5 -44.5q-16 -40 -38.5 -60t-54.5 -20q-27 0 -48 25t-22 79q-40 -106 -118 -106q-40 0 -61.5 28t-27.5 77q-8 -50 -13.5 -91t-8.5 -74q-6 -64 -18 -98.5t-36 -34.5q-18 0 -25.5 11.5t-7.5 31.5q0 15 5.5 42t16.5 67q11 43 24.5 101t27.5 132z" />
<glyph unicode="&#xb6;" horiz-adv-x="452" d="M189 382q-77 4 -119 50.5t-42 119.5q0 37 11.5 68.5t33 54t52.5 35t69 12.5h226v-38h-44v-684h-54v684h-79v-684h-54v382z" />
<glyph unicode="&#xb7;" horiz-adv-x="249" d="M123 260q-23 0 -39 16.5t-16 39.5t16 39t39 16t39 -16t16 -39t-16 -39.5t-39 -16.5z" />
<glyph unicode="&#xb8;" horiz-adv-x="452" d="M244 -58q23 5 33 5q37 0 57.5 -23.5t20.5 -61.5q0 -44 -31 -66t-89 -22q-17 0 -34 3t-30 9t-21 14t-8 17q0 19 15 19q6 0 14 -4q11 -5 26 -10.5t37 -5.5q33 0 47 10.5t14 35.5q0 45 -48 45q-8 0 -17.5 -1.5t-17.5 -1.5q-5 0 -5 11q0 20 1 41t6 44h34q-2 -8 -3 -20.5 t-1 -27.5v-10z" />
<glyph unicode="&#xb9;" horiz-adv-x="324" d="M142 448q0 75 -2 109.5t-13 34.5q-10 0 -18 -4.5t-18 -4.5q-12 0 -12 13q0 14 24 22q36 13 65.5 17t36.5 4q13 0 13 -11t-6.5 -13.5t-12.5 -8.5q-5 -5 -5.5 -28t-0.5 -66v-78q0 -66 1 -101t6 -42q6 -8 17 -10.5t21 -2.5q7 -1 10 -2.5t3 -7.5q0 -11 -18 -14t-58 -3 q-43 0 -70 2.5t-27 13.5q0 8 3.5 10t10.5 2q17 0 26.5 2.5t14.5 6.5q7 5 8 27.5t1 61.5v71z" />
<glyph unicode="&#xba;" horiz-adv-x="394" d="M193 371q-35 0 -64.5 13.5t-52 37.5t-35 56.5t-12.5 70.5q0 41 13.5 76t37.5 60.5t55.5 39.5t67.5 14q34 0 64 -13t51.5 -36.5t34 -55.5t12.5 -71q0 -42 -13.5 -77t-37 -60.5t-54.5 -40t-67 -14.5zM200 402q50 0 72 36.5t22 105.5q0 35 -7 64.5t-20.5 51.5t-33.5 34 t-46 12q-43 0 -65.5 -36t-22.5 -100q0 -75 26 -121.5t75 -46.5z" />
<glyph unicode="&#xbb;" horiz-adv-x="430" d="M134 254q-35 70 -59.5 111t-24.5 54q0 8 3 12.5t13 4.5q11 0 32 -23.5t50 -59.5l48 -59q22 -26 22 -40q0 -11 -14 -30l-34 -42l-24 -30l-30 -36q-15 -18 -29.5 -31t-22.5 -13q-14 0 -14 17q0 13 24.5 54t59.5 111zM296 254q-35 70 -59.5 111t-24.5 54q0 8 3 12.5t13 4.5 q11 0 32 -23.5t50 -59.5l48 -59q22 -26 22 -40q0 -11 -14 -30l-34 -42l-24 -30l-30 -36q-15 -18 -29.5 -31t-22.5 -13q-14 0 -14 17q0 13 24.5 54t59.5 111z" />
<glyph unicode="&#xbc;" horiz-adv-x="755" d="M136 460q0 69 -1.5 101.5t-10.5 32.5q-8 0 -18.5 -4t-18.5 -4q-9 0 -9 13q0 8 5 12.5t19 9.5q34 11 61.5 14.5t34.5 3.5q14 0 14 -10q0 -11 -7.5 -12.5t-10.5 -6.5q-6 -12 -6 -90v-73q0 -60 1 -93t6 -40q5 -8 15 -10t19 -2q14 0 14 -10q0 -11 -19.5 -14t-58.5 -3 q-42 0 -65 2.5t-23 13.5q0 12 14 12q15 0 23.5 2.5t13.5 5.5q6 5 7 26t1 56v67zM643 38h-177q-10 0 -14 1.5t-4 12.5q0 15 14.5 37.5t34.5 47.5l125 161q39 50 44 55t10 7.5t11 2.5q16 0 16 -18v-11q-1 -11 -1.5 -31t-0.5 -51v-177h37q10 0 10 -13v-12q0 -12 -11 -12h-36 v-72q0 -14 -11 -14h-35q-12 0 -12 14v72zM643 75l-2 186l-10 -12l-60 -76q-31 -41 -70 -98h142zM188 8q0 8 12.5 33.5t38.5 70.5l148 266q26 47 45 85l36 69l46 86q15 28 20 28q11 0 24.5 -9t13.5 -18q0 -6 -10 -24.5t-31 -53.5l-85 -145l-124 -226l-34 -68l-26 -53 q-14 -30 -22.5 -46.5t-17.5 -16.5q-4 0 -9.5 2t-11 5t-9.5 7t-4 8z" />
<glyph unicode="&#xbd;" horiz-adv-x="755" d="M636 42q17 0 28 5t22 27q5 10 9 16.5t11 6.5q5 0 9 -3.5t4 -11.5t-7 -25.5t-16 -44.5q-5 -16 -12.5 -23t-12.5 -7q-6 0 -8.5 3.5t-2.5 8.5q0 4 1 6h-175q-26 0 -26 12q0 8 10 18l27 26l43 42q25 25 46.5 52.5t36 58t14.5 61.5q0 58 -47 58q-23 0 -35.5 -6.5t-25.5 -19.5 q-13 -14 -22 -25t-20 -11t-11 10q0 11 7.5 22.5t20.5 24.5q20 20 44.5 30t50.5 10q20 0 38.5 -5t32 -16.5t21.5 -29.5t8 -45q0 -44 -25 -80.5t-74 -80.5l-48 -44q-16 -14 -16 -18q0 -2 10 -2h90zM136 460q0 69 -1.5 101.5t-10.5 32.5q-8 0 -18.5 -4t-18.5 -4q-9 0 -9 13 q0 8 5 12.5t19 9.5q34 11 61.5 14.5t34.5 3.5q14 0 14 -10q0 -11 -7.5 -12.5t-10.5 -6.5q-6 -12 -6 -90v-73q0 -60 1 -93t6 -40q5 -8 15 -10t19 -2q14 0 14 -10q0 -11 -19.5 -14t-58.5 -3q-42 0 -65 2.5t-23 13.5q0 12 14 12q15 0 23.5 2.5t13.5 5.5q6 5 7 26t1 56v67z M182 8q0 8 12.5 33.5t38.5 70.5l148 266q26 47 45 85l36 69l46 86q15 28 20 28q11 0 24.5 -9t13.5 -18q0 -6 -10 -24.5t-31 -53.5l-85 -145l-124 -226l-34 -68l-26 -53q-14 -30 -22.5 -46.5t-17.5 -16.5q-4 0 -9.5 2t-11 5t-9.5 7t-4 8z" />
<glyph unicode="&#xbe;" horiz-adv-x="755" d="M56 578l-10 -6q-4 -2 -6 -2q-11 0 -11 12q0 6 6 12t14 12q25 17 48 24.5t44 7.5q43 0 69.5 -26t26.5 -66q0 -22 -9 -40.5t-24 -31.5q-7 -5 -14 -9.5t-7 -6.5t10 -3.5t18 -5.5q25 -10 40 -35t15 -58q0 -57 -41.5 -94t-110.5 -37q-6 0 -21.5 1t-31.5 4.5t-28.5 9.5 t-12.5 16q0 12 12 12q3 0 8.5 -1t11.5 -3q11 -3 24 -6t31 -3q53 0 75.5 27t22.5 65t-18 61t-63 23h-12q-6 0 -11 -1q-3 0 -6.5 -0.5t-5.5 -0.5t-3 2.5t-1 10.5t2.5 9.5t7.5 1.5q35 0 58 24t23 66q0 23 -12 41t-39 18t-56 -16zM643 38h-177q-10 0 -14 1.5t-4 12.5 q0 15 14.5 37.5t34.5 47.5l125 161q39 50 44 55q10 10 21 10q16 0 16 -18v-11q-1 -11 -1.5 -31t-0.5 -51v-177h37q10 0 10 -13v-12q0 -12 -11 -12h-36v-72q0 -14 -11 -14h-35q-12 0 -12 14v72zM643 75l-2 185l-10 -12q-29 -35 -59 -76l-69 -97h140zM216 8q0 8 12.5 33.5 t38.5 70.5l148 266q26 47 45 85l36 69l46 86q15 28 20 28q11 0 24.5 -9t13.5 -18q0 -6 -10 -24.5t-31 -53.5l-85 -145l-124 -226l-34 -68l-26 -53q-14 -30 -22.5 -46.5t-17.5 -16.5q-4 0 -9.5 2t-11 5t-9.5 7t-4 8z" />
<glyph unicode="&#xbf;" horiz-adv-x="405" d="M282 92q4 9 6 24.5t6 30t11.5 25t23.5 10.5q11 0 19.5 -11t8.5 -38q0 -26 -11 -53t-32 -49t-52 -35.5t-71 -13.5q-34 0 -62 11.5t-47.5 33t-30 51t-10.5 65.5q0 45 18 83t56 78q14 16 30.5 38t25.5 60q3 14 4 30t1 28q0 6 0.5 15t2.5 17.5t6.5 14.5t12.5 6 q13 0 16.5 -13.5t3.5 -46.5q0 -17 -1.5 -38t-5.5 -43.5t-11 -45.5t-19 -42q-23 -46 -37 -81t-14 -76q0 -49 16.5 -75.5t53.5 -26.5q59 0 82 67zM202 624q-25 0 -41.5 17t-16.5 42q0 26 17 42t40 16t40.5 -16t17.5 -42q0 -25 -16.5 -42t-40.5 -17z" />
<glyph unicode="&#xc0;" horiz-adv-x="661" d="M57 65q16 7 28.5 35.5t27.5 70.5l83 227l77 210q28 75 31 105q2 14 6 19.5t20 5.5q17 0 24 -11.5t15 -32.5q36 -91 70 -186l67 -192l34 -95l35 -102q6 -17 14 -33.5t21 -24.5l22 -9q6 -2 12.5 -6.5t6.5 -15.5q0 -18 -29.5 -26t-84.5 -8t-85.5 8t-30.5 26q0 12 8.5 16.5 t23.5 9.5q19 6 26.5 15.5t7.5 22.5q0 4 -1.5 17t-6 31t-12 40t-18.5 44q-7 14 -27.5 17t-61.5 3h-77q-41 0 -62 -2t-26 -11q-5 -8 -9 -20l-10 -25q-2 -3 -6 -16l-9 -28q-5 -15 -8.5 -28.5t-3.5 -19.5q0 -23 28 -35l12 -5q12 -5 19 -9.5t7 -15.5q0 -20 -26 -27.5t-77 -7.5 q-50 0 -76 7.5t-26 27.5q0 11 8 15.5t17 8.5zM214 301q27 2 50 2h51h54q25 0 60 -2l-66 187q-25 68 -39 98h-7q-11 -23 -27 -66l-33 -95zM213 892q-11 7 -15 12.5t-4 14.5q0 14 11 28t23 14q4 0 8 -1t12 -8l117 -104l18 -17q6 -5 6 -13q0 -7 -5.5 -15t-13.5 -8q-10 0 -33 15 z" />
<glyph unicode="&#xc1;" horiz-adv-x="661" d="M57 65q16 7 28.5 35.5t27.5 70.5l83 227l77 210q28 75 31 105q2 14 6 19.5t20 5.5q17 0 24 -11.5t15 -32.5q36 -91 70 -186l67 -192l34 -95l35 -102q6 -17 14 -33.5t21 -24.5l22 -9q6 -2 12.5 -6.5t6.5 -15.5q0 -18 -29.5 -26t-84.5 -8t-85.5 8t-30.5 26q0 12 8.5 16.5 t23.5 9.5q19 6 26.5 15.5t7.5 22.5q0 4 -1.5 17t-6 31t-12 40t-18.5 44q-7 14 -27.5 17t-61.5 3h-77q-41 0 -62 -2t-26 -11q-5 -8 -9 -20l-10 -25q-2 -3 -6 -16l-9 -28q-5 -15 -8.5 -28.5t-3.5 -19.5q0 -23 28 -35l12 -5q12 -5 19 -9.5t7 -15.5q0 -20 -26 -27.5t-77 -7.5 q-50 0 -76 7.5t-26 27.5q0 11 8 15.5t17 8.5zM214 301q27 2 50 2h51h54q25 0 60 -2l-66 187q-25 68 -39 98h-7q-11 -23 -27 -66l-33 -95zM393 942q11 9 19.5 14.5t16.5 6.5q14 0 25 -14.5t11 -28.5q0 -8 -6 -14t-18 -14l-122 -80l-22 -13q-10 -6 -17 -6q-9 0 -15 6t-6 13 q0 8 8.5 17t23.5 23z" />
<glyph unicode="&#xc2;" horiz-adv-x="661" d="M57 65q16 7 28.5 35.5t27.5 70.5l83 227l77 210q28 75 31 105q2 14 6 19.5t20 5.5q17 0 24 -11.5t15 -32.5q36 -91 70 -186l67 -192l34 -95l35 -102q6 -17 14 -33.5t21 -24.5l22 -9q6 -2 12.5 -6.5t6.5 -15.5q0 -18 -29.5 -26t-84.5 -8t-85.5 8t-30.5 26q0 12 8.5 16.5 t23.5 9.5q19 6 26.5 15.5t7.5 22.5q0 4 -1.5 17t-6 31t-12 40t-18.5 44q-7 14 -27.5 17t-61.5 3h-77q-41 0 -62 -2t-26 -11q-5 -8 -9 -20l-10 -25q-2 -3 -6 -16l-9 -28q-5 -15 -8.5 -28.5t-3.5 -19.5q0 -23 28 -35l12 -5q12 -5 19 -9.5t7 -15.5q0 -20 -26 -27.5t-77 -7.5 q-50 0 -76 7.5t-26 27.5q0 11 8 15.5t17 8.5zM214 301q27 2 50 2h51h54q25 0 60 -2l-66 187q-25 68 -39 98h-7q-11 -23 -27 -66l-33 -95zM228 793q-18 0 -18 12q0 7 4 16l55 121q7 16 20.5 18.5t35.5 2.5t35.5 -2.5t20.5 -18.5l54 -121q5 -12 5 -16q0 -12 -19 -12h-4 q-8 0 -12.5 1.5t-9.5 10.5l-70 108l-71 -108q-5 -9 -9.5 -10.5t-12.5 -1.5h-4z" />
<glyph unicode="&#xc3;" horiz-adv-x="661" d="M57 65q16 7 28.5 35.5t27.5 70.5l83 227l77 210q28 75 31 105q2 14 6 19.5t20 5.5q17 0 24 -11.5t15 -32.5q36 -91 70 -186l67 -192l34 -95l35 -102q6 -17 14 -33.5t21 -24.5l22 -9q6 -2 12.5 -6.5t6.5 -15.5q0 -18 -29.5 -26t-84.5 -8t-85.5 8t-30.5 26q0 12 8.5 16.5 t23.5 9.5q19 6 26.5 15.5t7.5 22.5q0 4 -1.5 17t-6 31t-12 40t-18.5 44q-7 14 -27.5 17t-61.5 3h-77q-41 0 -62 -2t-26 -11q-5 -8 -9 -20l-10 -25q-2 -3 -6 -16l-9 -28q-5 -15 -8.5 -28.5t-3.5 -19.5q0 -23 28 -35l12 -5q12 -5 19 -9.5t7 -15.5q0 -20 -26 -27.5t-77 -7.5 q-50 0 -76 7.5t-26 27.5q0 11 8 15.5t17 8.5zM214 301q27 2 50 2h51h54q25 0 60 -2l-66 187q-25 68 -39 98h-7q-11 -23 -27 -66l-33 -95zM208 833q0 10 5.5 24t15 26.5t23 21.5t29.5 9q11 0 23 -3.5t23 -8.5q13 -5 24.5 -8.5t25.5 -3.5q17 0 24 7t11 15q5 12 11 12 q7 0 13 -2.5t6 -10.5q0 -14 -6 -28.5t-16.5 -26t-23.5 -19t-28 -7.5q-14 0 -27 5l-28 9q-12 5 -21 8t-20 3q-10 0 -16.5 -5.5t-11.5 -11.5t-9 -11.5t-8 -5.5q-5 0 -12 3.5t-7 8.5z" />
<glyph unicode="&#xc4;" horiz-adv-x="661" d="M57 65q16 7 28.5 35.5t27.5 70.5l83 227l77 210q28 75 31 105q2 14 6 19.5t20 5.5q17 0 24 -11.5t15 -32.5q36 -91 70 -186l67 -192l34 -95l35 -102q6 -17 14 -33.5t21 -24.5l22 -9q6 -2 12.5 -6.5t6.5 -15.5q0 -18 -29.5 -26t-84.5 -8t-85.5 8t-30.5 26q0 12 8.5 16.5 t23.5 9.5q19 6 26.5 15.5t7.5 22.5q0 4 -1.5 17t-6 31t-12 40t-18.5 44q-7 14 -27.5 17t-61.5 3h-77q-41 0 -62 -2t-26 -11q-5 -8 -9 -20l-10 -25q-2 -3 -6 -16l-9 -28q-5 -15 -8.5 -28.5t-3.5 -19.5q0 -23 28 -35l12 -5q12 -5 19 -9.5t7 -15.5q0 -20 -26 -27.5t-77 -7.5 q-50 0 -76 7.5t-26 27.5q0 11 8 15.5t17 8.5zM214 301q27 2 50 2h51h54q25 0 60 -2l-66 187q-25 68 -39 98h-7q-11 -23 -27 -66l-33 -95zM355 867q0 22 13.5 37t33.5 15t32 -13.5t12 -33.5t-13 -35t-33 -15q-19 0 -32 13t-13 32zM204 867q0 22 13.5 37t33.5 15t32 -13.5 t12 -33.5t-13 -35t-33 -15q-19 0 -32 13t-13 32z" />
<glyph unicode="&#xc5;" horiz-adv-x="633" d="M314 563q-11 -17 -33.5 -85.5t-69.5 -192.5q27 2 47 2h49h57q29 0 64 -2l-67 181q-26 68 -41 97h-6zM149 101q-3 -9 -3.5 -11.5t-0.5 -4.5q0 -9 8.5 -16t20.5 -12q10 -4 24 -8.5t14 -18.5q0 -20 -24 -26.5t-75 -6.5q-50 0 -80.5 6.5t-30.5 26.5q0 10 7 14t17 8q12 3 23 9 q18 10 33.5 36t29.5 65l84 228l55 150l31 88q10 30 13 41q4 13 6.5 22.5t21.5 9.5q15 0 22.5 -11t15.5 -31q26 -63 75 -193l121 -326q10 -27 18.5 -47.5t18.5 -29.5q4 -4 12 -6.5t16.5 -5.5t14.5 -7.5t6 -13.5q0 -20 -26.5 -26.5t-82.5 -6.5q-55 0 -84.5 6t-29.5 24 q0 13 10.5 18.5t30.5 11.5q25 8 25 32q0 4 -2.5 16t-7 29t-12 37.5t-16.5 42.5q-7 12 -26 15.5t-60 3.5h-97q-38 0 -53 -2t-21 -10l-5 -11q-4 -7 -7 -16zM210 848q0 24 9 45t24.5 36.5t36.5 24.5t45 9t45 -9t36.5 -24.5t24.5 -36.5t9 -45t-9 -45t-24.5 -36.5t-36.5 -24.5 t-45 -9t-45 9t-36.5 24.5t-24.5 36.5t-9 45zM259 848q0 -28 18.5 -47t47.5 -19q28 0 47 18.5t19 47.5q0 28 -19 47t-47 19t-47 -19t-19 -47z" />
<glyph unicode="&#xc6;" horiz-adv-x="939" d="M200 55q14 -4 22.5 -9t8.5 -19q0 -20 -31.5 -26.5t-86.5 -6.5q-53 0 -78 6.5t-25 26.5q0 14 7 18.5t20 8.5q5 2 11 3.5t12 4.5q15 7 37.5 43.5t57.5 100.5l214 388q8 14 12 28t4 21q0 14 -10 20t-23 10q-14 5 -21.5 10t-7.5 16q0 17 17.5 23.5t52.5 6.5h397q18 0 32 2.5 t24 4.5l8 2q4 1 6 1q15 0 27 -29t12 -82q0 -20 -6.5 -30.5t-16.5 -10.5q-8 0 -16 12t-17 29q-14 26 -32 34t-53 8h-97q-37 0 -56.5 -3.5t-23.5 -15.5q-6 -17 -8 -66t-2 -133v-8q0 -22 3.5 -27.5t20.5 -5.5h104q31 0 43.5 11t17.5 40q1 5 1.5 14.5t3 18.5t7 16t12.5 7 q17 0 22 -32.5t5 -103.5t-5 -103.5t-22 -32.5q-14 0 -17 12t-5 29q-1 5 -1.5 9.5t-0.5 6.5q-3 29 -16.5 40t-44.5 11h-104q-16 0 -20 -8t-4 -31v-64q0 -134 11 -163q7 -18 31.5 -24t70.5 -6h71q22 0 39 3.5t29.5 11t22 19.5t17.5 29q5 10 8.5 18.5t6.5 16.5q6 16 11.5 26.5 t13.5 10.5q23 0 23 -47q0 -32 -5.5 -60.5t-14 -50t-18 -34.5t-17.5 -13q-5 0 -11 3q-9 3 -25 5t-37 4h-299q-36 0 -53 6t-17 24q0 11 9.5 16.5t18.5 9.5l15 6q6 2 9 7q5 8 9 40t4 90q0 40 -10 44q-14 5 -124 5h-39q-41 0 -59.5 -2.5t-28.5 -13.5q-14 -17 -36 -59 q-35 -66 -35 -84q0 -15 7.5 -20.5t21.5 -10.5zM269 303q33 1 71.5 1.5t62.5 0.5q23 0 45 -0.5t45 -1.5q0 21 0.5 37t0.5 31q0 149 -4 220.5t-21 71.5q-12 0 -40.5 -59t-85.5 -165z" />
<glyph unicode="&#xc7;" horiz-adv-x="600" d="M362 -58q23 5 33 5q37 0 57.5 -23.5t20.5 -61.5q0 -44 -31 -66t-89 -22q-17 0 -34 3t-30 9t-21 14t-8 17q0 19 15 19q6 0 14 -4q11 -5 26 -10.5t37 -5.5q33 0 47 10.5t14 35.5q0 45 -48 45q-8 0 -17.5 -1.5t-17.5 -1.5q-5 0 -5 11q0 17 1 34t3 36q-70 6 -123 41t-89 88.5 t-54.5 121t-18.5 138.5q0 63 19 128.5t56.5 118t93 86t128.5 33.5q35 0 61 -7t43 -13l15 -6q7 -2 14 -2q9 0 15.5 1.5t13.5 3.5q9 3 16 3q17 0 31.5 -36t14.5 -93q0 -21 -8 -32t-18 -11q-11 0 -17.5 11.5t-12.5 26.5l-7 16q-4 9 -9 17q-21 31 -57 50t-90 19q-103 0 -155 -75 t-52 -209q0 -53 11.5 -116t38.5 -117.5t71 -91t109 -36.5q48 0 81 17.5t56 47.5l12 17q5 6 7 9q9 14 15.5 23t13.5 9q8 0 15.5 -10t7.5 -29t-4.5 -36.5t-11.5 -30.5t-15 -20.5t-14 -7.5q-2 0 -4.5 1t-4.5 1q-10 0 -28 -10q-37 -19 -66 -29.5t-66 -11.5q-1 -7 -1 -15v-16v-10 z" />
<glyph unicode="&#xc8;" horiz-adv-x="552" d="M361 58q22 0 38.5 3.5t28.5 11t21.5 19.5t17.5 29q5 10 8.5 18.5t6.5 16.5q6 16 11 26.5t16 10.5q14 0 18.5 -12t4.5 -35q0 -32 -5.5 -60.5t-14 -50t-18 -34.5t-17.5 -13q-5 0 -11 3q-9 3 -25 6t-37 3h-299q-36 0 -53 6t-17 24q0 11 9.5 16.5t18.5 9.5l15 6q6 2 9 7 q9 12 11.5 85.5t2.5 210.5t-2.5 209.5t-11.5 84.5q-3 5 -9 7l-15 6q-9 4 -18.5 9.5t-9.5 16.5q0 18 17 24.5t53 6.5h275q36 0 52.5 5t29.5 5q19 -1 31 -29.5t12 -81.5q0 -41 -22 -41q-14 0 -19.5 12t-14.5 29q-14 26 -32 34t-53 8h-98q-37 0 -56.5 -3.5t-23.5 -15.5 q-6 -17 -8 -67t-2 -140q0 -22 3.5 -27.5t20.5 -5.5h104q31 0 45 11t17 40q0 2 0.5 3t0.5 3q3 23 6 36.5t17 13.5q20 0 23.5 -32.5t3.5 -103.5t-3.5 -103.5t-23.5 -32.5q-16 0 -18.5 14t-4.5 37q0 2 -0.5 3t-0.5 3q-3 29 -17 40t-45 11h-104q-16 0 -20 -8t-4 -31v-64 q0 -134 11 -163q7 -18 31.5 -24t70.5 -6h72zM169 892q-11 7 -15 12.5t-4 14.5q0 14 11 28t23 14q4 0 8 -1t12 -8l117 -104l18 -17q6 -5 6 -13q0 -7 -5.5 -15t-13.5 -8q-10 0 -33 15z" />
<glyph unicode="&#xc9;" horiz-adv-x="552" d="M361 58q22 0 38.5 3.5t28.5 11t21.5 19.5t17.5 29q5 10 8.5 18.5t6.5 16.5q6 16 11 26.5t16 10.5q14 0 18.5 -12t4.5 -35q0 -32 -5.5 -60.5t-14 -50t-18 -34.5t-17.5 -13q-5 0 -11 3q-9 3 -25 6t-37 3h-299q-36 0 -53 6t-17 24q0 11 9.5 16.5t18.5 9.5l15 6q6 2 9 7 q9 12 11.5 85.5t2.5 210.5t-2.5 209.5t-11.5 84.5q-3 5 -9 7l-15 6q-9 4 -18.5 9.5t-9.5 16.5q0 18 17 24.5t53 6.5h275q36 0 52.5 5t29.5 5q19 -1 31 -29.5t12 -81.5q0 -41 -22 -41q-14 0 -19.5 12t-14.5 29q-14 26 -32 34t-53 8h-98q-37 0 -56.5 -3.5t-23.5 -15.5 q-6 -17 -8 -67t-2 -140q0 -22 3.5 -27.5t20.5 -5.5h104q31 0 45 11t17 40q0 2 0.5 3t0.5 3q3 23 6 36.5t17 13.5q20 0 23.5 -32.5t3.5 -103.5t-3.5 -103.5t-23.5 -32.5q-16 0 -18.5 14t-4.5 37q0 2 -0.5 3t-0.5 3q-3 29 -17 40t-45 11h-104q-16 0 -20 -8t-4 -31v-64 q0 -134 11 -163q7 -18 31.5 -24t70.5 -6h72zM349 942q11 9 19.5 14.5t16.5 6.5q14 0 25 -14.5t11 -28.5q0 -8 -6 -14t-18 -14l-122 -80l-22 -13q-10 -6 -17 -6q-9 0 -15 6t-6 13q0 8 8.5 17t23.5 23z" />
<glyph unicode="&#xca;" horiz-adv-x="552" d="M361 58q22 0 38.5 3.5t28.5 11t21.5 19.5t17.5 29q5 10 8.5 18.5t6.5 16.5q6 16 11 26.5t16 10.5q14 0 18.5 -12t4.5 -35q0 -32 -5.5 -60.5t-14 -50t-18 -34.5t-17.5 -13q-5 0 -11 3q-9 3 -25 6t-37 3h-299q-36 0 -53 6t-17 24q0 11 9.5 16.5t18.5 9.5l15 6q6 2 9 7 q9 12 11.5 85.5t2.5 210.5t-2.5 209.5t-11.5 84.5q-3 5 -9 7l-15 6q-9 4 -18.5 9.5t-9.5 16.5q0 18 17 24.5t53 6.5h275q36 0 52.5 5t29.5 5q19 -1 31 -29.5t12 -81.5q0 -41 -22 -41q-14 0 -19.5 12t-14.5 29q-14 26 -32 34t-53 8h-98q-37 0 -56.5 -3.5t-23.5 -15.5 q-6 -17 -8 -67t-2 -140q0 -22 3.5 -27.5t20.5 -5.5h104q31 0 45 11t17 40q0 2 0.5 3t0.5 3q3 23 6 36.5t17 13.5q20 0 23.5 -32.5t3.5 -103.5t-3.5 -103.5t-23.5 -32.5q-16 0 -18.5 14t-4.5 37q0 2 -0.5 3t-0.5 3q-3 29 -17 40t-45 11h-104q-16 0 -20 -8t-4 -31v-64 q0 -134 11 -163q7 -18 31.5 -24t70.5 -6h72zM184 793q-18 0 -18 12q0 7 4 16l55 121q7 16 20.5 18.5t35.5 2.5t35.5 -2.5t20.5 -18.5l54 -121q5 -12 5 -16q0 -12 -19 -12h-4q-8 0 -12.5 1.5t-9.5 10.5l-70 108l-71 -108q-5 -9 -9.5 -10.5t-12.5 -1.5h-4z" />
<glyph unicode="&#xcb;" horiz-adv-x="552" d="M361 58q22 0 38.5 3.5t28.5 11t21.5 19.5t17.5 29q5 10 8.5 18.5t6.5 16.5q6 16 11 26.5t16 10.5q14 0 18.5 -12t4.5 -35q0 -32 -5.5 -60.5t-14 -50t-18 -34.5t-17.5 -13q-5 0 -11 3q-9 3 -25 6t-37 3h-299q-36 0 -53 6t-17 24q0 11 9.5 16.5t18.5 9.5l15 6q6 2 9 7 q9 12 11.5 85.5t2.5 210.5t-2.5 209.5t-11.5 84.5q-3 5 -9 7l-15 6q-9 4 -18.5 9.5t-9.5 16.5q0 18 17 24.5t53 6.5h275q36 0 52.5 5t29.5 5q19 -1 31 -29.5t12 -81.5q0 -41 -22 -41q-14 0 -19.5 12t-14.5 29q-14 26 -32 34t-53 8h-98q-37 0 -56.5 -3.5t-23.5 -15.5 q-6 -17 -8 -67t-2 -140q0 -22 3.5 -27.5t20.5 -5.5h104q31 0 45 11t17 40q0 2 0.5 3t0.5 3q3 23 6 36.5t17 13.5q20 0 23.5 -32.5t3.5 -103.5t-3.5 -103.5t-23.5 -32.5q-16 0 -18.5 14t-4.5 37q0 2 -0.5 3t-0.5 3q-3 29 -17 40t-45 11h-104q-16 0 -20 -8t-4 -31v-64 q0 -134 11 -163q7 -18 31.5 -24t70.5 -6h72zM311 867q0 22 13.5 37t33.5 15t32 -13.5t12 -33.5t-13 -35t-33 -15q-19 0 -32 13t-13 32zM160 867q0 22 13.5 37t33.5 15t32 -13.5t12 -33.5t-13 -35t-33 -15q-19 0 -32 13t-13 32z" />
<glyph unicode="&#xcc;" horiz-adv-x="276" d="M35 30q0 11 9 16.5t19 9.5q8 3 15 6.5t10 7.5q8 12 10.5 85t2.5 210t-1.5 209t-11.5 84q-3 4 -10 7.5t-15 6.5q-10 3 -19 9t-9 17q0 20 25.5 27.5t76.5 7.5t77.5 -7.5t26.5 -27.5q0 -11 -9 -16.5t-19 -9.5q-19 -7 -24 -14q-9 -12 -11.5 -84t-2.5 -209t2.5 -210t11.5 -85 q5 -7 24 -14q10 -4 19 -9.5t9 -16.5q0 -20 -26 -27t-77 -7t-77 7t-26 27zM25 892q-11 7 -15 12.5t-4 14.5q0 14 11 28t23 14q4 0 8 -1t12 -8l117 -104l18 -17q6 -5 6 -13q0 -7 -5.5 -15t-13.5 -8q-10 0 -33 15z" />
<glyph unicode="&#xcd;" horiz-adv-x="276" d="M35 30q0 11 9 16.5t19 9.5q8 3 15 6.5t10 7.5q8 12 10.5 85t2.5 210t-1.5 209t-11.5 84q-3 4 -10 7.5t-15 6.5q-10 3 -19 9t-9 17q0 20 25.5 27.5t76.5 7.5t77.5 -7.5t26.5 -27.5q0 -11 -9 -16.5t-19 -9.5q-19 -7 -24 -14q-9 -12 -11.5 -84t-2.5 -209t2.5 -210t11.5 -85 q5 -7 24 -14q10 -4 19 -9.5t9 -16.5q0 -20 -26 -27t-77 -7t-77 7t-26 27zM205 942q11 9 19.5 14.5t16.5 6.5q14 0 25 -14.5t11 -28.5q0 -8 -6 -14t-18 -14l-122 -80l-22 -13q-10 -6 -17 -6q-9 0 -15 6t-6 13q0 8 8.5 17t23.5 23z" />
<glyph unicode="&#xce;" horiz-adv-x="276" d="M35 30q0 11 9 16.5t19 9.5q8 3 15 6.5t10 7.5q8 12 10.5 85t2.5 210t-1.5 209t-11.5 84q-3 4 -10 7.5t-15 6.5q-10 3 -19 9t-9 17q0 20 25.5 27.5t76.5 7.5t77.5 -7.5t26.5 -27.5q0 -11 -9 -16.5t-19 -9.5q-19 -7 -24 -14q-9 -12 -11.5 -84t-2.5 -209t2.5 -210t11.5 -85 q5 -7 24 -14q10 -4 19 -9.5t9 -16.5q0 -20 -26 -27t-77 -7t-77 7t-26 27zM40 793q-18 0 -18 12q0 7 4 16l55 121q7 16 20.5 18.5t35.5 2.5t35.5 -2.5t20.5 -18.5l54 -121q5 -12 5 -16q0 -12 -19 -12h-4q-8 0 -12.5 1.5t-9.5 10.5l-70 108l-71 -108q-5 -9 -9.5 -10.5 t-12.5 -1.5h-4z" />
<glyph unicode="&#xcf;" horiz-adv-x="276" d="M35 30q0 11 9 16.5t19 9.5q8 3 15 6.5t10 7.5q8 12 10.5 85t2.5 210t-1.5 209t-11.5 84q-3 4 -10 7.5t-15 6.5q-10 3 -19 9t-9 17q0 20 25.5 27.5t76.5 7.5t77.5 -7.5t26.5 -27.5q0 -11 -9 -16.5t-19 -9.5q-19 -7 -24 -14q-9 -12 -11.5 -84t-2.5 -209t2.5 -210t11.5 -85 q5 -7 24 -14q10 -4 19 -9.5t9 -16.5q0 -20 -26 -27t-77 -7t-77 7t-26 27zM167 867q0 22 13.5 37t33.5 15t32 -13.5t12 -33.5t-13 -35t-33 -15q-19 0 -32 13t-13 32zM16 867q0 22 13.5 37t33.5 15t32 -13.5t12 -33.5t-13 -35t-33 -15q-19 0 -32 13t-13 32z" />
<glyph unicode="&#xd0;" horiz-adv-x="686" d="M101 411q-1 113 -3.5 175t-10.5 73q-3 5 -9 7l-15 6q-9 4 -18.5 9.5t-9.5 16.5q0 26 29 28q19 2 72 4.5t149 2.5q84 0 150.5 -25.5t112 -74t70 -118.5t24.5 -159q0 -176 -90 -267t-268 -91h-26q-12 0 -25 1q-15 1 -31.5 1.5t-36.5 0.5q-12 0 -25.5 -1t-34.5 -1 q-35 0 -52.5 6.5t-17.5 24.5q0 11 9.5 16.5t18.5 9.5l15 6q6 2 9 7q9 12 11.5 84.5t2.5 206.5h-65q-23 0 -23 26q0 25 24 25h64zM332 411q23 0 23 -25q0 -26 -23 -26h-154q0 -120 2 -189t10 -88q5 -15 30.5 -22.5t81.5 -7.5q125 0 183.5 79t58.5 224q0 154 -60.5 237.5 t-189.5 83.5q-50 0 -71.5 -4t-28.5 -12q-16 -20 -16 -250h154z" />
<glyph unicode="&#xd1;" horiz-adv-x="686" d="M609 35q0 -22 -3.5 -32t-16.5 -10q-16 0 -31 11.5t-29 31.5q-15 21 -71 108l-161 238l-146 212v-229q0 -138 2.5 -212t10.5 -84q4 -4 10.5 -7t14.5 -6q10 -4 19 -9t9 -16q0 -19 -23.5 -26.5t-67.5 -7.5q-45 0 -69 7t-24 26q0 11 9.5 16.5t18.5 9.5l15 6q6 2 9 7 q9 12 11.5 85.5t2.5 210.5t-2.5 209.5t-11.5 84.5q-3 5 -9 7l-15 6q-9 4 -17.5 9t-8.5 16q0 17 26 25.5t61 8.5q26 0 42 -8t30 -28l74 -114l80 -123l94 -142l115 -164v212q0 136 -2 209.5t-12 85.5q-4 4 -10.5 7t-14.5 6q-10 3 -19 8.5t-9 16.5q0 19 24.5 26.5t68.5 7.5 t68 -7.5t24 -26.5q0 -14 -20 -22l-8 -3q-11 -5 -19 -8t-10 -13q-5 -19 -7.5 -137.5t-2.5 -338.5q0 -40 0.5 -69t0.5 -47v-24zM249 833q0 10 5.5 24t15 26.5t23 21.5t29.5 9q11 0 23 -3.5t23 -8.5q13 -5 24.5 -8.5t25.5 -3.5q17 0 24 7t11 15q5 12 11 12q7 0 13 -2.5t6 -10.5 q0 -14 -6 -28.5t-16.5 -26t-23.5 -19t-28 -7.5q-14 0 -27 5l-28 9q-12 5 -21 8t-20 3q-10 0 -16.5 -5.5t-11.5 -11.5t-9 -11.5t-8 -5.5q-5 0 -12 3.5t-7 8.5z" />
<glyph unicode="&#xd2;" horiz-adv-x="715" d="M376 35q97 0 148.5 75t51.5 211q0 33 -5.5 72.5t-17.5 80.5t-31 79t-46 68t-61.5 48t-78.5 18q-95 0 -146 -76t-51 -208q0 -33 5.5 -73t17 -81t30 -79.5t45 -68.5t61 -48t78.5 -18zM366 -20q-77 0 -136.5 35t-101 91t-63 126.5t-21.5 141.5q0 69 20 135.5t59 118t96 83.5 t131 32q78 0 137.5 -36t100.5 -93t62 -127t21 -138t-19 -134t-57 -118.5t-95.5 -84.5t-133.5 -32zM246 892q-11 7 -15 12.5t-4 14.5q0 14 11 28t23 14q4 0 8 -1t12 -8l117 -104l18 -17q6 -5 6 -13q0 -7 -5.5 -15t-13.5 -8q-10 0 -33 15z" />
<glyph unicode="&#xd3;" horiz-adv-x="715" d="M376 35q97 0 148.5 75t51.5 211q0 33 -5.5 72.5t-17.5 80.5t-31 79t-46 68t-61.5 48t-78.5 18q-95 0 -146 -76t-51 -208q0 -33 5.5 -73t17 -81t30 -79.5t45 -68.5t61 -48t78.5 -18zM366 -20q-77 0 -136.5 35t-101 91t-63 126.5t-21.5 141.5q0 69 20 135.5t59 118t96 83.5 t131 32q78 0 137.5 -36t100.5 -93t62 -127t21 -138t-19 -134t-57 -118.5t-95.5 -84.5t-133.5 -32zM426 942q11 9 19.5 14.5t16.5 6.5q14 0 25 -14.5t11 -28.5q0 -8 -6 -14t-18 -14l-122 -80l-22 -13q-10 -6 -17 -6q-9 0 -15 6t-6 13q0 8 8.5 17t23.5 23z" />
<glyph unicode="&#xd4;" horiz-adv-x="715" d="M376 35q97 0 148.5 75t51.5 211q0 33 -5.5 72.5t-17.5 80.5t-31 79t-46 68t-61.5 48t-78.5 18q-95 0 -146 -76t-51 -208q0 -33 5.5 -73t17 -81t30 -79.5t45 -68.5t61 -48t78.5 -18zM366 -20q-77 0 -136.5 35t-101 91t-63 126.5t-21.5 141.5q0 69 20 135.5t59 118t96 83.5 t131 32q78 0 137.5 -36t100.5 -93t62 -127t21 -138t-19 -134t-57 -118.5t-95.5 -84.5t-133.5 -32zM261 793q-18 0 -18 12q0 7 4 16l55 121q7 16 20.5 18.5t35.5 2.5t35.5 -2.5t20.5 -18.5l54 -121q5 -12 5 -16q0 -12 -19 -12h-4q-8 0 -12.5 1.5t-9.5 10.5l-70 108l-71 -108 q-5 -9 -9.5 -10.5t-12.5 -1.5h-4z" />
<glyph unicode="&#xd5;" horiz-adv-x="715" d="M376 35q97 0 148.5 75t51.5 211q0 33 -5.5 72.5t-17.5 80.5t-31 79t-46 68t-61.5 48t-78.5 18q-95 0 -146 -76t-51 -208q0 -33 5.5 -73t17 -81t30 -79.5t45 -68.5t61 -48t78.5 -18zM366 -20q-77 0 -136.5 35t-101 91t-63 126.5t-21.5 141.5q0 69 20 135.5t59 118t96 83.5 t131 32q78 0 137.5 -36t100.5 -93t62 -127t21 -138t-19 -134t-57 -118.5t-95.5 -84.5t-133.5 -32zM241 833q0 10 5.5 24t15 26.5t23 21.5t29.5 9q11 0 23 -3.5t23 -8.5q13 -5 24.5 -8.5t25.5 -3.5q17 0 24 7t11 15q5 12 11 12q7 0 13 -2.5t6 -10.5q0 -14 -6 -28.5t-16.5 -26 t-23.5 -19t-28 -7.5q-14 0 -27 5l-28 9q-12 5 -21 8t-20 3q-10 0 -16.5 -5.5t-11.5 -11.5t-9 -11.5t-8 -5.5q-5 0 -12 3.5t-7 8.5z" />
<glyph unicode="&#xd6;" horiz-adv-x="715" d="M376 35q97 0 148.5 75t51.5 211q0 33 -5.5 72.5t-17.5 80.5t-31 79t-46 68t-61.5 48t-78.5 18q-95 0 -146 -76t-51 -208q0 -33 5.5 -73t17 -81t30 -79.5t45 -68.5t61 -48t78.5 -18zM366 -20q-77 0 -136.5 35t-101 91t-63 126.5t-21.5 141.5q0 69 20 135.5t59 118t96 83.5 t131 32q78 0 137.5 -36t100.5 -93t62 -127t21 -138t-19 -134t-57 -118.5t-95.5 -84.5t-133.5 -32zM388 867q0 22 13.5 37t33.5 15t32 -13.5t12 -33.5t-13 -35t-33 -15q-19 0 -32 13t-13 32zM237 867q0 22 13.5 37t33.5 15t32 -13.5t12 -33.5t-13 -35t-33 -15q-19 0 -32 13 t-13 32z" />
<glyph unicode="&#xd7;" d="M214 299l-188 215l39 35l184 -210l185 210l39 -35l-189 -215l189 -214l-39 -35l-185 209l-184 -209l-39 35z" />
<glyph unicode="&#xd8;" horiz-adv-x="715" d="M153 76q-54 58 -81.5 137.5t-27.5 160.5q0 69 20 135.5t59 118t96 83.5t131 32q52 0 95.5 -16.5t79.5 -45.5l72 117q7 11 14.5 17.5t21.5 6.5q13 0 17.5 -4t4.5 -9q0 -9 -4 -16l-90 -146q27 -30 47.5 -65.5t34.5 -74t21 -79t7 -79.5q0 -68 -19 -134t-57 -118.5 t-95.5 -84.5t-133.5 -32q-52 0 -96.5 16.5t-80.5 45.5l-80 -130q-7 -11 -14 -15t-23 -4q-17 0 -19.5 7.5t3.5 17.5zM230 108q27 -33 63 -53t83 -20q97 0 148.5 75t51.5 211q0 26 -3.5 57t-11.5 63.5t-20 65t-28 61.5zM483 613q-28 33 -64 53.5t-83 20.5q-95 0 -146 -76 t-51 -208q0 -27 3.5 -58t11 -64t19 -66t27.5 -62z" />
<glyph unicode="&#xd9;" horiz-adv-x="639" d="M91 434q0 103 -2.5 158.5t-10.5 66.5q-3 5 -10 7l-14 6q-9 4 -18.5 9.5t-9.5 16.5q0 20 29.5 27.5t80.5 7.5q50 0 77.5 -7.5t27.5 -27.5q0 -11 -8.5 -16.5t-18.5 -9.5q-8 -3 -15 -6t-10 -7q-16 -21 -16 -292q0 -28 1 -64t5.5 -73.5t14 -73.5t27.5 -64t46 -45t69 -17 q58 0 90 27t55 81q19 48 19 247v63q0 97 -1.5 150t-9.5 64q-3 5 -10 7t-15 5q-11 4 -19.5 9t-8.5 16q0 18 24.5 25.5t68.5 7.5q45 0 69 -7t24 -26q0 -9 -8 -14.5t-16 -8.5q-6 -2 -13.5 -5t-10.5 -5q-11 -8 -14 -49.5t-3 -119.5q0 -35 0.5 -62.5t0.5 -48.5v-43 q0 -77 -4.5 -136.5t-24.5 -104.5q-24 -56 -76.5 -88.5t-124.5 -32.5q-74 0 -120.5 25t-72.5 69t-35.5 103.5t-9.5 128.5q0 20 0.5 37.5t0.5 34.5v55zM219 892q-11 7 -15 12.5t-4 14.5q0 14 11 28t23 14q4 0 8 -1t12 -8l117 -104l18 -17q6 -5 6 -13q0 -7 -5.5 -15t-13.5 -8 q-10 0 -33 15z" />
<glyph unicode="&#xda;" horiz-adv-x="639" d="M91 434q0 103 -2.5 158.5t-10.5 66.5q-3 5 -10 7l-14 6q-9 4 -18.5 9.5t-9.5 16.5q0 20 29.5 27.5t80.5 7.5q50 0 77.5 -7.5t27.5 -27.5q0 -11 -8.5 -16.5t-18.5 -9.5q-8 -3 -15 -6t-10 -7q-16 -21 -16 -292q0 -28 1 -64t5.5 -73.5t14 -73.5t27.5 -64t46 -45t69 -17 q58 0 90 27t55 81q19 48 19 247v63q0 97 -1.5 150t-9.5 64q-3 5 -10 7t-15 5q-11 4 -19.5 9t-8.5 16q0 18 24.5 25.5t68.5 7.5q45 0 69 -7t24 -26q0 -9 -8 -14.5t-16 -8.5q-6 -2 -13.5 -5t-10.5 -5q-11 -8 -14 -49.5t-3 -119.5q0 -35 0.5 -62.5t0.5 -48.5v-43 q0 -77 -4.5 -136.5t-24.5 -104.5q-24 -56 -76.5 -88.5t-124.5 -32.5q-74 0 -120.5 25t-72.5 69t-35.5 103.5t-9.5 128.5q0 20 0.5 37.5t0.5 34.5v55zM399 942q11 9 19.5 14.5t16.5 6.5q14 0 25 -14.5t11 -28.5q0 -8 -6 -14t-18 -14l-122 -80l-22 -13q-10 -6 -17 -6 q-9 0 -15 6t-6 13q0 8 8.5 17t23.5 23z" />
<glyph unicode="&#xdb;" horiz-adv-x="639" d="M91 434q0 103 -2.5 158.5t-10.5 66.5q-3 5 -10 7l-14 6q-9 4 -18.5 9.5t-9.5 16.5q0 20 29.5 27.5t80.5 7.5q50 0 77.5 -7.5t27.5 -27.5q0 -11 -8.5 -16.5t-18.5 -9.5q-8 -3 -15 -6t-10 -7q-16 -21 -16 -292q0 -28 1 -64t5.5 -73.5t14 -73.5t27.5 -64t46 -45t69 -17 q58 0 90 27t55 81q19 48 19 247v63q0 97 -1.5 150t-9.5 64q-3 5 -10 7t-15 5q-11 4 -19.5 9t-8.5 16q0 18 24.5 25.5t68.5 7.5q45 0 69 -7t24 -26q0 -9 -8 -14.5t-16 -8.5q-6 -2 -13.5 -5t-10.5 -5q-11 -8 -14 -49.5t-3 -119.5q0 -35 0.5 -62.5t0.5 -48.5v-43 q0 -77 -4.5 -136.5t-24.5 -104.5q-24 -56 -76.5 -88.5t-124.5 -32.5q-74 0 -120.5 25t-72.5 69t-35.5 103.5t-9.5 128.5q0 20 0.5 37.5t0.5 34.5v55zM234 793q-18 0 -18 12q0 7 4 16l55 121q7 16 20.5 18.5t35.5 2.5t35.5 -2.5t20.5 -18.5l54 -121q5 -12 5 -16 q0 -12 -19 -12h-4q-8 0 -12.5 1.5t-9.5 10.5l-70 108l-71 -108q-5 -9 -9.5 -10.5t-12.5 -1.5h-4z" />
<glyph unicode="&#xdc;" horiz-adv-x="639" d="M91 434q0 103 -2.5 158.5t-10.5 66.5q-3 5 -10 7l-14 6q-9 4 -18.5 9.5t-9.5 16.5q0 20 29.5 27.5t80.5 7.5q50 0 77.5 -7.5t27.5 -27.5q0 -11 -8.5 -16.5t-18.5 -9.5q-8 -3 -15 -6t-10 -7q-16 -21 -16 -292q0 -28 1 -64t5.5 -73.5t14 -73.5t27.5 -64t46 -45t69 -17 q58 0 90 27t55 81q19 48 19 247v63q0 97 -1.5 150t-9.5 64q-3 5 -10 7t-15 5q-11 4 -19.5 9t-8.5 16q0 18 24.5 25.5t68.5 7.5q45 0 69 -7t24 -26q0 -9 -8 -14.5t-16 -8.5q-6 -2 -13.5 -5t-10.5 -5q-11 -8 -14 -49.5t-3 -119.5q0 -35 0.5 -62.5t0.5 -48.5v-43 q0 -77 -4.5 -136.5t-24.5 -104.5q-24 -56 -76.5 -88.5t-124.5 -32.5q-74 0 -120.5 25t-72.5 69t-35.5 103.5t-9.5 128.5q0 20 0.5 37.5t0.5 34.5v55zM361 867q0 22 13.5 37t33.5 15t32 -13.5t12 -33.5t-13 -35t-33 -15q-19 0 -32 13t-13 32zM210 867q0 22 13.5 37t33.5 15 t32 -13.5t12 -33.5t-13 -35t-33 -15q-19 0 -32 13t-13 32z" />
<glyph unicode="&#xdd;" horiz-adv-x="581" d="M252 350l-64 114l-54 90q-24 38 -41.5 62.5t-24.5 33.5q-9 10 -18.5 15.5t-17.5 9.5t-13 8.5t-5 13.5q0 20 24 28t75 8q50 0 76.5 -8t26.5 -26q0 -17 -24 -25q-11 -4 -18 -8t-7 -14q0 -11 21 -44l61 -98l59 -94l38 68l31 57l45 79q15 26 15 36q0 8 -8.5 14t-15.5 9 t-13.5 7.5t-6.5 14.5q0 17 24.5 24t69.5 7q80 0 80 -32q0 -9 -11.5 -14t-37.5 -25q-12 -9 -31 -36t-44 -67t-54 -92l-60 -109v-77q0 -191 14 -211q5 -7 24 -14q10 -4 19 -9t9 -16q0 -20 -26.5 -27t-77.5 -7q-50 0 -77 7.5t-27 27.5q0 11 8.5 16t18.5 9q8 3 15 6t10 7 q8 11 10.5 62.5t2.5 147.5v71zM352 942q11 9 19.5 14.5t16.5 6.5q14 0 25 -14.5t11 -28.5q0 -8 -6 -14t-18 -14l-122 -80l-22 -13q-10 -6 -17 -6q-9 0 -15 6t-6 13q0 8 8.5 17t23.5 23z" />
<glyph unicode="&#xde;" horiz-adv-x="499" d="M169 239q29 -7 51 -7q187 0 187 151q0 144 -155 144q-34 0 -52.5 -3t-21.5 -5q-7 -6 -9 -35.5t-2 -83.5q0 -36 0.5 -74t1.5 -87zM200 185q-18 0 -24.5 -4t-6.5 -20q0 -80 16 -96q2 -2 8.5 -5t14.5 -5q10 -2 17.5 -7.5t7.5 -16.5q0 -20 -24.5 -27.5t-74.5 -7.5 q-51 0 -75 7.5t-24 25.5q0 11 7.5 16t16.5 9q6 2 13 5.5t11 6.5q14 10 16 82.5t2 214.5q0 137 -2.5 210t-11.5 85q-3 5 -9 8l-15 5q-10 3 -19 9t-9 18q0 34 99 34q50 0 74.5 -8t24.5 -28q0 -11 -8 -15.5t-16 -7.5q-2 -1 -5 -2t-5 -2l-6 -2q-16 -8 -19 -22.5t-4 -43.5v-24 q23 2 43 3t39 1q120 0 178.5 -46t58.5 -143q0 -98 -65 -152.5t-193 -54.5h-31z" />
<glyph unicode="&#xdf;" horiz-adv-x="485" d="M81 265v121q0 53 -1 88q0 18 -0.5 31.5t-0.5 23.5q0 212 158 212q40 0 72 -12.5t54.5 -34t35 -51.5t12.5 -66q0 -44 -22 -86t-78 -75q-8 -5 -12.5 -7t-4.5 -6q0 -5 5.5 -6.5t15.5 -4.5q72 -25 103 -73.5t31 -118.5q0 -44 -12.5 -81.5t-36.5 -65t-60 -43t-83 -15.5 q-31 0 -45.5 6.5t-14.5 23.5q0 23 26 23q8 0 16.5 -1t21.5 -1q56 0 80 41.5t24 105.5q0 28 -7 56.5t-22 52.5t-37 42.5t-52 28.5q-14 5 -23 10.5t-9 19.5t8 19.5t22 10.5q44 14 67 49.5t23 83.5q0 28 -6 52.5t-18 42.5t-30 28.5t-42 10.5q-31 0 -48.5 -14.5t-25.5 -44 t-10 -73.5t-2 -102v-45q0 -26 1 -59q1 -57 1.5 -134.5t0.5 -177.5q0 -30 -14 -41t-47 -11q-30 0 -50.5 7t-20.5 21t6.5 18.5t15.5 7.5l12 4q6 3 9 6q11 10 12.5 51t1.5 113v39z" />
<glyph unicode="&#xe0;" horiz-adv-x="473" d="M319 254q-23 4 -40 6t-36 2q-63 0 -94.5 -32t-31.5 -86q0 -44 22 -73t66 -29q24 0 45 11.5t36 32t24 48t9 60.5v60zM309 59q-30 -34 -60 -50t-68 -16q-31 0 -57.5 10t-46 29t-31 45.5t-11.5 59.5q0 78 51 122t142 44q23 0 44 -1.5t47 -4.5q1 8 1 15v16q0 72 -16 106 t-65 34q-25 0 -47 -12t-45 -46q-9 -13 -20 -23.5t-29 -10.5q-12 0 -19 7t-7 25q0 17 12.5 35t35 33t53 24.5t66.5 9.5q80 0 116.5 -45.5t36.5 -139.5v-39q0 -20 -1 -38q0 -11 -0.5 -30t-0.5 -29q0 -69 3 -103t19 -34q8 0 14 2q2 1 5 1q10 0 10 -15q0 -8 -5 -17t-13 -17 t-18.5 -13t-21.5 -5q-19 0 -35 15.5t-32 55.5h-7zM125 665q-11 7 -15 12.5t-4 14.5q0 14 11 28t23 14q4 0 8 -1t12 -8l117 -104l18 -17q6 -5 6 -13q0 -7 -5.5 -15t-13.5 -8q-10 0 -33 15z" />
<glyph unicode="&#xe1;" horiz-adv-x="473" d="M319 254q-23 4 -40 6t-36 2q-63 0 -94.5 -32t-31.5 -86q0 -44 22 -73t66 -29q24 0 45 11.5t36 32t24 48t9 60.5v60zM309 59q-30 -34 -60 -50t-68 -16q-31 0 -57.5 10t-46 29t-31 45.5t-11.5 59.5q0 78 51 122t142 44q23 0 44 -1.5t47 -4.5q1 8 1 15v16q0 72 -16 106 t-65 34q-25 0 -47 -12t-45 -46q-9 -13 -20 -23.5t-29 -10.5q-12 0 -19 7t-7 25q0 17 12.5 35t35 33t53 24.5t66.5 9.5q80 0 116.5 -45.5t36.5 -139.5v-39q0 -20 -1 -38q0 -11 -0.5 -30t-0.5 -29q0 -69 3 -103t19 -34q8 0 14 2q2 1 5 1q10 0 10 -15q0 -8 -5 -17t-13 -17 t-18.5 -13t-21.5 -5q-19 0 -35 15.5t-32 55.5h-7zM305 715q11 9 19.5 14.5t16.5 6.5q14 0 25 -14.5t11 -28.5q0 -8 -6 -14t-18 -14l-122 -80l-22 -13q-10 -6 -17 -6q-9 0 -15 6t-6 13q0 8 8.5 17t23.5 23z" />
<glyph unicode="&#xe2;" horiz-adv-x="473" d="M319 254q-23 4 -40 6t-36 2q-63 0 -94.5 -32t-31.5 -86q0 -44 22 -73t66 -29q24 0 45 11.5t36 32t24 48t9 60.5v60zM309 59q-30 -34 -60 -50t-68 -16q-31 0 -57.5 10t-46 29t-31 45.5t-11.5 59.5q0 78 51 122t142 44q23 0 44 -1.5t47 -4.5q1 8 1 15v16q0 72 -16 106 t-65 34q-25 0 -47 -12t-45 -46q-9 -13 -20 -23.5t-29 -10.5q-12 0 -19 7t-7 25q0 17 12.5 35t35 33t53 24.5t66.5 9.5q80 0 116.5 -45.5t36.5 -139.5v-39q0 -20 -1 -38q0 -11 -0.5 -30t-0.5 -29q0 -69 3 -103t19 -34q8 0 14 2q2 1 5 1q10 0 10 -15q0 -8 -5 -17t-13 -17 t-18.5 -13t-21.5 -5q-19 0 -35 15.5t-32 55.5h-7zM140 566q-18 0 -18 12q0 7 4 16l55 121q7 16 20.5 18.5t35.5 2.5t35.5 -2.5t20.5 -18.5l54 -121q5 -12 5 -16q0 -12 -19 -12h-4q-8 0 -12.5 1.5t-9.5 10.5l-70 108l-71 -108q-5 -9 -9.5 -10.5t-12.5 -1.5h-4z" />
<glyph unicode="&#xe3;" horiz-adv-x="473" d="M319 254q-23 4 -40 6t-36 2q-63 0 -94.5 -32t-31.5 -86q0 -44 22 -73t66 -29q24 0 45 11.5t36 32t24 48t9 60.5v60zM309 59q-30 -34 -60 -50t-68 -16q-31 0 -57.5 10t-46 29t-31 45.5t-11.5 59.5q0 78 51 122t142 44q23 0 44 -1.5t47 -4.5q1 8 1 15v16q0 72 -16 106 t-65 34q-25 0 -47 -12t-45 -46q-9 -13 -20 -23.5t-29 -10.5q-12 0 -19 7t-7 25q0 17 12.5 35t35 33t53 24.5t66.5 9.5q80 0 116.5 -45.5t36.5 -139.5v-39q0 -20 -1 -38q0 -11 -0.5 -30t-0.5 -29q0 -69 3 -103t19 -34q8 0 14 2q2 1 5 1q10 0 10 -15q0 -8 -5 -17t-13 -17 t-18.5 -13t-21.5 -5q-19 0 -35 15.5t-32 55.5h-7zM120 606q0 10 5.5 24t15 26.5t23 21.5t29.5 9q11 0 23 -3.5t23 -8.5q13 -5 24.5 -8.5t25.5 -3.5q17 0 24 7t11 15q5 12 11 12q7 0 13 -2.5t6 -10.5q0 -14 -6 -28.5t-16.5 -26t-23.5 -19t-28 -7.5q-14 0 -27 5l-28 9 q-12 5 -21 8t-20 3q-10 0 -16.5 -5.5t-11.5 -11.5t-9 -11.5t-8 -5.5q-5 0 -12 3.5t-7 8.5z" />
<glyph unicode="&#xe4;" horiz-adv-x="473" d="M319 254q-23 4 -40 6t-36 2q-63 0 -94.5 -32t-31.5 -86q0 -44 22 -73t66 -29q24 0 45 11.5t36 32t24 48t9 60.5v60zM309 59q-30 -34 -60 -50t-68 -16q-31 0 -57.5 10t-46 29t-31 45.5t-11.5 59.5q0 78 51 122t142 44q23 0 44 -1.5t47 -4.5q1 8 1 15v16q0 72 -16 106 t-65 34q-25 0 -47 -12t-45 -46q-9 -13 -20 -23.5t-29 -10.5q-12 0 -19 7t-7 25q0 17 12.5 35t35 33t53 24.5t66.5 9.5q80 0 116.5 -45.5t36.5 -139.5v-39q0 -20 -1 -38q0 -11 -0.5 -30t-0.5 -29q0 -69 3 -103t19 -34q8 0 14 2q2 1 5 1q10 0 10 -15q0 -8 -5 -17t-13 -17 t-18.5 -13t-21.5 -5q-19 0 -35 15.5t-32 55.5h-7zM267 640q0 22 13.5 37t33.5 15t32 -13.5t12 -33.5t-13 -35t-33 -15q-19 0 -32 13t-13 32zM116 640q0 22 13.5 37t33.5 15t32 -13.5t12 -33.5t-13 -35t-33 -15q-19 0 -32 13t-13 32z" />
<glyph unicode="&#xe5;" horiz-adv-x="473" d="M319 254q-23 4 -40 6t-36 2q-63 0 -94.5 -32t-31.5 -86q0 -44 22 -73t66 -29q24 0 45 11.5t36 32t24 48t9 60.5v60zM309 59q-30 -34 -60 -50t-68 -16q-31 0 -57.5 10t-46 29t-31 45.5t-11.5 59.5q0 78 51 122t142 44q23 0 44 -1.5t47 -4.5q1 8 1 15v16q0 72 -16 106 t-65 34q-25 0 -47 -12t-45 -46q-9 -13 -20 -23.5t-29 -10.5q-12 0 -19 7t-7 25q0 17 12.5 35t35 33t53 24.5t66.5 9.5q80 0 116.5 -45.5t36.5 -139.5v-39q0 -20 -1 -38q0 -11 -0.5 -30t-0.5 -29q0 -69 3 -103t19 -34q8 0 14 2q2 1 5 1q10 0 10 -15q0 -8 -5 -17t-13 -17 t-18.5 -13t-21.5 -5q-19 0 -35 15.5t-32 55.5h-7zM257 542q-22 0 -42.5 9t-37 25t-26.5 38t-10 49t10 49t26.5 38t37 25t42.5 9t42.5 -9t37 -25t26.5 -38t10 -49t-10 -49t-26.5 -38t-37 -25t-42.5 -9zM257 593q27 0 44 20.5t17 49.5t-17 49.5t-44 20.5q-28 0 -44.5 -20.5 t-16.5 -49.5t17 -49.5t44 -20.5z" />
<glyph unicode="&#xe6;" horiz-adv-x="708" d="M396 269q-10 0 -14 -4t-4 -15q0 -45 8 -82.5t24.5 -64.5t40 -42.5t55.5 -15.5q36 0 58.5 13.5t45.5 40.5q4 4 7 7.5t6 7.5l15 16q7 8 14 8q13 0 13 -18q0 -24 -20 -50q-29 -39 -65.5 -60.5t-85.5 -21.5q-53 0 -97.5 27t-73.5 83q-23 -46 -61 -75t-98 -29 q-28 0 -51.5 10.5t-41 29t-27 44.5t-9.5 56q0 78 47.5 121.5t137.5 43.5q16 0 34 -1t41 -4q1 8 1 16v16q0 71 -15.5 106t-55.5 35q-23 0 -38.5 -12t-38.5 -45q-9 -13 -19 -23.5t-27 -10.5q-28 0 -28 34q0 16 12 33.5t32.5 32.5t48 25t58.5 10q39 0 74.5 -19.5t57.5 -57.5 q29 37 65.5 57t76.5 20q37 0 67.5 -14t53 -39.5t35 -61.5t12.5 -80q0 -17 -1.5 -26.5t-5.5 -14t-10.5 -5.5t-16.5 -1h-237zM295 254q-21 3 -36.5 4.5t-32.5 1.5q-61 0 -86.5 -29t-25.5 -87q0 -46 18 -72.5t57 -26.5q47 0 76.5 36t29.5 99v74zM574 309q11 0 15 4t4 17 q0 59 -26.5 98t-76.5 39q-23 0 -43 -15t-35 -36.5t-23.5 -46.5t-8.5 -46q0 -9 4.5 -11.5t14.5 -2.5h175z" />
<glyph unicode="&#xe7;" horiz-adv-x="461" d="M265 -58q23 5 33 5q37 0 57.5 -23.5t20.5 -61.5q0 -44 -31 -66t-89 -22q-17 0 -34 3t-30 9t-21 14t-8 17q0 19 15 19q6 0 14 -4q11 -5 26 -10.5t37 -5.5q33 0 47 10.5t14 35.5q0 45 -48 45q-8 0 -17.5 -1.5t-17.5 -1.5q-5 0 -5 11q0 17 1 35t4 38q-44 4 -79.5 24.5 t-61 53.5t-39.5 78t-14 99q0 58 17 107.5t46.5 85.5t70 56t87.5 20q39 0 70.5 -11.5t53.5 -29.5t33.5 -39.5t11.5 -42.5q0 -20 -10.5 -33.5t-25.5 -13.5q-17 0 -28.5 14t-22.5 38q-32 72 -88 72q-27 0 -51.5 -13.5t-43 -39.5t-29 -64t-10.5 -87q0 -48 12.5 -87.5t32.5 -68.5 t46.5 -45t55.5 -16q35 0 54.5 8.5t38.5 24.5q8 7 15 14.5t12 14.5l15 17q8 8 15 8q14 0 14 -20q0 -23 -24 -53q-56 -66 -140 -71q-1 -8 -1.5 -16.5t-0.5 -19.5v-10z" />
<glyph unicode="&#xe8;" horiz-adv-x="478" d="M143 271q-11 0 -14.5 -4t-3.5 -15q0 -46 10 -84t28.5 -65.5t45 -43t60.5 -15.5q55 0 96 38l15 16q7 7 12 14q8 11 15.5 18.5t14.5 7.5q14 0 14 -18q0 -23 -21 -50q-32 -40 -73 -61.5t-90 -21.5q-46 0 -84.5 19.5t-66.5 53.5t-43.5 80.5t-15.5 101.5q0 60 17 109.5 t46 85.5t69 56t86 20q81 0 129 -52.5t48 -142.5q0 -17 -1.5 -26.5t-5 -14t-10 -5.5t-16.5 -1h-261zM342 313q11 0 15.5 4t4.5 16q0 28 -7.5 52t-21.5 42t-35.5 28.5t-48.5 10.5q-29 0 -49 -13.5t-39 -39.5q-17 -23 -25.5 -47t-8.5 -39q0 -14 17 -14h198zM141 665 q-11 7 -15 12.5t-4 14.5q0 14 11 28t23 14q4 0 8 -1t12 -8l117 -104l18 -17q6 -5 6 -13q0 -7 -5.5 -15t-13.5 -8q-10 0 -33 15z" />
<glyph unicode="&#xe9;" horiz-adv-x="478" d="M143 271q-11 0 -14.5 -4t-3.5 -15q0 -46 10 -84t28.5 -65.5t45 -43t60.5 -15.5q55 0 96 38l15 16q7 7 12 14q8 11 15.5 18.5t14.5 7.5q14 0 14 -18q0 -23 -21 -50q-32 -40 -73 -61.5t-90 -21.5q-46 0 -84.5 19.5t-66.5 53.5t-43.5 80.5t-15.5 101.5q0 60 17 109.5 t46 85.5t69 56t86 20q81 0 129 -52.5t48 -142.5q0 -17 -1.5 -26.5t-5 -14t-10 -5.5t-16.5 -1h-261zM342 313q11 0 15.5 4t4.5 16q0 28 -7.5 52t-21.5 42t-35.5 28.5t-48.5 10.5q-29 0 -49 -13.5t-39 -39.5q-17 -23 -25.5 -47t-8.5 -39q0 -14 17 -14h198zM321 715 q11 9 19.5 14.5t16.5 6.5q14 0 25 -14.5t11 -28.5q0 -8 -6 -14t-18 -14l-122 -80l-22 -13q-10 -6 -17 -6q-9 0 -15 6t-6 13q0 8 8.5 17t23.5 23z" />
<glyph unicode="&#xea;" horiz-adv-x="478" d="M143 271q-11 0 -14.5 -4t-3.5 -15q0 -46 10 -84t28.5 -65.5t45 -43t60.5 -15.5q55 0 96 38l15 16q7 7 12 14q8 11 15.5 18.5t14.5 7.5q14 0 14 -18q0 -23 -21 -50q-32 -40 -73 -61.5t-90 -21.5q-46 0 -84.5 19.5t-66.5 53.5t-43.5 80.5t-15.5 101.5q0 60 17 109.5 t46 85.5t69 56t86 20q81 0 129 -52.5t48 -142.5q0 -17 -1.5 -26.5t-5 -14t-10 -5.5t-16.5 -1h-261zM342 313q11 0 15.5 4t4.5 16q0 28 -7.5 52t-21.5 42t-35.5 28.5t-48.5 10.5q-29 0 -49 -13.5t-39 -39.5q-17 -23 -25.5 -47t-8.5 -39q0 -14 17 -14h198zM156 566 q-18 0 -18 12q0 7 4 16l55 121q7 16 20.5 18.5t35.5 2.5t35.5 -2.5t20.5 -18.5l54 -121q5 -12 5 -16q0 -12 -19 -12h-4q-8 0 -12.5 1.5t-9.5 10.5l-70 108l-71 -108q-5 -9 -9.5 -10.5t-12.5 -1.5h-4z" />
<glyph unicode="&#xeb;" horiz-adv-x="478" d="M143 271q-11 0 -14.5 -4t-3.5 -15q0 -46 10 -84t28.5 -65.5t45 -43t60.5 -15.5q55 0 96 38l15 16q7 7 12 14q8 11 15.5 18.5t14.5 7.5q14 0 14 -18q0 -23 -21 -50q-32 -40 -73 -61.5t-90 -21.5q-46 0 -84.5 19.5t-66.5 53.5t-43.5 80.5t-15.5 101.5q0 60 17 109.5 t46 85.5t69 56t86 20q81 0 129 -52.5t48 -142.5q0 -17 -1.5 -26.5t-5 -14t-10 -5.5t-16.5 -1h-261zM342 313q11 0 15.5 4t4.5 16q0 28 -7.5 52t-21.5 42t-35.5 28.5t-48.5 10.5q-29 0 -49 -13.5t-39 -39.5q-17 -23 -25.5 -47t-8.5 -39q0 -14 17 -14h198zM283 640 q0 22 13.5 37t33.5 15t32 -13.5t12 -33.5t-13 -35t-33 -15q-19 0 -32 13t-13 32zM132 640q0 22 13.5 37t33.5 15t32 -13.5t12 -33.5t-13 -35t-33 -15q-19 0 -32 13t-13 32z" />
<glyph unicode="&#xec;" horiz-adv-x="241" d="M35 24q0 11 5.5 15.5t13.5 6.5q5 2 10.5 4t9.5 6q9 9 11 42t2 92q0 215 -11 237q-2 5 -10 7t-16 3q-9 2 -16 5t-7 16q0 20 29 33q27 13 52.5 17.5t33.5 4.5q11 0 14.5 -8.5t3.5 -27.5q0 -4 -0.5 -10.5t-0.5 -17.5q-1 -33 -2 -101.5t-1 -172.5q0 -51 2 -80.5t11 -38.5 q4 -4 9 -6l11 -4q8 -2 13.5 -6.5t5.5 -15.5q0 -16 -22 -22t-63 -6q-42 0 -65 5.5t-23 22.5zM-4 665q-11 7 -15 12.5t-4 14.5q0 14 11 28t23 14q4 0 8 -1t12 -8l117 -104l18 -17q6 -5 6 -13q0 -7 -5.5 -15t-13.5 -8q-10 0 -33 15z" />
<glyph unicode="&#xed;" horiz-adv-x="241" d="M35 24q0 11 5.5 15.5t13.5 6.5q5 2 10.5 4t9.5 6q9 9 11 42t2 92q0 215 -11 237q-2 5 -10 7t-16 3q-9 2 -16 5t-7 16q0 20 29 33q27 13 52.5 17.5t33.5 4.5q11 0 14.5 -8.5t3.5 -27.5q0 -4 -0.5 -10.5t-0.5 -17.5q-1 -33 -2 -101.5t-1 -172.5q0 -51 2 -80.5t11 -38.5 q4 -4 9 -6l11 -4q8 -2 13.5 -6.5t5.5 -15.5q0 -16 -22 -22t-63 -6q-42 0 -65 5.5t-23 22.5zM176 715q11 9 19.5 14.5t16.5 6.5q14 0 25 -14.5t11 -28.5q0 -8 -6 -14t-18 -14l-122 -80l-22 -13q-10 -6 -17 -6q-9 0 -15 6t-6 13q0 8 8.5 17t23.5 23z" />
<glyph unicode="&#xee;" horiz-adv-x="241" d="M35 24q0 11 5.5 15.5t13.5 6.5q5 2 10.5 4t9.5 6q9 9 11 42t2 92q0 215 -11 237q-2 5 -10 7t-16 3q-9 2 -16 5t-7 16q0 20 29 33q27 13 52.5 17.5t33.5 4.5q11 0 14.5 -8.5t3.5 -27.5q0 -4 -0.5 -10.5t-0.5 -17.5q-1 -33 -2 -101.5t-1 -172.5q0 -51 2 -80.5t11 -38.5 q4 -4 9 -6l11 -4q8 -2 13.5 -6.5t5.5 -15.5q0 -16 -22 -22t-63 -6q-42 0 -65 5.5t-23 22.5zM11 566q-18 0 -18 12q0 7 4 16l55 121q7 16 20.5 18.5t35.5 2.5t35.5 -2.5t20.5 -18.5l54 -121q5 -12 5 -16q0 -12 -19 -12h-4q-8 0 -12.5 1.5t-9.5 10.5l-70 108l-71 -108 q-5 -9 -9.5 -10.5t-12.5 -1.5h-4z" />
<glyph unicode="&#xef;" horiz-adv-x="241" d="M35 24q0 11 5.5 15.5t13.5 6.5q5 2 10.5 4t9.5 6q9 9 11 42t2 92q0 215 -11 237q-2 5 -10 7t-16 3q-9 2 -16 5t-7 16q0 20 29 33q27 13 52.5 17.5t33.5 4.5q11 0 14.5 -8.5t3.5 -27.5q0 -4 -0.5 -10.5t-0.5 -17.5q-1 -33 -2 -101.5t-1 -172.5q0 -51 2 -80.5t11 -38.5 q4 -4 9 -6l11 -4q8 -2 13.5 -6.5t5.5 -15.5q0 -16 -22 -22t-63 -6q-42 0 -65 5.5t-23 22.5zM138 640q0 22 13.5 37t33.5 15t32 -13.5t12 -33.5t-13 -35t-33 -15q-19 0 -32 13t-13 32zM-13 640q0 22 13.5 37t33.5 15t32 -13.5t12 -33.5t-13 -35t-33 -15q-19 0 -32 13t-13 32z " />
<glyph unicode="&#xf0;" horiz-adv-x="474" d="M219 601l-39 47q-20 23 -39 41l-19 20q-9 9 -9 16q0 8 5.5 12t11.5 4q11 0 48 -26.5t92 -87.5l115 59q4 2 8 3.5t10 1.5q19 0 19 -16t-20 -26l-105 -54q60 -74 99.5 -162t39.5 -185q0 -60 -15 -108.5t-42 -82.5t-64 -52t-82 -18q-42 0 -77.5 17.5t-61.5 49t-41 73.5 t-15 92q0 51 16 95t43 76t62.5 50.5t74.5 18.5q23 0 42 -5.5t44 -23.5q-12 32 -32 67.5t-45 70.5l-116 -60q-4 -2 -8.5 -4t-10.5 -2q-8 0 -13 5t-5 12q0 15 19 25zM242 30q55 0 82 46t27 128q0 46 -8.5 84.5t-24 67t-38.5 44.5t-52 16q-51 0 -77 -46.5t-26 -133.5 q0 -45 8 -82.5t23 -65t37 -43t49 -15.5z" />
<glyph unicode="&#xf1;" horiz-adv-x="521" d="M156 259q0 -88 1 -137t6 -60q4 -6 11 -10t15 -6q8 -3 13.5 -7t5.5 -15q0 -17 -23 -22.5t-65 -5.5t-65.5 5.5t-23.5 22.5q0 11 5.5 15t13.5 7q8 2 15 6t11 10q6 11 7.5 60t1.5 137q0 74 -3.5 115.5t-8.5 52.5q-3 5 -10 7t-15 3q-9 2 -16.5 5t-7.5 16q0 9 11.5 18.5 t29 17.5t37 13.5t35.5 5.5q11 0 14.5 -8.5t3.5 -27.5v-40q0 -14 8 -14q7 0 11.5 5t10.5 14q29 41 56 56.5t59 15.5q44 0 72.5 -20t45 -50t22.5 -65t6 -65v-95q0 -27 0.5 -55.5t0.5 -62.5q0 -13 2 -27t15 -23q4 -3 15 -5q8 -2 13.5 -6.5t5.5 -15.5q0 -17 -23.5 -22.5 t-65.5 -5.5t-65 5.5t-23 22.5q0 11 5.5 15t13.5 7q8 2 15 6t11 10q6 11 7 63.5t1 149.5q0 44 -3.5 76.5t-14 53.5t-28.5 31.5t-46 10.5q-35 0 -59.5 -19.5t-47.5 -53.5q-14 -20 -16.5 -40t-2.5 -46v-29zM143 606q0 10 5.5 24t15 26.5t23 21.5t29.5 9q11 0 23 -3.5t23 -8.5 q13 -5 24.5 -8.5t25.5 -3.5q17 0 24 7t11 15q5 12 11 12q7 0 13 -2.5t6 -10.5q0 -14 -6 -28.5t-16.5 -26t-23.5 -19t-28 -7.5q-14 0 -27 5l-28 9q-12 5 -21 8t-20 3q-10 0 -16.5 -5.5t-11.5 -11.5t-9 -11.5t-8 -5.5q-5 0 -12 3.5t-7 8.5z" />
<glyph unicode="&#xf2;" horiz-adv-x="521" d="M256 -13q-47 0 -86.5 19.5t-68.5 54t-45.5 81t-16.5 100.5q0 59 17.5 108.5t48.5 85.5t73 56.5t90 20.5q46 0 85.5 -18.5t68 -52t44.5 -80t16 -101.5q0 -59 -17.5 -109.5t-48 -87t-72 -57t-88.5 -20.5zM265 32q66 0 98.5 52.5t32.5 150.5q0 49 -10 91.5t-29.5 73.5 t-47 48.5t-61.5 17.5q-58 0 -91.5 -51.5t-33.5 -143.5q0 -53 10 -97t28.5 -75.5t45 -49t58.5 -17.5zM148 665q-11 7 -15 12.5t-4 14.5q0 14 11 28t23 14q4 0 8 -1t12 -8l117 -104l18 -17q6 -5 6 -13q0 -7 -5.5 -15t-13.5 -8q-10 0 -33 15z" />
<glyph unicode="&#xf3;" horiz-adv-x="521" d="M256 -13q-47 0 -86.5 19.5t-68.5 54t-45.5 81t-16.5 100.5q0 59 17.5 108.5t48.5 85.5t73 56.5t90 20.5q46 0 85.5 -18.5t68 -52t44.5 -80t16 -101.5q0 -59 -17.5 -109.5t-48 -87t-72 -57t-88.5 -20.5zM265 32q66 0 98.5 52.5t32.5 150.5q0 49 -10 91.5t-29.5 73.5 t-47 48.5t-61.5 17.5q-58 0 -91.5 -51.5t-33.5 -143.5q0 -53 10 -97t28.5 -75.5t45 -49t58.5 -17.5zM328 715q11 9 19.5 14.5t16.5 6.5q14 0 25 -14.5t11 -28.5q0 -8 -6 -14t-18 -14l-122 -80l-22 -13q-10 -6 -17 -6q-9 0 -15 6t-6 13q0 8 8.5 17t23.5 23z" />
<glyph unicode="&#xf4;" horiz-adv-x="521" d="M256 -13q-47 0 -86.5 19.5t-68.5 54t-45.5 81t-16.5 100.5q0 59 17.5 108.5t48.5 85.5t73 56.5t90 20.5q46 0 85.5 -18.5t68 -52t44.5 -80t16 -101.5q0 -59 -17.5 -109.5t-48 -87t-72 -57t-88.5 -20.5zM265 32q66 0 98.5 52.5t32.5 150.5q0 49 -10 91.5t-29.5 73.5 t-47 48.5t-61.5 17.5q-58 0 -91.5 -51.5t-33.5 -143.5q0 -53 10 -97t28.5 -75.5t45 -49t58.5 -17.5zM163 566q-18 0 -18 12q0 7 4 16l55 121q7 16 20.5 18.5t35.5 2.5t35.5 -2.5t20.5 -18.5l54 -121q5 -12 5 -16q0 -12 -19 -12h-4q-8 0 -12.5 1.5t-9.5 10.5l-70 108 l-71 -108q-5 -9 -9.5 -10.5t-12.5 -1.5h-4z" />
<glyph unicode="&#xf5;" horiz-adv-x="521" d="M256 -13q-47 0 -86.5 19.5t-68.5 54t-45.5 81t-16.5 100.5q0 59 17.5 108.5t48.5 85.5t73 56.5t90 20.5q46 0 85.5 -18.5t68 -52t44.5 -80t16 -101.5q0 -59 -17.5 -109.5t-48 -87t-72 -57t-88.5 -20.5zM265 32q66 0 98.5 52.5t32.5 150.5q0 49 -10 91.5t-29.5 73.5 t-47 48.5t-61.5 17.5q-58 0 -91.5 -51.5t-33.5 -143.5q0 -53 10 -97t28.5 -75.5t45 -49t58.5 -17.5zM143 606q0 10 5.5 24t15 26.5t23 21.5t29.5 9q11 0 23 -3.5t23 -8.5q13 -5 24.5 -8.5t25.5 -3.5q17 0 24 7t11 15q5 12 11 12q7 0 13 -2.5t6 -10.5q0 -14 -6 -28.5 t-16.5 -26t-23.5 -19t-28 -7.5q-14 0 -27 5l-28 9q-12 5 -21 8t-20 3q-10 0 -16.5 -5.5t-11.5 -11.5t-9 -11.5t-8 -5.5q-5 0 -12 3.5t-7 8.5z" />
<glyph unicode="&#xf6;" horiz-adv-x="521" d="M256 -13q-47 0 -86.5 19.5t-68.5 54t-45.5 81t-16.5 100.5q0 59 17.5 108.5t48.5 85.5t73 56.5t90 20.5q46 0 85.5 -18.5t68 -52t44.5 -80t16 -101.5q0 -59 -17.5 -109.5t-48 -87t-72 -57t-88.5 -20.5zM265 32q66 0 98.5 52.5t32.5 150.5q0 49 -10 91.5t-29.5 73.5 t-47 48.5t-61.5 17.5q-58 0 -91.5 -51.5t-33.5 -143.5q0 -53 10 -97t28.5 -75.5t45 -49t58.5 -17.5zM290 640q0 22 13.5 37t33.5 15t32 -13.5t12 -33.5t-13 -35t-33 -15q-19 0 -32 13t-13 32zM139 640q0 22 13.5 37t33.5 15t32 -13.5t12 -33.5t-13 -35t-33 -15q-19 0 -32 13 t-13 32z" />
<glyph unicode="&#xf7;" d="M194 474q0 23 16.5 39.5t39.5 16.5t39.5 -16.5t16.5 -39.5t-16 -39.5t-40 -16.5t-40 16.5t-16 39.5zM27 327h456v-57h-456v57zM194 122q0 24 16.5 40t39.5 16t39.5 -16.5t16.5 -39.5t-16 -39.5t-40 -16.5q-23 0 -39.5 16.5t-16.5 39.5z" />
<glyph unicode="&#xf8;" horiz-adv-x="521" d="M108 52q-32 35 -50.5 84t-18.5 106q0 59 17.5 108.5t48.5 85.5t73 56.5t90 20.5q64 0 113 -34l44 69q13 21 23 21q5 0 12 -4t7 -10q0 -10 -10 -27l-47 -74q34 -34 53 -83.5t19 -109.5q0 -59 -17.5 -109.5t-48 -87t-72 -57t-88.5 -20.5q-67 0 -119 40l-50 -78 q-14 -22 -23 -22q-5 0 -12.5 4.5t-7.5 9.5t2 10t7 14zM172 82q37 -50 93 -50q66 0 98.5 52.5t32.5 150.5q0 89 -31 149zM343 419q-39 47 -95 47q-58 0 -91.5 -51.5t-33.5 -143.5q0 -90 28 -152z" />
<glyph unicode="&#xf9;" horiz-adv-x="521" d="M76 309q0 54 -2 85t-12 39q-3 2 -8 3l-12 2q-9 1 -17 4t-8 17q0 19 30 33q29 13 55 17.5t31 4.5q13 0 16.5 -8t3.5 -28q0 -19 -1 -39l-2 -42q-3 -48 -3 -102v-28q0 -51 2 -90t10 -66q9 -29 28 -46.5t53 -17.5q32 0 58.5 20.5t48.5 52.5q13 20 16 45.5t3 61.5v82 q0 54 -2 84.5t-12 39.5q-3 2 -8 3l-12 2q-9 1 -16.5 4t-7.5 17q0 19 30 33q14 6 28.5 10.5t26.5 7t20 3.5t11 1q12 0 15.5 -8t3.5 -28q0 -23 -1 -47l-2 -48q-3 -50 -3 -100q0 -93 2 -145.5t8 -64.5q3 -5 11 -7t16 -3q9 -2 16.5 -5.5t7.5 -14.5q0 -9 -11.5 -19t-29 -18.5 t-37 -13.5t-35.5 -5q-11 0 -14.5 8.5t-3.5 27.5v36q0 14 -8 14q-6 0 -9 -5l-8 -13q-21 -33 -50.5 -51t-70.5 -18q-145 0 -145 239v84zM141 665q-11 7 -15 12.5t-4 14.5q0 14 11 28t23 14q4 0 8 -1t12 -8l117 -104l18 -17q6 -5 6 -13q0 -7 -5.5 -15t-13.5 -8q-10 0 -33 15z " />
<glyph unicode="&#xfa;" horiz-adv-x="521" d="M76 309q0 54 -2 85t-12 39q-3 2 -8 3l-12 2q-9 1 -17 4t-8 17q0 19 30 33q29 13 55 17.5t31 4.5q13 0 16.5 -8t3.5 -28q0 -19 -1 -39l-2 -42q-3 -48 -3 -102v-28q0 -51 2 -90t10 -66q9 -29 28 -46.5t53 -17.5q32 0 58.5 20.5t48.5 52.5q13 20 16 45.5t3 61.5v82 q0 54 -2 84.5t-12 39.5q-3 2 -8 3l-12 2q-9 1 -16.5 4t-7.5 17q0 19 30 33q14 6 28.5 10.5t26.5 7t20 3.5t11 1q12 0 15.5 -8t3.5 -28q0 -23 -1 -47l-2 -48q-3 -50 -3 -100q0 -93 2 -145.5t8 -64.5q3 -5 11 -7t16 -3q9 -2 16.5 -5.5t7.5 -14.5q0 -9 -11.5 -19t-29 -18.5 t-37 -13.5t-35.5 -5q-11 0 -14.5 8.5t-3.5 27.5v36q0 14 -8 14q-6 0 -9 -5l-8 -13q-21 -33 -50.5 -51t-70.5 -18q-145 0 -145 239v84zM321 715q11 9 19.5 14.5t16.5 6.5q14 0 25 -14.5t11 -28.5q0 -8 -6 -14t-18 -14l-122 -80l-22 -13q-10 -6 -17 -6q-9 0 -15 6t-6 13 q0 8 8.5 17t23.5 23z" />
<glyph unicode="&#xfb;" horiz-adv-x="521" d="M76 309q0 54 -2 85t-12 39q-3 2 -8 3l-12 2q-9 1 -17 4t-8 17q0 19 30 33q29 13 55 17.5t31 4.5q13 0 16.5 -8t3.5 -28q0 -19 -1 -39l-2 -42q-3 -48 -3 -102v-28q0 -51 2 -90t10 -66q9 -29 28 -46.5t53 -17.5q32 0 58.5 20.5t48.5 52.5q13 20 16 45.5t3 61.5v82 q0 54 -2 84.5t-12 39.5q-3 2 -8 3l-12 2q-9 1 -16.5 4t-7.5 17q0 19 30 33q14 6 28.5 10.5t26.5 7t20 3.5t11 1q12 0 15.5 -8t3.5 -28q0 -23 -1 -47l-2 -48q-3 -50 -3 -100q0 -93 2 -145.5t8 -64.5q3 -5 11 -7t16 -3q9 -2 16.5 -5.5t7.5 -14.5q0 -9 -11.5 -19t-29 -18.5 t-37 -13.5t-35.5 -5q-11 0 -14.5 8.5t-3.5 27.5v36q0 14 -8 14q-6 0 -9 -5l-8 -13q-21 -33 -50.5 -51t-70.5 -18q-145 0 -145 239v84zM156 566q-18 0 -18 12q0 7 4 16l55 121q7 16 20.5 18.5t35.5 2.5t35.5 -2.5t20.5 -18.5l54 -121q5 -12 5 -16q0 -12 -19 -12h-4 q-8 0 -12.5 1.5t-9.5 10.5l-70 108l-71 -108q-5 -9 -9.5 -10.5t-12.5 -1.5h-4z" />
<glyph unicode="&#xfc;" horiz-adv-x="521" d="M76 309q0 54 -2 85t-12 39q-3 2 -8 3l-12 2q-9 1 -17 4t-8 17q0 19 30 33q29 13 55 17.5t31 4.5q13 0 16.5 -8t3.5 -28q0 -19 -1 -39l-2 -42q-3 -48 -3 -102v-28q0 -51 2 -90t10 -66q9 -29 28 -46.5t53 -17.5q32 0 58.5 20.5t48.5 52.5q13 20 16 45.5t3 61.5v82 q0 54 -2 84.5t-12 39.5q-3 2 -8 3l-12 2q-9 1 -16.5 4t-7.5 17q0 19 30 33q14 6 28.5 10.5t26.5 7t20 3.5t11 1q12 0 15.5 -8t3.5 -28q0 -23 -1 -47l-2 -48q-3 -50 -3 -100q0 -93 2 -145.5t8 -64.5q3 -5 11 -7t16 -3q9 -2 16.5 -5.5t7.5 -14.5q0 -9 -11.5 -19t-29 -18.5 t-37 -13.5t-35.5 -5q-11 0 -14.5 8.5t-3.5 27.5v36q0 14 -8 14q-6 0 -9 -5l-8 -13q-21 -33 -50.5 -51t-70.5 -18q-145 0 -145 239v84zM283 640q0 22 13.5 37t33.5 15t32 -13.5t12 -33.5t-13 -35t-33 -15q-19 0 -32 13t-13 32zM132 640q0 22 13.5 37t33.5 15t32 -13.5 t12 -33.5t-13 -35t-33 -15q-19 0 -32 13t-13 32z" />
<glyph unicode="&#xfd;" horiz-adv-x="485" d="M39 -147q0 20 10.5 32.5t26.5 12.5q14 0 21.5 -7t13.5 -21q5 -11 10 -17.5t17 -6.5q11 0 23.5 9.5t22.5 26.5t16.5 39.5t6.5 48.5q0 45 -41 151l-103 280q-14 40 -26 49q-3 3 -8.5 4.5t-11 3.5t-9 5.5t-3.5 11.5q0 17 21 23t65 6q46 0 71.5 -6t25.5 -23q0 -13 -17 -19 q-11 -5 -19.5 -8.5t-8.5 -16.5q0 -11 9.5 -47.5t34.5 -107.5l46 -130q17 -46 22 -46t13 28l23 73l49 149q17 53 17 79q0 10 -8 15.5t-18 9.5t-18 9t-8 14q0 16 24 21.5t66 5.5q41 0 60.5 -5.5t19.5 -21.5q0 -11 -9.5 -14t-23.5 -10q-18 -9 -26 -29l-19 -54 q-52 -149 -84 -258.5t-56 -173.5q-28 -72 -65 -108.5t-87 -36.5q-31 0 -48.5 17t-17.5 43zM301 715q11 9 19.5 14.5t16.5 6.5q14 0 25 -14.5t11 -28.5q0 -8 -6 -14t-18 -14l-122 -80l-22 -13q-10 -6 -17 -6q-9 0 -15 6t-6 13q0 8 8.5 17t23.5 23z" />
<glyph unicode="&#xfe;" horiz-adv-x="519" d="M157 157q0 -22 1.5 -38.5t10.5 -29.5q17 -24 43.5 -40.5t61.5 -16.5q67 0 95 51t28 146q0 48 -8.5 88.5t-25 70t-40.5 45.5t-56 16q-49 0 -79.5 -33.5t-30.5 -99.5v-159zM157 19q0 -67 1.5 -105t6.5 -48q5 -6 14 -10t17 -6t15 -5.5t7 -13.5q0 -17 -23 -24t-68 -7t-71.5 7 t-26.5 24q0 10 5.5 13t13.5 6q8 2 15 6t11 10q7 12 8 90t1 225v214q0 118 -2.5 182.5t-9.5 78.5q-3 5 -10.5 7t-15.5 3q-9 2 -16.5 5t-7.5 16q0 20 31 33q14 6 29 10.5t27.5 7t21 3.5t11.5 1q12 0 15.5 -8t3.5 -28q0 -15 -0.5 -32.5t-1 -45t-1 -68.5t-0.5 -103q0 -8 1 -11 t6 -3t11 4t18 15q27 25 54.5 36t55.5 11q39 0 71.5 -17.5t56.5 -49t37 -76.5t13 -100q0 -61 -16 -112t-43.5 -88t-65.5 -57.5t-82 -20.5q-29 0 -53 8.5t-56 26.5z" />
<glyph unicode="&#xff;" horiz-adv-x="485" d="M39 -147q0 20 10.5 32.5t26.5 12.5q14 0 21.5 -7t13.5 -21q5 -11 10 -17.5t17 -6.5q11 0 23.5 9.5t22.5 26.5t16.5 39.5t6.5 48.5q0 45 -41 151l-103 280q-14 40 -26 49q-3 3 -8.5 4.5t-11 3.5t-9 5.5t-3.5 11.5q0 17 21 23t65 6q46 0 71.5 -6t25.5 -23q0 -13 -17 -19 q-11 -5 -19.5 -8.5t-8.5 -16.5q0 -11 9.5 -47.5t34.5 -107.5l46 -130q17 -46 22 -46t13 28l23 73l49 149q17 53 17 79q0 10 -8 15.5t-18 9.5t-18 9t-8 14q0 16 24 21.5t66 5.5q41 0 60.5 -5.5t19.5 -21.5q0 -11 -9.5 -14t-23.5 -10q-18 -9 -26 -29l-19 -54 q-52 -149 -84 -258.5t-56 -173.5q-28 -72 -65 -108.5t-87 -36.5q-31 0 -48.5 17t-17.5 43zM263 640q0 22 13.5 37t33.5 15t32 -13.5t12 -33.5t-13 -35t-33 -15q-19 0 -32 13t-13 32zM112 640q0 22 13.5 37t33.5 15t32 -13.5t12 -33.5t-13 -35t-33 -15q-19 0 -32 13t-13 32z " />
<glyph unicode="&#x131;" horiz-adv-x="241" d="M35 24q0 11 5.5 15.5t13.5 6.5q5 2 10.5 4t9.5 6q9 9 11 42t2 92q0 215 -11 237q-2 5 -10 7t-16 3q-9 2 -16 5t-7 16q0 20 29 33q27 13 52.5 17.5t33.5 4.5q11 0 14.5 -8.5t3.5 -27.5q0 -4 -0.5 -10.5t-0.5 -17.5q-1 -33 -2 -101.5t-1 -172.5q0 -51 2 -80.5t11 -38.5 q4 -4 9 -6l11 -4q8 -2 13.5 -6.5t5.5 -15.5q0 -16 -22 -22t-63 -6q-42 0 -65 5.5t-23 22.5z" />
<glyph unicode="&#x152;" horiz-adv-x="974" d="M792 58q22 0 38.5 3.5t28.5 11t21.5 19.5t17.5 29q5 10 8.5 18.5t6.5 16.5q6 16 11 26.5t16 10.5q14 0 18.5 -12t4.5 -35q0 -32 -5.5 -60.5t-14 -50t-18 -34.5t-17.5 -13q-5 0 -11 3q-9 3 -25 6t-37 3h-282q-39 0 -66.5 -1.5t-48.5 -3.5t-39.5 -3.5t-40.5 -1.5 q-108 0 -185 68q-62 55 -95.5 136t-33.5 179q0 60 16.5 119t45.5 105q40 63 105 99.5t142 36.5q16 0 33 -0.5t37 -1.5q23 -1 52 -1.5t57 -0.5h279q36 0 52.5 5t29.5 5q19 -1 31 -29.5t12 -81.5q0 -41 -22 -41q-14 0 -19.5 12t-14.5 29q-14 26 -32 34t-53 8h-109 q-36 0 -56 -3.5t-24 -15.5q-6 -17 -8 -66t-2 -133v-8q0 -22 3 -27.5t20 -5.5h116q31 0 45 11t17 40q0 2 0.5 3t0.5 3q3 23 6 36.5t17 13.5q20 0 23.5 -28.5t3.5 -90.5v-17q0 -71 -3.5 -103.5t-23.5 -32.5q-16 0 -18.5 14t-4.5 37q0 2 -0.5 3t-0.5 3q-3 29 -17 40t-45 11 h-116q-14 0 -19 -8t-5 -31v-22q0 -9 0.5 -19.5t0.5 -22.5q0 -134 11 -163q6 -18 31 -24t71 -6h83zM195 170q34 -63 77 -96.5t106 -33.5q55 0 90.5 16.5t46.5 40.5q15 33 15 265q0 106 -2 166.5t-5 74.5q-6 28 -22.5 44.5t-39.5 25t-50 11t-54 2.5q-109 0 -163 -74.5 t-54 -208.5q0 -65 14.5 -125.5t40.5 -107.5z" />
<glyph unicode="&#x153;" horiz-adv-x="806" d="M257 32q58 0 89 53t31 150q0 49 -10.5 91.5t-29 74t-43.5 49t-54 17.5q-55 0 -87.5 -52t-32.5 -143q0 -53 10.5 -97.5t28.5 -76t43 -49t55 -17.5zM662 309q11 0 16 4t5 17q0 29 -5.5 54t-17.5 43.5t-30 29t-42 10.5q-49 0 -85 -51q-17 -23 -25.5 -49.5t-8.5 -43.5 q0 -9 4.5 -11.5t13.5 -2.5h175zM484 271q-10 0 -13.5 -4t-3.5 -15q0 -45 10.5 -82.5t29 -65t43.5 -43t54 -15.5t56.5 14t58.5 51q9 11 16.5 18.5t15.5 7.5q5 0 10 -4t5 -14q0 -11 -7 -24t-17 -26q-29 -39 -65.5 -60.5t-87.5 -21.5q-52 0 -96.5 27t-73.5 81 q-38 -55 -79.5 -81.5t-96.5 -26.5q-41 0 -78.5 19.5t-65.5 54.5t-44.5 83t-16.5 104q0 57 16.5 105.5t46 84t69 55.5t86.5 20q54 0 93.5 -26.5t73.5 -76.5q27 48 72 74.5t101 26.5q37 0 68 -13.5t53.5 -38.5t34.5 -61t12 -80q0 -17 -1.5 -26.5t-5.5 -14t-10.5 -5.5t-16.5 -1 h-246z" />
<glyph unicode="&#x178;" horiz-adv-x="581" d="M252 350l-64 114l-54 90q-24 38 -41.5 62.5t-24.5 33.5q-9 10 -18.5 15.5t-17.5 9.5t-13 8.5t-5 13.5q0 20 24 28t75 8q50 0 76.5 -8t26.5 -26q0 -17 -24 -25q-11 -4 -18 -8t-7 -14q0 -11 21 -44l61 -98l59 -94l38 68l31 57l45 79q15 26 15 36q0 8 -8.5 14t-15.5 9 t-13.5 7.5t-6.5 14.5q0 17 24.5 24t69.5 7q80 0 80 -32q0 -9 -11.5 -14t-37.5 -25q-12 -9 -31 -36t-44 -67t-54 -92l-60 -109v-77q0 -191 14 -211q5 -7 24 -14q10 -4 19 -9t9 -16q0 -20 -26.5 -27t-77.5 -7q-50 0 -77 7.5t-27 27.5q0 11 8.5 16t18.5 9q8 3 15 6t10 7 q8 11 10.5 62.5t2.5 147.5v71zM342 867q0 22 13.5 37t33.5 15t32 -13.5t12 -33.5t-13 -35t-33 -15q-19 0 -32 13t-13 32zM191 867q0 22 13.5 37t33.5 15t32 -13.5t12 -33.5t-13 -35t-33 -15q-19 0 -32 13t-13 32z" />
<glyph unicode="&#x2c6;" horiz-adv-x="452" d="M129 566q-18 0 -18 12q0 7 4 16l55 121q7 16 20.5 18.5t35.5 2.5t35.5 -2.5t20.5 -18.5l54 -121q5 -12 5 -16q0 -12 -19 -12h-4q-8 0 -12.5 1.5t-9.5 10.5l-70 108l-71 -108q-5 -9 -9.5 -10.5t-12.5 -1.5h-4z" />
<glyph unicode="&#x2c9;" horiz-adv-x="452" d="M118 660q0 14 12 14h192q11 0 11 -14v-32q0 -15 -11 -15h-192q-12 0 -12 15v32z" />
<glyph unicode="&#x2da;" horiz-adv-x="452" d="M226 557q-22 0 -42.5 9t-37 25t-26.5 38t-10 49t10 49t26.5 38t37 25t42.5 9t42.5 -9t37 -25t26.5 -38t10 -49t-10 -49t-26.5 -38t-37 -25t-42.5 -9zM226 608q27 0 44 20.5t17 49.5t-17 49.5t-44 20.5q-28 0 -44.5 -20.5t-16.5 -49.5t17 -49.5t44 -20.5z" />
<glyph unicode="&#x2dc;" horiz-adv-x="452" d="M109 606q0 10 5.5 24t15 26.5t23 21.5t29.5 9q11 0 23 -3.5t23 -8.5q13 -5 24.5 -8.5t25.5 -3.5q17 0 24 7t11 15q5 12 11 12q7 0 13 -2.5t6 -10.5q0 -14 -6 -28.5t-16.5 -26t-23.5 -19t-28 -7.5q-14 0 -27 5l-28 9q-12 5 -21 8t-20 3q-10 0 -16.5 -5.5t-11.5 -11.5 t-9 -11.5t-8 -5.5q-5 0 -12 3.5t-7 8.5z" />
<glyph unicode="&#x2000;" horiz-adv-x="481" />
<glyph unicode="&#x2001;" horiz-adv-x="963" />
<glyph unicode="&#x2002;" horiz-adv-x="481" />
<glyph unicode="&#x2003;" horiz-adv-x="963" />
<glyph unicode="&#x2004;" horiz-adv-x="321" />
<glyph unicode="&#x2005;" horiz-adv-x="240" />
<glyph unicode="&#x2006;" horiz-adv-x="160" />
<glyph unicode="&#x2007;" horiz-adv-x="160" />
<glyph unicode="&#x2008;" horiz-adv-x="120" />
<glyph unicode="&#x2009;" horiz-adv-x="192" />
<glyph unicode="&#x200a;" horiz-adv-x="53" />
<glyph unicode="&#x2010;" horiz-adv-x="281" d="M42 238q0 17 10 35t33 18q13 0 28.5 -0.5t37.5 -0.5q14 0 25 0.5t21 1.5q7 1 13 1h10q20 0 20 -17t-10 -35t-34 -18q-17 0 -29 0.5t-26 0.5q-21 0 -36.5 -0.5t-26.5 -1.5q-5 0 -9.5 -0.5t-7.5 -0.5q-19 0 -19 17z" />
<glyph unicode="&#x2011;" horiz-adv-x="281" d="M42 238q0 17 10 35t33 18q13 0 28.5 -0.5t37.5 -0.5q14 0 25 0.5t21 1.5q7 1 13 1h10q20 0 20 -17t-10 -35t-34 -18q-17 0 -29 0.5t-26 0.5q-21 0 -36.5 -0.5t-26.5 -1.5q-5 0 -9.5 -0.5t-7.5 -0.5q-19 0 -19 17z" />
<glyph unicode="&#x2013;" horiz-adv-x="452" d="M9 268q0 14 12 14h409q13 0 13 -15v-20q0 -15 -12 -15h-409q-13 0 -13 15v21z" />
<glyph unicode="&#x2014;" horiz-adv-x="892" d="M9 268q0 14 17 14h839q18 0 18 -15v-20q0 -15 -17 -15h-840q-9 0 -13 3t-4 12v21z" />
<glyph unicode="&#x2018;" horiz-adv-x="249" d="M126 521q-26 0 -40.5 21.5t-14.5 56.5q0 25 9 50.5t20.5 46t23.5 33.5t18 13q9 0 14.5 -3.5t5.5 -8.5q0 -4 -6 -12l-12 -20q-6 -10 -11.5 -22.5t-5.5 -24.5q0 -8 3 -12t11 -7q34 -14 34 -54q0 -25 -14 -41t-35 -16z" />
<glyph unicode="&#x2019;" horiz-adv-x="249" d="M87 533q0 4 5.5 12.5t11.5 19t11.5 23t5.5 24.5q0 8 -3 12t-11 7q-34 14 -34 54q0 25 14 41t35 16q26 0 40.5 -21.5t14.5 -56.5q0 -25 -9 -50.5t-20.5 -46t-23.5 -33.5t-18 -13q-9 0 -14 3.5t-5 8.5z" />
<glyph unicode="&#x201a;" horiz-adv-x="249" d="M87 -112q0 4 5.5 12.5t11.5 19t11.5 23t5.5 24.5q0 8 -3 12t-11 7q-34 14 -34 54q0 25 14 41t35 16q26 0 40.5 -21.5t14.5 -56.5q0 -25 -9 -50.5t-20.5 -46t-23.5 -33.5t-18 -13q-9 0 -14 3.5t-5 8.5z" />
<glyph unicode="&#x201c;" horiz-adv-x="382" d="M120 521q-26 0 -40.5 21.5t-14.5 56.5q0 25 9 50.5t20.5 46t23.5 33.5t18 13q9 0 14.5 -3.5t5.5 -8.5q0 -4 -6 -12l-12 -20q-6 -10 -11.5 -22.5t-5.5 -24.5q0 -8 3 -12t11 -7q34 -14 34 -54q0 -25 -14 -41t-35 -16zM266 521q-26 0 -40.5 21.5t-14.5 56.5q0 25 9 50.5 t20.5 46t23.5 33.5t18 13q9 0 14.5 -3.5t5.5 -8.5q0 -4 -6 -12l-12 -20q-6 -10 -11.5 -22.5t-5.5 -24.5q0 -8 3 -12t11 -7q34 -14 34 -54q0 -25 -14 -41t-35 -16z" />
<glyph unicode="&#x201d;" horiz-adv-x="382" d="M81 533q0 4 5.5 12.5t11.5 19t11.5 23t5.5 24.5q0 8 -3 12t-11 7q-34 14 -34 54q0 25 14 41t35 16q26 0 40.5 -21.5t14.5 -56.5q0 -25 -9 -50.5t-20.5 -46t-23.5 -33.5t-18 -13q-9 0 -14 3.5t-5 8.5zM227 533q0 4 5.5 12.5t11.5 19t11.5 23t5.5 24.5q0 8 -3 12t-11 7 q-34 14 -34 54q0 25 14 41t35 16q26 0 40.5 -21.5t14.5 -56.5q0 -25 -9 -50.5t-20.5 -46t-23.5 -33.5t-18 -13q-9 0 -14 3.5t-5 8.5z" />
<glyph unicode="&#x201e;" horiz-adv-x="381" d="M80 -112q0 4 5.5 12.5t11.5 19t11.5 23t5.5 24.5q0 8 -3 12t-11 7q-34 14 -34 54q0 25 14 41t35 16q26 0 40.5 -21.5t14.5 -56.5q0 -25 -9 -50.5t-20.5 -46t-23.5 -33.5t-18 -13q-9 0 -14 3.5t-5 8.5zM227 -112q0 4 5.5 12.5t11.5 19t11.5 23t5.5 24.5q0 8 -3 12t-11 7 q-34 14 -34 54q0 25 14 41t35 16q26 0 40.5 -21.5t14.5 -56.5q0 -25 -9 -50.5t-20.5 -46t-23.5 -33.5t-18 -13q-9 0 -14 3.5t-5 8.5z" />
<glyph unicode="&#x2022;" horiz-adv-x="531" d="M265 227q-29 0 -53.5 11.5t-42.5 31t-28.5 46t-10.5 56.5t10.5 56t29 45.5t43 31t53.5 11.5q28 0 52.5 -11.5t43 -31t29 -45.5t10.5 -56t-10.5 -56t-29 -46t-43.5 -31.5t-53 -11.5z" />
<glyph unicode="&#x2026;" horiz-adv-x="892" d="M149 -14q-23 0 -39.5 16.5t-16.5 41.5q0 26 16.5 42.5t39.5 16.5t40 -17t17 -42q0 -24 -17 -41t-40 -17zM445 -14q-23 0 -39.5 16.5t-16.5 41.5q0 26 16.5 42.5t39.5 16.5t40 -17t17 -42q0 -24 -17 -41t-40 -17zM739 -14q-23 0 -39.5 16.5t-16.5 41.5q0 26 16.5 42.5 t39.5 16.5t40 -17t17 -42q0 -24 -17 -41t-40 -17z" />
<glyph unicode="&#x202f;" horiz-adv-x="192" />
<glyph unicode="&#x2039;" horiz-adv-x="268" d="M134 254q35 -70 59.5 -111t24.5 -54q0 -17 -14 -17q-8 0 -22.5 13t-29.5 31l-30 36l-24 30l-34 42q-14 19 -14 30q0 14 22 40l48 59q29 36 50 59.5t32 23.5q10 0 13 -4.5t3 -12.5q0 -13 -24.5 -54t-59.5 -111z" />
<glyph unicode="&#x203a;" horiz-adv-x="268" d="M134 254q-35 70 -59.5 111t-24.5 54q0 8 3 12.5t13 4.5q11 0 32 -23.5t50 -59.5l48 -59q22 -26 22 -40q0 -11 -14 -30l-34 -42l-24 -30l-30 -36q-15 -18 -29.5 -31t-22.5 -13q-14 0 -14 17q0 13 24.5 54t59.5 111z" />
<glyph unicode="&#x205f;" horiz-adv-x="240" />
<glyph unicode="&#x20ac;" d="M98 290q-1 9 -1 18v19v19q0 9 1 18h-44q-25 0 -25 18q0 19 25 19h49q8 54 26.5 99t45.5 77.5t61 50.5t72 18q16 0 29.5 -4t24.5 -8l18 -8q8 -4 14 -4q11 0 20 3.5t17 3.5q17 0 28 -31.5t11 -82.5q0 -37 -21 -37q-9 0 -13.5 5.5t-8.5 14.5t-8 20t-11 22q-18 29 -40 44.5 t-58 15.5q-26 0 -47 -10t-37 -33.5t-25.5 -61.5t-12.5 -94h176q25 0 25 -18q0 -19 -25 -19h-177v-37q0 -18 2 -37h140q25 0 25 -18q0 -19 -25 -19h-137q6 -60 16.5 -102.5t26.5 -68.5t36.5 -38t46.5 -12q55 0 94 51q15 20 22 35.5t18 15.5q19 0 19 -34t-13 -59t-25 -25 q-2 0 -4 1t-4 1q-8 0 -23 -9q-27 -16 -46 -19.5t-43 -3.5q-92 0 -145 65t-67 202h-47q-25 0 -25 18q0 19 25 19h44z" />
<glyph unicode="&#x2122;" horiz-adv-x="735" d="M143 456l15 1q8 1 14 6t6 19v202h-8q-30 0 -44 -15.5t-18 -53.5h-19l6 88h208l5 -88h-18q-4 38 -13.5 53.5t-39.5 15.5h-8v-202q0 -14 6 -19t14 -6l14 -1v-15h-120v15zM347 456l18 1q8 1 14 6.5t6 18.5v180q0 11 -6.5 17.5t-14.5 7.5l-17 1v15h94l57 -173l56 173h92v-14 l-16 -1q-9 -1 -15 -7.5t-6 -17.5v-181q0 -13 6 -18.5t15 -6.5l16 -1v-15h-118v15l17 1q19 2 19 25v179l-72 -221h-11l-71 222v-180q0 -13 6.5 -18.5t14.5 -6.5l17 -1v-15h-101v15z" />
</font>
</defs>
</svg>
