<?xml version="1.0" standalone="no"?>
<!DOCTYPE svg PUBLIC "-//W3C//DTD SVG 1.1//EN" "http://www.w3.org/Graphics/SVG/1.1/DTD/svg11.dtd" >
<svg xmlns="http://www.w3.org/2000/svg">
<metadata>
This is a custom SVG webfont generated by Font Squirrel.
Foundry     : as an unpublished work by Bitstream Inc
</metadata>
<defs>
<font id="webfonthrmBMTxD" horiz-adv-x="565" >
<font-face units-per-em="1000" ascent="800" descent="-200" />
<missing-glyph horiz-adv-x="282" />
<glyph unicode=" "  horiz-adv-x="282" />
<glyph unicode="&#x09;" horiz-adv-x="282" />
<glyph unicode="&#xa0;" horiz-adv-x="282" />
<glyph unicode="!" horiz-adv-x="282" d="M62 65q0 34 23 56.5t56 22.5t55.5 -22.5t22.5 -56.5q0 -33 -22.5 -56t-55.5 -23t-56 23t-23 56zM141 209q-14 0 -22 17t-15 52q-17 94 -25.5 185t-8.5 172q0 54 16 79t55 25t55 -25t16 -79q0 -85 -8.5 -176.5t-25.5 -180.5q-7 -35 -15 -52t-22 -17z" />
<glyph unicode="&#x22;" horiz-adv-x="339" d="M42 642q-1 5 -1 10v9q0 53 46 53q47 0 47 -53v-9q0 -5 -1 -10l-36 -224h-19zM206 642q-1 5 -1 10v9q0 26 12.5 39.5t34.5 13.5t34.5 -13.5t12.5 -38.5q0 -5 -0.5 -10t-1.5 -10l-36 -224h-19z" />
<glyph unicode="#" horiz-adv-x="769" d="M181 209h-147l29 82h147l45 128h-156l30 81h155l76 213h89l-76 -213h131l76 213h89l-76 -213h142l-29 -81h-142l-45 -128h150l-29 -82h-150l-75 -212h-90l76 212h-131l-75 -212h-90zM431 290l46 129h-134l-46 -129h134z" />
<glyph unicode="$" d="M243 0q-48 4 -80.5 13.5t-52.5 25t-28.5 39t-8.5 55.5q0 70 38 70q20 0 28 -18.5t19 -53.5q8 -26 38 -45t74 -19q48 0 76 25t28 65q0 55 -72 90l-73 37q-39 19 -68 38t-49 40.5t-30 47.5t-10 60q0 69 45 112.5t126 51.5v70q0 14 4 18.5t15 4.5h27q11 0 15 -5.5t4 -18.5 v-69q85 -7 123 -34t38 -91q0 -34 -25 -34q-14 0 -24 10l-22 24q-26 28 -51.5 44.5t-65.5 16.5q-42 0 -65 -20.5t-23 -54.5q0 -29 17 -49t52 -37l87 -42q75 -36 111 -78.5t36 -104.5q0 -76 -48.5 -124t-139.5 -58v-90q0 -14 -4 -19t-15 -5h-27q-11 0 -15 5t-4 19v88z" />
<glyph unicode="%" horiz-adv-x="775" d="M194 352q26 0 43 23.5t17 68.5q0 33 -7.5 61t-19 48t-25 31t-26.5 11q-68 0 -68 -95q0 -68 25 -108t61 -40zM184 301q-37 0 -68 13t-54 36.5t-36 55.5t-13 71q0 36 13.5 67t37 53.5t54 35.5t65.5 13q37 0 67.5 -12.5t52.5 -35t34 -53.5t12 -69q0 -39 -12.5 -71t-35 -55 t-52.5 -36t-65 -13zM162 19q0 10 65 105.5t184 288.5l47 74l83 141q5 10 9.5 14.5t12.5 4.5q5 0 13.5 -3.5t17 -9t14.5 -12t6 -12.5q0 -4 -19 -30l-55 -78l-86 -130l-118 -185q-31 -50 -51 -87l-33 -64q-14 -25 -22 -37.5t-14 -12.5q-8 0 -17.5 3.5t-17.5 9t-13.5 11 t-5.5 9.5zM597 -14q-37 0 -68 13t-54 36.5t-36 55.5t-13 71q0 36 13.5 67t37 53.5t54 35.5t65.5 13q37 0 67.5 -12t52.5 -34.5t34 -53.5t12 -69q0 -39 -12.5 -71t-35 -55.5t-52.5 -36.5t-65 -13zM607 37q26 0 43 24.5t17 69.5q0 33 -7.5 60.5t-18.5 47t-24.5 30.5t-26.5 11 q-69 0 -69 -93q0 -68 25 -109t61 -41z" />
<glyph unicode="&#x26;" horiz-adv-x="863" d="M182 462q-44 46 -44 99q0 39 15 72.5t42.5 57.5t66.5 38t86 14q34 0 61.5 -7t47 -18.5t30 -26t10.5 -29.5q0 -11 -10 -19t-24 -8q-8 0 -19 4l-24 9q-13 5 -29.5 9t-35.5 4q-42 0 -66 -26t-24 -72q0 -36 26 -61q7 -7 17 -13t20 -10.5t17.5 -7t10.5 -2.5q5 0 9.5 -4t4.5 -8 t-5 -12.5t-12.5 -17.5t-17.5 -15.5t-19 -6.5q-17 0 -57 17q-59 -51 -59 -144q0 -48 17 -89t47 -71t71.5 -46.5t90.5 -16.5q86 0 135.5 43t49.5 111q0 45 -21 69.5t-55 24.5q-35 0 -58 -21t-23 -53q0 -10 1 -15q-9 -3 -17 -3q-18 0 -29 13.5t-11 38.5q0 29 16 52t47 44t75 43 l101 47q120 55 120 125q0 48 -53 48q-10 0 -19.5 -2t-18.5 -2q-25 0 -25 25q0 20 26 36t73 16q55 0 86.5 -30t31.5 -81q0 -66 -55.5 -116.5t-167.5 -92.5q96 -43 96 -149q0 -37 -15 -73.5t-44 -68.5q-93 -101 -277 -101q-79 0 -142.5 19.5t-107.5 54.5t-68 83t-24 106 q0 67 30.5 117t96.5 95z" />
<glyph unicode="'" horiz-adv-x="175" d="M42 642q-1 5 -1 10v9q0 53 46 53q47 0 47 -53v-9q0 -5 -1 -10l-36 -224h-19z" />
<glyph unicode="(" horiz-adv-x="370" d="M210 -73q-73 74 -112 168t-39 196t39 195.5t112 167.5q44 45 85 66t64 21q24 0 24 -19q0 -7 -7.5 -13.5t-19.5 -14.5l-28 -20q-15 -12 -30 -28q-56 -60 -84.5 -149.5t-28.5 -209.5q0 -116 29.5 -205.5t83.5 -146.5q15 -16 30.5 -27.5t27.5 -19.5t19.5 -15t7.5 -14 q0 -19 -24 -19q-23 0 -64 21t-85 66z" />
<glyph unicode=")" horiz-adv-x="370" d="M-11 -141q0 7 7.5 13.5t19.5 15.5l28 19q15 11 30 28q56 60 84.5 149.5t28.5 209.5q0 116 -29 205.5t-83 146.5q-15 16 -30.5 27.5t-28 19.5t-20 15t-7.5 14q0 19 24 19q23 0 64 -21t85 -66q73 -74 112.5 -167.5t39.5 -195.5t-39.5 -196t-112.5 -168q-44 -45 -85 -66 t-64 -21q-24 0 -24 19z" />
<glyph unicode="*" horiz-adv-x="500" d="M109 435q0 24 14.5 38.5t43.5 22.5q24 7 36 16.5t12 19.5q0 12 -21 12q-23 0 -40.5 -8.5t-34.5 -8.5q-24 0 -41.5 16t-17.5 41q0 26 16.5 44.5t43.5 18.5q20 0 32.5 -10t24.5 -28q23 -36 45 -36q11 0 11 12t-6.5 23t-15 22t-15 23t-6.5 26q0 26 17 44t43 18q25 0 42 -17 t17 -43q0 -14 -6.5 -26t-15 -23.5t-15 -22.5t-6.5 -23q0 -13 11 -13q20 0 44 35q13 19 25.5 28.5t31.5 9.5q26 0 44.5 -16.5t18.5 -40.5q0 -26 -18.5 -44.5t-44.5 -18.5q-16 0 -33 9t-40 9q-21 0 -21 -12q0 -9 12 -19t36 -16q58 -14 58 -64q0 -25 -17.5 -42t-43.5 -17 q-25 0 -42.5 17.5t-17.5 43.5q0 11 0.5 17.5t0.5 8.5q0 23 -6 35.5t-14 12.5t-14.5 -12.5t-6.5 -35.5q0 -5 0.5 -11t0.5 -15q0 -26 -16.5 -43.5t-42.5 -17.5t-44 17.5t-18 43.5z" />
<glyph unicode="+" horiz-adv-x="833" d="M375 258h-251v81h251v257h83v-257h251v-81h-251v-258h-83v258z" />
<glyph unicode="," horiz-adv-x="282" d="M88 -159q0 5 6 13t14 22q22 35 31.5 59.5t9.5 32.5q0 11 -5 15t-16 9q-51 21 -51 74q0 33 21 55.5t53 22.5q33 0 56 -28.5t23 -76.5q0 -40 -16 -78.5t-44 -83.5q-32 -53 -48 -53t-25 5.5t-9 11.5z" />
<glyph unicode="-" horiz-adv-x="347" d="M44 230q0 20 16 53q8 17 17 20.5t26 3.5q7 0 24 -0.5t46 -0.5q44 0 69 2t32 2q30 0 30 -25q0 -12 -3.5 -26t-10.5 -25.5t-17.5 -19t-23.5 -7.5q-11 0 -24 1t-28 1q-57 0 -88 -2.5t-36 -2.5q-29 0 -29 26z" />
<glyph unicode="." horiz-adv-x="282" d="M62 65q0 34 23 56.5t56 22.5t56 -22.5t23 -56.5q0 -33 -23 -56t-56 -23t-56 23t-23 56z" />
<glyph unicode="/" horiz-adv-x="278" d="M231 724q5 13 14.5 15t25.5 2q31 0 31 -11q0 -9 -5 -22l-280 -785q-4 -11 -13 -13.5t-24 -2.5q-17 0 -25 2.5t-8 10.5t4 19z" />
<glyph unicode="0" d="M287 -13q-55 0 -102 23.5t-81.5 67t-54 106t-19.5 139.5q0 75 19 135t52 101.5t78 64t97 22.5q55 0 102 -24t81.5 -67.5t54.5 -104.5t20 -136q0 -77 -18.5 -137.5t-51 -102.5t-78 -64.5t-99.5 -22.5zM305 55q48 0 75 41.5t27 122.5q0 83 -12.5 149.5t-33.5 113t-48 71.5 t-57 25q-46 0 -72 -44.5t-26 -131.5q0 -81 12.5 -145.5t32.5 -109.5t46.5 -68.5t55.5 -23.5z" />
<glyph unicode="1" d="M285 -3q-44 0 -75 0.5t-51.5 3.5t-30 10t-9.5 20q0 15 8 20.5t20.5 8t27.5 4.5t29 9q12 6 15 12.5t5 20.5q2 25 2.5 102t0.5 208q0 20 0.5 36.5t0.5 29.5q0 34 -5.5 45.5t-25.5 11.5q-11 0 -23 -1.5t-25 -1.5q-32 0 -32 21q0 16 17.5 27.5t52.5 24.5q57 20 96.5 27.5 t56.5 7.5q43 0 43 -30q0 -17 -11.5 -24t-15.5 -11q-8 -11 -9.5 -70.5t-1.5 -170.5q0 -100 1 -157.5t2 -72.5t4.5 -22.5t17.5 -13.5q13 -6 27.5 -8t26.5 -4t20 -8t8 -19q0 -26 -35.5 -31t-114.5 -5h-17z" />
<glyph unicode="2" d="M374 103q23 0 38.5 3.5t25.5 15.5q9 11 15.5 22.5t12.5 20.5t13.5 15t18.5 6q12 0 19.5 -8.5t7.5 -22.5q0 -27 -7 -55t-19 -58q-15 -36 -28.5 -54t-31.5 -18q-24 0 -24 30h-355q-26 0 -36 3.5t-10 20.5q0 12 9 25t26 29l41 38l54 52l84 84q37 38 63 72.5t40 67t14 67.5 q0 49 -27 77.5t-71 28.5q-59 0 -115 -55q-20 -20 -33 -36t-33 -16q-30 0 -30 30t33 66q42 45 96 68.5t117 23.5q47 0 85 -12.5t65 -35.5t41.5 -55t14.5 -70q0 -50 -25.5 -95t-75.5 -94q-38 -37 -85 -76t-98 -88q-5 -8 -5 -11q0 -6 15 -6h160z" />
<glyph unicode="3" d="M354 321q72 -11 110.5 -58t38.5 -122q0 -53 -20.5 -96.5t-59.5 -74.5t-94.5 -48t-125.5 -17q-92 0 -140.5 17t-48.5 43q0 14 11 24.5t27 10.5q12 0 43 -10.5t84 -10.5q186 0 186 151q0 59 -34.5 94t-92.5 35q-22 0 -40 -4.5t-32 -4.5q-27 0 -27 32q0 9 4 14t11.5 9 t17.5 8l23 9q61 26 91.5 59.5t30.5 80.5q0 49 -26.5 77.5t-72.5 28.5q-26 0 -48.5 -8.5t-41.5 -17.5l-36 -18q-16 -9 -28 -9q-11 0 -20 9t-9 21q0 21 32 41q96 61 202 61q42 0 76.5 -12.5t58.5 -35t37 -54t13 -69.5q0 -46 -25 -86t-75 -69z" />
<glyph unicode="4" d="M348 55h-285q-18 0 -29.5 0.5t-18 4t-9.5 10.5t-3 20q0 33 49 103l141 194l81 111q35 48 62 80.5t48.5 49.5t39.5 17q27 0 34.5 -16t7.5 -48v-442h50q17 0 23.5 -4t6.5 -19v-38q0 -15 -6.5 -19t-23.5 -4h-50v-153q0 -11 -1 -17.5t-5.5 -9.5t-12.5 -3.5t-22 -0.5h-33 q-29 0 -36.5 4t-7.5 27v153zM348 139v341q-66 -78 -127.5 -162.5t-120.5 -178.5h248z" />
<glyph unicode="5" d="M523 632q-7 -38 -13.5 -59.5t-16.5 -32.5t-24.5 -14t-36.5 -3h-170q-23 0 -36.5 -1.5t-21.5 -11.5q-5 -6 -11 -19t-11 -29t-8 -33.5t-3 -33.5q0 -8 6.5 -12.5t20.5 -7.5l36 -7q22 -5 52 -13q54 -15 94 -33t66.5 -42.5t39 -57.5t12.5 -77q0 -52 -19 -95.5t-54 -75 t-84.5 -49t-109.5 -17.5q-86 0 -133.5 22t-47.5 51q0 28 26 28q9 0 22 -5l31 -10q18 -6 40.5 -10.5t51.5 -4.5q64 0 101 40t37 107q0 49 -33 77.5t-100 51.5q-33 11 -60 17l-46 10q-20 4 -30.5 8.5t-10.5 13.5q0 19 13.5 78t44.5 158q12 37 20.5 58t16.5 27q10 7 46 7h303z " />
<glyph unicode="6" d="M185 384q73 61 154 61q41 0 76.5 -16t61.5 -44.5t41 -69t15 -89.5q0 -54 -18.5 -98t-52 -75.5t-80.5 -49t-103 -17.5q-54 0 -98 20t-76 56.5t-49.5 88.5t-17.5 115q0 89 35 175t101 158q93 100 126 100q10 0 20 -3.5t18 -9t13.5 -12t5.5 -12.5q0 -5 -7 -12l-20 -20 l-28 -29q-16 -17 -33 -41q-32 -43 -52.5 -86.5t-31.5 -89.5zM305 58q45 0 73.5 31.5t28.5 90.5q0 39 -9.5 71.5t-26 56t-39 36.5t-47.5 13q-45 0 -73.5 -32t-28.5 -88q0 -40 9.5 -73t26 -56.5t38.5 -36.5t48 -13z" />
<glyph unicode="7" d="M368 443l20 43q8 17 8 27q0 24 -41 24h-179q-27 0 -44 -3t-27 -22q-17 -32 -28.5 -50.5t-29.5 -18.5q-16 0 -22 9t-6 28q0 17 7 49.5t24 70.5q21 49 43 49q4 0 9 -3l10 -6q7 -3 17.5 -5.5t26.5 -2.5h311q29 0 42 -6t13 -26q0 -10 -4 -24.5t-12 -34.5l-230 -609l-10 -25 q-4 -10 -9 -16t-13.5 -8.5t-21.5 -2.5q-42 0 -68.5 12t-26.5 29q0 6 5.5 19.5t15.5 34.5z" />
<glyph unicode="8" d="M310 419q72 52 72 111q0 20 -8 38.5t-21.5 32t-32 21.5t-39.5 8q-38 0 -63 -24.5t-25 -61.5q0 -38 28.5 -67t88.5 -58zM241 313q-83 -48 -83 -125q0 -28 10.5 -52.5t29 -43t43 -29t51.5 -10.5q23 0 42.5 7.5t34 21t22.5 32t8 39.5q0 46 -39 85t-119 75zM177 360 q-117 56 -117 157q0 39 16 71.5t46 56t73 37t97 13.5q48 0 87 -12.5t66.5 -33.5t42.5 -49.5t15 -61.5q0 -51 -31.5 -89.5t-97.5 -73.5q151 -72 151 -195q0 -41 -17.5 -76.5t-49 -61.5t-76 -41t-97.5 -15q-56 0 -101.5 14t-77.5 39.5t-50 59.5t-18 75q0 57 34.5 102t104.5 84 z" />
<glyph unicode="9" d="M375 246q-38 -29 -71.5 -44t-68.5 -15q-44 0 -81.5 16t-64.5 45t-42.5 70.5t-15.5 91.5q0 52 18 95.5t51 75t79.5 49t103.5 17.5q53 0 97.5 -20t76 -56.5t49 -88t17.5 -114.5q0 -89 -35 -175.5t-101 -158.5q-93 -100 -127 -100q-10 0 -20 3.5t-18 9.5t-13 12.5t-5 12.5 q0 5 7 12l19 20q12 12 27.5 29t33.5 41q60 83 84 172zM278 276q45 0 74.5 33t29.5 91q0 85 -33 131.5t-85 46.5q-47 0 -76 -33.5t-29 -93.5q0 -81 33.5 -128t85.5 -47z" />
<glyph unicode=":" horiz-adv-x="282" d="M62 437q0 34 23 56.5t56 22.5t56 -22.5t23 -56.5q0 -33 -23 -55.5t-56 -22.5t-56 22.5t-23 55.5zM62 65q0 34 23 56.5t56 22.5t56 -22.5t23 -56.5q0 -33 -23 -56t-56 -23t-56 23t-23 56z" />
<glyph unicode=";" horiz-adv-x="282" d="M80 -159q0 5 6.5 13t14.5 22q22 35 31.5 59.5t9.5 32.5q0 11 -5.5 15t-16.5 9q-50 21 -50 74q0 33 20.5 55.5t52.5 22.5q33 0 56.5 -28.5t23.5 -76.5q0 -40 -16 -78.5t-44 -83.5q-32 -53 -48 -53t-25.5 5.5t-9.5 11.5zM59 437q0 34 22.5 56.5t55.5 22.5t56 -22.5 t23 -56.5q0 -33 -23 -55.5t-56 -22.5t-55.5 22.5t-22.5 55.5z" />
<glyph unicode="&#x3c;" horiz-adv-x="833" d="M129 337l575 237v-90l-456 -186l456 -186v-89l-575 236v78z" />
<glyph unicode="=" horiz-adv-x="833" d="M124 440h585v-82h-585v82zM124 238h585v-81h-585v81z" />
<glyph unicode="&#x3e;" horiz-adv-x="833" d="M129 112l456 186l-456 186v90l575 -237v-78l-575 -236v89z" />
<glyph unicode="?" horiz-adv-x="493" d="M164 65q0 34 23 56.5t56 22.5t56 -22.5t23 -56.5q0 -33 -23 -56t-56 -23t-56 23t-23 56zM244 214q-24 0 -34 15.5t-10 50.5q0 72 38 140q12 22 26 43t25.5 42t19 43.5t7.5 48.5q0 41 -21 63t-56 22q-34 0 -53 -19t-29 -57q-5 -19 -9.5 -34t-11 -25.5t-16.5 -16t-26 -5.5 q-50 0 -50 63q0 30 15 57.5t43 49t66 34t85 12.5q45 0 81.5 -12t62 -33t39.5 -50.5t14 -65.5q0 -50 -22.5 -83.5t-61.5 -67.5l-22 -18q-11 -9 -21.5 -20.5t-20 -25.5t-16.5 -34q-8 -22 -8 -42v-7q1 -6 1 -11q0 -15 -3 -25q-5 -17 -10 -24.5t-22 -7.5z" />
<glyph unicode="@" horiz-adv-x="986" d="M441 90q32 0 57.5 21t51.5 64q29 51 44.5 106t15.5 96q0 42 -18.5 65.5t-48.5 23.5q-33 0 -58.5 -23t-50.5 -71q-29 -56 -43 -105.5t-14 -87.5q0 -42 18.5 -65.5t45.5 -23.5zM846 -29q-145 -109 -323 -109q-94 0 -171 23t-133 65q-74 56 -112.5 135.5t-38.5 176.5 q0 99 41.5 185.5t122.5 153.5q66 54 144.5 82t169.5 28q85 0 154 -24t118 -68.5t75.5 -106.5t26.5 -138q0 -79 -29 -146t-82 -115q-62 -54 -128 -54q-48 0 -74.5 25.5t-29.5 74.5q-31 -51 -66.5 -75t-81.5 -24q-66 0 -104 45t-38 121q0 54 23.5 106t69.5 96q34 32 72.5 48.5 t78.5 16.5q89 0 106 -91l25 83h84l-84 -301q-3 -12 -5.5 -23.5t-2.5 -23.5q0 -50 40 -50q14 0 38.5 9.5t47.5 28.5q54 43 82.5 108t28.5 145q0 68 -24.5 124t-68.5 95.5t-107 61.5t-139 22q-85 0 -160.5 -31t-133.5 -91q-120 -122 -120 -314q0 -167 117 -264 q51 -43 119.5 -66t148.5 -23q161 0 305 102z" />
<glyph unicode="A" horiz-adv-x="741" d="M198 402l64 162q30 75 45 141q4 21 13.5 28.5t41.5 7.5q21 0 31.5 -8t19.5 -25q13 -25 59.5 -126.5t118.5 -282.5l33 -85q15 -38 28 -66.5t26 -47.5t28 -27q7 -4 15.5 -6t16 -5.5t13 -9t5.5 -16.5q0 -26 -36.5 -33.5t-115.5 -7.5q-78 0 -114 7.5t-36 33.5q0 16 12.5 21.5 t32.5 13.5q25 8 25 31q0 9 -6.5 37.5t-20.5 58.5q-5 9 -8 13.5t-9 6.5q-20 5 -117 5h-25q-60 0 -93 -2t-42 -12q-6 -6 -12 -17.5t-11 -24.5t-8 -26t-3 -23q0 -31 31 -44q19 -8 34 -13t15 -25q0 -26 -30.5 -33.5t-98.5 -7.5t-98.5 7.5t-30.5 33.5q0 10 5 16t12.5 10t16 7 t16.5 8q17 10 28.5 24t20.5 31.5t17 39.5l18 46zM335 556q-53 -124 -103 -260q31 2 58.5 3t53.5 1q55 0 109 -3q-26 73 -52.5 137.5t-52.5 121.5h-13z" />
<glyph unicode="B" horiz-adv-x="697" d="M448 387q103 -9 156.5 -58t53.5 -134q0 -94 -66 -147.5t-191 -53.5q-48 0 -97 3.5t-100 3.5q-23 0 -49.5 -1.5t-57.5 -1.5q-71 0 -71 38q0 12 7 18.5t17 10.5t20 7.5t15 11.5q15 23 15 285q0 130 -4.5 198.5t-10.5 76.5q-5 7 -15 11t-20 8.5t-17 11t-7 18.5q0 37 62 37 q26 0 53.5 -0.5t58.5 -0.5q56 0 102 2.5t83 2.5q112 0 169.5 -46t57.5 -131q0 -69 -41.5 -112.5t-122.5 -57.5zM228 410q30 -3 61 -3q94 0 139 28.5t45 99.5q0 66 -40 97.5t-124 31.5q-59 0 -68 -17q-8 -14 -10.5 -65t-2.5 -141v-31zM228 227q0 -54 2 -89t11 -52 q12 -23 101 -23q84 0 127 35t43 101q0 74 -50 107.5t-153 33.5q-17 0 -37 -1t-44 -3v-109z" />
<glyph unicode="C" horiz-adv-x="698" d="M613 32q-93 -50 -194 -50q-78 0 -145.5 25t-118.5 71q-59 54 -90 128.5t-31 165.5q0 145 82 243q51 62 121.5 94t156.5 32q37 0 76.5 -7.5t83.5 -18.5q19 5 31 8.5t19 3.5q19 0 31 -20q17 -29 27 -67.5t10 -67.5q0 -43 -32 -43q-12 0 -22 7t-20.5 18t-22.5 26t-28 31 q-27 28 -67.5 43t-89.5 15q-100 0 -157 -67t-57 -187q0 -78 20 -142t54.5 -109t81.5 -69.5t101 -24.5q48 0 86.5 15t63.5 40q10 10 18 21l15 18q6 9 13 14t16 5q13 0 21.5 -13t8.5 -38q0 -49 -13.5 -75.5t-36.5 -26.5q-4 0 -12 2z" />
<glyph unicode="D" horiz-adv-x="782" d="M245 107q5 -14 36 -25.5t83 -11.5q234 0 234 283q0 152 -66 231t-194 79q-81 0 -93 -32q-14 -39 -14 -233q0 -131 4.5 -204t9.5 -87zM26 36q0 12 7 18.5t17 10.5t20 7.5t15 11.5q6 9 10.5 80t4.5 205q0 131 -5 199t-10 76q-5 7 -15 11t-20 8.5t-17 11t-7 19.5q0 23 25 30 t79 7q20 0 43.5 -1t51.5 -1q35 0 66.5 2t58.5 2q96 0 170.5 -25.5t124.5 -74t76 -118.5t26 -159q0 -177 -104 -268t-310 -91q-27 0 -57.5 1.5t-63.5 1.5q-22 0 -43 -1t-42 -1q-51 0 -76 6t-25 32z" />
<glyph unicode="E" horiz-adv-x="637" d="M420 75q26 0 46 3t35 10.5t26.5 20t22.5 30.5q7 13 12 26t9.5 23t10.5 16.5t16 6.5q28 0 28 -47q0 -22 -7 -59t-23 -79q-15 -38 -35 -38q-7 0 -25.5 6t-54.5 6h-345q-56 0 -83 4.5t-27 28.5q0 13 5.5 19.5t14 10.5t17.5 7t17 9q12 9 16 81t4 209q0 131 -5 199t-10 76 q-5 7 -15 11t-20 8.5t-17 11t-7 20.5q0 24 32 29t102 5h312q31 0 50 5.5t27 5.5q14 0 22 -12q5 -8 10 -22t9.5 -29.5t7 -32t2.5 -29.5q0 -47 -32 -47q-18 0 -27.5 17t-26.5 42q-21 32 -90 32h-70q-45 0 -71.5 -4.5t-37.5 -18.5q-16 -19 -16 -141v-41q0 -23 3.5 -29.5 t19.5 -6.5h91q40 0 56.5 11.5t21.5 43.5q2 15 4 26.5t5 19.5t9 12t17 4q27 0 33 -36.5t6 -116.5t-6 -116t-33 -36q-11 0 -17 4t-9 12t-5 19.5t-4 26.5q-5 32 -21.5 43.5t-56.5 11.5h-90q-17 0 -20.5 -10.5t-3.5 -38.5v-48q0 -57 2 -92.5t9 -51.5q8 -18 35.5 -24.5t78.5 -6.5 h66z" />
<glyph unicode="F" horiz-adv-x="613" d="M229 259q0 -83 2 -127t14 -53q7 -6 16.5 -9t17.5 -7t14 -10t6 -18q0 -25 -32.5 -32.5t-103.5 -7.5q-72 0 -104.5 7.5t-32.5 33.5q0 12 7 18.5t17 10.5t20 7.5t15 11.5q6 9 10.5 80t4.5 205q0 131 -5 199t-10 76q-5 7 -15 11t-20 8.5t-17 11t-7 20.5q0 24 32 29t102 5h312 q31 0 50 5.5t27 5.5q14 0 22 -12q5 -8 10 -22t9.5 -29.5t7 -32t2.5 -29.5q0 -47 -32 -47q-18 0 -27.5 17t-26.5 42q-21 32 -90 32h-70q-45 0 -71.5 -4.5t-37.5 -18.5q-16 -19 -16 -141v-41q0 -23 3.5 -29.5t19.5 -6.5h84q40 0 56 11.5t21 43.5q5 29 9.5 45.5t26.5 16.5 q27 0 33 -36.5t6 -116.5t-6 -116t-33 -36q-22 0 -26.5 16.5t-9.5 45.5q-5 32 -21 43.5t-56 11.5h-83q-17 0 -20.5 -10.5t-3.5 -38.5v-39z" />
<glyph unicode="G" horiz-adv-x="794" d="M570 716q38 11 49 11q14 0 23.5 -11t17.5 -34q15 -38 21 -72t6 -48q0 -17 -8.5 -27t-21.5 -10q-17 0 -29 15l-29 34l-29 34q-14 18 -37 32q-55 35 -140 35q-103 0 -161.5 -69.5t-58.5 -200.5q0 -78 20.5 -141.5t56 -109.5t84 -71t104.5 -25q66 0 102 38.5t36 107.5 q0 27 -9.5 38t-29.5 16q-15 4 -28 6.5t-22 5.5t-14.5 8.5t-5.5 16.5q0 15 11.5 23.5t34.5 12.5t59 4.5t86 0.5q67 0 98 -6t31 -34q0 -15 -8.5 -21.5t-24.5 -11.5l-24 -9q-11 -3 -17 -15q-5 -10 -8 -24t-8 -32q-8 -32 -18.5 -60.5t-30.5 -53.5q-35 -42 -93 -65t-136 -23 q-86 0 -157 28.5t-122 80.5t-79 124.5t-28 160.5q0 81 26.5 148.5t74.5 115.5t114.5 75t147.5 27q42 0 84.5 -6.5t89.5 -18.5z" />
<glyph unicode="H" horiz-adv-x="769" d="M230 237q0 -73 2.5 -111.5t12.5 -46.5q7 -6 16.5 -9t17.5 -6.5t14 -10t6 -18.5q0 -26 -33 -33t-104 -7t-103.5 7.5t-32.5 32.5q0 12 6 18t14 10t17.5 7t16.5 9q12 9 16 81t4 209q0 131 -5 199t-10 76q-5 7 -15 11t-20 8.5t-17 11t-7 19.5q0 26 33 30.5t104 4.5t103.5 -5 t32.5 -30q0 -12 -6 -18t-14 -10t-17.5 -7t-16.5 -9q-12 -9 -14 -55.5t-2 -132.5q0 -25 25.5 -30t86.5 -5h43q63 0 100 2.5t48 11.5q7 6 7 29v23q0 72 -2 110.5t-13 46.5q-7 6 -16.5 9t-17.5 7t-14 10t-6 18q0 25 32.5 30t103.5 5t104 -4.5t33 -30.5q0 -12 -6 -18.5 t-14.5 -10t-18 -6.5t-16.5 -9q-20 -16 -20 -281q0 -134 4.5 -205t10.5 -80q5 -8 15 -11.5t19.5 -7.5t17 -10.5t7.5 -19.5q0 -25 -32.5 -32.5t-103.5 -7.5t-104 7t-33 33q0 12 6 18.5t14.5 10t18 6.5t16.5 9q10 8 12.5 46.5t2.5 111.5q0 39 -0.5 62t-4.5 29q-8 13 -44.5 15 t-105.5 2q-63 0 -99 -2t-47 -11q-5 -5 -6.5 -18t-1.5 -35v-42z" />
<glyph unicode="I" horiz-adv-x="325" d="M26 35q0 12 6 18t14 10t17.5 7t16.5 9q13 10 16.5 81.5t3.5 208.5q0 130 -4.5 198.5t-10.5 76.5q-5 7 -15 11t-20 8.5t-17 11t-7 19.5q0 26 33 30.5t104 4.5t104 -4.5t33 -30.5q0 -12 -6 -18.5t-14.5 -10t-18 -6.5t-16.5 -9q-11 -8 -14.5 -63.5t-3.5 -161.5 q0 -322 13 -341q5 -8 15 -11.5t19.5 -7.5t17 -10.5t7.5 -19.5q0 -26 -33 -33t-104 -7t-103.5 7.5t-32.5 32.5z" />
<glyph unicode="J" horiz-adv-x="551" d="M5 144q0 42 21 66.5t56 24.5q30 0 49 -19.5t19 -48.5q0 -16 -5.5 -30t-5.5 -26q0 -23 22.5 -42t58.5 -19q64 0 90 60q8 19 9.5 57.5t1.5 97.5q0 356 -15 379q-5 7 -15 11t-20 8.5t-17 11t-7 19.5q0 26 33 30.5t104 4.5t103.5 -4.5t32.5 -30.5q0 -12 -6 -18.5t-14 -10 t-17.5 -6.5t-16.5 -9q-18 -15 -18 -214q0 -62 0.5 -109t0.5 -79q0 -61 -5 -107t-34 -82q-30 -37 -78 -57.5t-109 -20.5q-49 0 -89.5 13t-69 35.5t-44 52t-15.5 62.5z" />
<glyph unicode="K" horiz-adv-x="706" d="M234 313q3 -109 4 -166.5t14 -67.5q7 -6 16.5 -9t17.5 -6.5t14 -10t6 -18.5q0 -26 -33 -33t-104 -7t-103.5 7.5t-32.5 32.5q0 12 6 18t14 10t17.5 7t16.5 9q13 10 16 81.5t3 208.5q0 130 -4 198.5t-10 76.5q-5 7 -15 11t-20 8.5t-17 11t-7 19.5q0 26 32.5 30.5t103.5 4.5 t104 -4.5t33 -30.5q0 -12 -6 -18.5t-14 -10t-17.5 -6.5t-16.5 -9q-20 -15 -20 -211q0 -15 11 -15q13 0 36.5 30t70.5 81l55 59q20 21 29 36t9 21q0 7 -7.5 11t-16.5 8t-16.5 10t-7.5 17q0 23 30 27.5t92 4.5q64 0 94.5 -4.5t30.5 -29.5q0 -11 -5.5 -16t-14.5 -7.5t-20 -4 t-21 -5.5q-35 -14 -79.5 -59.5t-108.5 -120.5l-50 -60q-8 -10 -8 -17q0 -6 4 -13l192 -216q73 -78 105 -98q10 -7 22 -10.5t21.5 -7t16 -9.5t6.5 -17q0 -23 -28 -31t-88 -8q-37 0 -58 15q-28 20 -83 78t-136 156l-60 72q-5 6 -10 6t-5 -6v-3z" />
<glyph unicode="L" horiz-adv-x="616" d="M380 75q28 0 47 4t33 12t24.5 20.5t20.5 29.5q8 13 13.5 26t11 22.5t12.5 15.5t18 6q12 0 19.5 -12.5t7.5 -36.5q0 -29 -6 -64.5t-19 -70.5q-8 -20 -16.5 -29.5t-23.5 -9.5q-8 0 -26 6t-54 6h-299q-56 0 -83 4.5t-27 28.5q0 13 5.5 19.5t14 10.5t17.5 7t17 9 q13 10 16 81.5t3 208.5q0 130 -4 198.5t-10 76.5q-5 7 -15 11t-20 8.5t-17 11t-7 19.5q0 26 33 30.5t104 4.5t104 -4.5t33 -30.5q0 -12 -6 -18.5t-14.5 -10t-18 -6.5t-16.5 -9q-18 -15 -18 -216q0 -142 2.5 -220t6.5 -95q7 -29 33.5 -36.5t84.5 -7.5h19z" />
<glyph unicode="M" horiz-adv-x="919" d="M182 541q-6 -234 -6 -339q0 -55 2 -85t12 -38q7 -6 16.5 -9t17.5 -6.5t14 -10t6 -18.5q0 -23 -27.5 -31.5t-86.5 -8.5q-55 0 -80.5 9.5t-25.5 31.5q0 12 8 18.5t18.5 11.5t19.5 10t12 14q3 11 12.5 122.5t9.5 324.5v16q0 41 -3 64.5t-17 32.5q-9 6 -19 9t-18.5 7t-14 10 t-5.5 18q0 23 28.5 29t91.5 6q40 0 63 -0.5t30 -5.5q9 -7 26 -49l48 -121l104 -257q36 -85 45 -85q10 0 52.5 98.5t112.5 299.5q12 35 20 61t24 43q10 11 34.5 13.5t63.5 2.5q59 0 86.5 -6t27.5 -29q0 -11 -5 -17t-11.5 -9.5t-14 -6t-13.5 -5.5q-9 -6 -14.5 -14.5t-7.5 -23 t-2.5 -36t-0.5 -52.5q0 -211 6.5 -321t8.5 -119q3 -11 13 -15l23 -9q14 -5 20 -12t6 -19q0 -26 -33.5 -33t-106.5 -7q-69 0 -100.5 7.5t-31.5 32.5q0 12 6 18t14 10t17.5 7t16.5 9q11 9 13.5 38t2.5 82v26q0 263 -3 346l-93 -243q-39 -105 -68.5 -175t-50 -105.5 t-36.5 -35.5q-19 0 -53 68t-93 204z" />
<glyph unicode="N" horiz-adv-x="796" d="M170 410q0 -173 4 -255t24 -82q13 0 28 -11t15 -26q0 -23 -25.5 -31.5t-82.5 -8.5t-82 8.5t-25 31.5q0 12 7 18.5t17 10.5l20 8q9 4 14 11q14 20 14 285q0 131 -4.5 199t-9.5 76q-5 7 -15 11t-19.5 8.5t-17 11t-7.5 18.5q0 23 26 29.5t83 6.5q30 0 48.5 -1t26.5 -8 q19 -17 60.5 -73t114.5 -147l115 -141l71 -87q33 -39 61 -68q1 14 1 28v31q0 175 -3.5 268t-7.5 107q-4 13 -18 18q-20 8 -31.5 14.5t-11.5 22.5q0 24 26.5 30t84.5 6q54 0 79.5 -6.5t25.5 -29.5q0 -12 -6.5 -19t-19.5 -12l-22 -9q-10 -4 -13 -15q-7 -23 -9.5 -129 t-2.5 -300q0 -57 1 -96.5t1 -62.5q0 -32 -3.5 -44.5t-20.5 -12.5q-21 0 -45 16.5t-54 48t-67 78.5l-85 106l-112 141l-89 112q-36 45 -57 67q-2 -20 -2 -46v-57v-49z" />
<glyph unicode="O" horiz-adv-x="808" d="M187 52q-74 54 -113 135.5t-39 184.5q0 82 26.5 150t75.5 117t117 75.5t151 26.5q133 0 227 -76q66 -54 104 -136.5t38 -182.5q0 -63 -17.5 -119t-49.5 -101q-49 -68 -127.5 -106.5t-169.5 -38.5q-62 0 -118.5 18t-104.5 53zM424 53q45 0 82.5 17.5t65 51t42.5 81 t15 107.5q0 82 -19.5 149t-53.5 114t-79 72.5t-96 25.5q-44 0 -81 -17.5t-64 -51t-42 -81t-15 -107.5q0 -83 19 -149.5t52 -113.5t78 -72.5t96 -25.5z" />
<glyph unicode="P" horiz-adv-x="611" d="M228 268q0 -88 3 -134.5t14 -55.5q7 -6 16.5 -8.5t17.5 -6.5t14 -10t6 -18q0 -26 -33 -33t-104 -7t-103.5 7.5t-32.5 32.5q0 12 6 18t14 10t17.5 7t16.5 9q13 10 16.5 81.5t3.5 208.5q0 130 -4.5 198.5t-10.5 76.5q-5 7 -15 11t-20 8.5t-17 11t-7 18.5q0 37 63 37 q25 0 52.5 -0.5t58.5 -0.5q56 0 102 2.5t83 2.5q228 0 228 -194q0 -106 -70 -162.5t-205 -56.5q-31 0 -54 2t-38 2q-13 0 -15.5 -9.5t-2.5 -35.5v-12zM230 395q40 -3 76 -3q87 0 127 33t40 109q0 70 -39.5 103.5t-124.5 33.5q-35 0 -51 -5t-21 -21t-6 -54t-1 -98v-98z" />
<glyph unicode="Q" horiz-adv-x="808" d="M424 53q45 0 82.5 17.5t65 51t42.5 81t15 107.5q0 82 -19.5 149t-53.5 114t-79 72.5t-96 25.5q-44 0 -81 -17.5t-64 -51t-42 -81t-15 -107.5q0 -83 19 -149.5t52 -113.5t78 -72.5t96 -25.5zM242 17q-102 54 -154.5 144t-52.5 210q0 83 26.5 151.5t75.5 117t117 75 t151 26.5q133 0 227 -76q66 -54 104 -136.5t38 -182.5q0 -77 -25 -142t-70.5 -113t-110.5 -76.5t-145 -33.5q105 -46 167.5 -65t80.5 -19q31 0 52 23q15 16 23.5 31t26.5 15q26 0 26 -32q0 -22 -13 -44t-36.5 -40t-56.5 -29t-74 -11q-48 0 -98.5 14.5t-108.5 40.5l-146 67 q-52 24 -67 24q-18 0 -27 -7.5t-20 -18.5q-10 -10 -18.5 -17.5t-22.5 -7.5q-15 0 -24 9t-9 25q0 34 34.5 57.5t94.5 23.5q15 0 35 -3z" />
<glyph unicode="R" horiz-adv-x="729" d="M228 273q0 -90 2.5 -138t14.5 -57q7 -6 16.5 -8.5t17.5 -6.5t14 -10t6 -18q0 -26 -33 -33t-104 -7t-103.5 7.5t-32.5 32.5q0 12 6 18t14 10t17.5 7t16.5 9q13 10 16.5 81.5t3.5 208.5q0 130 -4.5 198.5t-10.5 76.5q-5 7 -15 11t-20 8.5t-17 11t-7 18.5q0 36 63 36h111 q56 0 102 2.5t83 2.5q112 0 170 -48t58 -137q0 -67 -38.5 -116t-109.5 -69v-8q31 -6 53 -18t38 -31.5t27.5 -47t22.5 -62.5q9 -31 14.5 -55.5t11.5 -41t14 -25t23 -8.5q6 0 14 1t19 1q9 0 17 -7.5t8 -18.5q0 -23 -27.5 -38.5t-78.5 -15.5q-38 0 -61.5 10t-38.5 29.5t-25 49 t-22 69.5q-14 48 -27.5 83.5t-32.5 59t-47.5 34.5t-72.5 11h-46q-14 0 -17 -8.5t-3 -33.5v-20zM230 404q40 -3 76 -3q85 0 126 31.5t41 103.5q0 135 -162 135q-36 0 -52.5 -4.5t-21.5 -20.5t-6 -52.5t-1 -94.5v-95z" />
<glyph unicode="S" horiz-adv-x="590" d="M419 720q22 18 38 18q14 0 23.5 -9t19.5 -26q19 -34 28 -67t9 -56q0 -17 -8 -26.5t-22 -9.5q-23 0 -35 14t-25 32q-29 38 -62 56t-77 18q-59 0 -91 -26.5t-32 -72.5q0 -27 10.5 -46.5t31.5 -35.5t51 -30l71 -31l79 -34q39 -18 74 -50q27 -25 42 -59t15 -76 q0 -103 -71.5 -161.5t-203.5 -58.5q-68 0 -123 13.5t-87 32.5q-18 11 -32 52.5t-14 103.5q0 48 34 48q22 0 33 -19l28 -48q32 -56 69.5 -82t91.5 -26q29 0 53.5 9t42.5 24.5t28 36t10 44.5q0 28 -12 47.5t-33.5 35.5t-52.5 30l-70 31q-51 22 -89.5 43t-64 45.5t-38 55 t-12.5 72.5q0 44 17 82.5t48.5 66.5t76 44t100.5 16q31 0 63.5 -5.5t67.5 -15.5z" />
<glyph unicode="T" horiz-adv-x="660" d="M197 656q-32 0 -52.5 -7.5t-35.5 -29.5q-9 -13 -15 -31t-16 -37q-13 -22 -33 -22q-17 0 -23 14.5t-6 43.5q0 71 16.5 110t39.5 39q4 0 26.5 -3.5t80.5 -3.5h300q58 0 81 3.5t27 3.5q23 0 39.5 -39t16.5 -110q0 -29 -6.5 -43.5t-23.5 -14.5q-19 0 -32 22q-10 19 -16 37 t-15 31q-15 22 -36 29.5t-53 7.5h-21q-25 0 -31.5 -6t-8.5 -17q-2 -20 -4 -73.5t-2 -141.5q0 -316 12 -334q5 -8 15 -11.5t20 -7.5t17.5 -10.5t7.5 -19.5q0 -25 -33 -32.5t-104 -7.5t-103.5 7.5t-32.5 32.5q0 13 7.5 19.5t17.5 10.5t20 7.5t15 11.5q12 18 12 334 q0 88 -2 141.5t-4 73.5q-2 11 -8.5 17t-31.5 6h-22z" />
<glyph unicode="U" horiz-adv-x="763" d="M98 239q0 29 1 57.5t1 57.5q0 139 -5 211.5t-10 80.5q-5 7 -15 11l-20 8q-9 4 -16.5 10.5t-7.5 19.5q0 25 33 29.5t104 4.5q70 0 103.5 -4.5t33.5 -29.5q0 -12 -6 -18.5t-14.5 -10t-18 -6.5t-16.5 -9q-19 -15 -19 -251q0 -75 1 -130.5t7 -91.5q9 -57 55 -92t121 -35 q98 0 140.5 54t42.5 167q0 354 -13 374q-5 7 -15 11l-20 8q-10 4 -17.5 10.5t-7.5 19.5q0 23 26.5 28.5t83.5 5.5t84 -5.5t27 -28.5q0 -12 -5.5 -18t-14 -10t-18 -7t-16.5 -9q-12 -9 -15.5 -67t-3.5 -167q0 -30 0.5 -63.5t0.5 -70.5q0 -72 -9 -124.5t-38 -88.5 q-35 -43 -92 -66t-137 -23q-147 0 -221 65t-74 193z" />
<glyph unicode="V" horiz-adv-x="731" d="M437 107q-12 -29 -20.5 -52.5t-16.5 -40t-16 -25t-19 -8.5q-15 0 -23 17l-19 41q-66 140 -117 272l-99 254q-15 37 -29 59.5t-31 31.5q-7 4 -15 6t-15.5 5.5t-12.5 9t-5 16.5q0 26 35 31t112 5q76 0 111 -5t35 -31q0 -16 -11.5 -22t-32.5 -14q-24 -8 -24 -30 q0 -20 28 -97t82 -213q21 -52 34 -78t23 -26t21.5 23t31.5 69q56 131 85.5 206t29.5 100q0 17 -7.5 27t-24.5 18l-29 14q-12 5 -12 23q0 26 30 31t96 5t95 -5t29 -31q0 -11 -4.5 -16.5t-12 -10t-17 -8t-18.5 -9.5q-18 -11 -33.5 -36t-32 -63.5l-36.5 -89.5l-45 -114z" />
<glyph unicode="W" horiz-adv-x="1049" d="M416 102l-35 -88q-13 -33 -32 -33q-17 0 -24.5 18t-18.5 41q-65 141 -114 273l-97 252q-14 35 -27.5 57.5t-31.5 33.5q-6 3 -14 5.5t-15.5 5.5t-12.5 9t-5 17q0 26 34.5 31t109.5 5q74 0 108.5 -5t34.5 -31q0 -16 -11.5 -22t-31.5 -14q-12 -5 -18 -11.5t-6 -18.5 q0 -21 27 -96l80 -208q21 -54 33.5 -82t23.5 -28q14 0 37 62l73 186q-28 79 -49.5 126.5t-42.5 64.5q-6 5 -15.5 7.5t-18 6.5t-14.5 10t-6 17q0 26 34.5 31t109.5 5q74 0 108.5 -5t34.5 -31q0 -16 -11 -22t-31 -14q-24 -8 -24 -30q0 -21 27.5 -98t81.5 -213q20 -51 33 -77 t21 -26q9 0 20.5 23t30.5 68l84 206q30 76 30 101q0 17 -7.5 27t-24.5 18q-16 8 -28.5 13.5t-12.5 23.5q0 26 29.5 31t94.5 5q64 0 93 -5t29 -31q0 -11 -4.5 -16.5t-12 -9.5t-16.5 -7.5t-18 -9.5q-17 -11 -32 -36t-31.5 -63.5l-36.5 -89.5l-45 -115l-97 -239l-37 -93 q-13 -33 -34 -33q-14 0 -29 25t-34 74l-47 119l-64 163z" />
<glyph unicode="X" horiz-adv-x="708" d="M435 576q28 53 28 69q0 10 -8 15t-17 9t-17 10t-8 19q0 23 32 27t98 4h27q45 0 66.5 -3.5t21.5 -22.5q0 -10 -7 -16t-18 -11l-25 -10q-13 -5 -26 -14q-36 -26 -74 -90l-94 -161l138 -227q50 -82 77 -95q10 -5 19 -8t16 -7t11.5 -9.5t4.5 -15.5q0 -28 -37 -35t-113 -7 q-69 0 -102.5 8t-33.5 32q0 19 22 26q12 5 21.5 8t9.5 17q0 32 -117 209q-112 -182 -112 -213q0 -8 7 -13t15 -10t15 -11t7 -17q0 -25 -34.5 -30.5t-106.5 -5.5q-53 0 -77.5 4t-24.5 25q0 13 8 20t21 12l26 9q15 5 27 14q33 25 77 95l110 186q-76 131 -121 200t-57 78 q-11 9 -24 12.5t-24 7.5t-18.5 10.5t-7.5 20.5q0 23 42.5 30.5t131.5 7.5q60 0 89 -5t29 -27q0 -13 -8 -19.5t-18 -11.5l-17 -8q-8 -4 -8 -12q0 -17 24.5 -62t72.5 -121z" />
<glyph unicode="Y" horiz-adv-x="655" d="M203 446q-54 90 -88 141t-54 64q-9 6 -19 9t-19 6.5t-15 9.5t-6 17q0 26 35 31t112 5q76 0 111 -5t35 -31q0 -16 -11.5 -22t-31.5 -14t-20 -25q0 -14 32 -64l93 -141q115 165 115 192q0 17 -9.5 24.5t-28.5 15.5q-16 6 -24 13t-8 21q0 26 30 31t96 5t95.5 -5t29.5 -31 q0 -12 -6.5 -18.5t-16.5 -10.5l-22 -10q-12 -5 -22 -13q-45 -34 -194 -292l3 -194q1 -66 14 -76q7 -6 16.5 -9t18 -6.5t14.5 -10t6 -18.5q0 -26 -33 -33t-104 -7t-103.5 7.5t-32.5 32.5q0 12 6 18t14 10t17.5 7t16.5 9q14 11 15.5 76t3.5 190z" />
<glyph unicode="Z" horiz-adv-x="659" d="M411 589l18 26q7 10 7 18q0 23 -77 23h-84q-45 0 -73.5 -9t-45.5 -28q-14 -15 -21.5 -35.5t-18.5 -41.5q-13 -23 -35 -23q-32 0 -32 44q0 24 7.5 60t23.5 74q8 20 16.5 29.5t22.5 9.5q4 0 26.5 -3.5t80.5 -3.5h285q57 0 84 -8t27 -34q0 -20 -20 -49l-51 -75l-309 -428 q-10 -14 -15.5 -23.5t-5.5 -18.5q0 -13 18 -16.5t56 -3.5h133q22 0 38.5 2.5t29.5 8.5t23 16.5t20 25.5q10 16 16.5 31.5t12.5 27.5t13.5 19t20.5 7q28 0 28 -39q0 -84 -18.5 -134t-43.5 -50q-4 0 -26.5 6t-80.5 6h-362q-67 0 -67 40q0 17 12 35l29 44z" />
<glyph unicode="[" horiz-adv-x="370" d="M109 637q0 30 3 48.5t13 28t30 12.5t55 3h91q38 0 53.5 -4.5t15.5 -27.5q0 -20 -10 -27t-34 -7h-61q-23 0 -33 -9t-10 -32v-657q0 -23 10 -31.5t33 -8.5h61q24 0 34 -7t10 -27q0 -23 -15.5 -27.5t-53.5 -4.5h-91q-35 0 -55 3t-30 12.5t-13 28t-3 48.5v686z" />
<glyph unicode="\" horiz-adv-x="278" d="M-20 708q-5 13 -5 22q0 11 31 11q16 0 25.5 -2t14.5 -15l280 -785q4 -9 4 -19q0 -8 -8 -10.5t-25 -2.5q-15 0 -24.5 2.5t-13.5 13.5z" />
<glyph unicode="]" horiz-adv-x="370" d="M106 -75q23 0 33 8.5t10 31.5v657q0 23 -10 32t-33 9h-62q-24 0 -34 7t-10 27q0 23 16 27.5t54 4.5h90q34 0 54.5 -3t31 -12.5t13.5 -28t3 -48.5v-687q0 -30 -3 -48t-13.5 -27.5t-31 -12.5t-54.5 -3h-90q-38 0 -54 4.5t-16 27.5q0 20 10 27t34 7h62z" />
<glyph unicode="^" horiz-adv-x="1000" d="M447 714h105l245 -276h-51l-247 194l-247 -194h-51z" />
<glyph unicode="_" horiz-adv-x="500" d="M0 -152h500v-84h-500v84z" />
<glyph unicode="`" horiz-adv-x="500" d="M118 653q-14 6 -23 11.5t-9 17.5q0 9 4 19.5t10 19.5t14 15t16 6q7 0 13 -2.5t14 -7.5l173 -105q14 -9 14 -16q0 -14 -11 -29t-19 -15q-5 0 -14 4z" />
<glyph unicode="a" horiz-adv-x="544" d="M346 240q-41 9 -74 9q-56 0 -86 -24.5t-30 -67.5q0 -40 26 -64.5t72 -24.5q52 0 72 23t20 74v75zM346 359q0 45 -19.5 69t-55.5 24q-49 0 -88 -45q-8 -9 -15 -18.5t-15 -17t-19 -12t-27 -4.5q-20 0 -32 13t-12 35t14 42t41 36t66.5 25.5t89.5 9.5q58 0 98 -15t62 -43 q20 -25 24 -63t4 -92v-164q0 -55 20 -60q23 -7 35.5 -10.5t12.5 -19.5q0 -11 -8.5 -22.5t-24 -20.5t-36.5 -15t-45 -6q-14 0 -26 8.5t-21.5 18t-16 18t-10.5 8.5q-6 0 -17.5 -8.5t-29.5 -18t-43.5 -18t-58.5 -8.5q-37 0 -67.5 11.5t-52.5 32t-34 49t-12 63.5q0 81 57.5 127 t166.5 46q39 0 95 -9v54z" />
<glyph unicode="b" horiz-adv-x="593" d="M185 175q0 -31 3.5 -54.5t14.5 -39.5t31.5 -24t55.5 -8q62 0 98.5 52.5t36.5 149.5q0 85 -35.5 131.5t-94.5 46.5q-60 0 -85 -29.5t-25 -92.5v-132zM31 23q24 26 29.5 81t5.5 142v230q0 76 -3 116t-17 48q-10 5 -20.5 7t-19 5t-14 7.5t-5.5 14.5q0 15 15 24t44 20 q36 14 65.5 19t42.5 5q19 0 26 -6.5t7 -26.5q0 -14 -3 -58t-3 -119q0 -32 2 -48.5t10 -16.5q4 0 15.5 7.5t30.5 17t45.5 17t59.5 7.5q47 0 86 -16.5t67 -48t43.5 -77t15.5 -102.5q0 -64 -19 -116.5t-53.5 -89.5t-83 -57t-108.5 -20q-51 0 -93 12t-70 33q-34 -28 -61 -28 q-18 0 -37 9v8z" />
<glyph unicode="c" horiz-adv-x="523" d="M281 -14q-54 0 -100 20t-79.5 54.5t-52.5 81.5t-19 101q0 60 20.5 110t56.5 86t84.5 56.5t105.5 20.5q44 0 81 -12.5t63.5 -33t41.5 -47t15 -53.5q0 -23 -16 -38t-42 -15q-34 0 -48 18t-27 48q-14 32 -32.5 48.5t-53.5 16.5q-59 0 -92 -43t-33 -123q0 -46 12.5 -83.5 t34.5 -64.5t53 -42t67 -15q51 0 90 27q18 12 31.5 24t30.5 12q23 0 23 -23q0 -11 -10 -29t-28 -34q-40 -35 -83 -51.5t-94 -16.5z" />
<glyph unicode="d" horiz-adv-x="604" d="M408 336q0 21 -1 35.5t-9 24.5q-16 21 -45.5 36t-62.5 15q-55 0 -89.5 -45t-34.5 -128q0 -45 10 -80.5t28 -60.5t42 -38.5t51 -13.5q54 0 82.5 29t28.5 87v139zM413 48q0 13 -4 13q-2 0 -11 -7l-27 -21q-29 -22 -58.5 -33t-61.5 -11q-47 0 -86 17.5t-68 49.5t-45 78 t-16 102q0 62 18 113.5t51 88.5t78 57.5t99 20.5q26 0 47 -4.5t36.5 -10.5t25 -10.5t12.5 -4.5q7 0 7 25v60q0 35 -6 49t-26 21q-18 6 -31.5 10t-13.5 21t15.5 26.5t47.5 20.5q33 12 59 17t45 5q17 0 24.5 -9.5t7.5 -32.5q0 -13 -3 -97.5t-3 -242.5q0 -129 2 -194.5 t13 -73.5q8 -6 19 -8t20.5 -4.5t16 -7.5t6.5 -16q0 -18 -20 -27t-59 -22q-26 -9 -50 -12.5t-34 -3.5q-27 0 -27 33v25z" />
<glyph unicode="e" horiz-adv-x="537" d="M200 258q-26 0 -32.5 -4t-6.5 -24q0 -30 11.5 -58t32.5 -49.5t49.5 -34.5t62.5 -13q55 0 104 34q17 12 30 23.5t28 11.5q11 0 18.5 -7t7.5 -18t-12 -28.5t-35 -36.5q-42 -34 -82.5 -51t-92.5 -17q-54 0 -100.5 20t-80.5 54.5t-53 81.5t-19 101q0 60 19.5 110t55 86 t84 56.5t106.5 20.5q99 0 156 -55.5t57 -151.5q0 -18 -2.5 -28t-9 -15t-17.5 -6.5t-28 -1.5h-251zM362 316q18 0 25 3.5t7 15.5q0 24 -8.5 45t-23.5 36.5t-36.5 25t-47.5 9.5q-25 0 -45.5 -9.5t-35.5 -25t-23 -36.5t-8 -45q0 -12 6.5 -15.5t24.5 -3.5h165z" />
<glyph unicode="f" horiz-adv-x="289" d="M78 441h-57q-13 0 -17 5.5t-4 19.5v12q0 24 22 24h54q-4 23 -5.5 41.5t-1.5 34.5q0 78 46 120.5t131 42.5q60 0 95 -27t35 -65q0 -49 -51 -49q-33 0 -50 28q-7 11 -11.5 21t-10 17.5t-14 12t-22.5 4.5q-19 0 -31 -12.5t-12 -32.5q0 -11 4 -25l8 -31q4 -17 8 -37t4 -43h74 q14 0 18 -5t4 -19v-12q0 -25 -22 -25h-73v-262q0 -51 2.5 -77.5t15.5 -32.5q10 -5 19.5 -7.5t16 -6t10.5 -9t4 -15.5q0 -23 -30 -29t-94 -6q-63 0 -93.5 6.5t-30.5 29.5q0 8 3.5 12.5t9 7.5t12 5.5t12.5 5.5q15 8 18.5 28t3.5 55v295z" />
<glyph unicode="g" horiz-adv-x="537" d="M106 20q-62 22 -62 75t74 98q-60 51 -60 130q0 41 16.5 76.5t45.5 61.5t70 40.5t89 14.5q26 0 59 -5.5t73 -14.5q20 0 43 10.5t52 30.5q22 -14 22 -33q0 -21 -15.5 -41t-46.5 -36q11 -20 16 -40t5 -43q0 -41 -16 -76t-45 -60.5t-70.5 -39.5t-92.5 -14q-57 0 -102 16 q-21 -23 -21 -40q0 -47 99 -47q38 0 77 5.5t80 5.5q72 0 109 -28.5t37 -82.5q0 -39 -20 -73.5t-57 -60t-89 -40.5t-116 -15q-52 0 -93.5 11.5t-71 30t-45.5 43t-16 50.5q0 28 18 48.5t54 42.5zM270 220q43 0 71.5 31.5t28.5 83.5q0 54 -28 85.5t-71 31.5q-39 0 -66.5 -32 t-27.5 -84q0 -54 26 -85t67 -31zM170 -4q-26 -25 -26 -57q0 -34 35 -56.5t100 -22.5q36 0 65 7.5t50 20t32 29t11 34.5q0 24 -17 37.5t-50 13.5q-23 0 -57 -5t-79 -5q-15 0 -31 1t-33 3z" />
<glyph unicode="h" horiz-adv-x="606" d="M84 332q0 138 -2 211.5t-12 86.5q-6 7 -17 10t-22 6.5t-19 8.5t-8 17q0 17 17.5 27t52.5 23q29 11 55 15t43 4t24 -9.5t7 -32.5q0 -11 -2.5 -66t-2.5 -158v-25q0 -16 10 -16q3 0 9 9t20 23q24 23 52.5 36.5t62.5 13.5q89 0 131 -57.5t42 -170.5q0 -13 0.5 -47t0.5 -91 v-29q0 -20 3.5 -33.5t17.5 -21.5q13 -7 25.5 -11t12.5 -21q0 -26 -30.5 -32.5t-98.5 -6.5q-60 0 -88 7t-28 29q0 10 4 15.5t10 8.5t14 5.5t17 7.5q14 8 17.5 33.5t3.5 70.5q0 61 -2 107t-11 77t-28 46.5t-54 15.5q-27 0 -51.5 -16t-38.5 -44q-14 -29 -17 -78.5t-3 -121.5 q0 -39 2.5 -60.5t16.5 -29.5q9 -5 17 -7.5t14 -5.5t10 -8.5t4 -15.5q0 -22 -27.5 -29t-87.5 -7q-67 0 -98 6.5t-31 32.5q0 9 3.5 13.5t9.5 7.5t12.5 5.5t12.5 5.5q17 9 21 34.5t4 71.5v160z" />
<glyph unicode="i" horiz-adv-x="289" d="M57 668q0 28 23.5 49t58.5 21t56 -19t21 -46t-23 -47t-60 -20q-34 0 -55 18t-21 44zM87 274q0 62 -2.5 94.5t-15.5 39.5q-9 5 -19 7.5t-18 6t-13 8.5t-5 14q0 12 10.5 21t30.5 17q52 20 87.5 27t43.5 7q15 0 20.5 -10.5t5.5 -32.5v-23q0 -13 -1 -30l-4 -130 q-1 -33 -1.5 -65t-0.5 -63q0 -41 3.5 -64t16.5 -30q9 -5 17 -7.5t14 -5.5t10 -8.5t4 -15.5q0 -22 -28 -29t-88 -7q-67 0 -97.5 6.5t-30.5 32.5q0 17 12.5 21t25.5 11q15 8 19.5 27.5t4.5 52.5q0 16 -0.5 34t-0.5 41v53z" />
<glyph unicode="j" horiz-adv-x="280" d="M57 668q0 28 23.5 49t58.5 21t56 -19t21 -46t-23 -47t-60 -20q-34 0 -55 18t-21 44zM88 245q0 75 -3 115.5t-16 47.5q-9 5 -19 7.5t-18 6t-13 8.5t-5 14q0 12 10.5 21t30.5 17q52 20 87.5 27t43.5 7q15 0 20.5 -10.5t5.5 -32.5v-23q0 -13 -1 -30l-4 -130q-2 -50 -3 -117 t-1 -153q0 -23 1 -41t1 -32q0 -80 -31 -116.5t-108 -36.5q-44 0 -67.5 11.5t-23.5 28.5q0 23 27 23q8 0 18.5 -2t24.5 -2q29 0 36 27t7 85v280z" />
<glyph unicode="k" horiz-adv-x="569" d="M85 387q0 112 -2 173t-12 72q-6 7 -18 10t-28 8q-12 4 -17.5 8.5t-5.5 15.5q0 16 14 24t42 18q44 15 75.5 20.5t45.5 5.5q17 0 22.5 -10t5.5 -33q0 -40 -3 -97.5t-3 -132.5v-128q0 -16 1.5 -23.5t8.5 -7.5q4 0 19 10t39 32q31 29 47.5 46.5t16.5 26.5q0 5 -6 8l-13 7 q-7 3 -13 8.5t-6 16.5q0 26 31 33.5t95 7.5q93 0 93 -38q0 -15 -8 -21.5t-21 -10.5l-29 -7q-16 -4 -32 -13q-15 -9 -32 -26l-38 -37q-22 -22 -22 -29q0 -8 13 -26l37 -49q54 -69 89.5 -109t53.5 -54q13 -9 26.5 -13t25 -8t19 -10t7.5 -19q0 -23 -24.5 -32t-77.5 -9 q-22 0 -35.5 1.5t-18.5 3.5q-21 8 -41 34l-51 64l-101 128q-35 43 -43 43q-7 0 -8.5 -6.5t-1.5 -20.5v-22q0 -63 2.5 -99t11.5 -47q5 -6 14 -9t17.5 -6.5t14.5 -9.5t6 -18q0 -22 -28.5 -29t-88.5 -7q-67 0 -97 6.5t-30 32.5q0 17 12.5 21t25.5 11q16 9 20.5 37t4.5 79 q0 29 -0.5 63.5t-0.5 78.5v63z" />
<glyph unicode="l" horiz-adv-x="285" d="M85 428q0 99 -3 149.5t-17 58.5q-12 6 -23 8.5t-20 5.5t-14.5 8t-5.5 16q0 16 14 24t42 18q44 15 75.5 20.5t45.5 5.5q17 0 22.5 -10t5.5 -33q0 -20 -3.5 -120t-3.5 -285q0 -97 2 -151.5t13 -68.5q5 -6 14 -9t17.5 -6.5t14.5 -9.5t6 -18q0 -22 -28.5 -29t-88.5 -7 q-67 0 -97 6.5t-30 32.5q0 10 5 15t12.5 8.5t15.5 6.5t14 9q10 10 13 44.5t3 95.5q0 35 -0.5 78.5t-0.5 97.5v39z" />
<glyph unicode="m" horiz-adv-x="933" d="M85 251q0 73 -2.5 111t-16.5 46q-9 5 -19 7.5t-17.5 6t-12.5 8.5t-5 14q0 12 10.5 20.5t30.5 16.5q48 19 80.5 26t44.5 7q27 0 28 -33v-33q0 -6 4 -6q3 0 5 2l12 11l25 23q13 11 27.5 19.5t33 13.5t43.5 5q26 0 47.5 -7.5t40.5 -20.5q14 -9 24 -19.5t17 -19.5t12 -14.5 t9 -5.5q9 0 17.5 12.5t25.5 26.5q25 21 50 34.5t61 13.5q63 0 105.5 -24.5t62.5 -65.5q10 -21 15 -46.5t6.5 -56.5t1.5 -67v-77q0 -15 -0.5 -27.5t-0.5 -23.5q0 -25 4 -39.5t19 -22.5q13 -7 26 -11t13 -21q0 -26 -30.5 -32t-96.5 -6q-63 0 -92.5 6t-29.5 29q0 10 3.5 15 t10 8.5t14.5 6.5t17 8q14 8 18.5 36.5t4.5 80.5q0 57 -2 100.5t-11.5 73t-28.5 44t-53 14.5q-64 0 -87 -56.5t-23 -170.5v-28q0 -42 3.5 -65t20.5 -32q13 -7 25.5 -11t12.5 -21q0 -26 -29.5 -32t-95.5 -6q-62 0 -91 6t-29 29q0 10 4 15.5t10 8.5t14 5.5t17 7.5q14 8 17 33.5 t3 72.5q0 60 -2 106t-11 76.5t-28 46t-54 15.5q-27 0 -51 -16t-38 -44q-14 -29 -17.5 -79t-3.5 -123q0 -38 3 -59t17 -29q9 -5 17 -7.5t14 -5.5t10 -8.5t4 -15.5q0 -22 -28.5 -29t-88.5 -7q-67 0 -97 6.5t-30 32.5q0 17 12.5 21t25.5 11q15 8 19.5 27.5t4.5 52.5 q0 16 -0.5 34t-0.5 41v30z" />
<glyph unicode="n" horiz-adv-x="606" d="M87 274q0 62 -2.5 94.5t-15.5 39.5q-9 5 -19 7.5t-18 6t-13 8.5t-5 14q0 12 10.5 21t30.5 17q49 19 82.5 25.5t43.5 6.5q27 0 27 -32v-34q0 -6 4 -6q3 0 5 2l12 11l23 21q11 11 26 20t34.5 14.5t46.5 5.5q39 0 72.5 -16.5t55.5 -42.5q30 -36 36.5 -81.5t6.5 -105.5v-69 q0 -18 -0.5 -33t-0.5 -29q0 -30 4 -47.5t19 -25.5q13 -7 25.5 -11t12.5 -21q0 -26 -29.5 -32t-95.5 -6q-62 0 -91 6t-29 29q0 10 4 15.5t10 8.5t14 5.5t17 7.5q14 8 17.5 33.5t3.5 72.5q0 60 -2 106t-11 76.5t-28 46t-54 15.5q-27 0 -51.5 -16t-38.5 -44q-14 -29 -17 -79 t-3 -123q0 -38 2.5 -59t16.5 -29q9 -5 17 -7.5t14 -5.5t10 -8.5t4 -15.5q0 -22 -28 -29t-88 -7q-67 0 -97.5 6.5t-30.5 32.5q0 17 12.5 21t25.5 11q15 8 19.5 27.5t4.5 52.5q0 16 -0.5 34t-0.5 41v53z" />
<glyph unicode="o" horiz-adv-x="572" d="M282 -14q-55 0 -101.5 19.5t-80.5 55t-53 83.5t-19 105t20 106t56 85t84.5 56t105.5 20q55 0 101 -19t79 -52.5t51.5 -80.5t18.5 -102q0 -59 -20 -109.5t-55.5 -87.5t-83.5 -58t-103 -21zM304 57q48 0 80 40.5t32 112.5q0 52 -12 95.5t-32.5 74.5t-47 48t-55.5 17 q-48 0 -80 -39.5t-32 -111.5q0 -53 12 -96.5t32 -75t47 -48.5t56 -17z" />
<glyph unicode="p" horiz-adv-x="602" d="M197 168q0 -21 1 -35.5t9 -24.5q16 -21 45.5 -36.5t62.5 -15.5q55 0 89.5 45.5t34.5 128.5q0 45 -10 80.5t-28 60.5t-42 38.5t-51 13.5q-54 0 -82.5 -29t-28.5 -87v-139zM78 183q0 106 -3 161.5t-18 63.5q-9 5 -19 7.5t-17.5 6t-12.5 8.5t-5 14q0 23 39 37q46 18 77.5 25 t45.5 7q27 0 27 -33v-25q0 -13 3 -13q2 0 12 8l27 20q29 22 58.5 34t61.5 12q46 0 85.5 -18t68.5 -50.5t45 -78.5t16 -102q0 -62 -18 -113.5t-50.5 -88t-76 -57t-94.5 -20.5q-28 0 -50 6t-38 12.5t-25.5 12.5t-12.5 6q-12 0 -12 -62q0 -63 13 -78q8 -8 21 -11t28 -9 q15 -7 15 -24q0 -20 -32 -27.5t-100 -7.5q-64 0 -94.5 7t-30.5 31q0 10 5.5 15.5t13 9t16 6.5t13.5 8q13 13 15.5 66.5t2.5 150.5v83z" />
<glyph unicode="q" horiz-adv-x="593" d="M401 48q0 13 -5 13q-6 0 -14 -7t-21 -17q-32 -23 -61.5 -35.5t-64.5 -12.5q-44 0 -82 17.5t-66.5 49.5t-44.5 78t-16 102q0 63 18.5 115t52 88.5t80.5 56.5t105 20q74 0 133 -29q67 32 90 32q10 0 13 -4t3 -15q0 -7 -2 -28t-2 -58v-307q0 -97 2.5 -151t16.5 -68 q6 -6 14 -9t15.5 -6.5t12.5 -9.5t5 -16q0 -26 -29.5 -33.5t-95.5 -7.5t-96 7t-30 31q0 12 6 18.5t14.5 10.5t17.5 7.5t14 9.5q17 21 17 132v26zM399 336q0 112 -112 112q-61 0 -96 -45t-35 -129q0 -45 10 -80.5t28 -60.5t42 -38.5t51 -13.5q54 0 83 29t29 87v139z" />
<glyph unicode="r" horiz-adv-x="389" d="M88 251q0 73 -2.5 111t-16.5 46q-9 5 -19 7.5t-17.5 6t-12.5 8.5t-5 14q0 13 10 21.5t31 16.5q48 19 78.5 25t35.5 6q19 0 24 -18t10 -61l5 -2q26 42 54.5 63t57.5 21q35 0 56 -21.5t21 -56.5q0 -37 -16.5 -56.5t-44.5 -19.5t-47 20q-11 11 -13 22t-10 11 q-21 0 -33.5 -16.5t-19 -48t-8.5 -79t-2 -108.5q0 -84 26 -95q10 -5 19.5 -7.5t16.5 -5.5t11 -8.5t4 -15.5q0 -21 -31 -28.5t-96 -7.5q-66 0 -96.5 6.5t-30.5 32.5q0 17 12.5 21t25.5 11q15 8 19.5 27.5t4.5 52.5q0 16 -0.5 34t-0.5 41v30z" />
<glyph unicode="s" horiz-adv-x="440" d="M124 -2q-17 -12 -31 -12q-11 0 -21 9q-8 6 -16 20t-14.5 32.5t-11 39.5t-4.5 42q0 17 9 27.5t21 10.5q13 0 21.5 -6.5t15 -17t13.5 -23t17 -25.5q15 -20 41 -31.5t57 -11.5q35 0 54 17t19 45q0 19 -8 31.5t-22.5 23t-36 20t-48.5 23.5q-33 16 -58.5 32t-42.5 33.5 t-25.5 39t-8.5 49.5q0 33 11.5 60.5t33.5 47.5t52.5 31t68.5 11q16 0 34 -1.5t38 -6.5q28 12 40 12t24.5 -11t23 -28.5t17.5 -40t7 -44.5q0 -38 -30 -38q-14 0 -25.5 12t-24.5 32q-17 28 -36.5 42t-51.5 14q-30 0 -48 -17t-18 -43q0 -29 26 -48t75 -43l63 -31 q27 -15 45.5 -32t28.5 -39t10 -53q0 -35 -14 -65t-39.5 -52.5t-60.5 -35.5t-76 -13q-34 0 -94 12z" />
<glyph unicode="t" horiz-adv-x="361" d="M79 441h-47q-19 0 -19 17v12q0 15 19 32l55 48l55 46q20 18 37 18q22 0 22 -17v-95h114q14 0 18 -5t4 -19v-12q0 -25 -22 -25h-105q-11 0 -11 -16v-253q0 -26 1 -44.5t6 -30.5t15.5 -18t29.5 -6q23 0 41.5 8.5t34.5 8.5q11 0 18.5 -6.5t7.5 -17.5q0 -12 -11 -26 t-29.5 -26t-44.5 -20t-56 -8q-64 0 -100 33q-24 22 -28.5 58.5t-4.5 90.5v273z" />
<glyph unicode="u" horiz-adv-x="606" d="M80 344q0 36 -4 50t-26 22t-35.5 11t-13.5 21q0 16 13.5 24t42.5 18q42 14 74 20t49 6q26 0 26 -43q0 -10 -3 -62t-3 -148q0 -45 4 -79.5t14.5 -57.5t29 -34.5t47.5 -11.5q64 0 86.5 56.5t22.5 170.5v39q0 35 -4.5 48.5t-24.5 21.5q-22 8 -35.5 11t-13.5 21q0 16 14 24 t42 18q44 15 75.5 20.5t45.5 5.5q17 0 22.5 -10t5.5 -33q0 -14 -3.5 -73.5t-3.5 -164.5q0 -44 0.5 -73.5t3.5 -46.5q3 -16 9.5 -21t20.5 -10q17 -6 27.5 -10.5t10.5 -19.5q0 -12 -10 -20.5t-30 -16.5q-48 -19 -81 -25.5t-45 -6.5q-28 0 -28 32v36q0 3 -3 3q-6 0 -11.5 -6 t-13.5 -14q-48 -49 -123 -49q-40 0 -73 14.5t-55 40.5q-17 20 -25.5 43t-13 50t-5 58.5t-0.5 68.5q0 17 0.5 34.5t0.5 37.5v10z" />
<glyph unicode="v" horiz-adv-x="528" d="M261 -19q-27 0 -61 67.5t-89 200.5q-17 41 -28.5 72.5t-21.5 54t-19 36.5t-20 20q-16 8 -30.5 13.5t-14.5 23.5q0 25 32.5 31t101.5 6q61 0 89.5 -7t28.5 -30q0 -19 -12 -25q-16 -8 -27 -12t-11 -15q0 -10 12.5 -44t37.5 -95q25 -60 39.5 -91t22.5 -31q13 0 39 58 q73 161 73 195q0 22 -16 30q-15 8 -26 11t-11 20q0 23 27 29.5t82 6.5q50 0 73 -7.5t23 -27.5q0 -11 -3.5 -16.5t-9.5 -8.5t-14 -5t-17 -6q-20 -10 -37 -47l-43 -96l-59 -134q-25 -58 -45.5 -97.5t-36 -59.5t-29.5 -20z" />
<glyph unicode="w" horiz-adv-x="836" d="M431 244q-5 12 -11 12q-4 0 -9 -10l-13 -30q-52 -117 -83 -176t-54 -59q-14 0 -29 17.5t-32.5 51t-39.5 83.5l-49 116q-17 40 -28.5 71.5t-21 54.5t-18.5 37t-21 20q-16 8 -30.5 13.5t-14.5 23.5q0 25 32.5 31t101.5 6q61 0 89.5 -7t28.5 -30q0 -19 -12 -25 q-16 -8 -27 -12t-11 -15q0 -18 50 -139q25 -60 39.5 -91t22.5 -31q14 0 36.5 47t61.5 141q-12 34 -21 55.5t-29 32.5q-16 8 -30 13.5t-14 23.5q0 25 32 31t101 6q61 0 90 -7t29 -30q0 -19 -13 -25q-16 -8 -27 -12t-11 -15q0 -10 13 -44l38 -95q25 -60 39.5 -91t22.5 -31 q13 0 39 58q73 161 73 195q0 22 -16 30q-15 8 -26 11t-11 20q0 23 26.5 29.5t81.5 6.5q50 0 73.5 -7.5t23.5 -27.5q0 -11 -3.5 -16.5t-9.5 -8.5t-14 -5t-17 -6q-20 -10 -37.5 -46.5t-43.5 -96.5l-58 -134q-26 -58 -46.5 -97.5t-36 -59.5t-29.5 -20q-26 0 -54.5 56.5 t-74.5 164.5z" />
<glyph unicode="x" horiz-adv-x="502" d="M190 254q-46 72 -77 116.5t-51 60.5q-8 6 -17.5 8.5t-17.5 5t-14 6.5t-6 15q0 23 28 31.5t90 8.5q63 0 94 -7t31 -30q0 -10 -5 -15.5t-11.5 -9.5t-11.5 -7.5t-5 -8.5q0 -10 17 -34l47 -66l47 70q17 24 17 30q0 4 -6 7.5t-12.5 8t-12.5 10.5t-6 15q0 37 104 37 q86 0 86 -36q0 -11 -5 -17t-13 -9.5t-19.5 -7t-23.5 -9.5q-45 -21 -122 -151l83 -130q34 -49 55 -66q9 -7 19.5 -10.5t20 -7.5t16 -9.5t6.5 -16.5q0 -23 -29 -31t-89 -8q-63 0 -93.5 7.5t-30.5 29.5q0 10 5 15.5t11 8.5l11 7q5 3 5 8q0 8 -19.5 40.5t-61.5 88.5l-60 -86 q-21 -30 -21 -39q0 -6 6 -9t13 -7t13 -9.5t6 -15.5q0 -21 -25.5 -30t-79.5 -9q-87 0 -87 36q0 12 6 18t15.5 9.5t21 6.5t21.5 8q20 10 53 55z" />
<glyph unicode="y" horiz-adv-x="509" d="M350 131q-33 -83 -61.5 -146.5t-58.5 -106t-65 -64.5t-81 -22q-38 0 -62 21t-24 53q0 26 18 44t43 18q26 0 38 -15q13 -15 19.5 -27t17.5 -12q12 0 25.5 10t25.5 26t20 36.5t8 42.5q0 35 -12.5 67.5t-28.5 68.5l-94 205q-32 70 -34 73q-7 14 -17 20t-22 11 q-15 6 -22.5 12.5t-7.5 19.5q0 25 31 32.5t97 7.5q63 0 93.5 -6.5t30.5 -30.5q0 -18 -12 -25q-15 -8 -26.5 -11.5t-11.5 -13.5q0 -12 13 -46t38 -94t40 -90t23 -30q9 0 50 104q24 62 36.5 99t12.5 51q0 11 -9 18t-19.5 13t-19.5 12.5t-9 16.5q0 20 25.5 26.5t78.5 6.5 q54 0 79 -7t25 -30q0 -10 -5 -15t-12.5 -7.5t-16.5 -4.5t-16 -6q-26 -14 -40 -49l-36 -92z" />
<glyph unicode="z" horiz-adv-x="463" d="M264 414q5 8 6.5 13.5t1.5 7.5q0 9 -18 9h-73q-17 0 -29.5 -1.5t-21.5 -6t-16.5 -12t-14.5 -20.5l-20 -36q-9 -15 -28 -15q-11 0 -17.5 9t-6.5 25q0 25 5.5 48.5t14.5 41.5t19.5 28.5t20.5 10.5q8 0 25 -7t48 -7h237q21 0 31 -4t10 -18q0 -8 -10 -25l-239 -370 q-6 -11 -6 -15q0 -10 18 -10h95q20 0 34.5 1t25.5 5t19.5 12t17.5 23q13 20 20.5 34.5t23.5 14.5q10 0 17.5 -10.5t7.5 -28.5q0 -23 -5 -44.5t-13 -38.5t-18.5 -27.5t-21.5 -10.5q-6 0 -25.5 5t-54.5 5h-257q-23 0 -34.5 3t-11.5 20q0 9 4.5 17.5t11.5 19.5z" />
<glyph unicode="{" horiz-adv-x="500" d="M220 148q0 38 -6 64t-21 43.5t-40.5 26.5t-65.5 12v33q40 4 66 13t41 25.5t20.5 43t5.5 64.5v98q0 48 9 80.5t31.5 52t60 28t94.5 8.5v-28q-34 0 -55.5 -7t-33.5 -22.5t-16 -40t-4 -59.5v-67q0 -47 -4.5 -82t-18 -59.5t-39 -40t-67.5 -24.5q42 -9 67.5 -24.5t39 -40 t18 -59.5t4.5 -82v-67q0 -35 4 -59.5t16 -39.5t33.5 -22t55.5 -7v-28h-5q-55 0 -91.5 8.5t-58.5 28.5t-31 52t-9 80v98z" />
<glyph unicode="|" horiz-adv-x="500" d="M207 764h87v-1000h-87v1000z" />
<glyph unicode="}" horiz-adv-x="500" d="M85 -91q34 0 55.5 7t33.5 22t16 39.5t4 59.5v67q0 47 4 82t17.5 59.5t39 40t68.5 24.5q-43 9 -68.5 24.5t-39 40.5t-17.5 59.5t-4 81.5v67q0 35 -4 59.5t-16 40t-33.5 22.5t-55.5 7v28h5q55 0 92 -8.5t59 -28.5t31 -52t9 -80v-98q0 -38 5.5 -64.5t20.5 -43t41 -25.5 t66 -13v-33q-40 -3 -66 -12t-41 -26.5t-20.5 -43.5t-5.5 -64v-98q0 -48 -9 -80t-31 -52t-59 -28.5t-92 -8.5h-5v28z" />
<glyph unicode="~" horiz-adv-x="833" d="M87 303q103 70 189 70q43 0 77.5 -9t65.5 -20l71 -24q35 -12 72 -12q44 0 89 19t96 56v-90q-49 -34 -95 -51.5t-91 -17.5q-44 0 -93 17l-98 33q-47 16 -95 16q-44 0 -89 -20t-99 -58v91z" />
<glyph unicode="&#xa1;" horiz-adv-x="282" d="M62 661q0 33 23 55.5t56 22.5t55.5 -22.5t22.5 -55.5q0 -34 -22.5 -56.5t-55.5 -22.5t-56 22.5t-23 56.5zM141 -14q-39 0 -55 25.5t-16 79.5q0 85 8 176t25 180q7 35 15.5 52t22.5 17t22 -17t15 -52q17 -94 25 -184.5t8 -171.5q0 -54 -15.5 -79.5t-54.5 -25.5z" />
<glyph unicode="&#xa2;" d="M273 52q-99 10 -155 76t-56 175q0 112 56 183t155 86v56q0 14 4 19t15 5h27q11 0 15 -5.5t4 -18.5v-56q78 -7 120.5 -41.5t42.5 -77.5q0 -23 -15.5 -38t-38.5 -15q-26 0 -38.5 11.5t-17.5 36.5q-5 23 -15.5 35.5t-37.5 20.5v-377q47 2 79 32q9 8 15 17l11 16q5 7 11 11.5 t14 4.5q13 0 21.5 -8.5t8.5 -22.5q0 -41 -42.5 -78t-117.5 -48v-66q0 -14 -4 -18.5t-15 -4.5h-27q-11 0 -15 4.5t-4 18.5v67zM274 502q-90 -35 -90 -181t90 -193v374z" />
<glyph unicode="&#xa3;" d="M150 82q-18 16 -32.5 24.5t-28.5 8.5q-17 0 -28 -11t-11 -26t10.5 -24.5t27.5 -9.5q18 0 34.5 9.5t27.5 28.5zM47 329q0 13 4 18.5t15 5.5h82q-14 42 -21.5 75t-7.5 59q0 36 14.5 65.5t41.5 50.5t65.5 33t87.5 12q40 0 72 -10t54 -28t33.5 -41.5t11.5 -50.5 q0 -40 -30 -40q-14 0 -20.5 9t-11.5 27q-21 69 -99 69q-46 0 -69.5 -23t-23.5 -66q0 -40 29 -141h133q11 0 15 -5.5t4 -18.5v-12q0 -13 -4 -18.5t-15 -5.5h-121q6 -38 6 -61q0 -63 -33 -109q82 -41 140 -41q43 0 67.5 13.5t44.5 45.5q6 10 11.5 18t16.5 8t18 -9t7 -23 q0 -26 -15 -52t-41.5 -48t-63 -35.5t-79.5 -13.5q-45 0 -84 15.5t-83 43.5q-48 -52 -110 -52q-44 0 -68.5 23t-24.5 63q0 42 28.5 68.5t82.5 26.5q39 0 81 -19q7 20 7 42q0 36 -24 96h-104q-11 0 -15 5.5t-4 18.5v12z" />
<glyph unicode="&#xa4;" d="M87 292q-1 9 -1 18v17v18q0 9 1 17h-41q-35 0 -35 21q0 22 35 22h47q10 53 32 97t54 76t72.5 50t87.5 18q20 0 35.5 -4t27.5 -8.5t21.5 -8.5t17.5 -4q11 0 20.5 4t19.5 4q23 0 40 -35t17 -88q0 -26 -10 -40t-28 -14q-12 0 -19.5 5.5t-13 14.5t-10.5 20t-12 22 q-20 32 -45.5 46.5t-61.5 14.5q-50 0 -82.5 -38.5t-38.5 -131.5h171q35 0 35 -21q0 -22 -35 -22h-172q0 -36 3 -70h134q35 0 35 -21q0 -22 -35 -22h-129q13 -100 47.5 -146t84.5 -46q32 0 61.5 17t52.5 42q15 17 23 29.5t20 12.5q11 0 18.5 -10.5t7.5 -30.5q0 -19 -4.5 -36 t-11.5 -30t-16 -21t-18 -8q-2 0 -5.5 1t-6.5 1q-5 0 -11 -4l-15 -8q-22 -12 -50 -18.5t-57 -6.5q-54 0 -97.5 18.5t-75.5 53t-52 83t-28 107.5h-45q-35 0 -35 21q0 22 35 22h41z" />
<glyph unicode="&#xa5;" d="M215 308l-43 71h-117q-32 0 -32 22q0 24 32 24h89q-37 60 -60.5 95t-40.5 46q-8 5 -16.5 7.5t-16.5 5.5t-13 8t-5 15q0 23 32 29.5t102 6.5q66 0 96.5 -6.5t30.5 -29.5q0 -14 -10.5 -19.5t-27.5 -11.5t-17 -21q0 -12 27.5 -56.5t81.5 -122.5q100 144 100 167 q0 14 -7.5 21.5t-24.5 13.5q-14 5 -21.5 11t-7.5 18q0 23 28 29.5t88 6.5q57 0 82.5 -6.5t25.5 -29.5q0 -18 -15 -23.5t-34 -15.5q-22 -12 -45.5 -46.5t-58.5 -91.5h85q32 0 32 -23t-32 -23h-113l-43 -71h156q32 0 32 -23t-32 -23h-158q0 -174 10 -189q4 -7 13 -10 t17.5 -6.5t15 -9t6.5 -16.5q0 -23 -29 -29t-93 -6q-66 0 -96.5 5.5t-30.5 29.5q0 11 6.5 16.5t14.5 9t16.5 6.5t13.5 10q10 15 10 189h-163q-32 0 -32 23t32 23h160z" />
<glyph unicode="&#xa6;" horiz-adv-x="500" d="M207 699h87v-370h-87v370zM207 199h87v-370h-87v370z" />
<glyph unicode="&#xa7;" horiz-adv-x="521" d="M139 461q-35 30 -52.5 59t-17.5 65q0 35 14.5 63.5t41 49t65 32t86.5 11.5q39 0 70.5 -9.5t54 -25.5t35 -36.5t12.5 -41.5t-13 -34.5t-36 -13.5q-40 0 -54 37q-3 8 -5 19t-11 21q-28 30 -78 30q-42 0 -65.5 -21t-23.5 -58q0 -25 11 -42t33 -31.5t53 -28.5l72 -31 q80 -35 118 -73t38 -97q0 -111 -100 -144q42 -32 62 -67.5t20 -80.5q0 -78 -54.5 -123.5t-152.5 -45.5q-44 0 -79 9t-59.5 25t-37.5 36.5t-13 44.5q0 25 14 39.5t37 14.5q39 0 56 -42q4 -11 7 -25.5t17 -25.5q26 -20 68 -20q48 0 76 25.5t28 67.5q0 27 -11 45.5t-32 33.5 t-51 29l-69 32q-45 20 -78.5 38t-56 38.5t-33.5 44.5t-11 57q0 109 105 150zM197 246q40 -23 70 -35.5t53 -12.5q32 0 55 24.5t23 59.5q0 30 -18.5 50.5t-57.5 42.5q-82 46 -123 46q-15 0 -28.5 -7t-24.5 -19t-17.5 -28.5t-6.5 -35.5q0 -28 19.5 -46t55.5 -39z" />
<glyph unicode="&#xa8;" horiz-adv-x="500" d="M106 657q0 22 17 38.5t40 16.5t39 -16t16 -39q0 -24 -15.5 -40.5t-39.5 -16.5q-23 0 -40 17t-17 40zM281 657q0 22 17 38.5t40 16.5t39.5 -16t16.5 -39q0 -24 -16 -40.5t-40 -16.5q-23 0 -40 17t-17 40z" />
<glyph unicode="&#xa9;" horiz-adv-x="822" d="M163 82q-51 51 -77.5 114t-26.5 135q0 70 26 134t77 115q50 50 114.5 77t135.5 27q69 0 133.5 -27t113.5 -76q50 -50 77 -115t27 -135q0 -69 -26.5 -133.5t-77.5 -115.5q-50 -51 -113 -76.5t-135 -25.5q-71 0 -134 25.5t-114 76.5zM197 115q89 -89 214 -89 q62 0 116.5 22.5t97.5 66.5q44 45 67 100.5t23 115.5q0 61 -23.5 118t-66.5 100q-42 42 -97.5 65t-115.5 23q-61 0 -117 -23t-99 -67q-44 -45 -66.5 -100t-22.5 -116q0 -63 23 -117.5t67 -98.5zM578 221q-61 -104 -171 -104q-43 0 -80.5 16t-65 44.5t-43 67t-15.5 82.5 q0 45 15.5 84t43 67.5t64.5 44.5t80 16q24 0 42.5 -5t32 -11t23 -11t15.5 -5q14 0 20.5 6.5t9.5 23.5h20l1 -156h-23q-16 66 -50 99.5t-84 33.5q-115 0 -115 -180q0 -91 32 -138t92 -47q80 0 135 85z" />
<glyph unicode="&#xaa;" horiz-adv-x="408" d="M260 547q-32 6 -56 6q-42 0 -64.5 -17t-22.5 -47q0 -28 19.5 -45t54.5 -17q38 0 53.5 16t15.5 51v53zM260 630q0 32 -15 48.5t-42 16.5q-36 0 -66 -31l-22 -25q-11 -12 -35 -12q-15 0 -24 9.5t-9 24.5q0 31 41.5 55t117.5 24q43 0 73 -10.5t47 -29.5q14 -18 17.5 -44.5 t3.5 -64.5v-115q0 -18 3 -29t12 -13q17 -5 26.5 -7.5t9.5 -13.5q0 -16 -24.5 -30t-61.5 -14q-11 0 -19.5 6t-15.5 12.5t-12 12.5t-8 6q-5 0 -13.5 -6t-22 -12.5t-32.5 -12.5t-44 -6q-56 0 -90.5 30t-34.5 79q0 57 43.5 89t124.5 32q15 0 33 -1.5t39 -5.5v38z" />
<glyph unicode="&#xab;" horiz-adv-x="459" d="M325 253q54 -74 79 -118.5t25 -59.5q0 -8 -4.5 -13t-9.5 -5q-18 0 -39 21l-56 60l-72 74q-26 27 -26 41q0 12 12.5 24.5t30.5 32.5l95 103q34 37 54 37q15 0 15 -18q0 -15 -25 -60t-79 -119zM130 253q54 -75 79.5 -119.5t25.5 -58.5q0 -8 -4.5 -13t-9.5 -5q-18 0 -39 21 l-57 60l-72 75q-26 27 -26 40q0 11 11.5 24.5t31.5 33.5l96 103q35 36 53 36q8 0 12 -5t4 -13q0 -14 -25.5 -59t-79.5 -120z" />
<glyph unicode="&#xac;" horiz-adv-x="833" d="M124 421h585v-245h-81v164h-504v81z" />
<glyph unicode="&#xad;" horiz-adv-x="347" d="M44 230q0 20 16 53q8 17 17 20.5t26 3.5q7 0 24 -0.5t46 -0.5q44 0 69 2t32 2q30 0 30 -25q0 -12 -3.5 -26t-10.5 -25.5t-17.5 -19t-23.5 -7.5q-11 0 -24 1t-28 1q-57 0 -88 -2.5t-36 -2.5q-29 0 -29 26z" />
<glyph unicode="&#xae;" horiz-adv-x="822" d="M163 82q-104 104 -104 249q0 70 26.5 134t76.5 115q50 50 114.5 77t135.5 27t136.5 -27.5t114.5 -78.5q48 -49 74 -114t26 -137q0 -67 -28.5 -132.5t-81.5 -117.5q-98 -97 -249 -97q-66 0 -128.5 26t-112.5 76zM197 115q89 -89 214 -89q62 0 116.5 22.5t97.5 66.5 q44 45 67 100.5t23 115.5t-24 117.5t-66 100.5q-42 42 -97.5 65t-115.5 23q-61 0 -117 -23t-99 -67q-44 -45 -66.5 -99.5t-22.5 -116.5q0 -63 23 -117.5t67 -98.5zM228 163q32 2 43.5 11.5t11.5 35.5v254q0 26 -11.5 35.5t-43.5 11.5v24h195q75 0 115.5 -28t40.5 -68 q0 -43 -33 -66t-105 -36q46 -12 71.5 -35t34.5 -63q3 -14 4 -28t3 -25t7 -17.5t17 -6.5q29 0 29 65h24v-11q0 -85 -83 -85q-46 0 -65 28q-13 21 -13 46v5.5v7.5q0 22 -4 41q-16 71 -89 71h-12v-120q0 -25 11.5 -34.5t41.5 -12.5v-23h-190v23zM365 353q11 -1 17 -1h9 q50 0 76 21.5t26 61.5q0 33 -22 55t-60 22q-46 0 -46 -33v-126z" />
<glyph unicode="&#xaf;" horiz-adv-x="500" d="M113 675q0 16 18 16h238q18 0 18 -16v-38q0 -10 -3.5 -13.5t-14.5 -3.5h-238q-11 0 -14.5 3.5t-3.5 13.5v38z" />
<glyph unicode="&#xb0;" horiz-adv-x="329" d="M164 424q-30 0 -56 11t-45.5 30.5t-30.5 46t-11 56.5t11 56.5t30.5 46t46 31t56.5 11.5t56 -11.5t45.5 -31t31 -46t11.5 -56.5q0 -29 -11.5 -55.5t-31 -46t-46 -31t-56.5 -11.5zM165 478q19 0 35.5 7.5t28.5 20t19 29t7 34.5q0 38 -26 64t-64 26t-64.5 -26t-26.5 -64 t26.5 -64.5t64.5 -26.5z" />
<glyph unicode="&#xb1;" horiz-adv-x="833" d="M124 426h251v163h83v-163h251v-81h-251v-163h-83v163h-251v81zM124 89h585v-82h-585v82z" />
<glyph unicode="&#xb2;" horiz-adv-x="373" d="M247 315q15 0 25.5 2t16.5 9q12 14 18.5 26.5t21.5 12.5q8 0 13 -5.5t5 -13.5q0 -17 -5 -33.5t-13 -34.5q-10 -22 -18.5 -32.5t-20.5 -10.5q-16 0 -16 18h-234q-17 0 -24 2t-7 12q0 15 23 33t63 54l55 50q25 23 42 43.5t26.5 40t9.5 40.5q0 29 -18 46.5t-47 17.5 q-39 0 -76 -33q-14 -12 -22 -21.5t-21 -9.5q-20 0 -20 18t22 39q56 56 140 56q63 0 99.5 -29t36.5 -75q0 -30 -17 -57.5t-50 -56.5q-25 -22 -55.5 -45.5t-64.5 -52.5q-4 -6 -4 -7q0 -3 10 -3h106z" />
<glyph unicode="&#xb3;" horiz-adv-x="373" d="M234 446q47 -7 72.5 -35t25.5 -73q0 -64 -52.5 -103t-145.5 -39q-61 0 -93 10t-32 26q0 8 7 14.5t18 6.5q8 0 28.5 -6.5t55.5 -6.5q123 0 123 91q0 35 -23 56t-61 21q-14 0 -26 -2.5t-21 -2.5q-18 0 -18 19q0 11 10.5 14.5t26.5 9.5q40 16 60 36t20 48q0 29 -17.5 46.5 t-47.5 17.5q-17 0 -32 -5t-28 -11l-23 -11q-11 -5 -19 -5t-13.5 5t-5.5 13q0 13 21 25q63 36 134 36q56 0 89 -28t33 -74q0 -58 -66 -93z" />
<glyph unicode="&#xb4;" horiz-adv-x="500" d="M345 732q8 5 14 7.5t13 2.5q8 0 16 -6t14 -15t10 -19.5t4 -19.5q0 -12 -9 -17.5t-23 -11.5l-182 -82q-9 -4 -14 -4q-8 0 -19 15t-11 29q0 7 14 16z" />
<glyph unicode="&#xb5;" horiz-adv-x="578" d="M86 432h101l-49 -228q-10 -46 -10 -68q0 -32 18 -49.5t50 -17.5q43 0 68 26t37 82l54 255h102l-55 -260l-6 -29q-3 -15 -3 -32q0 -21 11 -32.5t31 -11.5q38 0 63 44q6 10 9.5 19.5t7.5 17t8 12t11 4.5q11 0 11 -15q0 -11 -7 -38.5t-21 -52.5q-40 -70 -107 -70 q-41 0 -63 26t-23 77q-42 -103 -130 -103q-48 0 -76.5 28t-33.5 82q-14 -77 -20.5 -134t-13.5 -94.5t-18.5 -56t-36.5 -18.5q-23 0 -35.5 13t-12.5 36q0 19 8 49.5t21 72.5l28 96q15 53 29 120z" />
<glyph unicode="&#xb6;" horiz-adv-x="500" d="M207 383q-84 3 -132 50t-48 119q0 37 13 68.5t38 54t60.5 35t79.5 12.5h255v-48h-57v-674h-63v674h-83v-674h-63v383z" />
<glyph unicode="&#xb7;" horiz-adv-x="282" d="M62 324q0 34 23 56.5t56 22.5t56 -22.5t23 -56.5q0 -33 -23 -55.5t-56 -22.5t-56 22.5t-23 55.5z" />
<glyph unicode="&#xb8;" horiz-adv-x="500" d="M262 -58q22 5 33 5q47 0 73.5 -23.5t26.5 -61.5q0 -88 -132 -88q-63 0 -98.5 14t-35.5 32q0 23 21 23q8 0 19 -3l24 -8q13 -5 28.5 -8.5t33.5 -3.5q59 0 59 41q0 43 -57 43q-14 0 -23.5 -2t-14.5 -2q-9 0 -9 19q0 8 2.5 28.5t7.5 52.5h47q-2 -12 -3.5 -23.5t-1.5 -24.5 v-10z" />
<glyph unicode="&#xb9;" horiz-adv-x="373" d="M188 251q-58 0 -84 2.5t-26 18.5q0 9 5.5 12t13.5 4.5t18 3t19 5.5q8 4 10 8t3 12q2 14 2 61v125q0 12 0.5 21.5t0.5 17.5q0 20 -3.5 27t-16.5 7q-8 0 -16 -0.5t-16 -0.5q-21 0 -21 12q0 10 11.5 16.5t34.5 14.5q37 13 63.5 17t37.5 4q28 0 28 -18q0 -10 -7.5 -14 t-9.5 -7q-6 -6 -7 -42t-1 -102q0 -60 1 -94.5t1 -43.5q1 -9 3.5 -13.5t11.5 -8.5q9 -3 18.5 -4.5t17.5 -3t13 -4.5t5 -11q0 -16 -23.5 -19t-75.5 -3h-11z" />
<glyph unicode="&#xba;" horiz-adv-x="429" d="M21 553q0 40 15 74.5t42 59.5t63.5 39t79.5 14q41 0 75.5 -13t59 -37t38.5 -56.5t14 -71.5q0 -41 -15 -76.5t-41.5 -61.5t-62 -40.5t-77.5 -14.5q-41 0 -76 14t-60.5 38.5t-40 58t-14.5 73.5zM228 419q36 0 60 28t24 79q0 36 -9 66.5t-24 52t-35 33.5t-42 12 q-36 0 -60 -27.5t-24 -77.5q0 -37 9 -67.5t24 -52.5t35 -34t42 -12z" />
<glyph unicode="&#xbb;" horiz-adv-x="459" d="M329 254q-54 75 -79.5 119.5t-25.5 58.5q0 8 4.5 13t9.5 5q18 0 39 -22l57 -59l72 -75q26 -27 26 -40q0 -11 -11.5 -24.5t-31.5 -33.5l-96 -102q-34 -37 -52 -37q-8 0 -12.5 5t-4.5 13q0 14 25.5 59t79.5 120zM134 254q-54 74 -79 118.5t-25 59.5q0 8 4.5 13t9.5 5 q18 0 38 -22l57 -59l72 -75q26 -26 26 -40q0 -12 -12.5 -24.5t-30.5 -32.5l-95 -103q-34 -37 -54 -37q-15 0 -15 18q0 15 25 60t79 119z" />
<glyph unicode="&#xbc;" horiz-adv-x="879" d="M180 276q-55 0 -80 2.5t-25 16.5q0 8 5 11.5t13 5t17.5 2.5t18.5 5q8 3 9.5 6.5t2.5 11.5q2 14 2 57v117q0 11 0.5 20t0.5 17q0 19 -3.5 25.5t-16.5 6.5q-7 0 -14.5 -1t-15.5 -1q-20 0 -20 12q0 16 44 29q35 11 60 15.5t36 4.5q27 0 27 -17q0 -10 -7 -13.5t-10 -6.5 q-5 -6 -6 -39t-1 -96q0 -56 1 -88t1 -41q1 -8 3.5 -12t10.5 -8q9 -3 18 -4t16.5 -2.5t12.5 -4.5t5 -11q0 -14 -22.5 -17t-72.5 -3h-10zM189 22q0 9 9 20l23 29q51 63 99 133l102 144l77 102q51 67 118 176q6 10 10.5 15t12.5 5q4 0 12 -4t16.5 -10t14.5 -12.5t6 -11.5 q0 -6 -17 -28l-48 -60l-76 -95q-45 -57 -100 -135l-72 -103q-50 -70 -117 -185q-5 -8 -8 -12t-10 -4q-6 0 -15 4t-17.5 9.5t-14 11.5t-5.5 11zM742 31h-179q-23 0 -30.5 2.5t-7.5 16.5q0 19 31 58l89 109l89 107q33 37 56 37q17 0 22 -9t5 -27v-247h31q11 0 15 -2.5t4 -10.5 v-21q0 -9 -4 -11t-15 -2h-31v-86q0 -13 -4.5 -15t-21.5 -2h-21q-19 0 -23.5 2t-4.5 15v86zM742 78v191q-42 -44 -80.5 -91t-75.5 -100h156z" />
<glyph unicode="&#xbd;" horiz-adv-x="879" d="M180 276q-55 0 -80 2.5t-25 16.5q0 8 5 11.5t13 5t17.5 2.5t18.5 5q8 3 9.5 6.5t2.5 11.5q2 14 2 57v117q0 11 0.5 20t0.5 17q0 19 -3.5 25.5t-16.5 6.5q-7 0 -14.5 -1t-15.5 -1q-20 0 -20 12q0 16 44 29q35 11 60 15.5t36 4.5q27 0 27 -17q0 -10 -7 -13.5t-10 -6.5 q-5 -6 -6 -39t-1 -96q0 -56 1 -88t1 -41q1 -8 3.5 -12t10.5 -8q9 -3 18 -4t16.5 -2.5t12.5 -4.5t5 -11q0 -14 -22.5 -17t-72.5 -3h-10zM189 22q0 9 9 20l23 29q51 63 99 133l102 144l77 102q51 67 118 176q6 10 10.5 15t12.5 5q4 0 12 -4t16.5 -10t14.5 -12.5t6 -11.5 q0 -6 -17 -28l-48 -60l-76 -95q-45 -57 -100 -135l-72 -103q-50 -70 -117 -185q-5 -8 -8 -12t-10 -4q-6 0 -15 4t-17.5 9.5t-14 11.5t-5.5 11zM759 58q14 0 24 1.5t16 8.5q11 13 17.5 24.5t20.5 11.5q17 0 17 -17q0 -15 -4.5 -30.5t-12.5 -32.5q-9 -20 -17.5 -30.5 t-19.5 -10.5q-16 0 -16 17h-223q-17 0 -23 2t-6 11q0 14 22 31t60 50q59 51 92.5 87.5t33.5 75.5q0 27 -17 43t-44 16q-37 0 -73 -30q-13 -11 -20.5 -20.5t-20.5 -9.5q-19 0 -19 17t20 37q26 25 60.5 38.5t74.5 13.5q59 0 94 -27t35 -70q0 -28 -16 -53.5t-47 -52.5 q-24 -20 -51.5 -40t-56.5 -46q-7 -5 -9 -7.5t-2 -4.5q0 -3 10 -3h101z" />
<glyph unicode="&#xbe;" horiz-adv-x="879" d="M223 458q45 -7 69.5 -33t24.5 -68q0 -60 -50.5 -96t-138.5 -36q-58 0 -88.5 9.5t-30.5 23.5q0 8 7 14t17 6q8 0 27.5 -6t52.5 -6q117 0 117 85q0 32 -22 52t-58 20q-14 0 -25 -2.5t-20 -2.5q-17 0 -17 18q0 10 10 13t25 9q38 15 57.5 34t19.5 45q0 27 -17 43t-46 16 q-16 0 -30.5 -4.5t-26.5 -10.5t-22 -10.5t-18 -4.5q-7 0 -12.5 5t-5.5 12q0 12 20 23q59 34 127 34q54 0 85.5 -26t31.5 -69q0 -54 -63 -87zM189 22q0 9 9 20l23 29q51 63 99 133l102 144l77 102q51 67 118 176q6 10 10.5 15t12.5 5q4 0 12 -4t16.5 -10t14.5 -12.5t6 -11.5 q0 -6 -17 -28l-48 -60l-76 -95q-45 -57 -100 -135l-72 -103q-50 -70 -117 -185q-5 -8 -8 -12t-10 -4q-6 0 -15 4t-17.5 9.5t-14 11.5t-5.5 11zM742 31h-179q-23 0 -30.5 2.5t-7.5 16.5q0 19 31 58l89 109l89 107q33 37 56 37q17 0 22 -9t5 -27v-247h31q11 0 15 -2.5t4 -10.5 v-21q0 -9 -4 -11t-15 -2h-31v-86q0 -13 -4.5 -15t-21.5 -2h-21q-19 0 -23.5 2t-4.5 15v86zM742 78v191q-42 -44 -80.5 -91t-75.5 -100h156z" />
<glyph unicode="&#xbf;" horiz-adv-x="493" d="M217 459v11q0 6 2 11q5 17 10.5 24.5t22.5 7.5q24 0 33.5 -15.5t9.5 -50.5q0 -72 -38 -140q-12 -22 -26 -43t-25.5 -42t-19 -43.5t-7.5 -48.5q0 -41 21 -63t56 -22q34 0 53 19t29 57q5 19 9.5 34t11 25.5t17 16t26.5 5.5q50 0 50 -64q0 -30 -15 -57.5t-43 -48.5 t-66.5 -33.5t-84.5 -12.5q-45 0 -81.5 12t-62 33t-39.5 50.5t-14 65.5q0 25 6 45.5t16.5 38t26 34t35.5 33.5q10 9 21.5 18t22 20.5t20 25.5t16.5 34q5 14 6 27.5t1 25.5v10zM174 662q0 33 23 56t56 23t55.5 -23t22.5 -56q0 -34 -22.5 -56.5t-55.5 -22.5t-56 22.5t-23 56.5z " />
<glyph unicode="&#xc0;" horiz-adv-x="741" d="M198 402l64 162q30 75 45 141q4 21 13.5 28.5t41.5 7.5q21 0 31.5 -8t19.5 -25q13 -25 59.5 -126.5t118.5 -282.5l33 -85q15 -38 28 -66.5t26 -47.5t28 -27q7 -4 15.5 -6t16 -5.5t13 -9t5.5 -16.5q0 -26 -36.5 -33.5t-115.5 -7.5q-78 0 -114 7.5t-36 33.5q0 16 12.5 21.5 t32.5 13.5q25 8 25 31q0 9 -6.5 37.5t-20.5 58.5q-5 9 -8 13.5t-9 6.5q-20 5 -117 5h-25q-60 0 -93 -2t-42 -12q-6 -6 -12 -17.5t-11 -24.5t-8 -26t-3 -23q0 -31 31 -44q19 -8 34 -13t15 -25q0 -26 -30.5 -33.5t-98.5 -7.5t-98.5 7.5t-30.5 33.5q0 10 5 16t12.5 10t16 7 t16.5 8q17 10 28.5 24t20.5 31.5t17 39.5l18 46zM335 556q-53 -124 -103 -260q31 2 58.5 3t53.5 1q55 0 109 -3q-26 73 -52.5 137.5t-52.5 121.5h-13zM228 878q-14 6 -23 11.5t-9 17.5q0 9 4 19.5t10 19.5t14 15t16 6q7 0 13 -2.5t14 -7.5l173 -105q14 -9 14 -16 q0 -14 -11 -29t-19 -15q-5 0 -14 4z" />
<glyph unicode="&#xc1;" horiz-adv-x="741" d="M198 402l64 162q30 75 45 141q4 21 13.5 28.5t41.5 7.5q21 0 31.5 -8t19.5 -25q13 -25 59.5 -126.5t118.5 -282.5l33 -85q15 -38 28 -66.5t26 -47.5t28 -27q7 -4 15.5 -6t16 -5.5t13 -9t5.5 -16.5q0 -26 -36.5 -33.5t-115.5 -7.5q-78 0 -114 7.5t-36 33.5q0 16 12.5 21.5 t32.5 13.5q25 8 25 31q0 9 -6.5 37.5t-20.5 58.5q-5 9 -8 13.5t-9 6.5q-20 5 -117 5h-25q-60 0 -93 -2t-42 -12q-6 -6 -12 -17.5t-11 -24.5t-8 -26t-3 -23q0 -31 31 -44q19 -8 34 -13t15 -25q0 -26 -30.5 -33.5t-98.5 -7.5t-98.5 7.5t-30.5 33.5q0 10 5 16t12.5 10t16 7 t16.5 8q17 10 28.5 24t20.5 31.5t17 39.5l18 46zM335 556q-53 -124 -103 -260q31 2 58.5 3t53.5 1q55 0 109 -3q-26 73 -52.5 137.5t-52.5 121.5h-13zM455 957q8 5 14 7.5t13 2.5q8 0 16 -6t14 -15t10 -19.5t4 -19.5q0 -12 -9 -17.5t-23 -11.5l-182 -82q-9 -4 -14 -4 q-8 0 -19 15t-11 29q0 7 14 16z" />
<glyph unicode="&#xc2;" horiz-adv-x="741" d="M198 402l64 162q30 75 45 141q4 21 13.5 28.5t41.5 7.5q21 0 31.5 -8t19.5 -25q13 -25 59.5 -126.5t118.5 -282.5l33 -85q15 -38 28 -66.5t26 -47.5t28 -27q7 -4 15.5 -6t16 -5.5t13 -9t5.5 -16.5q0 -26 -36.5 -33.5t-115.5 -7.5q-78 0 -114 7.5t-36 33.5q0 16 12.5 21.5 t32.5 13.5q25 8 25 31q0 9 -6.5 37.5t-20.5 58.5q-5 9 -8 13.5t-9 6.5q-20 5 -117 5h-25q-60 0 -93 -2t-42 -12q-6 -6 -12 -17.5t-11 -24.5t-8 -26t-3 -23q0 -31 31 -44q19 -8 34 -13t15 -25q0 -26 -30.5 -33.5t-98.5 -7.5t-98.5 7.5t-30.5 33.5q0 10 5 16t12.5 10t16 7 t16.5 8q17 10 28.5 24t20.5 31.5t17 39.5l18 46zM335 556q-53 -124 -103 -260q31 2 58.5 3t53.5 1q55 0 109 -3q-26 73 -52.5 137.5t-52.5 121.5h-13zM231 795q-22 0 -22 11q0 5 4 11l11 18l74 109q12 18 24 23t38 5t38 -5t24 -23l74 -109l11 -18q4 -6 4 -11q0 -11 -22 -11 h-30q-11 0 -18 4t-15 14l-66 87l-66 -87q-8 -10 -15 -14t-18 -4h-30z" />
<glyph unicode="&#xc3;" horiz-adv-x="741" d="M198 402l64 162q30 75 45 141q4 21 13.5 28.5t41.5 7.5q21 0 31.5 -8t19.5 -25q13 -25 59.5 -126.5t118.5 -282.5l33 -85q15 -38 28 -66.5t26 -47.5t28 -27q7 -4 15.5 -6t16 -5.5t13 -9t5.5 -16.5q0 -26 -36.5 -33.5t-115.5 -7.5q-78 0 -114 7.5t-36 33.5q0 16 12.5 21.5 t32.5 13.5q25 8 25 31q0 9 -6.5 37.5t-20.5 58.5q-5 9 -8 13.5t-9 6.5q-20 5 -117 5h-25q-60 0 -93 -2t-42 -12q-6 -6 -12 -17.5t-11 -24.5t-8 -26t-3 -23q0 -31 31 -44q19 -8 34 -13t15 -25q0 -26 -30.5 -33.5t-98.5 -7.5t-98.5 7.5t-30.5 33.5q0 10 5 16t12.5 10t16 7 t16.5 8q17 10 28.5 24t20.5 31.5t17 39.5l18 46zM335 556q-53 -124 -103 -260q31 2 58.5 3t53.5 1q55 0 109 -3q-26 73 -52.5 137.5t-52.5 121.5h-13zM211 845q0 13 6.5 28.5t18.5 28.5t28.5 22t36.5 9q16 0 32 -4.5t31 -9.5l29 -10q14 -4 27 -4q26 0 34 11q9 12 14.5 21 t15.5 9q11 0 17.5 -6.5t6.5 -17.5q0 -13 -7 -28.5t-19 -28.5t-28.5 -22t-35.5 -9q-20 0 -38 4.5t-34 9.5l-29 9q-14 5 -24 5q-14 0 -21.5 -6.5t-13.5 -14.5l-11 -13q-5 -6 -12 -6q-11 0 -17.5 6t-6.5 17z" />
<glyph unicode="&#xc4;" horiz-adv-x="741" d="M198 402l64 162q30 75 45 141q4 21 13.5 28.5t41.5 7.5q21 0 31.5 -8t19.5 -25q13 -25 59.5 -126.5t118.5 -282.5l33 -85q15 -38 28 -66.5t26 -47.5t28 -27q7 -4 15.5 -6t16 -5.5t13 -9t5.5 -16.5q0 -26 -36.5 -33.5t-115.5 -7.5q-78 0 -114 7.5t-36 33.5q0 16 12.5 21.5 t32.5 13.5q25 8 25 31q0 9 -6.5 37.5t-20.5 58.5q-5 9 -8 13.5t-9 6.5q-20 5 -117 5h-25q-60 0 -93 -2t-42 -12q-6 -6 -12 -17.5t-11 -24.5t-8 -26t-3 -23q0 -31 31 -44q19 -8 34 -13t15 -25q0 -26 -30.5 -33.5t-98.5 -7.5t-98.5 7.5t-30.5 33.5q0 10 5 16t12.5 10t16 7 t16.5 8q17 10 28.5 24t20.5 31.5t17 39.5l18 46zM335 556q-53 -124 -103 -260q31 2 58.5 3t53.5 1q55 0 109 -3q-26 73 -52.5 137.5t-52.5 121.5h-13zM216 882q0 22 17 38.5t40 16.5t39 -16t16 -39q0 -24 -15.5 -40.5t-39.5 -16.5q-23 0 -40 17t-17 40zM391 882 q0 22 17 38.5t40 16.5t39.5 -16t16.5 -39q0 -24 -16 -40.5t-40 -16.5q-23 0 -40 17t-17 40z" />
<glyph unicode="&#xc5;" horiz-adv-x="741" d="M362 735q-24 0 -44.5 9t-36 24.5t-24.5 36.5t-9 45t9 44.5t24.5 35.5t36 24t44.5 9t45 -8.5t36.5 -24t24 -36t8.5 -44.5t-9 -45t-24 -36.5t-36 -24.5t-45 -9zM306 850q0 -24 16.5 -40t39.5 -16t39.5 16t16.5 40q0 23 -16.5 39.5t-39.5 16.5t-39.5 -16.5t-16.5 -39.5z M335 556q-53 -124 -103 -260q31 2 58.5 3t53.5 1q55 0 109 -3q-26 73 -52.5 137.5t-52.5 121.5h-13zM198 382l64 152q29 70 45 135q4 19 13.5 27.5t41.5 8.5q21 0 31.5 -8.5t19.5 -24.5q12 -22 58.5 -117.5t119.5 -270.5l61 -144q23 -54 54 -71q6 -3 15 -5.5t16.5 -5.5 t13 -8.5t5.5 -15.5q0 -25 -37 -32t-115 -7t-114 7t-36 32q0 15 12 21t33 13q25 8 25 29q0 4 -1.5 13.5t-5 22t-8.5 27t-12 28.5q-8 16 -23.5 20.5t-43.5 4.5q-14 0 -31.5 -0.5t-39.5 -0.5q-135 0 -149 -8q-6 -3 -13 -13t-13 -23.5t-10.5 -28.5t-4.5 -27q0 -30 31 -42 q9 -4 18 -6.5t16 -5.5t11 -8.5t4 -15.5q0 -25 -30.5 -32t-98.5 -7q-67 0 -98 7t-31 32q0 10 5 15.5t12.5 9t16 6t16.5 7.5q18 10 29.5 23.5t20.5 30.5t16.5 37t17.5 44z" />
<glyph unicode="&#xc6;" horiz-adv-x="1053" d="M298 448q45 71 68.5 114.5t23.5 64.5q0 22 -20 30q-21 8 -32.5 14t-11.5 24q0 24 32 29t102 5h429q31 0 49.5 5.5t26.5 5.5q14 0 22 -12q5 -8 10 -22t9.5 -29.5t7.5 -32t3 -29.5q0 -23 -9 -35t-24 -12q-18 0 -27.5 17t-26.5 42q-21 32 -89 32h-71q-45 0 -71.5 -4.5 t-37.5 -18.5q-9 -11 -12 -46t-3 -95v-41q0 -23 3.5 -29.5t19.5 -6.5h91q40 0 56 11.5t21 43.5q2 15 4 26.5t5 19.5t9 12t17 4q27 0 33.5 -36.5t6.5 -116.5t-6.5 -116t-33.5 -36q-11 0 -17 4t-9 12t-5 19.5t-4 26.5q-5 32 -21 43.5t-56 11.5h-91q-17 0 -20.5 -10.5 t-3.5 -38.5v-48q0 -57 2 -92.5t9 -51.5q8 -18 35.5 -24.5t78.5 -6.5h66q26 0 46 3t35 10.5t26.5 20t22.5 30.5q7 13 12 26t9.5 23t10.5 16.5t16 6.5q28 0 28 -47q0 -22 -7 -59t-23 -79q-15 -38 -35 -38q-7 0 -25.5 6t-54.5 6h-345q-56 0 -83 4.5t-27 28.5q0 12 4.5 18.5 t11 10t14.5 5.5t15 6q19 10 22.5 40t3.5 92q0 17 -2 23.5t-12 8.5q-8 2 -49.5 3.5t-118.5 1.5q-76 0 -87 -11q-4 -5 -12.5 -17t-22.5 -34q-16 -26 -25 -43t-9 -28q0 -23 30 -36q17 -8 29 -13t12 -24q0 -26 -30 -33.5t-96 -7.5t-95.5 7.5t-29.5 33.5q0 17 12 23l29 14 q19 9 36 26t33.5 41t34.5 55l43 69zM295 318q45 1 73 1h39h43q27 0 65 -2q1 75 1.5 134t0.5 102v34q0 38 -2.5 56.5t-14.5 18.5q-5 0 -12 -12l-17 -32l-27 -52q-16 -30 -40 -69z" />
<glyph unicode="&#xc7;" horiz-adv-x="698" d="M411 -58q22 5 33 5q47 0 73.5 -23.5t26.5 -61.5q0 -88 -132 -88q-63 0 -98.5 14t-35.5 32q0 23 21 23q8 0 19 -3l24 -8q13 -5 28.5 -8.5t33.5 -3.5q59 0 59 41q0 43 -57 43q-14 0 -23.5 -2t-14.5 -2q-9 0 -9 19q0 8 1.5 24t5.5 42q-62 8 -115.5 31.5t-95.5 61.5 q-59 54 -90 128.5t-31 165.5q0 145 82 243q51 62 121.5 94t156.5 32q37 0 76.5 -7.5t83.5 -18.5q19 5 31 8.5t19 3.5q19 0 31 -20q17 -29 27 -67.5t10 -67.5q0 -43 -32 -43q-12 0 -22 7t-20.5 18t-22.5 26t-28 31q-27 28 -67.5 43t-89.5 15q-100 0 -157 -67t-57 -187 q0 -78 20 -142t54.5 -109t81.5 -69.5t101 -24.5q48 0 86.5 15t63.5 40q10 10 18 21l15 18q6 9 13 14t16 5q13 0 21.5 -13t8.5 -38q0 -49 -13.5 -75.5t-36.5 -26.5q-4 0 -12 2q-93 -50 -194 -50h-6q-2 -7 -2 -14v-16v-10z" />
<glyph unicode="&#xc8;" horiz-adv-x="637" d="M420 75q26 0 46 3t35 10.5t26.5 20t22.5 30.5q7 13 12 26t9.5 23t10.5 16.5t16 6.5q28 0 28 -47q0 -22 -7 -59t-23 -79q-15 -38 -35 -38q-7 0 -25.5 6t-54.5 6h-345q-56 0 -83 4.5t-27 28.5q0 13 5.5 19.5t14 10.5t17.5 7t17 9q12 9 16 81t4 209q0 131 -5 199t-10 76 q-5 7 -15 11t-20 8.5t-17 11t-7 20.5q0 24 32 29t102 5h312q31 0 50 5.5t27 5.5q14 0 22 -12q5 -8 10 -22t9.5 -29.5t7 -32t2.5 -29.5q0 -47 -32 -47q-18 0 -27.5 17t-26.5 42q-21 32 -90 32h-70q-45 0 -71.5 -4.5t-37.5 -18.5q-16 -19 -16 -141v-41q0 -23 3.5 -29.5 t19.5 -6.5h91q40 0 56.5 11.5t21.5 43.5q2 15 4 26.5t5 19.5t9 12t17 4q27 0 33 -36.5t6 -116.5t-6 -116t-33 -36q-11 0 -17 4t-9 12t-5 19.5t-4 26.5q-5 32 -21.5 43.5t-56.5 11.5h-90q-17 0 -20.5 -10.5t-3.5 -38.5v-48q0 -57 2 -92.5t9 -51.5q8 -18 35.5 -24.5t78.5 -6.5 h66zM193 878q-14 6 -23 11.5t-9 17.5q0 9 4 19.5t10 19.5t14 15t16 6q7 0 13 -2.5t14 -7.5l173 -105q14 -9 14 -16q0 -14 -11 -29t-19 -15q-5 0 -14 4z" />
<glyph unicode="&#xc9;" horiz-adv-x="637" d="M420 75q26 0 46 3t35 10.5t26.5 20t22.5 30.5q7 13 12 26t9.5 23t10.5 16.5t16 6.5q28 0 28 -47q0 -22 -7 -59t-23 -79q-15 -38 -35 -38q-7 0 -25.5 6t-54.5 6h-345q-56 0 -83 4.5t-27 28.5q0 13 5.5 19.5t14 10.5t17.5 7t17 9q12 9 16 81t4 209q0 131 -5 199t-10 76 q-5 7 -15 11t-20 8.5t-17 11t-7 20.5q0 24 32 29t102 5h312q31 0 50 5.5t27 5.5q14 0 22 -12q5 -8 10 -22t9.5 -29.5t7 -32t2.5 -29.5q0 -47 -32 -47q-18 0 -27.5 17t-26.5 42q-21 32 -90 32h-70q-45 0 -71.5 -4.5t-37.5 -18.5q-16 -19 -16 -141v-41q0 -23 3.5 -29.5 t19.5 -6.5h91q40 0 56.5 11.5t21.5 43.5q2 15 4 26.5t5 19.5t9 12t17 4q27 0 33 -36.5t6 -116.5t-6 -116t-33 -36q-11 0 -17 4t-9 12t-5 19.5t-4 26.5q-5 32 -21.5 43.5t-56.5 11.5h-90q-17 0 -20.5 -10.5t-3.5 -38.5v-48q0 -57 2 -92.5t9 -51.5q8 -18 35.5 -24.5t78.5 -6.5 h66zM420 957q8 5 14 7.5t13 2.5q8 0 16 -6t14 -15t10 -19.5t4 -19.5q0 -12 -9 -17.5t-23 -11.5l-182 -82q-9 -4 -14 -4q-8 0 -19 15t-11 29q0 7 14 16z" />
<glyph unicode="&#xca;" horiz-adv-x="637" d="M420 75q26 0 46 3t35 10.5t26.5 20t22.5 30.5q7 13 12 26t9.5 23t10.5 16.5t16 6.5q28 0 28 -47q0 -22 -7 -59t-23 -79q-15 -38 -35 -38q-7 0 -25.5 6t-54.5 6h-345q-56 0 -83 4.5t-27 28.5q0 13 5.5 19.5t14 10.5t17.5 7t17 9q12 9 16 81t4 209q0 131 -5 199t-10 76 q-5 7 -15 11t-20 8.5t-17 11t-7 20.5q0 24 32 29t102 5h312q31 0 50 5.5t27 5.5q14 0 22 -12q5 -8 10 -22t9.5 -29.5t7 -32t2.5 -29.5q0 -47 -32 -47q-18 0 -27.5 17t-26.5 42q-21 32 -90 32h-70q-45 0 -71.5 -4.5t-37.5 -18.5q-16 -19 -16 -141v-41q0 -23 3.5 -29.5 t19.5 -6.5h91q40 0 56.5 11.5t21.5 43.5q2 15 4 26.5t5 19.5t9 12t17 4q27 0 33 -36.5t6 -116.5t-6 -116t-33 -36q-11 0 -17 4t-9 12t-5 19.5t-4 26.5q-5 32 -21.5 43.5t-56.5 11.5h-90q-17 0 -20.5 -10.5t-3.5 -38.5v-48q0 -57 2 -92.5t9 -51.5q8 -18 35.5 -24.5t78.5 -6.5 h66zM196 795q-22 0 -22 11q0 5 4 11l11 18l74 109q12 18 24 23t38 5t38 -5t24 -23l74 -109l11 -18q4 -6 4 -11q0 -11 -22 -11h-30q-11 0 -18 4t-15 14l-66 87l-66 -87q-8 -10 -15 -14t-18 -4h-30z" />
<glyph unicode="&#xcb;" horiz-adv-x="637" d="M420 75q26 0 46 3t35 10.5t26.5 20t22.5 30.5q7 13 12 26t9.5 23t10.5 16.5t16 6.5q28 0 28 -47q0 -22 -7 -59t-23 -79q-15 -38 -35 -38q-7 0 -25.5 6t-54.5 6h-345q-56 0 -83 4.5t-27 28.5q0 13 5.5 19.5t14 10.5t17.5 7t17 9q12 9 16 81t4 209q0 131 -5 199t-10 76 q-5 7 -15 11t-20 8.5t-17 11t-7 20.5q0 24 32 29t102 5h312q31 0 50 5.5t27 5.5q14 0 22 -12q5 -8 10 -22t9.5 -29.5t7 -32t2.5 -29.5q0 -47 -32 -47q-18 0 -27.5 17t-26.5 42q-21 32 -90 32h-70q-45 0 -71.5 -4.5t-37.5 -18.5q-16 -19 -16 -141v-41q0 -23 3.5 -29.5 t19.5 -6.5h91q40 0 56.5 11.5t21.5 43.5q2 15 4 26.5t5 19.5t9 12t17 4q27 0 33 -36.5t6 -116.5t-6 -116t-33 -36q-11 0 -17 4t-9 12t-5 19.5t-4 26.5q-5 32 -21.5 43.5t-56.5 11.5h-90q-17 0 -20.5 -10.5t-3.5 -38.5v-48q0 -57 2 -92.5t9 -51.5q8 -18 35.5 -24.5t78.5 -6.5 h66zM181 882q0 22 17 38.5t40 16.5t39 -16t16 -39q0 -24 -15.5 -40.5t-39.5 -16.5q-23 0 -40 17t-17 40zM356 882q0 22 17 38.5t40 16.5t39.5 -16t16.5 -39q0 -24 -16 -40.5t-40 -16.5q-23 0 -40 17t-17 40z" />
<glyph unicode="&#xcc;" horiz-adv-x="325" d="M26 35q0 12 6 18t14 10t17.5 7t16.5 9q13 10 16.5 81.5t3.5 208.5q0 130 -4.5 198.5t-10.5 76.5q-5 7 -15 11t-20 8.5t-17 11t-7 19.5q0 26 33 30.5t104 4.5t104 -4.5t33 -30.5q0 -12 -6 -18.5t-14.5 -10t-18 -6.5t-16.5 -9q-11 -8 -14.5 -63.5t-3.5 -161.5 q0 -322 13 -341q5 -8 15 -11.5t19.5 -7.5t17 -10.5t7.5 -19.5q0 -26 -33 -33t-104 -7t-103.5 7.5t-32.5 32.5zM32 878q-14 6 -23 11.5t-9 17.5q0 9 4 19.5t10 19.5t14 15t16 6q7 0 13 -2.5t14 -7.5l173 -105q14 -9 14 -16q0 -14 -11 -29t-19 -15q-5 0 -14 4z" />
<glyph unicode="&#xcd;" horiz-adv-x="325" d="M26 35q0 12 6 18t14 10t17.5 7t16.5 9q13 10 16.5 81.5t3.5 208.5q0 130 -4.5 198.5t-10.5 76.5q-5 7 -15 11t-20 8.5t-17 11t-7 19.5q0 26 33 30.5t104 4.5t104 -4.5t33 -30.5q0 -12 -6 -18.5t-14.5 -10t-18 -6.5t-16.5 -9q-11 -8 -14.5 -63.5t-3.5 -161.5 q0 -322 13 -341q5 -8 15 -11.5t19.5 -7.5t17 -10.5t7.5 -19.5q0 -26 -33 -33t-104 -7t-103.5 7.5t-32.5 32.5zM259 957q8 5 14 7.5t13 2.5q8 0 16 -6t14 -15t10 -19.5t4 -19.5q0 -12 -9 -17.5t-23 -11.5l-182 -82q-9 -4 -14 -4q-8 0 -19 15t-11 29q0 7 14 16z" />
<glyph unicode="&#xce;" horiz-adv-x="325" d="M26 35q0 12 6 18t14 10t17.5 7t16.5 9q13 10 16.5 81.5t3.5 208.5q0 130 -4.5 198.5t-10.5 76.5q-5 7 -15 11t-20 8.5t-17 11t-7 19.5q0 26 33 30.5t104 4.5t104 -4.5t33 -30.5q0 -12 -6 -18.5t-14.5 -10t-18 -6.5t-16.5 -9q-11 -8 -14.5 -63.5t-3.5 -161.5 q0 -322 13 -341q5 -8 15 -11.5t19.5 -7.5t17 -10.5t7.5 -19.5q0 -26 -33 -33t-104 -7t-103.5 7.5t-32.5 32.5zM35 795q-22 0 -22 11q0 5 4 11l11 18l74 109q12 18 24 23t38 5t38 -5t24 -23l74 -109l11 -18q4 -6 4 -11q0 -11 -22 -11h-30q-11 0 -18 4t-15 14l-66 87l-66 -87 q-8 -10 -15 -14t-18 -4h-30z" />
<glyph unicode="&#xcf;" horiz-adv-x="325" d="M26 35q0 12 6 18t14 10t17.5 7t16.5 9q13 10 16.5 81.5t3.5 208.5q0 130 -4.5 198.5t-10.5 76.5q-5 7 -15 11t-20 8.5t-17 11t-7 19.5q0 26 33 30.5t104 4.5t104 -4.5t33 -30.5q0 -12 -6 -18.5t-14.5 -10t-18 -6.5t-16.5 -9q-11 -8 -14.5 -63.5t-3.5 -161.5 q0 -322 13 -341q5 -8 15 -11.5t19.5 -7.5t17 -10.5t7.5 -19.5q0 -26 -33 -33t-104 -7t-103.5 7.5t-32.5 32.5zM20 882q0 22 17 38.5t40 16.5t39 -16t16 -39q0 -24 -15.5 -40.5t-39.5 -16.5q-23 0 -40 17t-17 40zM195 882q0 22 17 38.5t40 16.5t39.5 -16t16.5 -39 q0 -24 -16 -40.5t-40 -16.5q-23 0 -40 17t-17 40z" />
<glyph unicode="&#xd0;" horiz-adv-x="787" d="M105 409q-3 113 -6 172.5t-15 68.5q-7 6 -16.5 9t-17.5 6.5t-14 10t-6 18.5q0 23 25 30t79 7q20 0 43.5 -1t51.5 -1q35 0 66.5 2t58.5 2q96 0 170.5 -25.5t125 -74t76.5 -118.5t26 -159q0 -178 -105 -268.5t-314 -90.5q-31 0 -63 1.5t-66 1.5q-35 0 -59.5 -0.5 t-39.5 -0.5q-38 0 -56 8t-18 29q0 12 7 18.5t17 10.5t20 7.5t15 11.5q8 11 10.5 74t4.5 181h-73q-32 0 -32 35t32 35h73zM371 409q32 0 32 -35t-32 -35h-136q3 -108 6 -167t12 -71q8 -11 37.5 -21t77.5 -10q235 0 235 280q0 154 -66.5 233.5t-194.5 79.5q-80 0 -92 -32 q-8 -23 -11 -78t-5 -144h137z" />
<glyph unicode="&#xd1;" horiz-adv-x="796" d="M170 410q0 -173 4 -255t24 -82q13 0 28 -11t15 -26q0 -23 -25.5 -31.5t-82.5 -8.5t-82 8.5t-25 31.5q0 12 7 18.5t17 10.5l20 8q9 4 14 11q14 20 14 285q0 131 -4.5 199t-9.5 76q-5 7 -15 11t-19.5 8.5t-17 11t-7.5 18.5q0 23 26 29.5t83 6.5q30 0 48.5 -1t26.5 -8 q19 -17 60.5 -73t114.5 -147l115 -141l71 -87q33 -39 61 -68q1 14 1 28v31q0 175 -3.5 268t-7.5 107q-4 13 -18 18q-20 8 -31.5 14.5t-11.5 22.5q0 24 26.5 30t84.5 6q54 0 79.5 -6.5t25.5 -29.5q0 -12 -6.5 -19t-19.5 -12l-22 -9q-10 -4 -13 -15q-7 -23 -9.5 -129 t-2.5 -300q0 -57 1 -96.5t1 -62.5q0 -32 -3.5 -44.5t-20.5 -12.5q-21 0 -45 16.5t-54 48t-67 78.5l-85 106l-112 141l-89 112q-36 45 -57 67q-2 -20 -2 -46v-57v-49zM255 845q0 13 6.5 28.5t18.5 28.5t28.5 22t36.5 9q16 0 32 -4.5t31 -9.5l29 -10q14 -4 27 -4q26 0 34 11 q9 12 14.5 21t15.5 9q11 0 17.5 -6.5t6.5 -17.5q0 -13 -7 -28.5t-19 -28.5t-28.5 -22t-35.5 -9q-20 0 -38 4.5t-34 9.5l-29 9q-14 5 -24 5q-14 0 -21.5 -6.5t-13.5 -14.5l-11 -13q-5 -6 -12 -6q-11 0 -17.5 6t-6.5 17z" />
<glyph unicode="&#xd2;" horiz-adv-x="808" d="M187 52q-74 54 -113 135.5t-39 184.5q0 82 26.5 150t75.5 117t117 75.5t151 26.5q133 0 227 -76q66 -54 104 -136.5t38 -182.5q0 -63 -17.5 -119t-49.5 -101q-49 -68 -127.5 -106.5t-169.5 -38.5q-62 0 -118.5 18t-104.5 53zM424 53q45 0 82.5 17.5t65 51t42.5 81 t15 107.5q0 82 -19.5 149t-53.5 114t-79 72.5t-96 25.5q-44 0 -81 -17.5t-64 -51t-42 -81t-15 -107.5q0 -83 19 -149.5t52 -113.5t78 -72.5t96 -25.5zM272 878q-14 6 -23 11.5t-9 17.5q0 9 4 19.5t10 19.5t14 15t16 6q7 0 13 -2.5t14 -7.5l173 -105q14 -9 14 -16 q0 -14 -11 -29t-19 -15q-5 0 -14 4z" />
<glyph unicode="&#xd3;" horiz-adv-x="808" d="M187 52q-74 54 -113 135.5t-39 184.5q0 82 26.5 150t75.5 117t117 75.5t151 26.5q133 0 227 -76q66 -54 104 -136.5t38 -182.5q0 -63 -17.5 -119t-49.5 -101q-49 -68 -127.5 -106.5t-169.5 -38.5q-62 0 -118.5 18t-104.5 53zM424 53q45 0 82.5 17.5t65 51t42.5 81 t15 107.5q0 82 -19.5 149t-53.5 114t-79 72.5t-96 25.5q-44 0 -81 -17.5t-64 -51t-42 -81t-15 -107.5q0 -83 19 -149.5t52 -113.5t78 -72.5t96 -25.5zM499 957q8 5 14 7.5t13 2.5q8 0 16 -6t14 -15t10 -19.5t4 -19.5q0 -12 -9 -17.5t-23 -11.5l-182 -82q-9 -4 -14 -4 q-8 0 -19 15t-11 29q0 7 14 16z" />
<glyph unicode="&#xd4;" horiz-adv-x="808" d="M187 52q-74 54 -113 135.5t-39 184.5q0 82 26.5 150t75.5 117t117 75.5t151 26.5q133 0 227 -76q66 -54 104 -136.5t38 -182.5q0 -63 -17.5 -119t-49.5 -101q-49 -68 -127.5 -106.5t-169.5 -38.5q-62 0 -118.5 18t-104.5 53zM424 53q45 0 82.5 17.5t65 51t42.5 81 t15 107.5q0 82 -19.5 149t-53.5 114t-79 72.5t-96 25.5q-44 0 -81 -17.5t-64 -51t-42 -81t-15 -107.5q0 -83 19 -149.5t52 -113.5t78 -72.5t96 -25.5zM275 795q-22 0 -22 11q0 5 4 11l11 18l74 109q12 18 24 23t38 5t38 -5t24 -23l74 -109l11 -18q4 -6 4 -11q0 -11 -22 -11 h-30q-11 0 -18 4t-15 14l-66 87l-66 -87q-8 -10 -15 -14t-18 -4h-30z" />
<glyph unicode="&#xd5;" horiz-adv-x="808" d="M187 52q-74 54 -113 135.5t-39 184.5q0 82 26.5 150t75.5 117t117 75.5t151 26.5q133 0 227 -76q66 -54 104 -136.5t38 -182.5q0 -63 -17.5 -119t-49.5 -101q-49 -68 -127.5 -106.5t-169.5 -38.5q-62 0 -118.5 18t-104.5 53zM424 53q45 0 82.5 17.5t65 51t42.5 81 t15 107.5q0 82 -19.5 149t-53.5 114t-79 72.5t-96 25.5q-44 0 -81 -17.5t-64 -51t-42 -81t-15 -107.5q0 -83 19 -149.5t52 -113.5t78 -72.5t96 -25.5zM255 845q0 13 6.5 28.5t18.5 28.5t28.5 22t36.5 9q16 0 32 -4.5t31 -9.5l29 -10q14 -4 27 -4q26 0 34 11q9 12 14.5 21 t15.5 9q11 0 17.5 -6.5t6.5 -17.5q0 -13 -7 -28.5t-19 -28.5t-28.5 -22t-35.5 -9q-20 0 -38 4.5t-34 9.5l-29 9q-14 5 -24 5q-14 0 -21.5 -6.5t-13.5 -14.5l-11 -13q-5 -6 -12 -6q-11 0 -17.5 6t-6.5 17z" />
<glyph unicode="&#xd6;" horiz-adv-x="808" d="M187 52q-74 54 -113 135.5t-39 184.5q0 82 26.5 150t75.5 117t117 75.5t151 26.5q133 0 227 -76q66 -54 104 -136.5t38 -182.5q0 -63 -17.5 -119t-49.5 -101q-49 -68 -127.5 -106.5t-169.5 -38.5q-62 0 -118.5 18t-104.5 53zM424 53q45 0 82.5 17.5t65 51t42.5 81 t15 107.5q0 82 -19.5 149t-53.5 114t-79 72.5t-96 25.5q-44 0 -81 -17.5t-64 -51t-42 -81t-15 -107.5q0 -83 19 -149.5t52 -113.5t78 -72.5t96 -25.5zM260 882q0 22 17 38.5t40 16.5t39 -16t16 -39q0 -24 -15.5 -40.5t-39.5 -16.5q-23 0 -40 17t-17 40zM435 882 q0 22 17 38.5t40 16.5t39.5 -16t16.5 -39q0 -24 -16 -40.5t-40 -16.5q-23 0 -40 17t-17 40z" />
<glyph unicode="&#xd7;" horiz-adv-x="833" d="M140 74l224 224l-224 225l57 57l224 -224l225 224l57 -57l-224 -225l224 -224l-57 -58l-225 225l-224 -225z" />
<glyph unicode="&#xd8;" horiz-adv-x="808" d="M530 603q-65 68 -149 68q-44 0 -81 -17.5t-64 -51t-42 -81t-15 -107.5q0 -133 55 -237zM274 122q63 -69 149 -69q45 0 83 17.5t65 51t42.5 81t15.5 107.5q0 145 -58 238zM163 72q-62 54 -95 131t-33 168q0 83 26.5 151.5t75 117t116.5 75.5t150 27q101 0 190 -49l65 94 q16 22 31 22q13 0 22.5 -9t9.5 -22t-10 -27l-67 -96q64 -60 97 -138t33 -171q0 -63 -17.5 -119t-49.5 -101q-24 -33 -56.5 -60t-70 -46t-80 -29t-85.5 -10q-110 0 -201 53l-82 -119q-16 -22 -31 -22q-13 0 -22.5 9.5t-9.5 22.5t10 27z" />
<glyph unicode="&#xd9;" horiz-adv-x="763" d="M98 239q0 29 1 57.5t1 57.5q0 139 -5 211.5t-10 80.5q-5 7 -15 11l-20 8q-9 4 -16.5 10.5t-7.5 19.5q0 25 33 29.5t104 4.5q70 0 103.5 -4.5t33.5 -29.5q0 -12 -6 -18.5t-14.5 -10t-18 -6.5t-16.5 -9q-19 -15 -19 -251q0 -75 1 -130.5t7 -91.5q9 -57 55 -92t121 -35 q98 0 140.5 54t42.5 167q0 354 -13 374q-5 7 -15 11l-20 8q-10 4 -17.5 10.5t-7.5 19.5q0 23 26.5 28.5t83.5 5.5t84 -5.5t27 -28.5q0 -12 -5.5 -18t-14 -10t-18 -7t-16.5 -9q-12 -9 -15.5 -67t-3.5 -167q0 -30 0.5 -63.5t0.5 -70.5q0 -72 -9 -124.5t-38 -88.5 q-35 -43 -92 -66t-137 -23q-147 0 -221 65t-74 193zM280 878q-14 6 -23 11.5t-9 17.5q0 9 4 19.5t10 19.5t14 15t16 6q7 0 13 -2.5t14 -7.5l173 -105q14 -9 14 -16q0 -14 -11 -29t-19 -15q-5 0 -14 4z" />
<glyph unicode="&#xda;" horiz-adv-x="763" d="M98 239q0 29 1 57.5t1 57.5q0 139 -5 211.5t-10 80.5q-5 7 -15 11l-20 8q-9 4 -16.5 10.5t-7.5 19.5q0 25 33 29.5t104 4.5q70 0 103.5 -4.5t33.5 -29.5q0 -12 -6 -18.5t-14.5 -10t-18 -6.5t-16.5 -9q-19 -15 -19 -251q0 -75 1 -130.5t7 -91.5q9 -57 55 -92t121 -35 q98 0 140.5 54t42.5 167q0 354 -13 374q-5 7 -15 11l-20 8q-10 4 -17.5 10.5t-7.5 19.5q0 23 26.5 28.5t83.5 5.5t84 -5.5t27 -28.5q0 -12 -5.5 -18t-14 -10t-18 -7t-16.5 -9q-12 -9 -15.5 -67t-3.5 -167q0 -30 0.5 -63.5t0.5 -70.5q0 -72 -9 -124.5t-38 -88.5 q-35 -43 -92 -66t-137 -23q-147 0 -221 65t-74 193zM507 957q8 5 14 7.5t13 2.5q8 0 16 -6t14 -15t10 -19.5t4 -19.5q0 -12 -9 -17.5t-23 -11.5l-182 -82q-9 -4 -14 -4q-8 0 -19 15t-11 29q0 7 14 16z" />
<glyph unicode="&#xdb;" horiz-adv-x="763" d="M98 239q0 29 1 57.5t1 57.5q0 139 -5 211.5t-10 80.5q-5 7 -15 11l-20 8q-9 4 -16.5 10.5t-7.5 19.5q0 25 33 29.5t104 4.5q70 0 103.5 -4.5t33.5 -29.5q0 -12 -6 -18.5t-14.5 -10t-18 -6.5t-16.5 -9q-19 -15 -19 -251q0 -75 1 -130.5t7 -91.5q9 -57 55 -92t121 -35 q98 0 140.5 54t42.5 167q0 354 -13 374q-5 7 -15 11l-20 8q-10 4 -17.5 10.5t-7.5 19.5q0 23 26.5 28.5t83.5 5.5t84 -5.5t27 -28.5q0 -12 -5.5 -18t-14 -10t-18 -7t-16.5 -9q-12 -9 -15.5 -67t-3.5 -167q0 -30 0.5 -63.5t0.5 -70.5q0 -72 -9 -124.5t-38 -88.5 q-35 -43 -92 -66t-137 -23q-147 0 -221 65t-74 193zM283 795q-22 0 -22 11q0 5 4 11l11 18l74 109q12 18 24 23t38 5t38 -5t24 -23l74 -109l11 -18q4 -6 4 -11q0 -11 -22 -11h-30q-11 0 -18 4t-15 14l-66 87l-66 -87q-8 -10 -15 -14t-18 -4h-30z" />
<glyph unicode="&#xdc;" horiz-adv-x="763" d="M98 239q0 29 1 57.5t1 57.5q0 139 -5 211.5t-10 80.5q-5 7 -15 11l-20 8q-9 4 -16.5 10.5t-7.5 19.5q0 25 33 29.5t104 4.5q70 0 103.5 -4.5t33.5 -29.5q0 -12 -6 -18.5t-14.5 -10t-18 -6.5t-16.5 -9q-19 -15 -19 -251q0 -75 1 -130.5t7 -91.5q9 -57 55 -92t121 -35 q98 0 140.5 54t42.5 167q0 354 -13 374q-5 7 -15 11l-20 8q-10 4 -17.5 10.5t-7.5 19.5q0 23 26.5 28.5t83.5 5.5t84 -5.5t27 -28.5q0 -12 -5.5 -18t-14 -10t-18 -7t-16.5 -9q-12 -9 -15.5 -67t-3.5 -167q0 -30 0.5 -63.5t0.5 -70.5q0 -72 -9 -124.5t-38 -88.5 q-35 -43 -92 -66t-137 -23q-147 0 -221 65t-74 193zM268 882q0 22 17 38.5t40 16.5t39 -16t16 -39q0 -24 -15.5 -40.5t-39.5 -16.5q-23 0 -40 17t-17 40zM443 882q0 22 17 38.5t40 16.5t39.5 -16t16.5 -39q0 -24 -16 -40.5t-40 -16.5q-23 0 -40 17t-17 40z" />
<glyph unicode="&#xdd;" horiz-adv-x="655" d="M203 446q-54 90 -88 141t-54 64q-9 6 -19 9t-19 6.5t-15 9.5t-6 17q0 26 35 31t112 5q76 0 111 -5t35 -31q0 -16 -11.5 -22t-31.5 -14t-20 -25q0 -14 32 -64l93 -141q115 165 115 192q0 17 -9.5 24.5t-28.5 15.5q-16 6 -24 13t-8 21q0 26 30 31t96 5t95.5 -5t29.5 -31 q0 -12 -6.5 -18.5t-16.5 -10.5l-22 -10q-12 -5 -22 -13q-45 -34 -194 -292l3 -194q1 -66 14 -76q7 -6 16.5 -9t18 -6.5t14.5 -10t6 -18.5q0 -26 -33 -33t-104 -7t-103.5 7.5t-32.5 32.5q0 12 6 18t14 10t17.5 7t16.5 9q14 11 15.5 76t3.5 190zM423 957q8 5 14 7.5t13 2.5 q8 0 16 -6t14 -15t10 -19.5t4 -19.5q0 -12 -9 -17.5t-23 -11.5l-182 -82q-9 -4 -14 -4q-8 0 -19 15t-11 29q0 7 14 16z" />
<glyph unicode="&#xde;" horiz-adv-x="611" d="M228 259q37 -3 70 -3q92 0 132.5 30.5t40.5 108.5q0 122 -164 122q-35 0 -50.5 -4.5t-20.5 -19.5q-6 -18 -7 -68.5t-1 -135.5v-30zM231 572q64 2 102 3.5t51 1.5q227 0 227 -183q0 -100 -69 -152t-206 -52q-32 0 -54.5 1.5t-33.5 1.5q-12 0 -15 -8t-3 -31q0 -31 3 -49.5 t12 -26.5q7 -5 16 -8t17.5 -7t14.5 -10t6 -17q0 -26 -32.5 -33.5t-104.5 -7.5q-71 0 -103.5 7.5t-32.5 32.5q0 12 6 18t14 10t17.5 7t16.5 9q13 10 16.5 81.5t3.5 208.5q0 130 -5 198.5t-10 76.5q-5 7 -15 11t-20 8.5t-17 11t-7 19.5q0 26 33 33t104 7q72 0 104.5 -7.5 t32.5 -33.5q0 -11 -6 -17t-14.5 -10t-18 -7t-16.5 -9q-8 -7 -10 -25.5t-4 -52.5z" />
<glyph unicode="&#xdf;" horiz-adv-x="579" d="M74 294q0 78 -2 135.5t-2 96.5q0 214 216 214q49 0 89.5 -13t69 -35.5t44 -53.5t15.5 -67q0 -45 -24 -81.5t-66 -57.5q-28 -14 -43.5 -18t-15.5 -11q0 -8 12.5 -10t32.5 -9q77 -25 113.5 -69.5t36.5 -115.5q0 -42 -18.5 -80.5t-53.5 -66.5q-73 -58 -166 -58q-91 0 -91 37 q0 20 12 26.5t39 6.5h22q128 0 128 128q0 45 -21 84t-59 65q-18 12 -36 18l-30 11q-13 4 -21 9.5t-8 17.5q0 19 19 27l52 23q27 11 46 41.5t19 68.5q0 59 -26.5 93t-71.5 34q-33 0 -52 -14t-29 -42t-12.5 -70.5t-2.5 -98.5q0 -58 2 -159.5t2 -249.5q0 -33 -19.5 -43 t-70.5 -10q-54 0 -79.5 6.5t-25.5 27.5q0 12 7 18.5t16.5 10.5t20 7.5t17.5 9.5q11 9 13 41t2 89v87z" />
<glyph unicode="&#xe0;" horiz-adv-x="544" d="M346 240q-41 9 -74 9q-56 0 -86 -24.5t-30 -67.5q0 -40 26 -64.5t72 -24.5q52 0 72 23t20 74v75zM346 359q0 45 -19.5 69t-55.5 24q-49 0 -88 -45q-8 -9 -15 -18.5t-15 -17t-19 -12t-27 -4.5q-20 0 -32 13t-12 35t14 42t41 36t66.5 25.5t89.5 9.5q58 0 98 -15t62 -43 q20 -25 24 -63t4 -92v-164q0 -55 20 -60q23 -7 35.5 -10.5t12.5 -19.5q0 -11 -8.5 -22.5t-24 -20.5t-36.5 -15t-45 -6q-14 0 -26 8.5t-21.5 18t-16 18t-10.5 8.5q-6 0 -17.5 -8.5t-29.5 -18t-43.5 -18t-58.5 -8.5q-37 0 -67.5 11.5t-52.5 32t-34 49t-12 63.5q0 81 57.5 127 t166.5 46q39 0 95 -9v54zM140 653q-14 6 -23 11.5t-9 17.5q0 9 4 19.5t10 19.5t14 15t16 6q7 0 13 -2.5t14 -7.5l173 -105q14 -9 14 -16q0 -14 -11 -29t-19 -15q-5 0 -14 4z" />
<glyph unicode="&#xe1;" horiz-adv-x="544" d="M346 240q-41 9 -74 9q-56 0 -86 -24.5t-30 -67.5q0 -40 26 -64.5t72 -24.5q52 0 72 23t20 74v75zM346 359q0 45 -19.5 69t-55.5 24q-49 0 -88 -45q-8 -9 -15 -18.5t-15 -17t-19 -12t-27 -4.5q-20 0 -32 13t-12 35t14 42t41 36t66.5 25.5t89.5 9.5q58 0 98 -15t62 -43 q20 -25 24 -63t4 -92v-164q0 -55 20 -60q23 -7 35.5 -10.5t12.5 -19.5q0 -11 -8.5 -22.5t-24 -20.5t-36.5 -15t-45 -6q-14 0 -26 8.5t-21.5 18t-16 18t-10.5 8.5q-6 0 -17.5 -8.5t-29.5 -18t-43.5 -18t-58.5 -8.5q-37 0 -67.5 11.5t-52.5 32t-34 49t-12 63.5q0 81 57.5 127 t166.5 46q39 0 95 -9v54zM367 732q8 5 14 7.5t13 2.5q8 0 16 -6t14 -15t10 -19.5t4 -19.5q0 -12 -9 -17.5t-23 -11.5l-182 -82q-9 -4 -14 -4q-8 0 -19 15t-11 29q0 7 14 16z" />
<glyph unicode="&#xe2;" horiz-adv-x="544" d="M346 240q-41 9 -74 9q-56 0 -86 -24.5t-30 -67.5q0 -40 26 -64.5t72 -24.5q52 0 72 23t20 74v75zM346 359q0 45 -19.5 69t-55.5 24q-49 0 -88 -45q-8 -9 -15 -18.5t-15 -17t-19 -12t-27 -4.5q-20 0 -32 13t-12 35t14 42t41 36t66.5 25.5t89.5 9.5q58 0 98 -15t62 -43 q20 -25 24 -63t4 -92v-164q0 -55 20 -60q23 -7 35.5 -10.5t12.5 -19.5q0 -11 -8.5 -22.5t-24 -20.5t-36.5 -15t-45 -6q-14 0 -26 8.5t-21.5 18t-16 18t-10.5 8.5q-6 0 -17.5 -8.5t-29.5 -18t-43.5 -18t-58.5 -8.5q-37 0 -67.5 11.5t-52.5 32t-34 49t-12 63.5q0 81 57.5 127 t166.5 46q39 0 95 -9v54zM143 570q-22 0 -22 11q0 5 4 11l11 18l74 109q12 18 24 23t38 5t38 -5t24 -23l74 -109l11 -18q4 -6 4 -11q0 -11 -22 -11h-30q-11 0 -18 4t-15 14l-66 87l-66 -87q-8 -10 -15 -14t-18 -4h-30z" />
<glyph unicode="&#xe3;" horiz-adv-x="544" d="M346 240q-41 9 -74 9q-56 0 -86 -24.5t-30 -67.5q0 -40 26 -64.5t72 -24.5q52 0 72 23t20 74v75zM346 359q0 45 -19.5 69t-55.5 24q-49 0 -88 -45q-8 -9 -15 -18.5t-15 -17t-19 -12t-27 -4.5q-20 0 -32 13t-12 35t14 42t41 36t66.5 25.5t89.5 9.5q58 0 98 -15t62 -43 q20 -25 24 -63t4 -92v-164q0 -55 20 -60q23 -7 35.5 -10.5t12.5 -19.5q0 -11 -8.5 -22.5t-24 -20.5t-36.5 -15t-45 -6q-14 0 -26 8.5t-21.5 18t-16 18t-10.5 8.5q-6 0 -17.5 -8.5t-29.5 -18t-43.5 -18t-58.5 -8.5q-37 0 -67.5 11.5t-52.5 32t-34 49t-12 63.5q0 81 57.5 127 t166.5 46q39 0 95 -9v54zM123 620q0 13 6.5 28.5t18.5 28.5t28.5 22t36.5 9q16 0 32 -4.5t31 -9.5l29 -10q14 -4 27 -4q26 0 34 11q9 12 14.5 21t15.5 9q11 0 17.5 -6.5t6.5 -17.5q0 -13 -7 -28.5t-19 -28.5t-28.5 -22t-35.5 -9q-20 0 -38 4.5t-34 9.5l-29 9q-14 5 -24 5 q-14 0 -21.5 -6.5t-13.5 -14.5l-11 -13q-5 -6 -12 -6q-11 0 -17.5 6t-6.5 17z" />
<glyph unicode="&#xe4;" horiz-adv-x="544" d="M346 240q-41 9 -74 9q-56 0 -86 -24.5t-30 -67.5q0 -40 26 -64.5t72 -24.5q52 0 72 23t20 74v75zM346 359q0 45 -19.5 69t-55.5 24q-49 0 -88 -45q-8 -9 -15 -18.5t-15 -17t-19 -12t-27 -4.5q-20 0 -32 13t-12 35t14 42t41 36t66.5 25.5t89.5 9.5q58 0 98 -15t62 -43 q20 -25 24 -63t4 -92v-164q0 -55 20 -60q23 -7 35.5 -10.5t12.5 -19.5q0 -11 -8.5 -22.5t-24 -20.5t-36.5 -15t-45 -6q-14 0 -26 8.5t-21.5 18t-16 18t-10.5 8.5q-6 0 -17.5 -8.5t-29.5 -18t-43.5 -18t-58.5 -8.5q-37 0 -67.5 11.5t-52.5 32t-34 49t-12 63.5q0 81 57.5 127 t166.5 46q39 0 95 -9v54zM128 657q0 22 17 38.5t40 16.5t39 -16t16 -39q0 -24 -15.5 -40.5t-39.5 -16.5q-23 0 -40 17t-17 40zM303 657q0 22 17 38.5t40 16.5t39.5 -16t16.5 -39q0 -24 -16 -40.5t-40 -16.5q-23 0 -40 17t-17 40z" />
<glyph unicode="&#xe5;" horiz-adv-x="544" d="M346 240q-41 9 -74 9q-56 0 -86 -24.5t-30 -67.5q0 -40 26 -64.5t72 -24.5q52 0 72 23t20 74v75zM346 359q0 45 -19.5 69t-55.5 24q-49 0 -88 -45q-8 -9 -15 -18.5t-15 -17t-19 -12t-27 -4.5q-20 0 -32 13t-12 35t14 42t41 35.5t66.5 25t89.5 9.5q115 0 160 -57 q20 -25 24 -63t4 -92v-164q0 -55 20 -60q23 -7 35.5 -10.5t12.5 -19.5q0 -11 -8.5 -22.5t-24 -20.5t-36.5 -15t-45 -6q-14 0 -26 8.5t-21.5 18t-16 18t-10.5 8.5q-6 0 -17.5 -8.5t-29.5 -18t-43.5 -18t-58.5 -8.5q-37 0 -67.5 11.5t-52.5 32t-34 49t-12 63.5q0 81 57.5 127 t166.5 46q39 0 95 -9v54zM272 548q-27 0 -50 10t-40 27t-26.5 40t-9.5 50q0 26 9.5 49t26.5 40t40 27t50 10t50 -9.5t40 -26.5t27 -40t10 -50t-10 -50t-27 -40t-40 -27t-50 -10zM210 675q0 -26 18.5 -44t44.5 -18t44 17.5t18 44.5q0 26 -18 44t-44 18t-44.5 -18t-18.5 -44z " />
<glyph unicode="&#xe6;" horiz-adv-x="845" d="M343 240q-41 9 -73 9q-56 0 -86 -24.5t-30 -67.5q0 -40 26 -64.5t72 -24.5q51 0 71 23t20 74v75zM343 359q0 46 -20 69t-55 23q-49 0 -87 -44q-8 -9 -14.5 -18.5t-15 -17t-19 -12t-26.5 -4.5q-20 0 -32 13t-12 35t14 42t40.5 36t65.5 25.5t89 9.5q57 0 97 -15t65 -47 q74 62 171 62q47 0 85 -14.5t65 -41.5t42 -65.5t15 -85.5q0 -18 -2.5 -28t-9 -15t-17.5 -6.5t-27 -1.5h-239q-30 0 -37.5 -3.5t-7.5 -24.5q0 -31 11.5 -59t32 -49.5t48.5 -34t60 -12.5q54 0 101 34q17 12 30 23.5t27 11.5q25 0 25 -25q0 -11 -11 -28t-34 -37 q-41 -34 -81 -51t-91 -17q-117 0 -190 90q-86 -90 -208 -90q-74 0 -119 42t-45 113q0 81 57.5 127t164.5 46q38 0 94 -9v54zM661 316q18 0 24.5 3.5t6.5 15.5q0 23 -8 44t-23 37t-36 25.5t-46 9.5q-24 0 -44.5 -9.5t-35 -25.5t-22.5 -37t-8 -45q0 -12 6.5 -15t24.5 -3h161z " />
<glyph unicode="&#xe7;" horiz-adv-x="523" d="M280 -58q22 5 33 5q47 0 73.5 -23.5t26.5 -61.5q0 -88 -132 -88q-63 0 -98.5 14t-35.5 32q0 23 21 23q8 0 19 -3l24 -8q13 -5 28.5 -8.5t33.5 -3.5q59 0 59 41q0 43 -57 43q-14 0 -23.5 -2t-14.5 -2q-9 0 -9 19q0 8 1.5 25.5t6.5 45.5q-45 7 -83 29.5t-65.5 56t-42.5 76 t-15 91.5q0 60 20.5 110t56.5 86t84.5 56.5t105.5 20.5q44 0 81 -12.5t63.5 -33t41.5 -47t15 -53.5q0 -23 -16 -38t-42 -15q-34 0 -48 18t-27 48q-14 32 -32.5 48.5t-53.5 16.5q-59 0 -92 -43t-33 -123q0 -46 12.5 -83.5t34.5 -64.5t53 -42t67 -15q51 0 90 27q18 12 31.5 24 t30.5 12q23 0 23 -23q0 -11 -10 -29t-28 -34q-40 -35 -82.5 -51t-93.5 -17q-1 -8 -1.5 -16.5t-0.5 -17.5v-10z" />
<glyph unicode="&#xe8;" horiz-adv-x="537" d="M200 258q-26 0 -32.5 -4t-6.5 -24q0 -30 11.5 -58t32.5 -49.5t49.5 -34.5t62.5 -13q55 0 104 34q17 12 30 23.5t28 11.5q11 0 18.5 -7t7.5 -18t-12 -28.5t-35 -36.5q-42 -34 -82.5 -51t-92.5 -17q-54 0 -100.5 20t-80.5 54.5t-53 81.5t-19 101q0 60 19.5 110t55 86 t84 56.5t106.5 20.5q99 0 156 -55.5t57 -151.5q0 -18 -2.5 -28t-9 -15t-17.5 -6.5t-28 -1.5h-251zM362 316q18 0 25 3.5t7 15.5q0 24 -8.5 45t-23.5 36.5t-36.5 25t-47.5 9.5q-25 0 -45.5 -9.5t-35.5 -25t-23 -36.5t-8 -45q0 -12 6.5 -15.5t24.5 -3.5h165zM156 653 q-14 6 -23 11.5t-9 17.5q0 9 4 19.5t10 19.5t14 15t16 6q7 0 13 -2.5t14 -7.5l173 -105q14 -9 14 -16q0 -14 -11 -29t-19 -15q-5 0 -14 4z" />
<glyph unicode="&#xe9;" horiz-adv-x="537" d="M200 258q-26 0 -32.5 -4t-6.5 -24q0 -30 11.5 -58t32.5 -49.5t49.5 -34.5t62.5 -13q55 0 104 34q17 12 30 23.5t28 11.5q11 0 18.5 -7t7.5 -18t-12 -28.5t-35 -36.5q-42 -34 -82.5 -51t-92.5 -17q-54 0 -100.5 20t-80.5 54.5t-53 81.5t-19 101q0 60 19.5 110t55 86 t84 56.5t106.5 20.5q99 0 156 -55.5t57 -151.5q0 -18 -2.5 -28t-9 -15t-17.5 -6.5t-28 -1.5h-251zM362 316q18 0 25 3.5t7 15.5q0 24 -8.5 45t-23.5 36.5t-36.5 25t-47.5 9.5q-25 0 -45.5 -9.5t-35.5 -25t-23 -36.5t-8 -45q0 -12 6.5 -15.5t24.5 -3.5h165zM383 732 q8 5 14 7.5t13 2.5q8 0 16 -6t14 -15t10 -19.5t4 -19.5q0 -12 -9 -17.5t-23 -11.5l-182 -82q-9 -4 -14 -4q-8 0 -19 15t-11 29q0 7 14 16z" />
<glyph unicode="&#xea;" horiz-adv-x="537" d="M200 258q-26 0 -32.5 -4t-6.5 -24q0 -30 11.5 -58t32.5 -49.5t49.5 -34.5t62.5 -13q55 0 104 34q17 12 30 23.5t28 11.5q11 0 18.5 -7t7.5 -18t-12 -28.5t-35 -36.5q-42 -34 -82.5 -51t-92.5 -17q-54 0 -100.5 20t-80.5 54.5t-53 81.5t-19 101q0 60 19.5 110t55 86 t84 56.5t106.5 20.5q99 0 156 -55.5t57 -151.5q0 -18 -2.5 -28t-9 -15t-17.5 -6.5t-28 -1.5h-251zM362 316q18 0 25 3.5t7 15.5q0 24 -8.5 45t-23.5 36.5t-36.5 25t-47.5 9.5q-25 0 -45.5 -9.5t-35.5 -25t-23 -36.5t-8 -45q0 -12 6.5 -15.5t24.5 -3.5h165zM159 570 q-22 0 -22 11q0 5 4 11l11 18l74 109q12 18 24 23t38 5t38 -5t24 -23l74 -109l11 -18q4 -6 4 -11q0 -11 -22 -11h-30q-11 0 -18 4t-15 14l-66 87l-66 -87q-8 -10 -15 -14t-18 -4h-30z" />
<glyph unicode="&#xeb;" horiz-adv-x="537" d="M200 258q-26 0 -32.5 -4t-6.5 -24q0 -30 11.5 -58t32.5 -49.5t49.5 -34.5t62.5 -13q55 0 104 34q17 12 30 23.5t28 11.5q11 0 18.5 -7t7.5 -18t-12 -28.5t-35 -36.5q-42 -34 -82.5 -51t-92.5 -17q-54 0 -100.5 20t-80.5 54.5t-53 81.5t-19 101q0 60 19.5 110t55 86 t84 56.5t106.5 20.5q99 0 156 -55.5t57 -151.5q0 -18 -2.5 -28t-9 -15t-17.5 -6.5t-28 -1.5h-251zM362 316q18 0 25 3.5t7 15.5q0 24 -8.5 45t-23.5 36.5t-36.5 25t-47.5 9.5q-25 0 -45.5 -9.5t-35.5 -25t-23 -36.5t-8 -45q0 -12 6.5 -15.5t24.5 -3.5h165zM144 657 q0 22 17 38.5t40 16.5t39 -16t16 -39q0 -24 -15.5 -40.5t-39.5 -16.5q-23 0 -40 17t-17 40zM319 657q0 22 17 38.5t40 16.5t39.5 -16t16.5 -39q0 -24 -16 -40.5t-40 -16.5q-23 0 -40 17t-17 40z" />
<glyph unicode="&#xec;" horiz-adv-x="289" d="M87 274q0 62 -2.5 94.5t-15.5 39.5q-9 5 -19 7.5t-18 6t-13 8.5t-5 14q0 12 10.5 21t30.5 17q52 20 87.5 27t43.5 7q15 0 20.5 -10.5t5.5 -32.5v-23q0 -13 -1 -30l-4 -130q-1 -33 -1.5 -65t-0.5 -63q0 -41 3.5 -64t16.5 -30q9 -5 17 -7.5t14 -5.5t10 -8.5t4 -15.5 q0 -22 -28 -29t-88 -7q-67 0 -97.5 6.5t-30.5 32.5q0 17 12.5 21t25.5 11q15 8 19.5 27.5t4.5 52.5q0 16 -0.5 34t-0.5 41v53zM14 653q-14 6 -23 11.5t-9 17.5q0 9 4 19.5t10 19.5t14 15t16 6q7 0 13 -2.5t14 -7.5l173 -105q14 -9 14 -16q0 -14 -11 -29t-19 -15q-5 0 -14 4z " />
<glyph unicode="&#xed;" horiz-adv-x="289" d="M87 274q0 62 -2.5 94.5t-15.5 39.5q-9 5 -19 7.5t-18 6t-13 8.5t-5 14q0 12 10.5 21t30.5 17q52 20 87.5 27t43.5 7q15 0 20.5 -10.5t5.5 -32.5v-23q0 -13 -1 -30l-4 -130q-1 -33 -1.5 -65t-0.5 -63q0 -41 3.5 -64t16.5 -30q9 -5 17 -7.5t14 -5.5t10 -8.5t4 -15.5 q0 -22 -28 -29t-88 -7q-67 0 -97.5 6.5t-30.5 32.5q0 17 12.5 21t25.5 11q15 8 19.5 27.5t4.5 52.5q0 16 -0.5 34t-0.5 41v53zM241 732q8 5 14 7.5t13 2.5q8 0 16 -6t14 -15t10 -19.5t4 -19.5q0 -12 -9 -17.5t-23 -11.5l-182 -82q-9 -4 -14 -4q-8 0 -19 15t-11 29q0 7 14 16 z" />
<glyph unicode="&#xee;" horiz-adv-x="289" d="M87 274q0 62 -2.5 94.5t-15.5 39.5q-9 5 -19 7.5t-18 6t-13 8.5t-5 14q0 12 10.5 21t30.5 17q52 20 87.5 27t43.5 7q15 0 20.5 -10.5t5.5 -32.5v-23q0 -13 -1 -30l-4 -130q-1 -33 -1.5 -65t-0.5 -63q0 -41 3.5 -64t16.5 -30q9 -5 17 -7.5t14 -5.5t10 -8.5t4 -15.5 q0 -22 -28 -29t-88 -7q-67 0 -97.5 6.5t-30.5 32.5q0 17 12.5 21t25.5 11q15 8 19.5 27.5t4.5 52.5q0 16 -0.5 34t-0.5 41v53zM17 570q-22 0 -22 11q0 5 4 11l11 18l74 109q12 18 24 23t38 5t38 -5t24 -23l74 -109l11 -18q4 -6 4 -11q0 -11 -22 -11h-30q-11 0 -18 4t-15 14 l-66 87l-66 -87q-8 -10 -15 -14t-18 -4h-30z" />
<glyph unicode="&#xef;" horiz-adv-x="289" d="M87 274q0 62 -2.5 94.5t-15.5 39.5q-9 5 -19 7.5t-18 6t-13 8.5t-5 14q0 12 10.5 21t30.5 17q52 20 87.5 27t43.5 7q15 0 20.5 -10.5t5.5 -32.5v-23q0 -13 -1 -30l-4 -130q-1 -33 -1.5 -65t-0.5 -63q0 -41 3.5 -64t16.5 -30q9 -5 17 -7.5t14 -5.5t10 -8.5t4 -15.5 q0 -22 -28 -29t-88 -7q-67 0 -97.5 6.5t-30.5 32.5q0 17 12.5 21t25.5 11q15 8 19.5 27.5t4.5 52.5q0 16 -0.5 34t-0.5 41v53zM2 657q0 22 17 38.5t40 16.5t39 -16t16 -39q0 -24 -15.5 -40.5t-39.5 -16.5q-23 0 -40 17t-17 40zM177 657q0 22 17 38.5t40 16.5t39.5 -16 t16.5 -39q0 -24 -16 -40.5t-40 -16.5q-23 0 -40 17t-17 40z" />
<glyph unicode="&#xf0;" horiz-adv-x="522" d="M279 58q38 0 63 33.5t25 93.5q0 45 -10.5 83t-28 65.5t-39.5 43t-44 15.5q-39 0 -63 -32.5t-24 -93.5q0 -46 10.5 -84.5t27.5 -66t38.5 -42.5t44.5 -15zM212 597q-24 26 -44 45l-33 32q-14 14 -22 23t-8 16q0 11 9 19.5t23 8.5q16 0 59.5 -25t109.5 -81l99 48q16 8 31 8 q24 0 24 -25q0 -13 -8.5 -19t-22.5 -13l-86 -39q76 -75 114 -161t38 -182q0 -60 -18 -109t-49.5 -84t-75.5 -54t-95 -19q-49 0 -91 17.5t-72.5 48.5t-48 73t-17.5 91q0 54 18.5 98.5t50 77t73.5 50.5t90 18q27 0 56 -9q-14 27 -30 53t-36 49l-108 -48q-9 -4 -16.5 -6.5 t-14.5 -2.5q-25 0 -25 25q0 14 8.5 20t22.5 13z" />
<glyph unicode="&#xf1;" horiz-adv-x="606" d="M87 274q0 62 -2.5 94.5t-15.5 39.5q-9 5 -19 7.5t-18 6t-13 8.5t-5 14q0 12 10.5 21t30.5 17q49 19 82.5 25.5t43.5 6.5q27 0 27 -32v-34q0 -6 4 -6q3 0 5 2l12 11l23 21q11 11 26 20t34.5 14.5t46.5 5.5q39 0 72.5 -16.5t55.5 -42.5q30 -36 36.5 -81.5t6.5 -105.5v-69 q0 -18 -0.5 -33t-0.5 -29q0 -30 4 -47.5t19 -25.5q13 -7 25.5 -11t12.5 -21q0 -26 -29.5 -32t-95.5 -6q-62 0 -91 6t-29 29q0 10 4 15.5t10 8.5t14 5.5t17 7.5q14 8 17.5 33.5t3.5 72.5q0 60 -2 106t-11 76.5t-28 46t-54 15.5q-27 0 -51.5 -16t-38.5 -44q-14 -29 -17 -79 t-3 -123q0 -38 2.5 -59t16.5 -29q9 -5 17 -7.5t14 -5.5t10 -8.5t4 -15.5q0 -22 -28 -29t-88 -7q-67 0 -97.5 6.5t-30.5 32.5q0 17 12.5 21t25.5 11q15 8 19.5 27.5t4.5 52.5q0 16 -0.5 34t-0.5 41v53zM154 620q0 13 6.5 28.5t18.5 28.5t28.5 22t36.5 9q16 0 32 -4.5t31 -9.5 l29 -10q14 -4 27 -4q26 0 34 11q9 12 14.5 21t15.5 9q11 0 17.5 -6.5t6.5 -17.5q0 -13 -7 -28.5t-19 -28.5t-28.5 -22t-35.5 -9q-20 0 -38 4.5t-34 9.5l-29 9q-14 5 -24 5q-14 0 -21.5 -6.5t-13.5 -14.5l-11 -13q-5 -6 -12 -6q-11 0 -17.5 6t-6.5 17z" />
<glyph unicode="&#xf2;" horiz-adv-x="572" d="M282 -14q-55 0 -101.5 19.5t-80.5 55t-53 83.5t-19 105t20 106t56 85t84.5 56t105.5 20q55 0 101 -19t79 -52.5t51.5 -80.5t18.5 -102q0 -59 -20 -109.5t-55.5 -87.5t-83.5 -58t-103 -21zM304 57q48 0 80 40.5t32 112.5q0 52 -12 95.5t-32.5 74.5t-47 48t-55.5 17 q-48 0 -80 -39.5t-32 -111.5q0 -53 12 -96.5t32 -75t47 -48.5t56 -17zM154 653q-14 6 -23 11.5t-9 17.5q0 9 4 19.5t10 19.5t14 15t16 6q7 0 13 -2.5t14 -7.5l173 -105q14 -9 14 -16q0 -14 -11 -29t-19 -15q-5 0 -14 4z" />
<glyph unicode="&#xf3;" horiz-adv-x="572" d="M282 -14q-55 0 -101.5 19.5t-80.5 55t-53 83.5t-19 105t20 106t56 85t84.5 56t105.5 20q55 0 101 -19t79 -52.5t51.5 -80.5t18.5 -102q0 -59 -20 -109.5t-55.5 -87.5t-83.5 -58t-103 -21zM304 57q48 0 80 40.5t32 112.5q0 52 -12 95.5t-32.5 74.5t-47 48t-55.5 17 q-48 0 -80 -39.5t-32 -111.5q0 -53 12 -96.5t32 -75t47 -48.5t56 -17zM381 732q8 5 14 7.5t13 2.5q8 0 16 -6t14 -15t10 -19.5t4 -19.5q0 -12 -9 -17.5t-23 -11.5l-182 -82q-9 -4 -14 -4q-8 0 -19 15t-11 29q0 7 14 16z" />
<glyph unicode="&#xf4;" horiz-adv-x="572" d="M282 -14q-55 0 -101.5 19.5t-80.5 55t-53 83.5t-19 105t20 106t56 85t84.5 56t105.5 20q55 0 101 -19t79 -52.5t51.5 -80.5t18.5 -102q0 -59 -20 -109.5t-55.5 -87.5t-83.5 -58t-103 -21zM304 57q48 0 80 40.5t32 112.5q0 52 -12 95.5t-32.5 74.5t-47 48t-55.5 17 q-48 0 -80 -39.5t-32 -111.5q0 -53 12 -96.5t32 -75t47 -48.5t56 -17zM157 570q-22 0 -22 11q0 5 4 11l11 18l74 109q12 18 24 23t38 5t38 -5t24 -23l74 -109l11 -18q4 -6 4 -11q0 -11 -22 -11h-30q-11 0 -18 4t-15 14l-66 87l-66 -87q-8 -10 -15 -14t-18 -4h-30z" />
<glyph unicode="&#xf5;" horiz-adv-x="572" d="M282 -14q-55 0 -101.5 19.5t-80.5 55t-53 83.5t-19 105t20 106t56 85t84.5 56t105.5 20q55 0 101 -19t79 -52.5t51.5 -80.5t18.5 -102q0 -59 -20 -109.5t-55.5 -87.5t-83.5 -58t-103 -21zM304 57q48 0 80 40.5t32 112.5q0 52 -12 95.5t-32.5 74.5t-47 48t-55.5 17 q-48 0 -80 -39.5t-32 -111.5q0 -53 12 -96.5t32 -75t47 -48.5t56 -17zM137 620q0 13 6.5 28.5t18.5 28.5t28.5 22t36.5 9q16 0 32 -4.5t31 -9.5l29 -10q14 -4 27 -4q26 0 34 11q9 12 14.5 21t15.5 9q11 0 17.5 -6.5t6.5 -17.5q0 -13 -7 -28.5t-19 -28.5t-28.5 -22t-35.5 -9 q-20 0 -38 4.5t-34 9.5l-29 9q-14 5 -24 5q-14 0 -21.5 -6.5t-13.5 -14.5l-11 -13q-5 -6 -12 -6q-11 0 -17.5 6t-6.5 17z" />
<glyph unicode="&#xf6;" horiz-adv-x="572" d="M282 -14q-55 0 -101.5 19.5t-80.5 55t-53 83.5t-19 105t20 106t56 85t84.5 56t105.5 20q55 0 101 -19t79 -52.5t51.5 -80.5t18.5 -102q0 -59 -20 -109.5t-55.5 -87.5t-83.5 -58t-103 -21zM304 57q48 0 80 40.5t32 112.5q0 52 -12 95.5t-32.5 74.5t-47 48t-55.5 17 q-48 0 -80 -39.5t-32 -111.5q0 -53 12 -96.5t32 -75t47 -48.5t56 -17zM142 657q0 22 17 38.5t40 16.5t39 -16t16 -39q0 -24 -15.5 -40.5t-39.5 -16.5q-23 0 -40 17t-17 40zM317 657q0 22 17 38.5t40 16.5t39.5 -16t16.5 -39q0 -24 -16 -40.5t-40 -16.5q-23 0 -40 17t-17 40z " />
<glyph unicode="&#xf7;" horiz-adv-x="833" d="M350 483q0 28 20 48t47 20q28 0 47.5 -20t19.5 -48q0 -27 -19 -46.5t-48 -19.5t-48 19t-19 47zM124 339h585v-81h-585v81zM350 112q0 28 20 47.5t47 19.5q28 0 47.5 -19.5t19.5 -47.5q0 -27 -19 -46.5t-48 -19.5t-48 19t-19 47z" />
<glyph unicode="&#xf8;" horiz-adv-x="572" d="M110 51q-82 84 -82 192q0 60 20 110.5t56 86.5t84.5 56t105.5 20q67 0 129 -32l48 65q12 16 25 16q10 0 17 -7t7 -15q0 -10 -10 -23l-46 -65q39 -35 59.5 -86t20.5 -111q0 -56 -19.5 -105t-55.5 -87q-77 -80 -188 -80q-72 0 -132 36l-58 -79q-12 -16 -26 -16 q-10 0 -16.5 6.5t-6.5 16.5t9 22zM360 394q-38 51 -91 51q-48 0 -80 -39.5t-32 -111.5q0 -76 29 -138zM212 109q39 -52 92 -52q48 0 80 40.5t32 112.5q0 75 -29 139z" />
<glyph unicode="&#xf9;" horiz-adv-x="606" d="M80 344q0 36 -4 50t-26 22t-35.5 11t-13.5 21q0 16 13.5 24t42.5 18q42 14 74 20t49 6q26 0 26 -43q0 -10 -3 -62t-3 -148q0 -45 4 -79.5t14.5 -57.5t29 -34.5t47.5 -11.5q64 0 86.5 56.5t22.5 170.5v39q0 35 -4.5 48.5t-24.5 21.5q-22 8 -35.5 11t-13.5 21q0 16 14 24 t42 18q44 15 75.5 20.5t45.5 5.5q17 0 22.5 -10t5.5 -33q0 -14 -3.5 -73.5t-3.5 -164.5q0 -44 0.5 -73.5t3.5 -46.5q3 -16 9.5 -21t20.5 -10q17 -6 27.5 -10.5t10.5 -19.5q0 -12 -10 -20.5t-30 -16.5q-48 -19 -81 -25.5t-45 -6.5q-28 0 -28 32v36q0 3 -3 3q-6 0 -11.5 -6 t-13.5 -14q-48 -49 -123 -49q-40 0 -73 14.5t-55 40.5q-17 20 -25.5 43t-13 50t-5 58.5t-0.5 68.5q0 17 0.5 34.5t0.5 37.5v10zM171 653q-14 6 -23 11.5t-9 17.5q0 9 4 19.5t10 19.5t14 15t16 6q7 0 13 -2.5t14 -7.5l173 -105q14 -9 14 -16q0 -14 -11 -29t-19 -15 q-5 0 -14 4z" />
<glyph unicode="&#xfa;" horiz-adv-x="606" d="M80 344q0 36 -4 50t-26 22t-35.5 11t-13.5 21q0 16 13.5 24t42.5 18q42 14 74 20t49 6q26 0 26 -43q0 -10 -3 -62t-3 -148q0 -45 4 -79.5t14.5 -57.5t29 -34.5t47.5 -11.5q64 0 86.5 56.5t22.5 170.5v39q0 35 -4.5 48.5t-24.5 21.5q-22 8 -35.5 11t-13.5 21q0 16 14 24 t42 18q44 15 75.5 20.5t45.5 5.5q17 0 22.5 -10t5.5 -33q0 -14 -3.5 -73.5t-3.5 -164.5q0 -44 0.5 -73.5t3.5 -46.5q3 -16 9.5 -21t20.5 -10q17 -6 27.5 -10.5t10.5 -19.5q0 -12 -10 -20.5t-30 -16.5q-48 -19 -81 -25.5t-45 -6.5q-28 0 -28 32v36q0 3 -3 3q-6 0 -11.5 -6 t-13.5 -14q-48 -49 -123 -49q-40 0 -73 14.5t-55 40.5q-17 20 -25.5 43t-13 50t-5 58.5t-0.5 68.5q0 17 0.5 34.5t0.5 37.5v10zM398 732q8 5 14 7.5t13 2.5q8 0 16 -6t14 -15t10 -19.5t4 -19.5q0 -12 -9 -17.5t-23 -11.5l-182 -82q-9 -4 -14 -4q-8 0 -19 15t-11 29 q0 7 14 16z" />
<glyph unicode="&#xfb;" horiz-adv-x="606" d="M80 344q0 36 -4 50t-26 22t-35.5 11t-13.5 21q0 16 13.5 24t42.5 18q42 14 74 20t49 6q26 0 26 -43q0 -10 -3 -62t-3 -148q0 -45 4 -79.5t14.5 -57.5t29 -34.5t47.5 -11.5q64 0 86.5 56.5t22.5 170.5v39q0 35 -4.5 48.5t-24.5 21.5q-22 8 -35.5 11t-13.5 21q0 16 14 24 t42 18q44 15 75.5 20.5t45.5 5.5q17 0 22.5 -10t5.5 -33q0 -14 -3.5 -73.5t-3.5 -164.5q0 -44 0.5 -73.5t3.5 -46.5q3 -16 9.5 -21t20.5 -10q17 -6 27.5 -10.5t10.5 -19.5q0 -12 -10 -20.5t-30 -16.5q-48 -19 -81 -25.5t-45 -6.5q-28 0 -28 32v36q0 3 -3 3q-6 0 -11.5 -6 t-13.5 -14q-48 -49 -123 -49q-40 0 -73 14.5t-55 40.5q-17 20 -25.5 43t-13 50t-5 58.5t-0.5 68.5q0 17 0.5 34.5t0.5 37.5v10zM174 570q-22 0 -22 11q0 5 4 11l11 18l74 109q12 18 24 23t38 5t38 -5t24 -23l74 -109l11 -18q4 -6 4 -11q0 -11 -22 -11h-30q-11 0 -18 4 t-15 14l-66 87l-66 -87q-8 -10 -15 -14t-18 -4h-30z" />
<glyph unicode="&#xfc;" horiz-adv-x="606" d="M80 344q0 36 -4 50t-26 22t-35.5 11t-13.5 21q0 16 13.5 24t42.5 18q42 14 74 20t49 6q26 0 26 -43q0 -10 -3 -62t-3 -148q0 -45 4 -79.5t14.5 -57.5t29 -34.5t47.5 -11.5q64 0 86.5 56.5t22.5 170.5v39q0 35 -4.5 48.5t-24.5 21.5q-22 8 -35.5 11t-13.5 21q0 16 14 24 t42 18q44 15 75.5 20.5t45.5 5.5q17 0 22.5 -10t5.5 -33q0 -14 -3.5 -73.5t-3.5 -164.5q0 -44 0.5 -73.5t3.5 -46.5q3 -16 9.5 -21t20.5 -10q17 -6 27.5 -10.5t10.5 -19.5q0 -12 -10 -20.5t-30 -16.5q-48 -19 -81 -25.5t-45 -6.5q-28 0 -28 32v36q0 3 -3 3q-6 0 -11.5 -6 t-13.5 -14q-48 -49 -123 -49q-40 0 -73 14.5t-55 40.5q-17 20 -25.5 43t-13 50t-5 58.5t-0.5 68.5q0 17 0.5 34.5t0.5 37.5v10zM159 657q0 22 17 38.5t40 16.5t39 -16t16 -39q0 -24 -15.5 -40.5t-39.5 -16.5q-23 0 -40 17t-17 40zM334 657q0 22 17 38.5t40 16.5t39.5 -16 t16.5 -39q0 -24 -16 -40.5t-40 -16.5q-23 0 -40 17t-17 40z" />
<glyph unicode="&#xfd;" horiz-adv-x="509" d="M350 131q-33 -83 -61.5 -146.5t-58.5 -106t-65 -64.5t-81 -22q-38 0 -62 21t-24 53q0 26 18 44t43 18q26 0 38 -15q13 -15 19.5 -27t17.5 -12q12 0 25.5 10t25.5 26t20 36.5t8 42.5q0 35 -12.5 67.5t-28.5 68.5l-94 205q-32 70 -34 73q-7 14 -17 20t-22 11 q-15 6 -22.5 12.5t-7.5 19.5q0 25 31 32.5t97 7.5q63 0 93.5 -6.5t30.5 -30.5q0 -18 -12 -25q-15 -8 -26.5 -11.5t-11.5 -13.5q0 -12 13 -46t38 -94t40 -90t23 -30q9 0 50 104q24 62 36.5 99t12.5 51q0 11 -9 18t-19.5 13t-19.5 12.5t-9 16.5q0 20 25.5 26.5t78.5 6.5 q54 0 79 -7t25 -30q0 -10 -5 -15t-12.5 -7.5t-16.5 -4.5t-16 -6q-26 -14 -40 -49l-36 -92zM350 732q8 5 14 7.5t13 2.5q8 0 16 -6t14 -15t10 -19.5t4 -19.5q0 -12 -9 -17.5t-23 -11.5l-182 -82q-9 -4 -14 -4q-8 0 -19 15t-11 29q0 7 14 16z" />
<glyph unicode="&#xfe;" horiz-adv-x="602" d="M197 168q0 -20 1 -35t9 -25q16 -21 46 -36.5t62 -15.5q55 0 89.5 45.5t34.5 128.5q0 45 -10 80.5t-28 60.5t-42 38.5t-51 13.5q-54 0 -82.5 -29t-28.5 -87v-139zM78 348q0 132 -2 202.5t-12 81.5q-6 7 -18 10t-28 8q-12 4 -17.5 8t-5.5 16q0 16 14 24t42 18 q44 15 75.5 20.5t45.5 5.5q17 0 22.5 -10t5.5 -33q0 -50 -4 -102t-4 -106v-36q0 -13 3 -13q2 0 12 8l27 20q29 22 58.5 33t61.5 11q46 0 85.5 -17.5t68.5 -50t45 -78t16 -101.5q0 -62 -18 -113.5t-50.5 -88t-76 -57t-94.5 -20.5q-28 0 -50 6t-38 12.5t-25.5 12.5t-12.5 6 q-12 0 -12 -62q0 -65 13 -78q8 -8 21.5 -11t27.5 -9q15 -7 15 -24q0 -20 -32 -27.5t-100 -7.5q-64 0 -94.5 7t-30.5 31q0 10 5.5 15.5t13 9t15.5 6.5t14 8q12 11 15 66t3 155v244z" />
<glyph unicode="&#xff;" horiz-adv-x="509" d="M350 131q-33 -83 -61.5 -146.5t-58.5 -106t-65 -64.5t-81 -22q-38 0 -62 21t-24 53q0 26 18 44t43 18q26 0 38 -15q13 -15 19.5 -27t17.5 -12q12 0 25.5 10t25.5 26t20 36.5t8 42.5q0 35 -12.5 67.5t-28.5 68.5l-94 205q-32 70 -34 73q-7 14 -17 20t-22 11 q-15 6 -22.5 12.5t-7.5 19.5q0 25 31 32.5t97 7.5q63 0 93.5 -6.5t30.5 -30.5q0 -18 -12 -25q-15 -8 -26.5 -11.5t-11.5 -13.5q0 -12 13 -46t38 -94t40 -90t23 -30q9 0 50 104q24 62 36.5 99t12.5 51q0 11 -9 18t-19.5 13t-19.5 12.5t-9 16.5q0 20 25.5 26.5t78.5 6.5 q54 0 79 -7t25 -30q0 -10 -5 -15t-12.5 -7.5t-16.5 -4.5t-16 -6q-26 -14 -40 -49l-36 -92zM111 657q0 22 17 38.5t40 16.5t39 -16t16 -39q0 -24 -15.5 -40.5t-39.5 -16.5q-23 0 -40 17t-17 40zM286 657q0 22 17 38.5t40 16.5t39.5 -16t16.5 -39q0 -24 -16 -40.5t-40 -16.5 q-23 0 -40 17t-17 40z" />
<glyph unicode="&#x131;" horiz-adv-x="289" d="M87 274q0 62 -2.5 94.5t-15.5 39.5q-9 5 -19 7.5t-18 6t-13 8.5t-5 14q0 12 10.5 21t30.5 17q52 20 87.5 27t43.5 7q15 0 20.5 -10.5t5.5 -32.5v-23q0 -13 -1 -30l-4 -130q-1 -33 -1.5 -65t-0.5 -63q0 -41 3.5 -64t16.5 -30q9 -5 17 -7.5t14 -5.5t10 -8.5t4 -15.5 q0 -22 -28 -29t-88 -7q-67 0 -97.5 6.5t-30.5 32.5q0 17 12.5 21t25.5 11q15 8 19.5 27.5t4.5 52.5q0 16 -0.5 34t-0.5 41v53z" />
<glyph unicode="&#x152;" horiz-adv-x="1106" d="M428 53q50 0 84 15.5t43 37.5q11 26 13 91.5t2 171.5q0 84 -4.5 138.5t-17.5 80.5q-41 83 -158 83q-47 0 -86 -17.5t-66.5 -51t-42.5 -81t-15 -107.5q0 -83 19.5 -149.5t53 -113.5t79 -72.5t96.5 -25.5zM889 75q26 0 46 3t35 10.5t26.5 20t22.5 30.5q7 13 12 26t10 23 t11 16.5t16 6.5q28 0 28 -47q0 -22 -7 -59t-23 -79q-15 -38 -36 -38q-7 0 -25 6t-54 6h-305q-71 0 -127 -9t-102 -9q-130 0 -228 70q-75 54 -115 135.5t-40 184.5q0 66 18 123.5t52 104.5q48 65 123.5 102t165.5 37q55 0 101 -5t84 -5h364q31 0 50 5.5t27 5.5q14 0 22 -12 q5 -8 10 -22t9.5 -29.5t7 -32t2.5 -29.5q0 -47 -32 -47q-18 0 -27.5 17t-26.5 42q-21 32 -90 32h-70q-45 0 -71.5 -4.5t-37.5 -18.5q-16 -19 -16 -141v-41q0 -23 3.5 -29.5t19.5 -6.5h91q40 0 56.5 11.5t21.5 43.5q2 15 4 26.5t5 19.5t9 12t17 4q27 0 33 -36.5t6 -116.5 t-6 -116t-33 -36q-11 0 -17 4t-9 12t-5 19.5t-4 26.5q-5 32 -21.5 43.5t-56.5 11.5h-91q-16 0 -20 -9.5t-4 -34.5q0 -11 0.5 -23.5t0.5 -29.5q0 -57 2 -92.5t9 -51.5q8 -18 35 -24.5t78 -6.5h66z" />
<glyph unicode="&#x153;" horiz-adv-x="903" d="M299 57q47 0 78 40.5t31 112.5q0 52 -12 95.5t-31.5 74.5t-46 48t-54.5 17q-47 0 -78 -39.5t-31 -111.5q0 -53 11.5 -96.5t31.5 -75t46 -48.5t55 -17zM574 258q-13 0 -20.5 -0.5t-11.5 -3.5t-5 -8.5t-1 -15.5q0 -30 11.5 -58t32 -49.5t48 -34.5t60.5 -13q55 0 102 34 q17 12 29.5 23.5t26.5 11.5q11 0 18.5 -7t7.5 -18t-11.5 -28t-34.5 -37q-41 -34 -81 -51t-91 -17q-114 0 -187 87q-77 -87 -191 -87q-53 0 -98.5 19.5t-78.5 54t-52 81.5t-19 102q0 61 20 111t55 86t82.5 56t102.5 20q59 0 107 -21.5t81 -62.5q78 84 194 84q47 0 85 -14.5 t65 -41.5t41.5 -65.5t14.5 -85.5q0 -18 -2.5 -28t-9 -15t-17.5 -6.5t-27 -1.5h-246zM733 316q18 0 24 3.5t6 15.5q0 24 -8 45t-23 36.5t-35.5 25t-45.5 9.5q-24 0 -44.5 -9.5t-35.5 -25t-23 -36.5t-8 -45q0 -12 6.5 -15.5t24.5 -3.5h162z" />
<glyph unicode="&#x178;" horiz-adv-x="655" d="M203 446q-54 90 -88 141t-54 64q-9 6 -19 9t-19 6.5t-15 9.5t-6 17q0 26 35 31t112 5q76 0 111 -5t35 -31q0 -16 -11.5 -22t-31.5 -14t-20 -25q0 -14 32 -64l93 -141q115 165 115 192q0 17 -9.5 24.5t-28.5 15.5q-16 6 -24 13t-8 21q0 26 30 31t96 5t95.5 -5t29.5 -31 q0 -12 -6.5 -18.5t-16.5 -10.5l-22 -10q-12 -5 -22 -13q-45 -34 -194 -292l3 -194q1 -66 14 -76q7 -6 16.5 -9t18 -6.5t14.5 -10t6 -18.5q0 -26 -33 -33t-104 -7t-103.5 7.5t-32.5 32.5q0 12 6 18t14 10t17.5 7t16.5 9q14 11 15.5 76t3.5 190zM184 882q0 22 17 38.5t40 16.5 t39 -16t16 -39q0 -24 -15.5 -40.5t-39.5 -16.5q-23 0 -40 17t-17 40zM359 882q0 22 17 38.5t40 16.5t39.5 -16t16.5 -39q0 -24 -16 -40.5t-40 -16.5q-23 0 -40 17t-17 40z" />
<glyph unicode="&#x2c6;" horiz-adv-x="500" d="M121 570q-22 0 -22 11q0 5 4 11l11 18l74 109q12 18 24 23t38 5t38 -5t24 -23l74 -109l11 -18q4 -6 4 -11q0 -11 -22 -11h-30q-11 0 -18 4t-15 14l-66 87l-66 -87q-8 -10 -15 -14t-18 -4h-30z" />
<glyph unicode="&#x2dc;" horiz-adv-x="500" d="M101 620q0 13 6.5 28.5t18.5 28.5t28.5 22t36.5 9q16 0 32 -4.5t31 -9.5l29 -10q14 -4 27 -4q26 0 34 11q9 12 14.5 21t15.5 9q11 0 17.5 -6.5t6.5 -17.5q0 -13 -7 -28.5t-19 -28.5t-28.5 -22t-35.5 -9q-20 0 -38 4.5t-34 9.5l-29 9q-14 5 -24 5q-14 0 -21.5 -6.5 t-13.5 -14.5l-11 -13q-5 -6 -12 -6q-11 0 -17.5 6t-6.5 17z" />
<glyph unicode="&#x2000;" horiz-adv-x="486" />
<glyph unicode="&#x2001;" horiz-adv-x="972" />
<glyph unicode="&#x2002;" horiz-adv-x="486" />
<glyph unicode="&#x2003;" horiz-adv-x="972" />
<glyph unicode="&#x2004;" horiz-adv-x="324" />
<glyph unicode="&#x2005;" horiz-adv-x="243" />
<glyph unicode="&#x2006;" horiz-adv-x="162" />
<glyph unicode="&#x2007;" horiz-adv-x="162" />
<glyph unicode="&#x2008;" horiz-adv-x="121" />
<glyph unicode="&#x2009;" horiz-adv-x="194" />
<glyph unicode="&#x200a;" horiz-adv-x="54" />
<glyph unicode="&#x2010;" horiz-adv-x="347" d="M44 230q0 20 16 53q8 17 17 20.5t26 3.5q7 0 24 -0.5t46 -0.5q44 0 69 2t32 2q30 0 30 -25q0 -12 -3.5 -26t-10.5 -25.5t-17.5 -19t-23.5 -7.5q-11 0 -24 1t-28 1q-57 0 -88 -2.5t-36 -2.5q-29 0 -29 26z" />
<glyph unicode="&#x2011;" horiz-adv-x="347" d="M44 230q0 20 16 53q8 17 17 20.5t26 3.5q7 0 24 -0.5t46 -0.5q44 0 69 2t32 2q30 0 30 -25q0 -12 -3.5 -26t-10.5 -25.5t-17.5 -19t-23.5 -7.5q-11 0 -24 1t-28 1q-57 0 -88 -2.5t-36 -2.5q-29 0 -29 26z" />
<glyph unicode="&#x2013;" horiz-adv-x="500" d="M0 273q0 21 17 21h465q18 0 18 -22v-30q0 -22 -17 -22h-465q-18 0 -18 22v31z" />
<glyph unicode="&#x2014;" horiz-adv-x="1000" d="M0 273q0 21 17 21h965q18 0 18 -22v-30q0 -22 -17 -22h-965q-18 0 -18 22v31z" />
<glyph unicode="&#x2018;" horiz-adv-x="282" d="M152 434q-33 0 -56 28t-23 73q0 38 16 75t44 81q16 25 27 37.5t21 12.5q16 0 25 -5t9 -11q0 -5 -6 -12.5t-14 -20.5q-22 -34 -31.5 -57.5t-9.5 -31.5q0 -11 5 -14.5t14 -7.5q27 -11 40 -28t13 -44q0 -32 -21 -53.5t-53 -21.5z" />
<glyph unicode="&#x2019;" horiz-adv-x="282" d="M83 450q0 5 6.5 13t14.5 21q22 34 31.5 57t9.5 31q0 11 -5 14.5t-14 7.5q-53 21 -53 73q0 32 21 53t53 21q33 0 56 -28t23 -73q0 -38 -16 -74.5t-44 -80.5q-16 -25 -27 -38t-21 -13q-16 0 -25.5 5t-9.5 11z" />
<glyph unicode="&#x201a;" horiz-adv-x="282" d="M83 -147q0 5 6.5 13t14.5 21q22 34 31.5 57t9.5 31q0 11 -5 14.5t-14 7.5q-53 21 -53 73q0 32 21 53t53 21q33 0 56 -28t23 -73q0 -38 -16 -74.5t-44 -80.5q-16 -25 -27 -38t-21 -13q-16 0 -25.5 5t-9.5 11z" />
<glyph unicode="&#x201c;" horiz-adv-x="505" d="M159 434q-33 0 -56 28t-23 73q0 38 16 75t44 81q16 25 27 37.5t21 12.5q16 0 25.5 -5t9.5 -11q0 -5 -6.5 -12.5t-14.5 -20.5q-22 -34 -31.5 -57.5t-9.5 -31.5q0 -11 5 -14.5t14 -7.5q27 -11 40 -28t13 -44q0 -32 -21 -53.5t-53 -21.5zM368 434q-33 0 -56.5 28t-23.5 73 q0 38 16 75t44 81q16 25 27 37.5t21 12.5q16 0 25.5 -5t9.5 -11q0 -5 -6.5 -12.5t-14.5 -20.5q-22 -34 -31.5 -57.5t-9.5 -31.5q0 -11 5 -14.5t14 -7.5q27 -11 40 -28t13 -44q0 -32 -20.5 -53.5t-52.5 -21.5z" />
<glyph unicode="&#x201d;" horiz-adv-x="505" d="M299 450q0 5 6 12.5t14 20.5q22 34 31.5 57.5t9.5 31.5q0 11 -5 14.5t-14 7.5q-27 11 -40 28t-13 44q0 32 21 53.5t53 21.5q33 0 56 -28t23 -73q0 -38 -16 -75t-44 -81q-16 -25 -27 -37.5t-21 -12.5q-16 0 -25 5t-9 11zM91 450q0 5 6 12.5t14 20.5q22 34 31.5 57.5 t9.5 31.5q0 11 -5 14.5t-14 7.5q-27 11 -40 28t-13 44q0 32 21 53.5t53 21.5q33 0 56 -28t23 -73q0 -38 -16 -75t-44 -81q-16 -25 -27 -37.5t-21 -12.5q-16 0 -25 5t-9 11z" />
<glyph unicode="&#x201e;" horiz-adv-x="505" d="M298 -147q0 5 6.5 13t14.5 21q22 34 31.5 57t9.5 31q0 11 -5 14.5t-14 7.5q-53 21 -53 73q0 32 21 53t53 21q33 0 56 -28t23 -73q0 -38 -16 -74.5t-44 -80.5q-16 -25 -27 -38t-21 -13q-16 0 -25.5 5t-9.5 11zM90 -147q0 5 6.5 13t14.5 21q22 34 31.5 57t9.5 31 q0 11 -5 14.5t-14 7.5q-53 21 -53 73q0 32 20.5 53t52.5 21q33 0 56.5 -28t23.5 -73q0 -38 -16 -74.5t-44 -80.5q-16 -25 -27 -38t-21 -13q-16 0 -25.5 5t-9.5 11z" />
<glyph unicode="&#x2022;" horiz-adv-x="590" d="M294 227q-30 0 -56.5 11.5t-46 31t-30.5 46t-11 56.5t11.5 56t31 45.5t46 31t56.5 11.5t56 -11.5t45.5 -31t31 -45.5t11.5 -56t-11.5 -56t-31 -46t-46 -31.5t-56.5 -11.5z" />
<glyph unicode="&#x2026;" horiz-adv-x="1000" d="M755 65q0 34 23 56.5t56 22.5t56 -22.5t23 -56.5q0 -33 -23 -56t-56 -23t-56 23t-23 56zM421 65q0 34 23 56.5t56 22.5t56 -22.5t23 -56.5q0 -33 -23 -56t-56 -23t-56 23t-23 56zM88 65q0 34 23 56.5t56 22.5t56 -22.5t23 -56.5q0 -33 -23 -56t-56 -23t-56 23t-23 56z " />
<glyph unicode="&#x202f;" horiz-adv-x="194" />
<glyph unicode="&#x2039;" horiz-adv-x="264" d="M130 253q105 -147 105 -178q0 -8 -4.5 -13t-9.5 -5q-18 0 -39 21l-57 60l-72 75q-26 27 -26 40q0 11 12 25l32 34l95 102q34 36 53 36q16 0 16 -18q0 -32 -105 -179z" />
<glyph unicode="&#x203a;" horiz-adv-x="264" d="M133 253q-104 146 -104 178q0 8 4.5 13.5t9.5 5.5q18 0 39 -22l57 -60l72 -75q26 -27 26 -40q0 -11 -13 -24l-32 -34l-95 -102q-34 -36 -53 -36q-15 0 -15 18q0 32 104 178z" />
<glyph unicode="&#x205f;" horiz-adv-x="243" />
<glyph unicode="&#x20ac;" d="M87 292q-1 9 -1 18v17v18q0 9 1 17h-41q-35 0 -35 21q0 22 35 22h47q10 53 32 97t54 76t72.5 50t87.5 18q20 0 35.5 -4t27.5 -8.5t21.5 -8.5t17.5 -4q11 0 20.5 4t19.5 4q23 0 40 -35t17 -88q0 -26 -10 -40t-28 -14q-12 0 -19.5 5.5t-13 14.5t-10.5 20t-12 22 q-20 32 -45.5 46.5t-61.5 14.5q-50 0 -82.5 -38.5t-38.5 -131.5h171q35 0 35 -21q0 -22 -35 -22h-172q0 -36 3 -70h134q35 0 35 -21q0 -22 -35 -22h-129q13 -100 47.5 -146t84.5 -46q32 0 61.5 17t52.5 42q15 17 23 29.5t20 12.5q11 0 18.5 -10.5t7.5 -30.5q0 -19 -4.5 -36 t-11.5 -30t-16 -21t-18 -8q-2 0 -5.5 1t-6.5 1q-5 0 -11 -4l-15 -8q-22 -12 -50 -18.5t-57 -6.5q-54 0 -97.5 18.5t-75.5 53t-52 83t-28 107.5h-45q-35 0 -35 21q0 22 35 22h41z" />
<glyph unicode="&#x2122;" horiz-adv-x="822" d="M165 456l16 2q18 1 18 26v206h-7q-57 0 -64 -75h-14l5 92h219l5 -92h-15q-4 38 -19 56.5t-46 18.5h-5v-206q0 -24 19 -26l15 -2v-14h-127v14zM376 456l16 2q20 2 20 25v182q0 24 -20 26l-16 1v15h97l66 -186l67 186h92v-13l-13 -1q-20 -3 -20 -26v-183q0 -23 20 -26 l13 -2v-14h-120v14l15 2q19 1 19 26v183l-80 -226h-13l-83 229v-186q0 -25 19 -26l17 -2v-14h-96v14z" />
</font>
</defs>
</svg>
